G04 #@! TF.FileFunction,Legend,Top*
%FSLAX46Y46*%
G04 Gerber Fmt 4.6, Leading zero omitted, Abs format (unit mm)*
G04 Created by KiCad (PCBNEW 4.0.2-stable) date Mon 06 Jun 2016 07:54:09 AM CEST*
%MOMM*%
G01*
G04 APERTURE LIST*
%ADD10C,0.050000*%
%ADD11C,0.100000*%
%ADD12C,0.300000*%
%ADD13C,0.381000*%
%ADD14C,0.150000*%
%ADD15C,0.010000*%
G04 APERTURE END LIST*
D10*
D11*
X17695238Y-18385714D02*
X16933333Y-18671429D01*
X17695238Y-18957143D01*
X18600000Y-19052381D02*
X18600000Y-18528571D01*
X18552381Y-18433333D01*
X18457143Y-18385714D01*
X18266666Y-18385714D01*
X18171428Y-18433333D01*
X18600000Y-19004762D02*
X18504762Y-19052381D01*
X18266666Y-19052381D01*
X18171428Y-19004762D01*
X18123809Y-18909524D01*
X18123809Y-18814286D01*
X18171428Y-18719048D01*
X18266666Y-18671429D01*
X18504762Y-18671429D01*
X18600000Y-18623810D01*
X18933333Y-18385714D02*
X19314285Y-18385714D01*
X19076190Y-18052381D02*
X19076190Y-18909524D01*
X19123809Y-19004762D01*
X19219047Y-19052381D01*
X19314285Y-19052381D01*
X19552381Y-19052381D02*
X20076191Y-18385714D01*
X19552381Y-18385714D02*
X20076191Y-19052381D01*
X21076191Y-18576190D02*
X21028572Y-18528571D01*
X20933334Y-18480952D01*
X20838096Y-18480952D01*
X20742858Y-18528571D01*
X20695238Y-18576190D01*
X20647619Y-18671429D01*
X20647619Y-18766667D01*
X20695238Y-18861905D01*
X20742858Y-18909524D01*
X20838096Y-18957143D01*
X20933334Y-18957143D01*
X21028572Y-18909524D01*
X21076191Y-18861905D01*
X21076191Y-18480952D02*
X21076191Y-18861905D01*
X21123810Y-18909524D01*
X21171429Y-18909524D01*
X21266667Y-18861905D01*
X21314286Y-18766667D01*
X21314286Y-18528571D01*
X21219048Y-18385714D01*
X21076191Y-18290476D01*
X20885715Y-18242857D01*
X20695238Y-18290476D01*
X20552381Y-18385714D01*
X20457143Y-18528571D01*
X20409524Y-18719048D01*
X20457143Y-18909524D01*
X20552381Y-19052381D01*
X20695238Y-19147619D01*
X20885715Y-19195238D01*
X21076191Y-19147619D01*
X21219048Y-19052381D01*
X22171429Y-19052381D02*
X22171429Y-18528571D01*
X22123810Y-18433333D01*
X22028572Y-18385714D01*
X21838095Y-18385714D01*
X21742857Y-18433333D01*
X22171429Y-19004762D02*
X22076191Y-19052381D01*
X21838095Y-19052381D01*
X21742857Y-19004762D01*
X21695238Y-18909524D01*
X21695238Y-18814286D01*
X21742857Y-18719048D01*
X21838095Y-18671429D01*
X22076191Y-18671429D01*
X22171429Y-18623810D01*
X22504762Y-18385714D02*
X22885714Y-18385714D01*
X22647619Y-18052381D02*
X22647619Y-18909524D01*
X22695238Y-19004762D01*
X22790476Y-19052381D01*
X22885714Y-19052381D01*
X23123810Y-19052381D02*
X23647620Y-18385714D01*
X23123810Y-18385714D02*
X23647620Y-19052381D01*
X24028572Y-18957143D02*
X24076191Y-19004762D01*
X24028572Y-19052381D01*
X23980953Y-19004762D01*
X24028572Y-18957143D01*
X24028572Y-19052381D01*
X24504762Y-18385714D02*
X24504762Y-19052381D01*
X24504762Y-18480952D02*
X24552381Y-18433333D01*
X24647619Y-18385714D01*
X24790477Y-18385714D01*
X24885715Y-18433333D01*
X24933334Y-18528571D01*
X24933334Y-19052381D01*
X25838096Y-19052381D02*
X25838096Y-18528571D01*
X25790477Y-18433333D01*
X25695239Y-18385714D01*
X25504762Y-18385714D01*
X25409524Y-18433333D01*
X25838096Y-19004762D02*
X25742858Y-19052381D01*
X25504762Y-19052381D01*
X25409524Y-19004762D01*
X25361905Y-18909524D01*
X25361905Y-18814286D01*
X25409524Y-18719048D01*
X25504762Y-18671429D01*
X25742858Y-18671429D01*
X25838096Y-18623810D01*
X26314286Y-19052381D02*
X26314286Y-18385714D01*
X26314286Y-18480952D02*
X26361905Y-18433333D01*
X26457143Y-18385714D01*
X26600001Y-18385714D01*
X26695239Y-18433333D01*
X26742858Y-18528571D01*
X26742858Y-19052381D01*
X26742858Y-18528571D02*
X26790477Y-18433333D01*
X26885715Y-18385714D01*
X27028572Y-18385714D01*
X27123810Y-18433333D01*
X27171429Y-18528571D01*
X27171429Y-19052381D01*
X28028572Y-19004762D02*
X27933334Y-19052381D01*
X27742857Y-19052381D01*
X27647619Y-19004762D01*
X27600000Y-18909524D01*
X27600000Y-18528571D01*
X27647619Y-18433333D01*
X27742857Y-18385714D01*
X27933334Y-18385714D01*
X28028572Y-18433333D01*
X28076191Y-18528571D01*
X28076191Y-18623810D01*
X27600000Y-18719048D01*
X28504762Y-18385714D02*
X29266667Y-18671429D01*
X28504762Y-18957143D01*
X16757143Y-16752381D02*
X16757143Y-17466667D01*
X16709523Y-17609524D01*
X16614285Y-17704762D01*
X16471428Y-17752381D01*
X16376190Y-17752381D01*
X17376190Y-17752381D02*
X17280952Y-17704762D01*
X17233333Y-17657143D01*
X17185714Y-17561905D01*
X17185714Y-17276190D01*
X17233333Y-17180952D01*
X17280952Y-17133333D01*
X17376190Y-17085714D01*
X17519048Y-17085714D01*
X17614286Y-17133333D01*
X17661905Y-17180952D01*
X17709524Y-17276190D01*
X17709524Y-17561905D01*
X17661905Y-17657143D01*
X17614286Y-17704762D01*
X17519048Y-17752381D01*
X17376190Y-17752381D01*
X18090476Y-17704762D02*
X18185714Y-17752381D01*
X18376190Y-17752381D01*
X18471429Y-17704762D01*
X18519048Y-17609524D01*
X18519048Y-17561905D01*
X18471429Y-17466667D01*
X18376190Y-17419048D01*
X18233333Y-17419048D01*
X18138095Y-17371429D01*
X18090476Y-17276190D01*
X18090476Y-17228571D01*
X18138095Y-17133333D01*
X18233333Y-17085714D01*
X18376190Y-17085714D01*
X18471429Y-17133333D01*
X19328572Y-17704762D02*
X19233334Y-17752381D01*
X19042857Y-17752381D01*
X18947619Y-17704762D01*
X18900000Y-17609524D01*
X18900000Y-17228571D01*
X18947619Y-17133333D01*
X19042857Y-17085714D01*
X19233334Y-17085714D01*
X19328572Y-17133333D01*
X19376191Y-17228571D01*
X19376191Y-17323810D01*
X18900000Y-17419048D01*
X19661905Y-17085714D02*
X20042857Y-17085714D01*
X19804762Y-17752381D02*
X19804762Y-16895238D01*
X19852381Y-16800000D01*
X19947619Y-16752381D01*
X20042857Y-16752381D01*
X21661906Y-16800000D02*
X21566668Y-16752381D01*
X21423811Y-16752381D01*
X21280953Y-16800000D01*
X21185715Y-16895238D01*
X21138096Y-16990476D01*
X21090477Y-17180952D01*
X21090477Y-17323810D01*
X21138096Y-17514286D01*
X21185715Y-17609524D01*
X21280953Y-17704762D01*
X21423811Y-17752381D01*
X21519049Y-17752381D01*
X21661906Y-17704762D01*
X21709525Y-17657143D01*
X21709525Y-17323810D01*
X21519049Y-17323810D01*
X22566668Y-17752381D02*
X22566668Y-17228571D01*
X22519049Y-17133333D01*
X22423811Y-17085714D01*
X22233334Y-17085714D01*
X22138096Y-17133333D01*
X22566668Y-17704762D02*
X22471430Y-17752381D01*
X22233334Y-17752381D01*
X22138096Y-17704762D01*
X22090477Y-17609524D01*
X22090477Y-17514286D01*
X22138096Y-17419048D01*
X22233334Y-17371429D01*
X22471430Y-17371429D01*
X22566668Y-17323810D01*
X23042858Y-17085714D02*
X23042858Y-17942857D01*
X22995239Y-18038095D01*
X22900001Y-18085714D01*
X22852382Y-18085714D01*
X23042858Y-16752381D02*
X22995239Y-16800000D01*
X23042858Y-16847619D01*
X23090477Y-16800000D01*
X23042858Y-16752381D01*
X23042858Y-16847619D01*
X23947620Y-17752381D02*
X23947620Y-16752381D01*
X23947620Y-17704762D02*
X23852382Y-17752381D01*
X23661905Y-17752381D01*
X23566667Y-17704762D01*
X23519048Y-17657143D01*
X23471429Y-17561905D01*
X23471429Y-17276190D01*
X23519048Y-17180952D01*
X23566667Y-17133333D01*
X23661905Y-17085714D01*
X23852382Y-17085714D01*
X23947620Y-17133333D01*
X24852382Y-17085714D02*
X24852382Y-17752381D01*
X24423810Y-17085714D02*
X24423810Y-17609524D01*
X24471429Y-17704762D01*
X24566667Y-17752381D01*
X24709525Y-17752381D01*
X24804763Y-17704762D01*
X24852382Y-17657143D01*
X25280953Y-17704762D02*
X25376191Y-17752381D01*
X25566667Y-17752381D01*
X25661906Y-17704762D01*
X25709525Y-17609524D01*
X25709525Y-17561905D01*
X25661906Y-17466667D01*
X25566667Y-17419048D01*
X25423810Y-17419048D01*
X25328572Y-17371429D01*
X25280953Y-17276190D01*
X25280953Y-17228571D01*
X25328572Y-17133333D01*
X25423810Y-17085714D01*
X25566667Y-17085714D01*
X25661906Y-17133333D01*
X26519049Y-17704762D02*
X26423811Y-17752381D01*
X26233334Y-17752381D01*
X26138096Y-17704762D01*
X26090477Y-17609524D01*
X26090477Y-17228571D01*
X26138096Y-17133333D01*
X26233334Y-17085714D01*
X26423811Y-17085714D01*
X26519049Y-17133333D01*
X26566668Y-17228571D01*
X26566668Y-17323810D01*
X26090477Y-17419048D01*
X26995239Y-17752381D02*
X26995239Y-16752381D01*
X27090477Y-17371429D02*
X27376192Y-17752381D01*
X27376192Y-17085714D02*
X26995239Y-17466667D01*
D12*
X14514287Y-14900000D02*
X15228573Y-14900000D01*
X14371430Y-15328571D02*
X14871430Y-13828571D01*
X15371430Y-15328571D01*
X15871430Y-15328571D02*
X15871430Y-13828571D01*
X16228573Y-13828571D01*
X16442858Y-13900000D01*
X16585716Y-14042857D01*
X16657144Y-14185714D01*
X16728573Y-14471429D01*
X16728573Y-14685714D01*
X16657144Y-14971429D01*
X16585716Y-15114286D01*
X16442858Y-15257143D01*
X16228573Y-15328571D01*
X15871430Y-15328571D01*
X17585716Y-14471429D02*
X17442858Y-14400000D01*
X17371430Y-14328571D01*
X17300001Y-14185714D01*
X17300001Y-14114286D01*
X17371430Y-13971429D01*
X17442858Y-13900000D01*
X17585716Y-13828571D01*
X17871430Y-13828571D01*
X18014287Y-13900000D01*
X18085716Y-13971429D01*
X18157144Y-14114286D01*
X18157144Y-14185714D01*
X18085716Y-14328571D01*
X18014287Y-14400000D01*
X17871430Y-14471429D01*
X17585716Y-14471429D01*
X17442858Y-14542857D01*
X17371430Y-14614286D01*
X17300001Y-14757143D01*
X17300001Y-15042857D01*
X17371430Y-15185714D01*
X17442858Y-15257143D01*
X17585716Y-15328571D01*
X17871430Y-15328571D01*
X18014287Y-15257143D01*
X18085716Y-15185714D01*
X18157144Y-15042857D01*
X18157144Y-14757143D01*
X18085716Y-14614286D01*
X18014287Y-14542857D01*
X17871430Y-14471429D01*
X18657144Y-13828571D02*
X19585715Y-13828571D01*
X19085715Y-14400000D01*
X19300001Y-14400000D01*
X19442858Y-14471429D01*
X19514287Y-14542857D01*
X19585715Y-14685714D01*
X19585715Y-15042857D01*
X19514287Y-15185714D01*
X19442858Y-15257143D01*
X19300001Y-15328571D01*
X18871429Y-15328571D01*
X18728572Y-15257143D01*
X18657144Y-15185714D01*
X20085715Y-13828571D02*
X21014286Y-13828571D01*
X20514286Y-14400000D01*
X20728572Y-14400000D01*
X20871429Y-14471429D01*
X20942858Y-14542857D01*
X21014286Y-14685714D01*
X21014286Y-15042857D01*
X20942858Y-15185714D01*
X20871429Y-15257143D01*
X20728572Y-15328571D01*
X20300000Y-15328571D01*
X20157143Y-15257143D01*
X20085715Y-15185714D01*
X21871429Y-14471429D02*
X21728571Y-14400000D01*
X21657143Y-14328571D01*
X21585714Y-14185714D01*
X21585714Y-14114286D01*
X21657143Y-13971429D01*
X21728571Y-13900000D01*
X21871429Y-13828571D01*
X22157143Y-13828571D01*
X22300000Y-13900000D01*
X22371429Y-13971429D01*
X22442857Y-14114286D01*
X22442857Y-14185714D01*
X22371429Y-14328571D01*
X22300000Y-14400000D01*
X22157143Y-14471429D01*
X21871429Y-14471429D01*
X21728571Y-14542857D01*
X21657143Y-14614286D01*
X21585714Y-14757143D01*
X21585714Y-15042857D01*
X21657143Y-15185714D01*
X21728571Y-15257143D01*
X21871429Y-15328571D01*
X22157143Y-15328571D01*
X22300000Y-15257143D01*
X22371429Y-15185714D01*
X22442857Y-15042857D01*
X22442857Y-14757143D01*
X22371429Y-14614286D01*
X22300000Y-14542857D01*
X22157143Y-14471429D01*
X24728571Y-14542857D02*
X24942857Y-14614286D01*
X25014285Y-14685714D01*
X25085714Y-14828571D01*
X25085714Y-15042857D01*
X25014285Y-15185714D01*
X24942857Y-15257143D01*
X24799999Y-15328571D01*
X24228571Y-15328571D01*
X24228571Y-13828571D01*
X24728571Y-13828571D01*
X24871428Y-13900000D01*
X24942857Y-13971429D01*
X25014285Y-14114286D01*
X25014285Y-14257143D01*
X24942857Y-14400000D01*
X24871428Y-14471429D01*
X24728571Y-14542857D01*
X24228571Y-14542857D01*
X25942857Y-15328571D02*
X25799999Y-15257143D01*
X25728571Y-15185714D01*
X25657142Y-15042857D01*
X25657142Y-14614286D01*
X25728571Y-14471429D01*
X25799999Y-14400000D01*
X25942857Y-14328571D01*
X26157142Y-14328571D01*
X26299999Y-14400000D01*
X26371428Y-14471429D01*
X26442857Y-14614286D01*
X26442857Y-15042857D01*
X26371428Y-15185714D01*
X26299999Y-15257143D01*
X26157142Y-15328571D01*
X25942857Y-15328571D01*
X27728571Y-15328571D02*
X27728571Y-14542857D01*
X27657142Y-14400000D01*
X27514285Y-14328571D01*
X27228571Y-14328571D01*
X27085714Y-14400000D01*
X27728571Y-15257143D02*
X27585714Y-15328571D01*
X27228571Y-15328571D01*
X27085714Y-15257143D01*
X27014285Y-15114286D01*
X27014285Y-14971429D01*
X27085714Y-14828571D01*
X27228571Y-14757143D01*
X27585714Y-14757143D01*
X27728571Y-14685714D01*
X28442857Y-15328571D02*
X28442857Y-14328571D01*
X28442857Y-14614286D02*
X28514285Y-14471429D01*
X28585714Y-14400000D01*
X28728571Y-14328571D01*
X28871428Y-14328571D01*
X30014285Y-15328571D02*
X30014285Y-13828571D01*
X30014285Y-15257143D02*
X29871428Y-15328571D01*
X29585714Y-15328571D01*
X29442856Y-15257143D01*
X29371428Y-15185714D01*
X29299999Y-15042857D01*
X29299999Y-14614286D01*
X29371428Y-14471429D01*
X29442856Y-14400000D01*
X29585714Y-14328571D01*
X29871428Y-14328571D01*
X30014285Y-14400000D01*
D13*
X52300300Y-19100960D02*
X52300300Y-26599040D01*
X51551000Y-26599040D02*
X51551000Y-19100960D01*
X50799160Y-19100960D02*
X50799160Y-26599040D01*
X49300560Y-26599040D02*
X49300560Y-19100960D01*
X50049860Y-19100960D02*
X50049860Y-26599040D01*
X53049600Y-26350120D02*
X53049600Y-19349880D01*
X53049600Y-19349880D02*
X52549220Y-19349880D01*
X46549740Y-26850500D02*
X46049360Y-26850500D01*
X46549740Y-18849500D02*
X46049360Y-18849500D01*
X46300820Y-18849500D02*
X46300820Y-26850500D01*
X46549740Y-26850500D02*
X46549740Y-18849500D01*
X46049360Y-20851020D02*
X42048860Y-20851020D01*
X42048860Y-20851020D02*
X42048860Y-19850260D01*
X42048860Y-19850260D02*
X46049360Y-19850260D01*
X46049360Y-23350380D02*
X42048860Y-23350380D01*
X42048860Y-23350380D02*
X42048860Y-22349620D01*
X42048860Y-22349620D02*
X46049360Y-22349620D01*
X46049360Y-25849740D02*
X42048860Y-25849740D01*
X42048860Y-25849740D02*
X42048860Y-24848980D01*
X42048860Y-24848980D02*
X46049360Y-24848980D01*
X53049600Y-26350120D02*
X46049360Y-26350120D01*
X46049360Y-26850500D02*
X46049360Y-18849500D01*
X46049360Y-19349880D02*
X52549220Y-19349880D01*
D14*
X30450000Y-25150000D02*
X30450000Y-25675000D01*
X27150000Y-28450000D02*
X27150000Y-27925000D01*
X30450000Y-28450000D02*
X30450000Y-27925000D01*
X27150000Y-25150000D02*
X27675000Y-25150000D01*
X27150000Y-28450000D02*
X27675000Y-28450000D01*
X30450000Y-28450000D02*
X29925000Y-28450000D01*
X30450000Y-25150000D02*
X29925000Y-25150000D01*
X30475000Y-24075000D02*
X30475000Y-23825000D01*
X27125000Y-24075000D02*
X27125000Y-23825000D01*
X27125000Y-20725000D02*
X27125000Y-20975000D01*
X30475000Y-20725000D02*
X30475000Y-20975000D01*
X30475000Y-24075000D02*
X27125000Y-24075000D01*
X30475000Y-20725000D02*
X27125000Y-20725000D01*
X30475000Y-23825000D02*
X31725000Y-23825000D01*
X24474000Y-32222000D02*
X34126000Y-32222000D01*
X34126021Y-47800000D02*
X24473979Y-47800000D01*
X24474000Y-47785848D02*
X24474000Y-32222000D01*
X34126000Y-32222000D02*
X34126000Y-47779500D01*
X19975000Y-21550000D02*
X19975000Y-22050000D01*
X21025000Y-22050000D02*
X21025000Y-21550000D01*
X32275000Y-22650000D02*
X32275000Y-23150000D01*
X33325000Y-23150000D02*
X33325000Y-22650000D01*
X32275000Y-20650000D02*
X32275000Y-21150000D01*
X33325000Y-21150000D02*
X33325000Y-20650000D01*
X32225000Y-26350000D02*
X32225000Y-25850000D01*
X31175000Y-25850000D02*
X31175000Y-26350000D01*
X33525000Y-26850000D02*
X33525000Y-26350000D01*
X32475000Y-26350000D02*
X32475000Y-26850000D01*
X31275000Y-30750000D02*
X31275000Y-31250000D01*
X32325000Y-31250000D02*
X32325000Y-30750000D01*
X27325000Y-31250000D02*
X27325000Y-30750000D01*
X26275000Y-30750000D02*
X26275000Y-31250000D01*
D13*
X6399700Y-26399040D02*
X6399700Y-18900960D01*
X7149000Y-18900960D02*
X7149000Y-26399040D01*
X7900840Y-26399040D02*
X7900840Y-18900960D01*
X9399440Y-18900960D02*
X9399440Y-26399040D01*
X8650140Y-26399040D02*
X8650140Y-18900960D01*
X5650400Y-19149880D02*
X5650400Y-26150120D01*
X5650400Y-26150120D02*
X6150780Y-26150120D01*
X12150260Y-18649500D02*
X12650640Y-18649500D01*
X12150260Y-26650500D02*
X12650640Y-26650500D01*
X12399180Y-26650500D02*
X12399180Y-18649500D01*
X12150260Y-18649500D02*
X12150260Y-26650500D01*
X12650640Y-24648980D02*
X16651140Y-24648980D01*
X16651140Y-24648980D02*
X16651140Y-25649740D01*
X16651140Y-25649740D02*
X12650640Y-25649740D01*
X12650640Y-22149620D02*
X16651140Y-22149620D01*
X16651140Y-22149620D02*
X16651140Y-23150380D01*
X16651140Y-23150380D02*
X12650640Y-23150380D01*
X12650640Y-19650260D02*
X16651140Y-19650260D01*
X16651140Y-19650260D02*
X16651140Y-20651020D01*
X16651140Y-20651020D02*
X12650640Y-20651020D01*
X5650400Y-19149880D02*
X12650640Y-19149880D01*
X12650640Y-18649500D02*
X12650640Y-26650500D01*
X12650640Y-26150120D02*
X6150780Y-26150120D01*
D14*
X18650000Y-23125000D02*
X19150000Y-23125000D01*
X19150000Y-22075000D02*
X18650000Y-22075000D01*
X30775000Y-19250000D02*
X30775000Y-19750000D01*
X31825000Y-19750000D02*
X31825000Y-19250000D01*
X24000000Y-24025000D02*
X24500000Y-24025000D01*
X24500000Y-22975000D02*
X24000000Y-22975000D01*
X23975000Y-27750000D02*
X23975000Y-28250000D01*
X25025000Y-28250000D02*
X25025000Y-27750000D01*
X25375000Y-27750000D02*
X25375000Y-28250000D01*
X26425000Y-28250000D02*
X26425000Y-27750000D01*
X30050000Y-29725000D02*
X29550000Y-29725000D01*
X29550000Y-30775000D02*
X30050000Y-30775000D01*
X24350000Y-25325000D02*
X24850000Y-25325000D01*
X24850000Y-24275000D02*
X24350000Y-24275000D01*
X29375000Y-19250000D02*
X29375000Y-19750000D01*
X30425000Y-19750000D02*
X30425000Y-19250000D01*
X22950000Y-29325000D02*
X24150000Y-29325000D01*
X24150000Y-31075000D02*
X22950000Y-31075000D01*
D15*
G36*
X35620927Y-12726688D02*
X36149605Y-12728072D01*
X36762816Y-12730374D01*
X36845729Y-12730720D01*
X39955818Y-12743818D01*
X40225689Y-12852664D01*
X40587550Y-13046317D01*
X40910111Y-13312949D01*
X41176872Y-13636035D01*
X41371332Y-13999048D01*
X41372032Y-14000781D01*
X41479818Y-14267818D01*
X41479818Y-18978364D01*
X41372032Y-19245401D01*
X41177942Y-19608560D01*
X40911475Y-19931867D01*
X40589132Y-20198796D01*
X40227414Y-20392821D01*
X40225689Y-20393518D01*
X39955818Y-20502364D01*
X36815454Y-20511648D01*
X36183654Y-20513262D01*
X35637504Y-20514023D01*
X35170293Y-20513813D01*
X34775310Y-20512515D01*
X34445845Y-20510011D01*
X34175188Y-20506184D01*
X33956627Y-20500917D01*
X33783452Y-20494090D01*
X33648952Y-20485588D01*
X33546416Y-20475292D01*
X33469134Y-20463085D01*
X33422210Y-20452199D01*
X33029601Y-20299303D01*
X32683308Y-20071290D01*
X32392748Y-19777717D01*
X32167334Y-19428140D01*
X32016479Y-19032112D01*
X32014065Y-19022931D01*
X31994877Y-18899959D01*
X31978376Y-18696742D01*
X31964561Y-18425362D01*
X31953433Y-18097900D01*
X31944991Y-17726435D01*
X31939237Y-17323048D01*
X31936168Y-16899821D01*
X31935785Y-16468833D01*
X31938089Y-16042165D01*
X31943079Y-15631898D01*
X31950755Y-15250113D01*
X31961119Y-14908889D01*
X31974168Y-14620308D01*
X31989905Y-14396450D01*
X32000233Y-14314000D01*
X32151091Y-14314000D01*
X32151091Y-16623091D01*
X32151150Y-17143930D01*
X32151560Y-17580814D01*
X32152672Y-17942151D01*
X32154835Y-18236351D01*
X32158399Y-18471822D01*
X32163715Y-18656973D01*
X32171132Y-18800212D01*
X32181001Y-18909948D01*
X32193672Y-18994589D01*
X32209494Y-19062545D01*
X32228817Y-19122223D01*
X32251993Y-19182034D01*
X32258260Y-19197573D01*
X32384119Y-19432506D01*
X32566138Y-19676278D01*
X32777808Y-19898122D01*
X32992624Y-20067274D01*
X33024267Y-20086662D01*
X33106517Y-20134123D01*
X33184508Y-20175151D01*
X33265288Y-20210193D01*
X33355902Y-20239695D01*
X33463401Y-20264104D01*
X33594830Y-20283866D01*
X33757238Y-20299428D01*
X33957672Y-20311237D01*
X34203181Y-20319739D01*
X34500810Y-20325381D01*
X34857609Y-20328610D01*
X35280625Y-20329872D01*
X35776905Y-20329614D01*
X36353498Y-20328283D01*
X36815454Y-20326931D01*
X39909636Y-20317637D01*
X40186727Y-20206405D01*
X40447230Y-20064083D01*
X40705660Y-19856965D01*
X40937271Y-19609799D01*
X41117319Y-19347326D01*
X41183860Y-19209273D01*
X41209671Y-19143675D01*
X41231201Y-19081049D01*
X41248901Y-19012623D01*
X41263222Y-18929623D01*
X41274617Y-18823280D01*
X41283536Y-18684820D01*
X41290432Y-18505471D01*
X41295755Y-18276462D01*
X41299958Y-17989020D01*
X41303492Y-17634375D01*
X41306809Y-17203752D01*
X41309861Y-16761637D01*
X41313167Y-16216585D01*
X41314634Y-15755249D01*
X41313625Y-15368986D01*
X41309506Y-15049156D01*
X41301638Y-14787117D01*
X41289387Y-14574229D01*
X41272117Y-14401850D01*
X41249190Y-14261340D01*
X41219971Y-14144058D01*
X41183824Y-14041361D01*
X41140112Y-13944611D01*
X41096247Y-13860057D01*
X40937771Y-13630853D01*
X40719883Y-13402979D01*
X40471999Y-13202787D01*
X40223535Y-13056630D01*
X40176779Y-13036370D01*
X39909636Y-12928546D01*
X33536545Y-12928546D01*
X33259454Y-13039777D01*
X32998951Y-13182100D01*
X32740522Y-13389217D01*
X32508911Y-13636384D01*
X32328862Y-13898856D01*
X32262322Y-14036909D01*
X32151091Y-14314000D01*
X32000233Y-14314000D01*
X32008327Y-14249395D01*
X32014065Y-14223251D01*
X32163986Y-13823074D01*
X32388348Y-13472097D01*
X32678806Y-13178633D01*
X33027015Y-12950997D01*
X33424630Y-12797503D01*
X33452504Y-12790158D01*
X33518588Y-12775657D01*
X33599617Y-12763294D01*
X33702550Y-12752945D01*
X33834346Y-12744490D01*
X34001964Y-12737806D01*
X34212361Y-12732771D01*
X34472498Y-12729264D01*
X34789332Y-12727162D01*
X35169822Y-12726344D01*
X35620927Y-12726688D01*
X35620927Y-12726688D01*
G37*
X35620927Y-12726688D02*
X36149605Y-12728072D01*
X36762816Y-12730374D01*
X36845729Y-12730720D01*
X39955818Y-12743818D01*
X40225689Y-12852664D01*
X40587550Y-13046317D01*
X40910111Y-13312949D01*
X41176872Y-13636035D01*
X41371332Y-13999048D01*
X41372032Y-14000781D01*
X41479818Y-14267818D01*
X41479818Y-18978364D01*
X41372032Y-19245401D01*
X41177942Y-19608560D01*
X40911475Y-19931867D01*
X40589132Y-20198796D01*
X40227414Y-20392821D01*
X40225689Y-20393518D01*
X39955818Y-20502364D01*
X36815454Y-20511648D01*
X36183654Y-20513262D01*
X35637504Y-20514023D01*
X35170293Y-20513813D01*
X34775310Y-20512515D01*
X34445845Y-20510011D01*
X34175188Y-20506184D01*
X33956627Y-20500917D01*
X33783452Y-20494090D01*
X33648952Y-20485588D01*
X33546416Y-20475292D01*
X33469134Y-20463085D01*
X33422210Y-20452199D01*
X33029601Y-20299303D01*
X32683308Y-20071290D01*
X32392748Y-19777717D01*
X32167334Y-19428140D01*
X32016479Y-19032112D01*
X32014065Y-19022931D01*
X31994877Y-18899959D01*
X31978376Y-18696742D01*
X31964561Y-18425362D01*
X31953433Y-18097900D01*
X31944991Y-17726435D01*
X31939237Y-17323048D01*
X31936168Y-16899821D01*
X31935785Y-16468833D01*
X31938089Y-16042165D01*
X31943079Y-15631898D01*
X31950755Y-15250113D01*
X31961119Y-14908889D01*
X31974168Y-14620308D01*
X31989905Y-14396450D01*
X32000233Y-14314000D01*
X32151091Y-14314000D01*
X32151091Y-16623091D01*
X32151150Y-17143930D01*
X32151560Y-17580814D01*
X32152672Y-17942151D01*
X32154835Y-18236351D01*
X32158399Y-18471822D01*
X32163715Y-18656973D01*
X32171132Y-18800212D01*
X32181001Y-18909948D01*
X32193672Y-18994589D01*
X32209494Y-19062545D01*
X32228817Y-19122223D01*
X32251993Y-19182034D01*
X32258260Y-19197573D01*
X32384119Y-19432506D01*
X32566138Y-19676278D01*
X32777808Y-19898122D01*
X32992624Y-20067274D01*
X33024267Y-20086662D01*
X33106517Y-20134123D01*
X33184508Y-20175151D01*
X33265288Y-20210193D01*
X33355902Y-20239695D01*
X33463401Y-20264104D01*
X33594830Y-20283866D01*
X33757238Y-20299428D01*
X33957672Y-20311237D01*
X34203181Y-20319739D01*
X34500810Y-20325381D01*
X34857609Y-20328610D01*
X35280625Y-20329872D01*
X35776905Y-20329614D01*
X36353498Y-20328283D01*
X36815454Y-20326931D01*
X39909636Y-20317637D01*
X40186727Y-20206405D01*
X40447230Y-20064083D01*
X40705660Y-19856965D01*
X40937271Y-19609799D01*
X41117319Y-19347326D01*
X41183860Y-19209273D01*
X41209671Y-19143675D01*
X41231201Y-19081049D01*
X41248901Y-19012623D01*
X41263222Y-18929623D01*
X41274617Y-18823280D01*
X41283536Y-18684820D01*
X41290432Y-18505471D01*
X41295755Y-18276462D01*
X41299958Y-17989020D01*
X41303492Y-17634375D01*
X41306809Y-17203752D01*
X41309861Y-16761637D01*
X41313167Y-16216585D01*
X41314634Y-15755249D01*
X41313625Y-15368986D01*
X41309506Y-15049156D01*
X41301638Y-14787117D01*
X41289387Y-14574229D01*
X41272117Y-14401850D01*
X41249190Y-14261340D01*
X41219971Y-14144058D01*
X41183824Y-14041361D01*
X41140112Y-13944611D01*
X41096247Y-13860057D01*
X40937771Y-13630853D01*
X40719883Y-13402979D01*
X40471999Y-13202787D01*
X40223535Y-13056630D01*
X40176779Y-13036370D01*
X39909636Y-12928546D01*
X33536545Y-12928546D01*
X33259454Y-13039777D01*
X32998951Y-13182100D01*
X32740522Y-13389217D01*
X32508911Y-13636384D01*
X32328862Y-13898856D01*
X32262322Y-14036909D01*
X32151091Y-14314000D01*
X32000233Y-14314000D01*
X32008327Y-14249395D01*
X32014065Y-14223251D01*
X32163986Y-13823074D01*
X32388348Y-13472097D01*
X32678806Y-13178633D01*
X33027015Y-12950997D01*
X33424630Y-12797503D01*
X33452504Y-12790158D01*
X33518588Y-12775657D01*
X33599617Y-12763294D01*
X33702550Y-12752945D01*
X33834346Y-12744490D01*
X34001964Y-12737806D01*
X34212361Y-12732771D01*
X34472498Y-12729264D01*
X34789332Y-12727162D01*
X35169822Y-12726344D01*
X35620927Y-12726688D01*
G36*
X33949720Y-19663643D02*
X33955172Y-19689343D01*
X33967467Y-19738253D01*
X33998629Y-19757166D01*
X34065116Y-19802844D01*
X34053617Y-19842310D01*
X33977509Y-19855774D01*
X33935737Y-19850220D01*
X33819289Y-19855453D01*
X33768484Y-19917712D01*
X33794410Y-20019493D01*
X33811811Y-20045859D01*
X33869800Y-20101849D01*
X33930670Y-20080863D01*
X33948300Y-20066858D01*
X34023397Y-20028985D01*
X34062338Y-20049104D01*
X34046444Y-20106746D01*
X33982592Y-20142117D01*
X33878695Y-20156000D01*
X33761970Y-20131417D01*
X33703586Y-20053814D01*
X33682823Y-19918450D01*
X33715261Y-19805607D01*
X33773597Y-19754707D01*
X33815345Y-19711013D01*
X33810645Y-19689343D01*
X33827677Y-19657018D01*
X33882909Y-19648000D01*
X33949720Y-19663643D01*
X33949720Y-19663643D01*
G37*
X33949720Y-19663643D02*
X33955172Y-19689343D01*
X33967467Y-19738253D01*
X33998629Y-19757166D01*
X34065116Y-19802844D01*
X34053617Y-19842310D01*
X33977509Y-19855774D01*
X33935737Y-19850220D01*
X33819289Y-19855453D01*
X33768484Y-19917712D01*
X33794410Y-20019493D01*
X33811811Y-20045859D01*
X33869800Y-20101849D01*
X33930670Y-20080863D01*
X33948300Y-20066858D01*
X34023397Y-20028985D01*
X34062338Y-20049104D01*
X34046444Y-20106746D01*
X33982592Y-20142117D01*
X33878695Y-20156000D01*
X33761970Y-20131417D01*
X33703586Y-20053814D01*
X33682823Y-19918450D01*
X33715261Y-19805607D01*
X33773597Y-19754707D01*
X33815345Y-19711013D01*
X33810645Y-19689343D01*
X33827677Y-19657018D01*
X33882909Y-19648000D01*
X33949720Y-19663643D01*
G36*
X34334432Y-19778712D02*
X34388036Y-19872557D01*
X34394571Y-19887751D01*
X34455621Y-20035138D01*
X34515761Y-19887751D01*
X34574569Y-19772995D01*
X34614787Y-19742272D01*
X34627214Y-19787729D01*
X34602653Y-19901514D01*
X34586554Y-19948182D01*
X34517486Y-20094441D01*
X34452928Y-20148683D01*
X34393099Y-20110832D01*
X34353968Y-20029000D01*
X34308154Y-19905759D01*
X34275237Y-19821182D01*
X34267816Y-19755166D01*
X34288001Y-19740364D01*
X34334432Y-19778712D01*
X34334432Y-19778712D01*
G37*
X34334432Y-19778712D02*
X34388036Y-19872557D01*
X34394571Y-19887751D01*
X34455621Y-20035138D01*
X34515761Y-19887751D01*
X34574569Y-19772995D01*
X34614787Y-19742272D01*
X34627214Y-19787729D01*
X34602653Y-19901514D01*
X34586554Y-19948182D01*
X34517486Y-20094441D01*
X34452928Y-20148683D01*
X34393099Y-20110832D01*
X34353968Y-20029000D01*
X34308154Y-19905759D01*
X34275237Y-19821182D01*
X34267816Y-19755166D01*
X34288001Y-19740364D01*
X34334432Y-19778712D01*
G36*
X34927415Y-19781210D02*
X34950572Y-19882476D01*
X34953848Y-19913546D01*
X34981326Y-20043025D01*
X35035996Y-20086709D01*
X35037454Y-20086728D01*
X35092714Y-20044824D01*
X35120752Y-19917187D01*
X35121060Y-19913546D01*
X35144107Y-19793669D01*
X35178263Y-19744125D01*
X35209096Y-19770396D01*
X35222182Y-19875132D01*
X35206757Y-20037361D01*
X35154195Y-20126036D01*
X35055067Y-20155712D01*
X35040210Y-20156000D01*
X34936284Y-20145734D01*
X34883515Y-20125212D01*
X34860951Y-20061508D01*
X34853118Y-19955273D01*
X34858827Y-19842846D01*
X34876886Y-19760565D01*
X34896121Y-19740364D01*
X34927415Y-19781210D01*
X34927415Y-19781210D01*
G37*
X34927415Y-19781210D02*
X34950572Y-19882476D01*
X34953848Y-19913546D01*
X34981326Y-20043025D01*
X35035996Y-20086709D01*
X35037454Y-20086728D01*
X35092714Y-20044824D01*
X35120752Y-19917187D01*
X35121060Y-19913546D01*
X35144107Y-19793669D01*
X35178263Y-19744125D01*
X35209096Y-19770396D01*
X35222182Y-19875132D01*
X35206757Y-20037361D01*
X35154195Y-20126036D01*
X35055067Y-20155712D01*
X35040210Y-20156000D01*
X34936284Y-20145734D01*
X34883515Y-20125212D01*
X34860951Y-20061508D01*
X34853118Y-19955273D01*
X34858827Y-19842846D01*
X34876886Y-19760565D01*
X34896121Y-19740364D01*
X34927415Y-19781210D01*
G36*
X35699942Y-19750610D02*
X35769394Y-19774420D01*
X35776363Y-19786546D01*
X35738958Y-19827517D01*
X35707091Y-19832728D01*
X35655855Y-19867778D01*
X35637943Y-19979643D01*
X35637818Y-19994364D01*
X35626219Y-20101201D01*
X35597697Y-20154604D01*
X35591636Y-20156000D01*
X35559776Y-20115727D01*
X35545509Y-20018084D01*
X35545454Y-20011001D01*
X35519104Y-19881157D01*
X35464636Y-19804651D01*
X35425027Y-19766533D01*
X35447961Y-19748146D01*
X35546840Y-19742196D01*
X35580091Y-19741833D01*
X35699942Y-19750610D01*
X35699942Y-19750610D01*
G37*
X35699942Y-19750610D02*
X35769394Y-19774420D01*
X35776363Y-19786546D01*
X35738958Y-19827517D01*
X35707091Y-19832728D01*
X35655855Y-19867778D01*
X35637943Y-19979643D01*
X35637818Y-19994364D01*
X35626219Y-20101201D01*
X35597697Y-20154604D01*
X35591636Y-20156000D01*
X35559776Y-20115727D01*
X35545509Y-20018084D01*
X35545454Y-20011001D01*
X35519104Y-19881157D01*
X35464636Y-19804651D01*
X35425027Y-19766533D01*
X35447961Y-19748146D01*
X35546840Y-19742196D01*
X35580091Y-19741833D01*
X35699942Y-19750610D01*
G36*
X36641449Y-19774693D02*
X36630944Y-19821182D01*
X36590541Y-19925520D01*
X36552213Y-20029000D01*
X36495841Y-20131671D01*
X36434586Y-20142196D01*
X36368668Y-20060651D01*
X36319627Y-19948182D01*
X36282071Y-19815285D01*
X36284285Y-19748341D01*
X36317071Y-19755203D01*
X36371228Y-19843724D01*
X36390420Y-19887751D01*
X36450561Y-20035138D01*
X36511610Y-19887751D01*
X36564421Y-19788848D01*
X36613163Y-19741147D01*
X36618180Y-19740364D01*
X36641449Y-19774693D01*
X36641449Y-19774693D01*
G37*
X36641449Y-19774693D02*
X36630944Y-19821182D01*
X36590541Y-19925520D01*
X36552213Y-20029000D01*
X36495841Y-20131671D01*
X36434586Y-20142196D01*
X36368668Y-20060651D01*
X36319627Y-19948182D01*
X36282071Y-19815285D01*
X36284285Y-19748341D01*
X36317071Y-19755203D01*
X36371228Y-19843724D01*
X36390420Y-19887751D01*
X36450561Y-20035138D01*
X36511610Y-19887751D01*
X36564421Y-19788848D01*
X36613163Y-19741147D01*
X36618180Y-19740364D01*
X36641449Y-19774693D01*
G36*
X37311909Y-19748983D02*
X37417197Y-19771256D01*
X37457607Y-19825415D01*
X37462000Y-19878909D01*
X37436589Y-19974081D01*
X37358091Y-20009121D01*
X37276849Y-20045652D01*
X37254182Y-20089939D01*
X37228196Y-20149307D01*
X37208000Y-20156000D01*
X37180619Y-20114688D01*
X37164062Y-20010014D01*
X37161818Y-19945256D01*
X37163411Y-19878909D01*
X37254182Y-19878909D01*
X37291587Y-19919881D01*
X37323454Y-19925091D01*
X37384912Y-19900154D01*
X37392727Y-19878909D01*
X37355322Y-19837938D01*
X37323454Y-19832728D01*
X37261997Y-19857664D01*
X37254182Y-19878909D01*
X37163411Y-19878909D01*
X37164906Y-19816713D01*
X37186016Y-19757294D01*
X37242921Y-19743760D01*
X37311909Y-19748983D01*
X37311909Y-19748983D01*
G37*
X37311909Y-19748983D02*
X37417197Y-19771256D01*
X37457607Y-19825415D01*
X37462000Y-19878909D01*
X37436589Y-19974081D01*
X37358091Y-20009121D01*
X37276849Y-20045652D01*
X37254182Y-20089939D01*
X37228196Y-20149307D01*
X37208000Y-20156000D01*
X37180619Y-20114688D01*
X37164062Y-20010014D01*
X37161818Y-19945256D01*
X37163411Y-19878909D01*
X37254182Y-19878909D01*
X37291587Y-19919881D01*
X37323454Y-19925091D01*
X37384912Y-19900154D01*
X37392727Y-19878909D01*
X37355322Y-19837938D01*
X37323454Y-19832728D01*
X37261997Y-19857664D01*
X37254182Y-19878909D01*
X37163411Y-19878909D01*
X37164906Y-19816713D01*
X37186016Y-19757294D01*
X37242921Y-19743760D01*
X37311909Y-19748983D01*
G36*
X38010241Y-19764246D02*
X38076090Y-19826487D01*
X38064908Y-19912977D01*
X38045538Y-19940633D01*
X38021186Y-20013245D01*
X38048838Y-20054729D01*
X38077504Y-20118643D01*
X38067054Y-20143612D01*
X38016626Y-20140407D01*
X37972678Y-20098200D01*
X37897256Y-20030036D01*
X37834009Y-20026469D01*
X37808363Y-20086728D01*
X37783427Y-20148185D01*
X37762182Y-20156000D01*
X37734640Y-20114723D01*
X37718119Y-20010289D01*
X37716000Y-19948182D01*
X37717854Y-19878909D01*
X37808363Y-19878909D01*
X37847043Y-19916431D01*
X37900727Y-19925091D01*
X37975771Y-19905751D01*
X37993091Y-19878909D01*
X37954411Y-19841387D01*
X37900727Y-19832728D01*
X37825683Y-19852067D01*
X37808363Y-19878909D01*
X37717854Y-19878909D01*
X37719419Y-19820490D01*
X37742827Y-19760025D01*
X37805952Y-19741647D01*
X37879086Y-19740364D01*
X38010241Y-19764246D01*
X38010241Y-19764246D01*
G37*
X38010241Y-19764246D02*
X38076090Y-19826487D01*
X38064908Y-19912977D01*
X38045538Y-19940633D01*
X38021186Y-20013245D01*
X38048838Y-20054729D01*
X38077504Y-20118643D01*
X38067054Y-20143612D01*
X38016626Y-20140407D01*
X37972678Y-20098200D01*
X37897256Y-20030036D01*
X37834009Y-20026469D01*
X37808363Y-20086728D01*
X37783427Y-20148185D01*
X37762182Y-20156000D01*
X37734640Y-20114723D01*
X37718119Y-20010289D01*
X37716000Y-19948182D01*
X37717854Y-19878909D01*
X37808363Y-19878909D01*
X37847043Y-19916431D01*
X37900727Y-19925091D01*
X37975771Y-19905751D01*
X37993091Y-19878909D01*
X37954411Y-19841387D01*
X37900727Y-19832728D01*
X37825683Y-19852067D01*
X37808363Y-19878909D01*
X37717854Y-19878909D01*
X37719419Y-19820490D01*
X37742827Y-19760025D01*
X37805952Y-19741647D01*
X37879086Y-19740364D01*
X38010241Y-19764246D01*
G36*
X38529742Y-19780992D02*
X38582364Y-19866476D01*
X38631084Y-19977178D01*
X38662099Y-20081070D01*
X38661605Y-20146126D01*
X38658337Y-20150219D01*
X38618221Y-20143261D01*
X38606374Y-20121364D01*
X38548945Y-20073762D01*
X38459117Y-20067697D01*
X38388288Y-20105856D01*
X38385636Y-20109818D01*
X38328072Y-20154212D01*
X38315532Y-20156000D01*
X38306933Y-20118572D01*
X38332336Y-20023599D01*
X38356153Y-19962489D01*
X38376037Y-19922366D01*
X38454909Y-19922366D01*
X38488433Y-19969394D01*
X38501091Y-19971273D01*
X38546072Y-19955516D01*
X38547273Y-19950908D01*
X38514911Y-19911479D01*
X38501091Y-19902000D01*
X38458535Y-19905662D01*
X38454909Y-19922366D01*
X38376037Y-19922366D01*
X38415591Y-19842554D01*
X38469849Y-19765306D01*
X38487022Y-19752750D01*
X38529742Y-19780992D01*
X38529742Y-19780992D01*
G37*
X38529742Y-19780992D02*
X38582364Y-19866476D01*
X38631084Y-19977178D01*
X38662099Y-20081070D01*
X38661605Y-20146126D01*
X38658337Y-20150219D01*
X38618221Y-20143261D01*
X38606374Y-20121364D01*
X38548945Y-20073762D01*
X38459117Y-20067697D01*
X38388288Y-20105856D01*
X38385636Y-20109818D01*
X38328072Y-20154212D01*
X38315532Y-20156000D01*
X38306933Y-20118572D01*
X38332336Y-20023599D01*
X38356153Y-19962489D01*
X38376037Y-19922366D01*
X38454909Y-19922366D01*
X38488433Y-19969394D01*
X38501091Y-19971273D01*
X38546072Y-19955516D01*
X38547273Y-19950908D01*
X38514911Y-19911479D01*
X38501091Y-19902000D01*
X38458535Y-19905662D01*
X38454909Y-19922366D01*
X38376037Y-19922366D01*
X38415591Y-19842554D01*
X38469849Y-19765306D01*
X38487022Y-19752750D01*
X38529742Y-19780992D01*
G36*
X39178231Y-19775152D02*
X39150723Y-19851715D01*
X39106492Y-19918016D01*
X39033795Y-20026426D01*
X39017674Y-20083445D01*
X39058830Y-20111228D01*
X39113000Y-20123408D01*
X39147004Y-20137248D01*
X39092827Y-20147102D01*
X39043727Y-20149711D01*
X38932426Y-20147315D01*
X38873405Y-20133493D01*
X38870545Y-20128648D01*
X38896343Y-20077158D01*
X38959095Y-19988786D01*
X38965528Y-19980545D01*
X39060510Y-19859795D01*
X38953982Y-19813999D01*
X38889484Y-19782474D01*
X38899458Y-19765543D01*
X38992371Y-19752100D01*
X39001985Y-19751026D01*
X39131104Y-19745508D01*
X39178231Y-19775152D01*
X39178231Y-19775152D01*
G37*
X39178231Y-19775152D02*
X39150723Y-19851715D01*
X39106492Y-19918016D01*
X39033795Y-20026426D01*
X39017674Y-20083445D01*
X39058830Y-20111228D01*
X39113000Y-20123408D01*
X39147004Y-20137248D01*
X39092827Y-20147102D01*
X39043727Y-20149711D01*
X38932426Y-20147315D01*
X38873405Y-20133493D01*
X38870545Y-20128648D01*
X38896343Y-20077158D01*
X38959095Y-19988786D01*
X38965528Y-19980545D01*
X39060510Y-19859795D01*
X38953982Y-19813999D01*
X38889484Y-19782474D01*
X38899458Y-19765543D01*
X38992371Y-19752100D01*
X39001985Y-19751026D01*
X39131104Y-19745508D01*
X39178231Y-19775152D01*
G36*
X39693200Y-19751963D02*
X39746604Y-19780485D01*
X39748000Y-19786546D01*
X39708478Y-19821262D01*
X39632545Y-19832728D01*
X39538164Y-19849808D01*
X39524400Y-19887610D01*
X39589045Y-19925973D01*
X39644091Y-19938195D01*
X39771091Y-19957434D01*
X39644091Y-19964353D01*
X39542379Y-19991294D01*
X39517542Y-20041845D01*
X39566323Y-20093684D01*
X39667182Y-20122593D01*
X39747597Y-20134310D01*
X39746496Y-20141582D01*
X39659096Y-20147104D01*
X39621000Y-20148609D01*
X39424727Y-20156000D01*
X39424727Y-19948182D01*
X39428178Y-19820489D01*
X39451563Y-19760023D01*
X39514435Y-19741646D01*
X39586363Y-19740364D01*
X39693200Y-19751963D01*
X39693200Y-19751963D01*
G37*
X39693200Y-19751963D02*
X39746604Y-19780485D01*
X39748000Y-19786546D01*
X39708478Y-19821262D01*
X39632545Y-19832728D01*
X39538164Y-19849808D01*
X39524400Y-19887610D01*
X39589045Y-19925973D01*
X39644091Y-19938195D01*
X39771091Y-19957434D01*
X39644091Y-19964353D01*
X39542379Y-19991294D01*
X39517542Y-20041845D01*
X39566323Y-20093684D01*
X39667182Y-20122593D01*
X39747597Y-20134310D01*
X39746496Y-20141582D01*
X39659096Y-20147104D01*
X39621000Y-20148609D01*
X39424727Y-20156000D01*
X39424727Y-19948182D01*
X39428178Y-19820489D01*
X39451563Y-19760023D01*
X39514435Y-19741646D01*
X39586363Y-19740364D01*
X39693200Y-19751963D01*
G36*
X35997550Y-13696280D02*
X36563318Y-13698926D01*
X36842064Y-13700318D01*
X39540182Y-13713637D01*
X39760487Y-13823074D01*
X39919855Y-13923591D01*
X40084932Y-14060154D01*
X40165474Y-14142321D01*
X40240309Y-14229902D01*
X40302708Y-14313642D01*
X40353733Y-14402481D01*
X40394446Y-14505364D01*
X40425908Y-14631232D01*
X40449181Y-14789028D01*
X40465327Y-14987694D01*
X40475407Y-15236174D01*
X40480484Y-15543410D01*
X40481620Y-15918343D01*
X40479875Y-16369918D01*
X40477285Y-16768520D01*
X40473877Y-17241836D01*
X40470528Y-17632038D01*
X40466727Y-17948376D01*
X40461962Y-18200096D01*
X40455719Y-18396449D01*
X40447487Y-18546681D01*
X40436754Y-18660043D01*
X40423006Y-18745780D01*
X40405733Y-18813144D01*
X40384421Y-18871380D01*
X40358558Y-18929739D01*
X40357433Y-18932182D01*
X40194271Y-19212148D01*
X39998741Y-19408119D01*
X39765785Y-19522228D01*
X39490345Y-19556613D01*
X39167363Y-19513407D01*
X39052109Y-19483245D01*
X38700571Y-19334350D01*
X38382831Y-19102600D01*
X38102733Y-18792509D01*
X37864115Y-18408591D01*
X37670818Y-17955361D01*
X37620343Y-17800320D01*
X37603217Y-17743935D01*
X37819597Y-17743935D01*
X37830644Y-17807749D01*
X37875936Y-17933576D01*
X37947624Y-18101218D01*
X38009969Y-18233983D01*
X38224590Y-18613093D01*
X38459869Y-18907158D01*
X38721208Y-19122227D01*
X38882713Y-19211235D01*
X39057948Y-19286556D01*
X39163063Y-19318400D01*
X39194688Y-19307746D01*
X39149455Y-19255573D01*
X39031565Y-19167994D01*
X38872595Y-19052010D01*
X38732380Y-18928908D01*
X38596782Y-18782612D01*
X38451660Y-18597046D01*
X38282872Y-18356135D01*
X38174233Y-18193315D01*
X38049780Y-18010866D01*
X37943271Y-17866396D01*
X37864425Y-17772222D01*
X37822963Y-17740660D01*
X37819597Y-17743935D01*
X37603217Y-17743935D01*
X37523201Y-17480500D01*
X37107710Y-17759875D01*
X36937066Y-17870736D01*
X36795199Y-17955619D01*
X36698779Y-18005008D01*
X36665322Y-18012353D01*
X36655765Y-17972874D01*
X36657666Y-17971198D01*
X36700612Y-17939725D01*
X36801961Y-17865570D01*
X36945552Y-17760556D01*
X37079963Y-17662282D01*
X37241991Y-17541859D01*
X37370376Y-17442666D01*
X37450464Y-17376273D01*
X37469803Y-17354409D01*
X37421404Y-17339029D01*
X37307045Y-17311310D01*
X37151300Y-17277202D01*
X37148430Y-17276600D01*
X36839920Y-17179241D01*
X36522743Y-17020128D01*
X36514641Y-17015255D01*
X36363103Y-16926979D01*
X36244325Y-16863957D01*
X36177879Y-16836349D01*
X36170781Y-16836734D01*
X36150124Y-16885666D01*
X36108627Y-17003565D01*
X36052887Y-17171206D01*
X36006247Y-17316300D01*
X35820602Y-17836401D01*
X35617674Y-18275491D01*
X35391741Y-18644191D01*
X35137079Y-18953129D01*
X35109202Y-18981763D01*
X34851529Y-19213913D01*
X34599677Y-19373643D01*
X34325943Y-19474596D01*
X34002620Y-19530415D01*
X33993121Y-19531406D01*
X33820862Y-19542062D01*
X33696593Y-19525866D01*
X33578023Y-19475481D01*
X33536545Y-19452199D01*
X33413596Y-19361296D01*
X33394021Y-19337586D01*
X34090727Y-19337586D01*
X34229273Y-19304863D01*
X34357079Y-19263580D01*
X34513166Y-19198850D01*
X34568935Y-19172374D01*
X34820018Y-19002898D01*
X35065659Y-18750414D01*
X35299524Y-18424273D01*
X35515276Y-18033828D01*
X35706581Y-17588429D01*
X35777972Y-17387649D01*
X35852692Y-17158608D01*
X35895196Y-17007986D01*
X35905366Y-16927591D01*
X35883082Y-16909235D01*
X35828224Y-16944727D01*
X35772243Y-16995451D01*
X35616454Y-17174146D01*
X35474476Y-17405668D01*
X35337534Y-17705566D01*
X35265583Y-17893199D01*
X35184060Y-18095786D01*
X35093003Y-18290189D01*
X35009498Y-18440518D01*
X34993786Y-18464184D01*
X34869915Y-18619051D01*
X34697950Y-18804542D01*
X34503219Y-18995243D01*
X34311050Y-19165737D01*
X34229273Y-19231313D01*
X34090727Y-19337586D01*
X33394021Y-19337586D01*
X33306854Y-19232006D01*
X33196206Y-19039687D01*
X33190182Y-19027919D01*
X33028545Y-18710809D01*
X33015070Y-16770422D01*
X33011749Y-16251115D01*
X33010463Y-15815272D01*
X33012470Y-15453998D01*
X33019030Y-15158397D01*
X33031402Y-14919574D01*
X33046837Y-14768004D01*
X33186451Y-14768004D01*
X33199862Y-16711548D01*
X33213273Y-18655091D01*
X33351818Y-18932182D01*
X33446996Y-19095238D01*
X33546254Y-19221428D01*
X33611299Y-19275381D01*
X33676763Y-19305209D01*
X33737391Y-19307329D01*
X33815222Y-19274072D01*
X33932295Y-19197764D01*
X34026935Y-19130706D01*
X34436476Y-18796388D01*
X34755495Y-18444036D01*
X34983960Y-18073690D01*
X35083733Y-17823818D01*
X35196758Y-17532173D01*
X35340601Y-17257085D01*
X35503099Y-17016180D01*
X35672089Y-16827087D01*
X35835408Y-16707430D01*
X35862743Y-16694842D01*
X35933134Y-16656097D01*
X35982629Y-16595197D01*
X35994003Y-16565364D01*
X36208446Y-16565364D01*
X36216452Y-16633812D01*
X36251001Y-16646182D01*
X36319170Y-16670142D01*
X36439443Y-16733448D01*
X36587731Y-16823238D01*
X36612022Y-16838926D01*
X36868363Y-16985457D01*
X37101280Y-17069617D01*
X37335880Y-17102689D01*
X37412083Y-17090829D01*
X37421676Y-17026813D01*
X37417080Y-17004091D01*
X37402541Y-16922939D01*
X37378355Y-16769326D01*
X37347405Y-16562302D01*
X37312572Y-16320915D01*
X37296580Y-16207455D01*
X37261958Y-15965858D01*
X37230728Y-15758847D01*
X37205464Y-15602650D01*
X37188734Y-15513490D01*
X37184322Y-15499064D01*
X37130059Y-15496598D01*
X37013624Y-15514433D01*
X36861298Y-15546264D01*
X36699358Y-15585789D01*
X36554083Y-15626706D01*
X36451751Y-15662712D01*
X36419051Y-15682607D01*
X36395589Y-15749088D01*
X36360807Y-15881184D01*
X36321139Y-16053867D01*
X36309452Y-16108868D01*
X36270238Y-16293678D01*
X36235776Y-16450325D01*
X36212146Y-16551319D01*
X36208446Y-16565364D01*
X35994003Y-16565364D01*
X36022773Y-16489907D01*
X36065111Y-16317995D01*
X36070063Y-16295588D01*
X36113020Y-16078304D01*
X36139154Y-15899621D01*
X36146739Y-15775848D01*
X36134043Y-15723296D01*
X36130816Y-15722546D01*
X36040419Y-15742703D01*
X35882434Y-15798721D01*
X35671259Y-15883914D01*
X35421287Y-15991598D01*
X35146914Y-16115090D01*
X34862536Y-16247705D01*
X34582548Y-16382760D01*
X34321346Y-16513569D01*
X34093324Y-16633450D01*
X33912878Y-16735719D01*
X33818026Y-16796419D01*
X33731624Y-16854290D01*
X33709911Y-16858266D01*
X33743728Y-16809928D01*
X33744363Y-16809125D01*
X33844933Y-16713932D01*
X34014335Y-16588460D01*
X34237591Y-16441248D01*
X34499723Y-16280832D01*
X34785751Y-16115752D01*
X35080696Y-15954545D01*
X35369582Y-15805749D01*
X35637428Y-15677902D01*
X35869256Y-15579542D01*
X35958897Y-15546815D01*
X36202170Y-15464124D01*
X36211806Y-15432305D01*
X37399752Y-15432305D01*
X37422238Y-15635153D01*
X37443550Y-15811309D01*
X37472413Y-16027763D01*
X37506088Y-16266397D01*
X37541836Y-16509091D01*
X37576921Y-16737726D01*
X37608602Y-16934186D01*
X37634142Y-17080350D01*
X37650802Y-17158101D01*
X37653470Y-17165092D01*
X37684120Y-17174433D01*
X37748066Y-17145182D01*
X37852952Y-17071759D01*
X38006422Y-16948588D01*
X38216119Y-16770089D01*
X38327564Y-16673111D01*
X38591237Y-16429274D01*
X38787368Y-16218696D01*
X38912237Y-16045901D01*
X38962121Y-15915415D01*
X38962909Y-15900658D01*
X38923565Y-15809948D01*
X38821893Y-15707455D01*
X38682427Y-15612785D01*
X38529704Y-15545546D01*
X38512036Y-15540358D01*
X38391636Y-15516953D01*
X38208873Y-15492912D01*
X37993650Y-15471855D01*
X37870437Y-15462736D01*
X37399752Y-15432305D01*
X36211806Y-15432305D01*
X36245370Y-15321474D01*
X36479252Y-15321474D01*
X36505503Y-15345723D01*
X36580027Y-15346056D01*
X36718474Y-15323512D01*
X36852522Y-15296593D01*
X37126058Y-15240095D01*
X37099396Y-15014973D01*
X37060936Y-14821301D01*
X36998887Y-14645947D01*
X36923920Y-14512034D01*
X36846702Y-14442687D01*
X36833597Y-14438884D01*
X36773407Y-14470975D01*
X36702718Y-14572504D01*
X36631754Y-14722899D01*
X36570737Y-14901589D01*
X36539937Y-15029818D01*
X36511917Y-15163448D01*
X36486868Y-15267777D01*
X36485622Y-15272273D01*
X36479252Y-15321474D01*
X36245370Y-15321474D01*
X36355152Y-14958965D01*
X36432816Y-14716448D01*
X36499385Y-14545267D01*
X36563674Y-14426566D01*
X36634500Y-14341489D01*
X36650977Y-14326176D01*
X36767432Y-14232933D01*
X36852879Y-14207949D01*
X36938819Y-14251485D01*
X37022533Y-14329247D01*
X37096266Y-14435139D01*
X37177443Y-14599972D01*
X37253971Y-14792412D01*
X37313753Y-14981128D01*
X37344694Y-15134788D01*
X37346545Y-15168574D01*
X37368811Y-15198946D01*
X37445633Y-15211174D01*
X37592050Y-15206659D01*
X37681363Y-15199818D01*
X37919544Y-15190622D01*
X38185508Y-15197875D01*
X38454620Y-15219092D01*
X38702242Y-15251784D01*
X38903736Y-15293464D01*
X39022592Y-15335228D01*
X39221008Y-15459482D01*
X39340230Y-15595578D01*
X39379666Y-15749007D01*
X39338722Y-15925256D01*
X39216805Y-16129817D01*
X39013322Y-16368178D01*
X38898443Y-16484546D01*
X38740575Y-16625363D01*
X38528732Y-16795297D01*
X38287991Y-16975706D01*
X38043435Y-17147946D01*
X37820142Y-17293374D01*
X37767830Y-17324987D01*
X37787444Y-17361430D01*
X37855445Y-17447674D01*
X37957536Y-17565684D01*
X37966770Y-17575981D01*
X38102241Y-17741769D01*
X38249361Y-17945018D01*
X38376226Y-18141641D01*
X38674759Y-18563973D01*
X39026302Y-18912718D01*
X39376647Y-19158916D01*
X39559973Y-19263714D01*
X39688886Y-19317362D01*
X39786826Y-19318411D01*
X39877232Y-19265410D01*
X39983544Y-19156910D01*
X40016775Y-19119325D01*
X40084071Y-19038283D01*
X40139902Y-18956223D01*
X40185332Y-18863998D01*
X40221426Y-18752466D01*
X40249251Y-18612480D01*
X40269871Y-18434896D01*
X40284351Y-18210570D01*
X40293757Y-17930357D01*
X40299154Y-17585113D01*
X40301607Y-17165692D01*
X40302182Y-16669273D01*
X40301598Y-16168857D01*
X40299174Y-15751756D01*
X40293899Y-15408928D01*
X40284763Y-15131327D01*
X40270754Y-14909911D01*
X40250862Y-14735635D01*
X40224077Y-14599455D01*
X40189388Y-14492327D01*
X40145784Y-14405207D01*
X40092256Y-14329052D01*
X40033026Y-14260517D01*
X39906040Y-14146452D01*
X39748847Y-14036455D01*
X39696753Y-14006517D01*
X39494000Y-13898364D01*
X33998363Y-13898364D01*
X33744363Y-14041822D01*
X33591531Y-14139082D01*
X33482178Y-14243872D01*
X33386067Y-14388581D01*
X33338407Y-14476642D01*
X33186451Y-14768004D01*
X33046837Y-14768004D01*
X33050847Y-14728632D01*
X33078624Y-14576675D01*
X33115993Y-14454809D01*
X33164213Y-14354137D01*
X33224544Y-14265763D01*
X33298245Y-14180791D01*
X33386578Y-14090327D01*
X33395904Y-14080996D01*
X33474308Y-14002594D01*
X33545966Y-13935313D01*
X33618252Y-13878339D01*
X33698537Y-13830856D01*
X33794195Y-13792051D01*
X33912597Y-13761110D01*
X34061117Y-13737217D01*
X34247126Y-13719559D01*
X34477997Y-13707320D01*
X34761102Y-13699688D01*
X35103815Y-13695846D01*
X35513507Y-13694982D01*
X35997550Y-13696280D01*
X35997550Y-13696280D01*
G37*
X35997550Y-13696280D02*
X36563318Y-13698926D01*
X36842064Y-13700318D01*
X39540182Y-13713637D01*
X39760487Y-13823074D01*
X39919855Y-13923591D01*
X40084932Y-14060154D01*
X40165474Y-14142321D01*
X40240309Y-14229902D01*
X40302708Y-14313642D01*
X40353733Y-14402481D01*
X40394446Y-14505364D01*
X40425908Y-14631232D01*
X40449181Y-14789028D01*
X40465327Y-14987694D01*
X40475407Y-15236174D01*
X40480484Y-15543410D01*
X40481620Y-15918343D01*
X40479875Y-16369918D01*
X40477285Y-16768520D01*
X40473877Y-17241836D01*
X40470528Y-17632038D01*
X40466727Y-17948376D01*
X40461962Y-18200096D01*
X40455719Y-18396449D01*
X40447487Y-18546681D01*
X40436754Y-18660043D01*
X40423006Y-18745780D01*
X40405733Y-18813144D01*
X40384421Y-18871380D01*
X40358558Y-18929739D01*
X40357433Y-18932182D01*
X40194271Y-19212148D01*
X39998741Y-19408119D01*
X39765785Y-19522228D01*
X39490345Y-19556613D01*
X39167363Y-19513407D01*
X39052109Y-19483245D01*
X38700571Y-19334350D01*
X38382831Y-19102600D01*
X38102733Y-18792509D01*
X37864115Y-18408591D01*
X37670818Y-17955361D01*
X37620343Y-17800320D01*
X37603217Y-17743935D01*
X37819597Y-17743935D01*
X37830644Y-17807749D01*
X37875936Y-17933576D01*
X37947624Y-18101218D01*
X38009969Y-18233983D01*
X38224590Y-18613093D01*
X38459869Y-18907158D01*
X38721208Y-19122227D01*
X38882713Y-19211235D01*
X39057948Y-19286556D01*
X39163063Y-19318400D01*
X39194688Y-19307746D01*
X39149455Y-19255573D01*
X39031565Y-19167994D01*
X38872595Y-19052010D01*
X38732380Y-18928908D01*
X38596782Y-18782612D01*
X38451660Y-18597046D01*
X38282872Y-18356135D01*
X38174233Y-18193315D01*
X38049780Y-18010866D01*
X37943271Y-17866396D01*
X37864425Y-17772222D01*
X37822963Y-17740660D01*
X37819597Y-17743935D01*
X37603217Y-17743935D01*
X37523201Y-17480500D01*
X37107710Y-17759875D01*
X36937066Y-17870736D01*
X36795199Y-17955619D01*
X36698779Y-18005008D01*
X36665322Y-18012353D01*
X36655765Y-17972874D01*
X36657666Y-17971198D01*
X36700612Y-17939725D01*
X36801961Y-17865570D01*
X36945552Y-17760556D01*
X37079963Y-17662282D01*
X37241991Y-17541859D01*
X37370376Y-17442666D01*
X37450464Y-17376273D01*
X37469803Y-17354409D01*
X37421404Y-17339029D01*
X37307045Y-17311310D01*
X37151300Y-17277202D01*
X37148430Y-17276600D01*
X36839920Y-17179241D01*
X36522743Y-17020128D01*
X36514641Y-17015255D01*
X36363103Y-16926979D01*
X36244325Y-16863957D01*
X36177879Y-16836349D01*
X36170781Y-16836734D01*
X36150124Y-16885666D01*
X36108627Y-17003565D01*
X36052887Y-17171206D01*
X36006247Y-17316300D01*
X35820602Y-17836401D01*
X35617674Y-18275491D01*
X35391741Y-18644191D01*
X35137079Y-18953129D01*
X35109202Y-18981763D01*
X34851529Y-19213913D01*
X34599677Y-19373643D01*
X34325943Y-19474596D01*
X34002620Y-19530415D01*
X33993121Y-19531406D01*
X33820862Y-19542062D01*
X33696593Y-19525866D01*
X33578023Y-19475481D01*
X33536545Y-19452199D01*
X33413596Y-19361296D01*
X33394021Y-19337586D01*
X34090727Y-19337586D01*
X34229273Y-19304863D01*
X34357079Y-19263580D01*
X34513166Y-19198850D01*
X34568935Y-19172374D01*
X34820018Y-19002898D01*
X35065659Y-18750414D01*
X35299524Y-18424273D01*
X35515276Y-18033828D01*
X35706581Y-17588429D01*
X35777972Y-17387649D01*
X35852692Y-17158608D01*
X35895196Y-17007986D01*
X35905366Y-16927591D01*
X35883082Y-16909235D01*
X35828224Y-16944727D01*
X35772243Y-16995451D01*
X35616454Y-17174146D01*
X35474476Y-17405668D01*
X35337534Y-17705566D01*
X35265583Y-17893199D01*
X35184060Y-18095786D01*
X35093003Y-18290189D01*
X35009498Y-18440518D01*
X34993786Y-18464184D01*
X34869915Y-18619051D01*
X34697950Y-18804542D01*
X34503219Y-18995243D01*
X34311050Y-19165737D01*
X34229273Y-19231313D01*
X34090727Y-19337586D01*
X33394021Y-19337586D01*
X33306854Y-19232006D01*
X33196206Y-19039687D01*
X33190182Y-19027919D01*
X33028545Y-18710809D01*
X33015070Y-16770422D01*
X33011749Y-16251115D01*
X33010463Y-15815272D01*
X33012470Y-15453998D01*
X33019030Y-15158397D01*
X33031402Y-14919574D01*
X33046837Y-14768004D01*
X33186451Y-14768004D01*
X33199862Y-16711548D01*
X33213273Y-18655091D01*
X33351818Y-18932182D01*
X33446996Y-19095238D01*
X33546254Y-19221428D01*
X33611299Y-19275381D01*
X33676763Y-19305209D01*
X33737391Y-19307329D01*
X33815222Y-19274072D01*
X33932295Y-19197764D01*
X34026935Y-19130706D01*
X34436476Y-18796388D01*
X34755495Y-18444036D01*
X34983960Y-18073690D01*
X35083733Y-17823818D01*
X35196758Y-17532173D01*
X35340601Y-17257085D01*
X35503099Y-17016180D01*
X35672089Y-16827087D01*
X35835408Y-16707430D01*
X35862743Y-16694842D01*
X35933134Y-16656097D01*
X35982629Y-16595197D01*
X35994003Y-16565364D01*
X36208446Y-16565364D01*
X36216452Y-16633812D01*
X36251001Y-16646182D01*
X36319170Y-16670142D01*
X36439443Y-16733448D01*
X36587731Y-16823238D01*
X36612022Y-16838926D01*
X36868363Y-16985457D01*
X37101280Y-17069617D01*
X37335880Y-17102689D01*
X37412083Y-17090829D01*
X37421676Y-17026813D01*
X37417080Y-17004091D01*
X37402541Y-16922939D01*
X37378355Y-16769326D01*
X37347405Y-16562302D01*
X37312572Y-16320915D01*
X37296580Y-16207455D01*
X37261958Y-15965858D01*
X37230728Y-15758847D01*
X37205464Y-15602650D01*
X37188734Y-15513490D01*
X37184322Y-15499064D01*
X37130059Y-15496598D01*
X37013624Y-15514433D01*
X36861298Y-15546264D01*
X36699358Y-15585789D01*
X36554083Y-15626706D01*
X36451751Y-15662712D01*
X36419051Y-15682607D01*
X36395589Y-15749088D01*
X36360807Y-15881184D01*
X36321139Y-16053867D01*
X36309452Y-16108868D01*
X36270238Y-16293678D01*
X36235776Y-16450325D01*
X36212146Y-16551319D01*
X36208446Y-16565364D01*
X35994003Y-16565364D01*
X36022773Y-16489907D01*
X36065111Y-16317995D01*
X36070063Y-16295588D01*
X36113020Y-16078304D01*
X36139154Y-15899621D01*
X36146739Y-15775848D01*
X36134043Y-15723296D01*
X36130816Y-15722546D01*
X36040419Y-15742703D01*
X35882434Y-15798721D01*
X35671259Y-15883914D01*
X35421287Y-15991598D01*
X35146914Y-16115090D01*
X34862536Y-16247705D01*
X34582548Y-16382760D01*
X34321346Y-16513569D01*
X34093324Y-16633450D01*
X33912878Y-16735719D01*
X33818026Y-16796419D01*
X33731624Y-16854290D01*
X33709911Y-16858266D01*
X33743728Y-16809928D01*
X33744363Y-16809125D01*
X33844933Y-16713932D01*
X34014335Y-16588460D01*
X34237591Y-16441248D01*
X34499723Y-16280832D01*
X34785751Y-16115752D01*
X35080696Y-15954545D01*
X35369582Y-15805749D01*
X35637428Y-15677902D01*
X35869256Y-15579542D01*
X35958897Y-15546815D01*
X36202170Y-15464124D01*
X36211806Y-15432305D01*
X37399752Y-15432305D01*
X37422238Y-15635153D01*
X37443550Y-15811309D01*
X37472413Y-16027763D01*
X37506088Y-16266397D01*
X37541836Y-16509091D01*
X37576921Y-16737726D01*
X37608602Y-16934186D01*
X37634142Y-17080350D01*
X37650802Y-17158101D01*
X37653470Y-17165092D01*
X37684120Y-17174433D01*
X37748066Y-17145182D01*
X37852952Y-17071759D01*
X38006422Y-16948588D01*
X38216119Y-16770089D01*
X38327564Y-16673111D01*
X38591237Y-16429274D01*
X38787368Y-16218696D01*
X38912237Y-16045901D01*
X38962121Y-15915415D01*
X38962909Y-15900658D01*
X38923565Y-15809948D01*
X38821893Y-15707455D01*
X38682427Y-15612785D01*
X38529704Y-15545546D01*
X38512036Y-15540358D01*
X38391636Y-15516953D01*
X38208873Y-15492912D01*
X37993650Y-15471855D01*
X37870437Y-15462736D01*
X37399752Y-15432305D01*
X36211806Y-15432305D01*
X36245370Y-15321474D01*
X36479252Y-15321474D01*
X36505503Y-15345723D01*
X36580027Y-15346056D01*
X36718474Y-15323512D01*
X36852522Y-15296593D01*
X37126058Y-15240095D01*
X37099396Y-15014973D01*
X37060936Y-14821301D01*
X36998887Y-14645947D01*
X36923920Y-14512034D01*
X36846702Y-14442687D01*
X36833597Y-14438884D01*
X36773407Y-14470975D01*
X36702718Y-14572504D01*
X36631754Y-14722899D01*
X36570737Y-14901589D01*
X36539937Y-15029818D01*
X36511917Y-15163448D01*
X36486868Y-15267777D01*
X36485622Y-15272273D01*
X36479252Y-15321474D01*
X36245370Y-15321474D01*
X36355152Y-14958965D01*
X36432816Y-14716448D01*
X36499385Y-14545267D01*
X36563674Y-14426566D01*
X36634500Y-14341489D01*
X36650977Y-14326176D01*
X36767432Y-14232933D01*
X36852879Y-14207949D01*
X36938819Y-14251485D01*
X37022533Y-14329247D01*
X37096266Y-14435139D01*
X37177443Y-14599972D01*
X37253971Y-14792412D01*
X37313753Y-14981128D01*
X37344694Y-15134788D01*
X37346545Y-15168574D01*
X37368811Y-15198946D01*
X37445633Y-15211174D01*
X37592050Y-15206659D01*
X37681363Y-15199818D01*
X37919544Y-15190622D01*
X38185508Y-15197875D01*
X38454620Y-15219092D01*
X38702242Y-15251784D01*
X38903736Y-15293464D01*
X39022592Y-15335228D01*
X39221008Y-15459482D01*
X39340230Y-15595578D01*
X39379666Y-15749007D01*
X39338722Y-15925256D01*
X39216805Y-16129817D01*
X39013322Y-16368178D01*
X38898443Y-16484546D01*
X38740575Y-16625363D01*
X38528732Y-16795297D01*
X38287991Y-16975706D01*
X38043435Y-17147946D01*
X37820142Y-17293374D01*
X37767830Y-17324987D01*
X37787444Y-17361430D01*
X37855445Y-17447674D01*
X37957536Y-17565684D01*
X37966770Y-17575981D01*
X38102241Y-17741769D01*
X38249361Y-17945018D01*
X38376226Y-18141641D01*
X38674759Y-18563973D01*
X39026302Y-18912718D01*
X39376647Y-19158916D01*
X39559973Y-19263714D01*
X39688886Y-19317362D01*
X39786826Y-19318411D01*
X39877232Y-19265410D01*
X39983544Y-19156910D01*
X40016775Y-19119325D01*
X40084071Y-19038283D01*
X40139902Y-18956223D01*
X40185332Y-18863998D01*
X40221426Y-18752466D01*
X40249251Y-18612480D01*
X40269871Y-18434896D01*
X40284351Y-18210570D01*
X40293757Y-17930357D01*
X40299154Y-17585113D01*
X40301607Y-17165692D01*
X40302182Y-16669273D01*
X40301598Y-16168857D01*
X40299174Y-15751756D01*
X40293899Y-15408928D01*
X40284763Y-15131327D01*
X40270754Y-14909911D01*
X40250862Y-14735635D01*
X40224077Y-14599455D01*
X40189388Y-14492327D01*
X40145784Y-14405207D01*
X40092256Y-14329052D01*
X40033026Y-14260517D01*
X39906040Y-14146452D01*
X39748847Y-14036455D01*
X39696753Y-14006517D01*
X39494000Y-13898364D01*
X33998363Y-13898364D01*
X33744363Y-14041822D01*
X33591531Y-14139082D01*
X33482178Y-14243872D01*
X33386067Y-14388581D01*
X33338407Y-14476642D01*
X33186451Y-14768004D01*
X33046837Y-14768004D01*
X33050847Y-14728632D01*
X33078624Y-14576675D01*
X33115993Y-14454809D01*
X33164213Y-14354137D01*
X33224544Y-14265763D01*
X33298245Y-14180791D01*
X33386578Y-14090327D01*
X33395904Y-14080996D01*
X33474308Y-14002594D01*
X33545966Y-13935313D01*
X33618252Y-13878339D01*
X33698537Y-13830856D01*
X33794195Y-13792051D01*
X33912597Y-13761110D01*
X34061117Y-13737217D01*
X34247126Y-13719559D01*
X34477997Y-13707320D01*
X34761102Y-13699688D01*
X35103815Y-13695846D01*
X35513507Y-13694982D01*
X35997550Y-13696280D01*
G36*
X37178631Y-18026484D02*
X37228472Y-18088094D01*
X37289431Y-18246351D01*
X37289497Y-18433528D01*
X37241955Y-18582171D01*
X37183944Y-18664524D01*
X37121019Y-18715136D01*
X37077616Y-18718088D01*
X37070923Y-18693576D01*
X37097365Y-18630198D01*
X37140196Y-18565446D01*
X37202336Y-18410036D01*
X37181070Y-18225191D01*
X37137541Y-18121707D01*
X37101394Y-18021417D01*
X37119857Y-17987914D01*
X37178631Y-18026484D01*
X37178631Y-18026484D01*
G37*
X37178631Y-18026484D02*
X37228472Y-18088094D01*
X37289431Y-18246351D01*
X37289497Y-18433528D01*
X37241955Y-18582171D01*
X37183944Y-18664524D01*
X37121019Y-18715136D01*
X37077616Y-18718088D01*
X37070923Y-18693576D01*
X37097365Y-18630198D01*
X37140196Y-18565446D01*
X37202336Y-18410036D01*
X37181070Y-18225191D01*
X37137541Y-18121707D01*
X37101394Y-18021417D01*
X37119857Y-17987914D01*
X37178631Y-18026484D01*
G36*
X36336941Y-18117542D02*
X36429259Y-18213629D01*
X36486123Y-18331452D01*
X36488327Y-18419893D01*
X36410525Y-18555593D01*
X36292567Y-18620948D01*
X36158059Y-18609461D01*
X36053454Y-18539637D01*
X35984263Y-18439102D01*
X35962453Y-18359855D01*
X36094703Y-18359855D01*
X36132901Y-18458527D01*
X36206205Y-18525813D01*
X36240491Y-18535991D01*
X36290691Y-18511043D01*
X36321309Y-18484218D01*
X36369850Y-18386162D01*
X36351816Y-18286196D01*
X36284093Y-18213246D01*
X36183566Y-18196240D01*
X36157363Y-18203362D01*
X36100045Y-18263550D01*
X36094703Y-18359855D01*
X35962453Y-18359855D01*
X35961091Y-18354909D01*
X35999560Y-18241161D01*
X36092242Y-18138364D01*
X36205044Y-18081028D01*
X36234830Y-18077818D01*
X36336941Y-18117542D01*
X36336941Y-18117542D01*
G37*
X36336941Y-18117542D02*
X36429259Y-18213629D01*
X36486123Y-18331452D01*
X36488327Y-18419893D01*
X36410525Y-18555593D01*
X36292567Y-18620948D01*
X36158059Y-18609461D01*
X36053454Y-18539637D01*
X35984263Y-18439102D01*
X35962453Y-18359855D01*
X36094703Y-18359855D01*
X36132901Y-18458527D01*
X36206205Y-18525813D01*
X36240491Y-18535991D01*
X36290691Y-18511043D01*
X36321309Y-18484218D01*
X36369850Y-18386162D01*
X36351816Y-18286196D01*
X36284093Y-18213246D01*
X36183566Y-18196240D01*
X36157363Y-18203362D01*
X36100045Y-18263550D01*
X36094703Y-18359855D01*
X35962453Y-18359855D01*
X35961091Y-18354909D01*
X35999560Y-18241161D01*
X36092242Y-18138364D01*
X36205044Y-18081028D01*
X36234830Y-18077818D01*
X36336941Y-18117542D01*
G36*
X36974962Y-18075390D02*
X36999190Y-18104281D01*
X37057061Y-18245528D01*
X37061143Y-18414974D01*
X37021648Y-18542673D01*
X36964753Y-18613069D01*
X36914598Y-18630087D01*
X36897142Y-18591768D01*
X36908816Y-18551182D01*
X36964131Y-18357228D01*
X36946440Y-18203668D01*
X36931562Y-18171402D01*
X36898540Y-18076710D01*
X36917660Y-18040088D01*
X36974962Y-18075390D01*
X36974962Y-18075390D01*
G37*
X36974962Y-18075390D02*
X36999190Y-18104281D01*
X37057061Y-18245528D01*
X37061143Y-18414974D01*
X37021648Y-18542673D01*
X36964753Y-18613069D01*
X36914598Y-18630087D01*
X36897142Y-18591768D01*
X36908816Y-18551182D01*
X36964131Y-18357228D01*
X36946440Y-18203668D01*
X36931562Y-18171402D01*
X36898540Y-18076710D01*
X36917660Y-18040088D01*
X36974962Y-18075390D01*
G36*
X36775248Y-18201282D02*
X36802496Y-18291182D01*
X36797992Y-18400683D01*
X36787844Y-18435728D01*
X36744632Y-18519327D01*
X36708030Y-18540265D01*
X36696151Y-18516546D01*
X36687150Y-18401762D01*
X36691809Y-18282180D01*
X36707271Y-18192854D01*
X36724653Y-18166757D01*
X36775248Y-18201282D01*
X36775248Y-18201282D01*
G37*
X36775248Y-18201282D02*
X36802496Y-18291182D01*
X36797992Y-18400683D01*
X36787844Y-18435728D01*
X36744632Y-18519327D01*
X36708030Y-18540265D01*
X36696151Y-18516546D01*
X36687150Y-18401762D01*
X36691809Y-18282180D01*
X36707271Y-18192854D01*
X36724653Y-18166757D01*
X36775248Y-18201282D01*
G36*
X41072174Y-17915794D02*
X41020719Y-17958594D01*
X40958802Y-18016330D01*
X40969041Y-18056642D01*
X41020646Y-18097133D01*
X41080622Y-18155076D01*
X41087127Y-18185721D01*
X41037295Y-18179902D01*
X40974464Y-18143315D01*
X40868863Y-18090794D01*
X40801355Y-18077818D01*
X40728122Y-18058752D01*
X40730189Y-18017591D01*
X40802849Y-17978391D01*
X40821727Y-17973686D01*
X40950773Y-17939888D01*
X41018000Y-17918351D01*
X41081677Y-17897942D01*
X41072174Y-17915794D01*
X41072174Y-17915794D01*
G37*
X41072174Y-17915794D02*
X41020719Y-17958594D01*
X40958802Y-18016330D01*
X40969041Y-18056642D01*
X41020646Y-18097133D01*
X41080622Y-18155076D01*
X41087127Y-18185721D01*
X41037295Y-18179902D01*
X40974464Y-18143315D01*
X40868863Y-18090794D01*
X40801355Y-18077818D01*
X40728122Y-18058752D01*
X40730189Y-18017591D01*
X40802849Y-17978391D01*
X40821727Y-17973686D01*
X40950773Y-17939888D01*
X41018000Y-17918351D01*
X41081677Y-17897942D01*
X41072174Y-17915794D01*
G36*
X32661964Y-17780307D02*
X32769515Y-17847286D01*
X32800608Y-17948355D01*
X32772755Y-18034982D01*
X32691296Y-18105355D01*
X32565102Y-18124000D01*
X32458913Y-18112292D01*
X32406320Y-18083537D01*
X32405091Y-18077818D01*
X32445748Y-18047546D01*
X32545977Y-18032133D01*
X32570113Y-18031637D01*
X32680766Y-18022614D01*
X32720902Y-17988086D01*
X32719826Y-17950818D01*
X32661667Y-17882055D01*
X32554803Y-17855529D01*
X32454814Y-17831768D01*
X32406143Y-17795642D01*
X32420774Y-17764608D01*
X32485909Y-17755176D01*
X32661964Y-17780307D01*
X32661964Y-17780307D01*
G37*
X32661964Y-17780307D02*
X32769515Y-17847286D01*
X32800608Y-17948355D01*
X32772755Y-18034982D01*
X32691296Y-18105355D01*
X32565102Y-18124000D01*
X32458913Y-18112292D01*
X32406320Y-18083537D01*
X32405091Y-18077818D01*
X32445748Y-18047546D01*
X32545977Y-18032133D01*
X32570113Y-18031637D01*
X32680766Y-18022614D01*
X32720902Y-17988086D01*
X32719826Y-17950818D01*
X32661667Y-17882055D01*
X32554803Y-17855529D01*
X32454814Y-17831768D01*
X32406143Y-17795642D01*
X32420774Y-17764608D01*
X32485909Y-17755176D01*
X32661964Y-17780307D01*
G36*
X32358909Y-17916182D02*
X32335818Y-17939273D01*
X32312727Y-17916182D01*
X32335818Y-17893091D01*
X32358909Y-17916182D01*
X32358909Y-17916182D01*
G37*
X32358909Y-17916182D02*
X32335818Y-17939273D01*
X32312727Y-17916182D01*
X32335818Y-17893091D01*
X32358909Y-17916182D01*
G36*
X40993504Y-17445946D02*
X41042470Y-17454726D01*
X41029545Y-17463107D01*
X40956675Y-17505614D01*
X40973101Y-17571592D01*
X41018000Y-17616000D01*
X41076254Y-17686307D01*
X41087273Y-17721176D01*
X41059206Y-17729930D01*
X40994909Y-17685273D01*
X40921283Y-17629739D01*
X40865519Y-17639073D01*
X40818091Y-17678115D01*
X40730241Y-17743772D01*
X40692179Y-17747549D01*
X40715597Y-17695178D01*
X40755950Y-17647660D01*
X40835703Y-17552703D01*
X40845273Y-17499832D01*
X40784312Y-17470684D01*
X40752454Y-17463865D01*
X40733518Y-17452748D01*
X40793756Y-17445083D01*
X40879454Y-17442919D01*
X40993504Y-17445946D01*
X40993504Y-17445946D01*
G37*
X40993504Y-17445946D02*
X41042470Y-17454726D01*
X41029545Y-17463107D01*
X40956675Y-17505614D01*
X40973101Y-17571592D01*
X41018000Y-17616000D01*
X41076254Y-17686307D01*
X41087273Y-17721176D01*
X41059206Y-17729930D01*
X40994909Y-17685273D01*
X40921283Y-17629739D01*
X40865519Y-17639073D01*
X40818091Y-17678115D01*
X40730241Y-17743772D01*
X40692179Y-17747549D01*
X40715597Y-17695178D01*
X40755950Y-17647660D01*
X40835703Y-17552703D01*
X40845273Y-17499832D01*
X40784312Y-17470684D01*
X40752454Y-17463865D01*
X40733518Y-17452748D01*
X40793756Y-17445083D01*
X40879454Y-17442919D01*
X40993504Y-17445946D01*
G36*
X32775656Y-17381201D02*
X32793742Y-17414688D01*
X32805414Y-17511959D01*
X32782966Y-17607461D01*
X32737517Y-17660322D01*
X32726406Y-17662182D01*
X32705682Y-17622862D01*
X32710473Y-17526731D01*
X32713061Y-17512091D01*
X32722025Y-17415816D01*
X32698752Y-17403765D01*
X32647167Y-17475174D01*
X32617575Y-17530717D01*
X32544506Y-17628462D01*
X32469462Y-17651593D01*
X32436841Y-17632356D01*
X32408245Y-17555682D01*
X32410951Y-17451064D01*
X32441826Y-17370742D01*
X32453124Y-17360856D01*
X32481495Y-17371512D01*
X32471208Y-17450494D01*
X32464003Y-17543437D01*
X32491568Y-17569818D01*
X32539126Y-17530579D01*
X32570854Y-17454364D01*
X32624286Y-17366087D01*
X32703607Y-17339732D01*
X32775656Y-17381201D01*
X32775656Y-17381201D01*
G37*
X32775656Y-17381201D02*
X32793742Y-17414688D01*
X32805414Y-17511959D01*
X32782966Y-17607461D01*
X32737517Y-17660322D01*
X32726406Y-17662182D01*
X32705682Y-17622862D01*
X32710473Y-17526731D01*
X32713061Y-17512091D01*
X32722025Y-17415816D01*
X32698752Y-17403765D01*
X32647167Y-17475174D01*
X32617575Y-17530717D01*
X32544506Y-17628462D01*
X32469462Y-17651593D01*
X32436841Y-17632356D01*
X32408245Y-17555682D01*
X32410951Y-17451064D01*
X32441826Y-17370742D01*
X32453124Y-17360856D01*
X32481495Y-17371512D01*
X32471208Y-17450494D01*
X32464003Y-17543437D01*
X32491568Y-17569818D01*
X32539126Y-17530579D01*
X32570854Y-17454364D01*
X32624286Y-17366087D01*
X32703607Y-17339732D01*
X32775656Y-17381201D01*
G36*
X41001609Y-17209425D02*
X41077082Y-17232381D01*
X41087273Y-17246546D01*
X41046342Y-17275641D01*
X40944266Y-17291653D01*
X40905271Y-17292728D01*
X40782301Y-17281992D01*
X40703480Y-17255329D01*
X40694727Y-17246546D01*
X40716633Y-17217200D01*
X40817094Y-17201841D01*
X40876729Y-17200364D01*
X41001609Y-17209425D01*
X41001609Y-17209425D01*
G37*
X41001609Y-17209425D02*
X41077082Y-17232381D01*
X41087273Y-17246546D01*
X41046342Y-17275641D01*
X40944266Y-17291653D01*
X40905271Y-17292728D01*
X40782301Y-17281992D01*
X40703480Y-17255329D01*
X40694727Y-17246546D01*
X40716633Y-17217200D01*
X40817094Y-17201841D01*
X40876729Y-17200364D01*
X41001609Y-17209425D01*
G36*
X32435676Y-16957909D02*
X32493248Y-16997202D01*
X32602232Y-17015472D01*
X32614032Y-17015637D01*
X32727698Y-17028167D01*
X32795313Y-17058649D01*
X32797636Y-17061818D01*
X32777026Y-17092291D01*
X32679938Y-17107220D01*
X32642112Y-17108000D01*
X32510198Y-17120597D01*
X32446968Y-17163880D01*
X32436925Y-17188818D01*
X32423843Y-17199943D01*
X32415443Y-17133842D01*
X32414094Y-17084909D01*
X32417906Y-16984390D01*
X32429517Y-16949224D01*
X32435676Y-16957909D01*
X32435676Y-16957909D01*
G37*
X32435676Y-16957909D02*
X32493248Y-16997202D01*
X32602232Y-17015472D01*
X32614032Y-17015637D01*
X32727698Y-17028167D01*
X32795313Y-17058649D01*
X32797636Y-17061818D01*
X32777026Y-17092291D01*
X32679938Y-17107220D01*
X32642112Y-17108000D01*
X32510198Y-17120597D01*
X32446968Y-17163880D01*
X32436925Y-17188818D01*
X32423843Y-17199943D01*
X32415443Y-17133842D01*
X32414094Y-17084909D01*
X32417906Y-16984390D01*
X32429517Y-16949224D01*
X32435676Y-16957909D01*
G36*
X40814608Y-16836324D02*
X40868965Y-16877091D01*
X40968158Y-16949052D01*
X41019847Y-16958982D01*
X41046184Y-16905504D01*
X41054680Y-16865546D01*
X41068906Y-16818072D01*
X41077921Y-16858403D01*
X41080983Y-16911728D01*
X41074757Y-17021388D01*
X41035736Y-17054864D01*
X40952124Y-17015441D01*
X40885682Y-16966103D01*
X40764000Y-16870387D01*
X40764000Y-16966103D01*
X40745269Y-17042948D01*
X40717818Y-17061818D01*
X40685392Y-17021688D01*
X40671640Y-16924997D01*
X40671636Y-16923273D01*
X40683379Y-16819704D01*
X40726893Y-16791691D01*
X40814608Y-16836324D01*
X40814608Y-16836324D01*
G37*
X40814608Y-16836324D02*
X40868965Y-16877091D01*
X40968158Y-16949052D01*
X41019847Y-16958982D01*
X41046184Y-16905504D01*
X41054680Y-16865546D01*
X41068906Y-16818072D01*
X41077921Y-16858403D01*
X41080983Y-16911728D01*
X41074757Y-17021388D01*
X41035736Y-17054864D01*
X40952124Y-17015441D01*
X40885682Y-16966103D01*
X40764000Y-16870387D01*
X40764000Y-16966103D01*
X40745269Y-17042948D01*
X40717818Y-17061818D01*
X40685392Y-17021688D01*
X40671640Y-16924997D01*
X40671636Y-16923273D01*
X40683379Y-16819704D01*
X40726893Y-16791691D01*
X40814608Y-16836324D01*
G36*
X32800924Y-16532090D02*
X32752606Y-16579524D01*
X32690950Y-16644468D01*
X32703625Y-16714519D01*
X32718361Y-16739691D01*
X32746948Y-16806808D01*
X32713881Y-16827848D01*
X32610872Y-16804482D01*
X32532091Y-16777233D01*
X32429987Y-16723461D01*
X32418569Y-16668571D01*
X32516201Y-16668571D01*
X32520545Y-16692364D01*
X32579587Y-16736784D01*
X32592543Y-16738546D01*
X32634756Y-16703321D01*
X32636000Y-16692364D01*
X32598410Y-16651834D01*
X32564002Y-16646182D01*
X32516201Y-16668571D01*
X32418569Y-16668571D01*
X32418331Y-16667427D01*
X32497660Y-16605829D01*
X32565244Y-16574553D01*
X32701991Y-16525237D01*
X32784146Y-16511178D01*
X32800924Y-16532090D01*
X32800924Y-16532090D01*
G37*
X32800924Y-16532090D02*
X32752606Y-16579524D01*
X32690950Y-16644468D01*
X32703625Y-16714519D01*
X32718361Y-16739691D01*
X32746948Y-16806808D01*
X32713881Y-16827848D01*
X32610872Y-16804482D01*
X32532091Y-16777233D01*
X32429987Y-16723461D01*
X32418569Y-16668571D01*
X32516201Y-16668571D01*
X32520545Y-16692364D01*
X32579587Y-16736784D01*
X32592543Y-16738546D01*
X32634756Y-16703321D01*
X32636000Y-16692364D01*
X32598410Y-16651834D01*
X32564002Y-16646182D01*
X32516201Y-16668571D01*
X32418569Y-16668571D01*
X32418331Y-16667427D01*
X32497660Y-16605829D01*
X32565244Y-16574553D01*
X32701991Y-16525237D01*
X32784146Y-16511178D01*
X32800924Y-16532090D01*
G36*
X41072174Y-16391794D02*
X41020719Y-16434594D01*
X40958802Y-16492330D01*
X40969041Y-16532642D01*
X41020646Y-16573133D01*
X41079427Y-16632184D01*
X41083829Y-16665020D01*
X41031900Y-16661160D01*
X40968447Y-16624083D01*
X40851918Y-16568892D01*
X40772820Y-16555287D01*
X40699291Y-16538195D01*
X40702691Y-16501476D01*
X40775201Y-16462229D01*
X40821045Y-16449817D01*
X40950124Y-16416069D01*
X41018000Y-16394351D01*
X41081677Y-16373942D01*
X41072174Y-16391794D01*
X41072174Y-16391794D01*
G37*
X41072174Y-16391794D02*
X41020719Y-16434594D01*
X40958802Y-16492330D01*
X40969041Y-16532642D01*
X41020646Y-16573133D01*
X41079427Y-16632184D01*
X41083829Y-16665020D01*
X41031900Y-16661160D01*
X40968447Y-16624083D01*
X40851918Y-16568892D01*
X40772820Y-16555287D01*
X40699291Y-16538195D01*
X40702691Y-16501476D01*
X40775201Y-16462229D01*
X40821045Y-16449817D01*
X40950124Y-16416069D01*
X41018000Y-16394351D01*
X41081677Y-16373942D01*
X41072174Y-16391794D01*
G36*
X32465259Y-16103390D02*
X32567602Y-16140882D01*
X32658722Y-16180182D01*
X32769704Y-16232115D01*
X32805858Y-16265057D01*
X32777552Y-16295694D01*
X32742649Y-16315264D01*
X32593866Y-16386464D01*
X32477050Y-16426740D01*
X32412109Y-16429995D01*
X32405091Y-16418648D01*
X32443800Y-16376989D01*
X32538642Y-16328106D01*
X32555182Y-16321634D01*
X32705273Y-16265142D01*
X32555182Y-16218072D01*
X32454196Y-16176060D01*
X32405811Y-16135600D01*
X32405091Y-16131501D01*
X32417118Y-16101421D01*
X32465259Y-16103390D01*
X32465259Y-16103390D01*
G37*
X32465259Y-16103390D02*
X32567602Y-16140882D01*
X32658722Y-16180182D01*
X32769704Y-16232115D01*
X32805858Y-16265057D01*
X32777552Y-16295694D01*
X32742649Y-16315264D01*
X32593866Y-16386464D01*
X32477050Y-16426740D01*
X32412109Y-16429995D01*
X32405091Y-16418648D01*
X32443800Y-16376989D01*
X32538642Y-16328106D01*
X32555182Y-16321634D01*
X32705273Y-16265142D01*
X32555182Y-16218072D01*
X32454196Y-16176060D01*
X32405811Y-16135600D01*
X32405091Y-16131501D01*
X32417118Y-16101421D01*
X32465259Y-16103390D01*
G36*
X41005354Y-15956821D02*
X41065827Y-15978778D01*
X41082358Y-16037116D01*
X41080983Y-16103546D01*
X41073909Y-16188418D01*
X41062475Y-16183990D01*
X41054680Y-16149728D01*
X41015301Y-16068535D01*
X40971818Y-16045818D01*
X40915149Y-16085070D01*
X40888955Y-16149728D01*
X40868942Y-16253637D01*
X40862653Y-16149728D01*
X40832641Y-16068582D01*
X40789816Y-16045818D01*
X40711189Y-16017673D01*
X40694727Y-15999637D01*
X40716633Y-15970291D01*
X40817094Y-15954932D01*
X40876729Y-15953455D01*
X41005354Y-15956821D01*
X41005354Y-15956821D01*
G37*
X41005354Y-15956821D02*
X41065827Y-15978778D01*
X41082358Y-16037116D01*
X41080983Y-16103546D01*
X41073909Y-16188418D01*
X41062475Y-16183990D01*
X41054680Y-16149728D01*
X41015301Y-16068535D01*
X40971818Y-16045818D01*
X40915149Y-16085070D01*
X40888955Y-16149728D01*
X40868942Y-16253637D01*
X40862653Y-16149728D01*
X40832641Y-16068582D01*
X40789816Y-16045818D01*
X40711189Y-16017673D01*
X40694727Y-15999637D01*
X40716633Y-15970291D01*
X40817094Y-15954932D01*
X40876729Y-15953455D01*
X41005354Y-15956821D01*
G36*
X32436925Y-15364637D02*
X32488686Y-15425753D01*
X32610258Y-15445431D01*
X32616295Y-15445455D01*
X32721779Y-15457284D01*
X32773485Y-15486295D01*
X32774545Y-15491637D01*
X32734009Y-15522420D01*
X32634599Y-15537509D01*
X32616295Y-15537818D01*
X32491846Y-15556096D01*
X32437776Y-15615556D01*
X32436925Y-15618637D01*
X32424757Y-15626986D01*
X32417125Y-15558716D01*
X32415805Y-15491637D01*
X32419688Y-15386770D01*
X32429595Y-15349570D01*
X32436925Y-15364637D01*
X32436925Y-15364637D01*
G37*
X32436925Y-15364637D02*
X32488686Y-15425753D01*
X32610258Y-15445431D01*
X32616295Y-15445455D01*
X32721779Y-15457284D01*
X32773485Y-15486295D01*
X32774545Y-15491637D01*
X32734009Y-15522420D01*
X32634599Y-15537509D01*
X32616295Y-15537818D01*
X32491846Y-15556096D01*
X32437776Y-15615556D01*
X32436925Y-15618637D01*
X32424757Y-15626986D01*
X32417125Y-15558716D01*
X32415805Y-15491637D01*
X32419688Y-15386770D01*
X32429595Y-15349570D01*
X32436925Y-15364637D01*
G36*
X41164242Y-15414667D02*
X41169769Y-15469474D01*
X41164242Y-15476243D01*
X41136787Y-15469903D01*
X41133454Y-15445455D01*
X41150352Y-15407442D01*
X41164242Y-15414667D01*
X41164242Y-15414667D01*
G37*
X41164242Y-15414667D02*
X41169769Y-15469474D01*
X41164242Y-15476243D01*
X41136787Y-15469903D01*
X41133454Y-15445455D01*
X41150352Y-15407442D01*
X41164242Y-15414667D01*
G36*
X41007089Y-15412946D02*
X41025673Y-15423762D01*
X40965165Y-15430734D01*
X40879454Y-15432246D01*
X40774671Y-15428790D01*
X40744023Y-15420515D01*
X40776180Y-15412316D01*
X40912758Y-15404718D01*
X41007089Y-15412946D01*
X41007089Y-15412946D01*
G37*
X41007089Y-15412946D02*
X41025673Y-15423762D01*
X40965165Y-15430734D01*
X40879454Y-15432246D01*
X40774671Y-15428790D01*
X40744023Y-15420515D01*
X40776180Y-15412316D01*
X40912758Y-15404718D01*
X41007089Y-15412946D01*
G36*
X40995702Y-14948697D02*
X41074776Y-14968653D01*
X41087273Y-14983637D01*
X41060569Y-15029380D01*
X41052636Y-15030845D01*
X40994815Y-15057166D01*
X40905314Y-15118483D01*
X40792628Y-15205093D01*
X40911446Y-15182380D01*
X41011088Y-15182520D01*
X41061494Y-15210197D01*
X41043634Y-15244396D01*
X40935838Y-15259767D01*
X40882180Y-15260728D01*
X40757297Y-15251899D01*
X40681824Y-15229531D01*
X40671636Y-15215732D01*
X40708519Y-15166500D01*
X40799473Y-15102711D01*
X40821727Y-15090286D01*
X40971818Y-15009836D01*
X40810182Y-14979725D01*
X40720110Y-14961623D01*
X40706281Y-14951797D01*
X40774749Y-14946451D01*
X40867909Y-14943534D01*
X40995702Y-14948697D01*
X40995702Y-14948697D01*
G37*
X40995702Y-14948697D02*
X41074776Y-14968653D01*
X41087273Y-14983637D01*
X41060569Y-15029380D01*
X41052636Y-15030845D01*
X40994815Y-15057166D01*
X40905314Y-15118483D01*
X40792628Y-15205093D01*
X40911446Y-15182380D01*
X41011088Y-15182520D01*
X41061494Y-15210197D01*
X41043634Y-15244396D01*
X40935838Y-15259767D01*
X40882180Y-15260728D01*
X40757297Y-15251899D01*
X40681824Y-15229531D01*
X40671636Y-15215732D01*
X40708519Y-15166500D01*
X40799473Y-15102711D01*
X40821727Y-15090286D01*
X40971818Y-15009836D01*
X40810182Y-14979725D01*
X40720110Y-14961623D01*
X40706281Y-14951797D01*
X40774749Y-14946451D01*
X40867909Y-14943534D01*
X40995702Y-14948697D01*
G36*
X32774545Y-14914364D02*
X32807818Y-14976795D01*
X32820727Y-15078726D01*
X32814464Y-15162261D01*
X32778976Y-15201828D01*
X32689216Y-15213796D01*
X32612909Y-15214546D01*
X32485327Y-15210993D01*
X32425545Y-15188244D01*
X32409008Y-15128161D01*
X32409694Y-15064455D01*
X32415206Y-14972945D01*
X32426843Y-14967247D01*
X32444330Y-15020998D01*
X32484260Y-15103113D01*
X32520545Y-15127633D01*
X32567035Y-15088837D01*
X32596760Y-15020998D01*
X32618442Y-14952902D01*
X32627696Y-14968811D01*
X32631396Y-15041364D01*
X32651915Y-15142949D01*
X32688792Y-15163418D01*
X32720583Y-15105926D01*
X32728363Y-15027093D01*
X32740871Y-14934771D01*
X32772961Y-14913453D01*
X32774545Y-14914364D01*
X32774545Y-14914364D01*
G37*
X32774545Y-14914364D02*
X32807818Y-14976795D01*
X32820727Y-15078726D01*
X32814464Y-15162261D01*
X32778976Y-15201828D01*
X32689216Y-15213796D01*
X32612909Y-15214546D01*
X32485327Y-15210993D01*
X32425545Y-15188244D01*
X32409008Y-15128161D01*
X32409694Y-15064455D01*
X32415206Y-14972945D01*
X32426843Y-14967247D01*
X32444330Y-15020998D01*
X32484260Y-15103113D01*
X32520545Y-15127633D01*
X32567035Y-15088837D01*
X32596760Y-15020998D01*
X32618442Y-14952902D01*
X32627696Y-14968811D01*
X32631396Y-15041364D01*
X32651915Y-15142949D01*
X32688792Y-15163418D01*
X32720583Y-15105926D01*
X32728363Y-15027093D01*
X32740871Y-14934771D01*
X32772961Y-14913453D01*
X32774545Y-14914364D01*
G36*
X40994909Y-14470432D02*
X40954523Y-14509169D01*
X40855181Y-14543425D01*
X40833664Y-14547883D01*
X40727425Y-14576016D01*
X40691427Y-14619980D01*
X40700125Y-14688521D01*
X40711517Y-14777758D01*
X40692328Y-14794393D01*
X40654615Y-14728775D01*
X40653486Y-14725859D01*
X40627632Y-14596888D01*
X40673155Y-14520983D01*
X40717818Y-14501840D01*
X40845350Y-14465660D01*
X40902545Y-14449434D01*
X40975891Y-14447223D01*
X40994909Y-14470432D01*
X40994909Y-14470432D01*
G37*
X40994909Y-14470432D02*
X40954523Y-14509169D01*
X40855181Y-14543425D01*
X40833664Y-14547883D01*
X40727425Y-14576016D01*
X40691427Y-14619980D01*
X40700125Y-14688521D01*
X40711517Y-14777758D01*
X40692328Y-14794393D01*
X40654615Y-14728775D01*
X40653486Y-14725859D01*
X40627632Y-14596888D01*
X40673155Y-14520983D01*
X40717818Y-14501840D01*
X40845350Y-14465660D01*
X40902545Y-14449434D01*
X40975891Y-14447223D01*
X40994909Y-14470432D01*
G36*
X32611785Y-14425207D02*
X32596197Y-14444447D01*
X32554147Y-14543659D01*
X32583832Y-14622872D01*
X32671958Y-14653746D01*
X32693521Y-14651908D01*
X32773937Y-14614520D01*
X32786635Y-14533214D01*
X32795062Y-14452630D01*
X32821272Y-14429455D01*
X32857794Y-14466464D01*
X32864757Y-14551508D01*
X32843585Y-14645606D01*
X32811491Y-14697309D01*
X32702344Y-14749233D01*
X32580552Y-14723425D01*
X32525821Y-14682133D01*
X32484422Y-14585245D01*
X32504752Y-14475494D01*
X32576463Y-14397115D01*
X32594228Y-14389687D01*
X32635228Y-14383818D01*
X32611785Y-14425207D01*
X32611785Y-14425207D01*
G37*
X32611785Y-14425207D02*
X32596197Y-14444447D01*
X32554147Y-14543659D01*
X32583832Y-14622872D01*
X32671958Y-14653746D01*
X32693521Y-14651908D01*
X32773937Y-14614520D01*
X32786635Y-14533214D01*
X32795062Y-14452630D01*
X32821272Y-14429455D01*
X32857794Y-14466464D01*
X32864757Y-14551508D01*
X32843585Y-14645606D01*
X32811491Y-14697309D01*
X32702344Y-14749233D01*
X32580552Y-14723425D01*
X32525821Y-14682133D01*
X32484422Y-14585245D01*
X32504752Y-14475494D01*
X32576463Y-14397115D01*
X32594228Y-14389687D01*
X32635228Y-14383818D01*
X32611785Y-14425207D01*
G36*
X40767622Y-14200272D02*
X40651774Y-14321179D01*
X40585011Y-14372731D01*
X40559064Y-14357977D01*
X40565665Y-14279962D01*
X40566733Y-14274289D01*
X40561361Y-14183418D01*
X40508637Y-14152364D01*
X40625454Y-14152364D01*
X40660598Y-14197204D01*
X40671636Y-14198546D01*
X40716476Y-14163402D01*
X40717818Y-14152364D01*
X40682675Y-14107524D01*
X40671636Y-14106182D01*
X40626796Y-14141325D01*
X40625454Y-14152364D01*
X40508637Y-14152364D01*
X40485181Y-14138549D01*
X40481527Y-14137575D01*
X40405272Y-14108949D01*
X40414086Y-14083942D01*
X40510473Y-14061328D01*
X40677018Y-14041735D01*
X40934901Y-14017271D01*
X40767622Y-14200272D01*
X40767622Y-14200272D01*
G37*
X40767622Y-14200272D02*
X40651774Y-14321179D01*
X40585011Y-14372731D01*
X40559064Y-14357977D01*
X40565665Y-14279962D01*
X40566733Y-14274289D01*
X40561361Y-14183418D01*
X40508637Y-14152364D01*
X40625454Y-14152364D01*
X40660598Y-14197204D01*
X40671636Y-14198546D01*
X40716476Y-14163402D01*
X40717818Y-14152364D01*
X40682675Y-14107524D01*
X40671636Y-14106182D01*
X40626796Y-14141325D01*
X40625454Y-14152364D01*
X40508637Y-14152364D01*
X40485181Y-14138549D01*
X40481527Y-14137575D01*
X40405272Y-14108949D01*
X40414086Y-14083942D01*
X40510473Y-14061328D01*
X40677018Y-14041735D01*
X40934901Y-14017271D01*
X40767622Y-14200272D01*
G36*
X32942408Y-13935922D02*
X32961566Y-13945732D01*
X33058113Y-14008943D01*
X33095663Y-14059840D01*
X33068265Y-14082784D01*
X33010666Y-14074744D01*
X32919801Y-14080647D01*
X32881829Y-14135768D01*
X32913388Y-14208542D01*
X32931890Y-14224209D01*
X32987077Y-14278618D01*
X32972741Y-14300993D01*
X32906407Y-14290186D01*
X32805599Y-14245050D01*
X32786091Y-14233759D01*
X32693455Y-14166888D01*
X32641855Y-14109559D01*
X32639095Y-14078045D01*
X32692975Y-14088622D01*
X32723747Y-14103711D01*
X32800143Y-14124804D01*
X32839998Y-14076392D01*
X32838131Y-13979802D01*
X32815869Y-13938692D01*
X32785444Y-13885527D01*
X32826981Y-13884573D01*
X32942408Y-13935922D01*
X32942408Y-13935922D01*
G37*
X32942408Y-13935922D02*
X32961566Y-13945732D01*
X33058113Y-14008943D01*
X33095663Y-14059840D01*
X33068265Y-14082784D01*
X33010666Y-14074744D01*
X32919801Y-14080647D01*
X32881829Y-14135768D01*
X32913388Y-14208542D01*
X32931890Y-14224209D01*
X32987077Y-14278618D01*
X32972741Y-14300993D01*
X32906407Y-14290186D01*
X32805599Y-14245050D01*
X32786091Y-14233759D01*
X32693455Y-14166888D01*
X32641855Y-14109559D01*
X32639095Y-14078045D01*
X32692975Y-14088622D01*
X32723747Y-14103711D01*
X32800143Y-14124804D01*
X32839998Y-14076392D01*
X32838131Y-13979802D01*
X32815869Y-13938692D01*
X32785444Y-13885527D01*
X32826981Y-13884573D01*
X32942408Y-13935922D01*
G36*
X33282177Y-13492535D02*
X33353225Y-13570912D01*
X33417270Y-13664292D01*
X33452378Y-13742197D01*
X33449415Y-13769979D01*
X33392106Y-13773082D01*
X33299863Y-13742500D01*
X33191275Y-13707389D01*
X33152334Y-13727961D01*
X33187989Y-13799297D01*
X33213016Y-13828808D01*
X33257763Y-13895015D01*
X33246666Y-13921455D01*
X33189379Y-13887012D01*
X33112003Y-13801990D01*
X33095925Y-13780250D01*
X33028920Y-13667589D01*
X33032912Y-13613108D01*
X33110124Y-13613328D01*
X33187824Y-13636622D01*
X33294558Y-13664458D01*
X33323133Y-13643619D01*
X33275808Y-13570865D01*
X33252297Y-13544091D01*
X33212295Y-13481732D01*
X33226061Y-13459637D01*
X33282177Y-13492535D01*
X33282177Y-13492535D01*
G37*
X33282177Y-13492535D02*
X33353225Y-13570912D01*
X33417270Y-13664292D01*
X33452378Y-13742197D01*
X33449415Y-13769979D01*
X33392106Y-13773082D01*
X33299863Y-13742500D01*
X33191275Y-13707389D01*
X33152334Y-13727961D01*
X33187989Y-13799297D01*
X33213016Y-13828808D01*
X33257763Y-13895015D01*
X33246666Y-13921455D01*
X33189379Y-13887012D01*
X33112003Y-13801990D01*
X33095925Y-13780250D01*
X33028920Y-13667589D01*
X33032912Y-13613108D01*
X33110124Y-13613328D01*
X33187824Y-13636622D01*
X33294558Y-13664458D01*
X33323133Y-13643619D01*
X33275808Y-13570865D01*
X33252297Y-13544091D01*
X33212295Y-13481732D01*
X33226061Y-13459637D01*
X33282177Y-13492535D01*
G36*
X40389101Y-13538067D02*
X40465577Y-13602855D01*
X40490404Y-13628720D01*
X40547197Y-13698273D01*
X40551324Y-13720773D01*
X40540883Y-13716039D01*
X40463447Y-13722193D01*
X40353020Y-13801653D01*
X40344611Y-13809596D01*
X40261537Y-13881487D01*
X40214090Y-13907627D01*
X40209818Y-13902743D01*
X40235834Y-13844719D01*
X40298804Y-13753650D01*
X40302418Y-13749029D01*
X40361616Y-13652199D01*
X40354001Y-13583829D01*
X40342945Y-13568563D01*
X40309145Y-13513316D01*
X40330744Y-13505686D01*
X40389101Y-13538067D01*
X40389101Y-13538067D01*
G37*
X40389101Y-13538067D02*
X40465577Y-13602855D01*
X40490404Y-13628720D01*
X40547197Y-13698273D01*
X40551324Y-13720773D01*
X40540883Y-13716039D01*
X40463447Y-13722193D01*
X40353020Y-13801653D01*
X40344611Y-13809596D01*
X40261537Y-13881487D01*
X40214090Y-13907627D01*
X40209818Y-13902743D01*
X40235834Y-13844719D01*
X40298804Y-13753650D01*
X40302418Y-13749029D01*
X40361616Y-13652199D01*
X40354001Y-13583829D01*
X40342945Y-13568563D01*
X40309145Y-13513316D01*
X40330744Y-13505686D01*
X40389101Y-13538067D01*
G36*
X39902685Y-13281744D02*
X39918445Y-13302237D01*
X39967735Y-13413880D01*
X39982555Y-13503100D01*
X39986201Y-13621273D01*
X40032585Y-13494273D01*
X40078604Y-13403406D01*
X40121303Y-13367273D01*
X40156424Y-13383175D01*
X40148657Y-13441304D01*
X40094741Y-13557296D01*
X40073125Y-13598182D01*
X39986486Y-13759818D01*
X39936516Y-13629812D01*
X39899307Y-13518423D01*
X39883420Y-13445085D01*
X39865274Y-13438127D01*
X39830181Y-13494273D01*
X39775889Y-13584192D01*
X39745590Y-13594240D01*
X39745110Y-13535102D01*
X39780276Y-13417468D01*
X39783614Y-13408864D01*
X39832070Y-13295799D01*
X39866480Y-13257601D01*
X39902685Y-13281744D01*
X39902685Y-13281744D01*
G37*
X39902685Y-13281744D02*
X39918445Y-13302237D01*
X39967735Y-13413880D01*
X39982555Y-13503100D01*
X39986201Y-13621273D01*
X40032585Y-13494273D01*
X40078604Y-13403406D01*
X40121303Y-13367273D01*
X40156424Y-13383175D01*
X40148657Y-13441304D01*
X40094741Y-13557296D01*
X40073125Y-13598182D01*
X39986486Y-13759818D01*
X39936516Y-13629812D01*
X39899307Y-13518423D01*
X39883420Y-13445085D01*
X39865274Y-13438127D01*
X39830181Y-13494273D01*
X39775889Y-13584192D01*
X39745590Y-13594240D01*
X39745110Y-13535102D01*
X39780276Y-13417468D01*
X39783614Y-13408864D01*
X39832070Y-13295799D01*
X39866480Y-13257601D01*
X39902685Y-13281744D01*
G36*
X33507893Y-13309912D02*
X33553616Y-13381960D01*
X33576732Y-13432091D01*
X33623616Y-13561235D01*
X33632001Y-13625604D01*
X33605877Y-13617652D01*
X33549233Y-13529832D01*
X33537146Y-13506979D01*
X33491500Y-13394779D01*
X33479376Y-13312773D01*
X33480957Y-13306415D01*
X33507893Y-13309912D01*
X33507893Y-13309912D01*
G37*
X33507893Y-13309912D02*
X33553616Y-13381960D01*
X33576732Y-13432091D01*
X33623616Y-13561235D01*
X33632001Y-13625604D01*
X33605877Y-13617652D01*
X33549233Y-13529832D01*
X33537146Y-13506979D01*
X33491500Y-13394779D01*
X33479376Y-13312773D01*
X33480957Y-13306415D01*
X33507893Y-13309912D01*
G36*
X34010521Y-13179189D02*
X34055522Y-13212803D01*
X34021837Y-13225552D01*
X33968668Y-13227323D01*
X33855829Y-13258443D01*
X33816711Y-13336808D01*
X33857992Y-13441859D01*
X33915982Y-13497849D01*
X33976851Y-13476863D01*
X33994482Y-13462858D01*
X34067628Y-13425752D01*
X34102051Y-13432476D01*
X34098939Y-13476848D01*
X34037167Y-13522997D01*
X33947601Y-13549996D01*
X33926782Y-13551293D01*
X33832161Y-13521285D01*
X33799782Y-13496582D01*
X33746152Y-13394422D01*
X33757290Y-13287291D01*
X33816845Y-13199818D01*
X33908461Y-13156633D01*
X34010521Y-13179189D01*
X34010521Y-13179189D01*
G37*
X34010521Y-13179189D02*
X34055522Y-13212803D01*
X34021837Y-13225552D01*
X33968668Y-13227323D01*
X33855829Y-13258443D01*
X33816711Y-13336808D01*
X33857992Y-13441859D01*
X33915982Y-13497849D01*
X33976851Y-13476863D01*
X33994482Y-13462858D01*
X34067628Y-13425752D01*
X34102051Y-13432476D01*
X34098939Y-13476848D01*
X34037167Y-13522997D01*
X33947601Y-13549996D01*
X33926782Y-13551293D01*
X33832161Y-13521285D01*
X33799782Y-13496582D01*
X33746152Y-13394422D01*
X33757290Y-13287291D01*
X33816845Y-13199818D01*
X33908461Y-13156633D01*
X34010521Y-13179189D01*
G36*
X39571215Y-13150501D02*
X39609454Y-13183426D01*
X39571141Y-13209379D01*
X39487979Y-13199999D01*
X39403307Y-13196347D01*
X39383527Y-13230586D01*
X39423043Y-13280918D01*
X39516261Y-13325544D01*
X39520515Y-13326759D01*
X39595203Y-13349515D01*
X39584427Y-13358774D01*
X39505545Y-13362670D01*
X39413290Y-13379327D01*
X39378545Y-13409606D01*
X39417040Y-13453955D01*
X39505545Y-13498324D01*
X39579075Y-13530212D01*
X39566376Y-13542577D01*
X39540182Y-13542997D01*
X39418367Y-13530709D01*
X39367000Y-13520166D01*
X39301982Y-13470211D01*
X39290871Y-13361547D01*
X39315289Y-13240273D01*
X39365180Y-13160143D01*
X39471471Y-13136385D01*
X39476295Y-13136364D01*
X39571215Y-13150501D01*
X39571215Y-13150501D01*
G37*
X39571215Y-13150501D02*
X39609454Y-13183426D01*
X39571141Y-13209379D01*
X39487979Y-13199999D01*
X39403307Y-13196347D01*
X39383527Y-13230586D01*
X39423043Y-13280918D01*
X39516261Y-13325544D01*
X39520515Y-13326759D01*
X39595203Y-13349515D01*
X39584427Y-13358774D01*
X39505545Y-13362670D01*
X39413290Y-13379327D01*
X39378545Y-13409606D01*
X39417040Y-13453955D01*
X39505545Y-13498324D01*
X39579075Y-13530212D01*
X39566376Y-13542577D01*
X39540182Y-13542997D01*
X39418367Y-13530709D01*
X39367000Y-13520166D01*
X39301982Y-13470211D01*
X39290871Y-13361547D01*
X39315289Y-13240273D01*
X39365180Y-13160143D01*
X39471471Y-13136385D01*
X39476295Y-13136364D01*
X39571215Y-13150501D01*
G36*
X34335021Y-13129190D02*
X34344727Y-13190596D01*
X34348247Y-13253704D01*
X34372721Y-13260001D01*
X34439016Y-13207585D01*
X34471397Y-13179050D01*
X34542255Y-13119287D01*
X34549648Y-13122496D01*
X34516871Y-13163873D01*
X34465984Y-13235126D01*
X34468947Y-13293064D01*
X34528613Y-13378801D01*
X34532099Y-13383236D01*
X34583404Y-13464064D01*
X34585155Y-13504687D01*
X34579379Y-13505818D01*
X34519011Y-13470757D01*
X34472555Y-13413455D01*
X34414472Y-13341500D01*
X34379800Y-13321091D01*
X34351279Y-13359862D01*
X34344727Y-13413455D01*
X34325387Y-13488499D01*
X34298545Y-13505818D01*
X34271003Y-13464542D01*
X34254482Y-13360107D01*
X34252363Y-13298000D01*
X34261536Y-13174062D01*
X34284744Y-13099718D01*
X34298545Y-13090182D01*
X34335021Y-13129190D01*
X34335021Y-13129190D01*
G37*
X34335021Y-13129190D02*
X34344727Y-13190596D01*
X34348247Y-13253704D01*
X34372721Y-13260001D01*
X34439016Y-13207585D01*
X34471397Y-13179050D01*
X34542255Y-13119287D01*
X34549648Y-13122496D01*
X34516871Y-13163873D01*
X34465984Y-13235126D01*
X34468947Y-13293064D01*
X34528613Y-13378801D01*
X34532099Y-13383236D01*
X34583404Y-13464064D01*
X34585155Y-13504687D01*
X34579379Y-13505818D01*
X34519011Y-13470757D01*
X34472555Y-13413455D01*
X34414472Y-13341500D01*
X34379800Y-13321091D01*
X34351279Y-13359862D01*
X34344727Y-13413455D01*
X34325387Y-13488499D01*
X34298545Y-13505818D01*
X34271003Y-13464542D01*
X34254482Y-13360107D01*
X34252363Y-13298000D01*
X34261536Y-13174062D01*
X34284744Y-13099718D01*
X34298545Y-13090182D01*
X34335021Y-13129190D01*
G36*
X34887363Y-13097102D02*
X34985617Y-13103121D01*
X34996158Y-13111457D01*
X34933545Y-13123260D01*
X34832690Y-13162615D01*
X34812852Y-13220903D01*
X34874032Y-13272705D01*
X34933545Y-13288013D01*
X35060545Y-13307252D01*
X34933545Y-13314172D01*
X34835674Y-13340948D01*
X34806545Y-13387296D01*
X34846685Y-13441827D01*
X34933545Y-13472740D01*
X34998703Y-13485467D01*
X34980376Y-13493483D01*
X34887363Y-13498899D01*
X34714182Y-13505818D01*
X34714182Y-13090182D01*
X34887363Y-13097102D01*
X34887363Y-13097102D01*
G37*
X34887363Y-13097102D02*
X34985617Y-13103121D01*
X34996158Y-13111457D01*
X34933545Y-13123260D01*
X34832690Y-13162615D01*
X34812852Y-13220903D01*
X34874032Y-13272705D01*
X34933545Y-13288013D01*
X35060545Y-13307252D01*
X34933545Y-13314172D01*
X34835674Y-13340948D01*
X34806545Y-13387296D01*
X34846685Y-13441827D01*
X34933545Y-13472740D01*
X34998703Y-13485467D01*
X34980376Y-13493483D01*
X34887363Y-13498899D01*
X34714182Y-13505818D01*
X34714182Y-13090182D01*
X34887363Y-13097102D01*
G36*
X35717974Y-13129897D02*
X35767188Y-13230801D01*
X35792310Y-13298000D01*
X35825259Y-13418404D01*
X35830242Y-13493418D01*
X35819742Y-13505818D01*
X35777605Y-13470591D01*
X35776363Y-13459637D01*
X35740967Y-13420523D01*
X35661162Y-13418204D01*
X35576519Y-13451031D01*
X35554691Y-13468873D01*
X35507296Y-13496521D01*
X35499273Y-13474513D01*
X35517338Y-13389598D01*
X35561121Y-13276768D01*
X35573617Y-13251818D01*
X35637818Y-13251818D01*
X35661986Y-13313287D01*
X35682550Y-13321091D01*
X35707960Y-13287240D01*
X35700700Y-13251818D01*
X35667921Y-13191054D01*
X35655968Y-13182546D01*
X35639824Y-13220257D01*
X35637818Y-13251818D01*
X35573617Y-13251818D01*
X35615004Y-13169184D01*
X35663369Y-13100009D01*
X35680278Y-13090182D01*
X35717974Y-13129897D01*
X35717974Y-13129897D01*
G37*
X35717974Y-13129897D02*
X35767188Y-13230801D01*
X35792310Y-13298000D01*
X35825259Y-13418404D01*
X35830242Y-13493418D01*
X35819742Y-13505818D01*
X35777605Y-13470591D01*
X35776363Y-13459637D01*
X35740967Y-13420523D01*
X35661162Y-13418204D01*
X35576519Y-13451031D01*
X35554691Y-13468873D01*
X35507296Y-13496521D01*
X35499273Y-13474513D01*
X35517338Y-13389598D01*
X35561121Y-13276768D01*
X35573617Y-13251818D01*
X35637818Y-13251818D01*
X35661986Y-13313287D01*
X35682550Y-13321091D01*
X35707960Y-13287240D01*
X35700700Y-13251818D01*
X35667921Y-13191054D01*
X35655968Y-13182546D01*
X35639824Y-13220257D01*
X35637818Y-13251818D01*
X35573617Y-13251818D01*
X35615004Y-13169184D01*
X35663369Y-13100009D01*
X35680278Y-13090182D01*
X35717974Y-13129897D01*
G36*
X36480636Y-13094785D02*
X36574102Y-13099892D01*
X36581576Y-13110717D01*
X36518696Y-13130696D01*
X36416279Y-13179292D01*
X36394711Y-13234072D01*
X36455943Y-13277728D01*
X36500989Y-13287749D01*
X36630727Y-13307252D01*
X36499879Y-13314172D01*
X36406697Y-13339514D01*
X36392878Y-13388565D01*
X36456022Y-13442062D01*
X36518696Y-13465305D01*
X36584176Y-13486603D01*
X36569483Y-13496693D01*
X36480636Y-13501215D01*
X36388415Y-13499125D01*
X36344735Y-13468965D01*
X36331461Y-13386181D01*
X36330545Y-13298000D01*
X36334098Y-13170418D01*
X36356847Y-13110637D01*
X36416930Y-13094099D01*
X36480636Y-13094785D01*
X36480636Y-13094785D01*
G37*
X36480636Y-13094785D02*
X36574102Y-13099892D01*
X36581576Y-13110717D01*
X36518696Y-13130696D01*
X36416279Y-13179292D01*
X36394711Y-13234072D01*
X36455943Y-13277728D01*
X36500989Y-13287749D01*
X36630727Y-13307252D01*
X36499879Y-13314172D01*
X36406697Y-13339514D01*
X36392878Y-13388565D01*
X36456022Y-13442062D01*
X36518696Y-13465305D01*
X36584176Y-13486603D01*
X36569483Y-13496693D01*
X36480636Y-13501215D01*
X36388415Y-13499125D01*
X36344735Y-13468965D01*
X36331461Y-13386181D01*
X36330545Y-13298000D01*
X36334098Y-13170418D01*
X36356847Y-13110637D01*
X36416930Y-13094099D01*
X36480636Y-13094785D01*
G36*
X37042071Y-13120789D02*
X37014692Y-13179124D01*
X36982346Y-13275262D01*
X37013310Y-13386942D01*
X37044168Y-13481388D01*
X37023931Y-13500676D01*
X36961414Y-13439471D01*
X36950401Y-13425000D01*
X36900957Y-13371730D01*
X36858277Y-13389387D01*
X36819778Y-13436546D01*
X36767317Y-13492275D01*
X36747650Y-13491237D01*
X36766291Y-13424358D01*
X36796642Y-13359279D01*
X36823344Y-13264480D01*
X36796642Y-13214533D01*
X36747475Y-13143659D01*
X36760627Y-13113935D01*
X36823573Y-13146206D01*
X36832839Y-13154291D01*
X36899774Y-13205214D01*
X36933835Y-13190281D01*
X36946844Y-13161449D01*
X36995731Y-13099020D01*
X37022214Y-13090182D01*
X37042071Y-13120789D01*
X37042071Y-13120789D01*
G37*
X37042071Y-13120789D02*
X37014692Y-13179124D01*
X36982346Y-13275262D01*
X37013310Y-13386942D01*
X37044168Y-13481388D01*
X37023931Y-13500676D01*
X36961414Y-13439471D01*
X36950401Y-13425000D01*
X36900957Y-13371730D01*
X36858277Y-13389387D01*
X36819778Y-13436546D01*
X36767317Y-13492275D01*
X36747650Y-13491237D01*
X36766291Y-13424358D01*
X36796642Y-13359279D01*
X36823344Y-13264480D01*
X36796642Y-13214533D01*
X36747475Y-13143659D01*
X36760627Y-13113935D01*
X36823573Y-13146206D01*
X36832839Y-13154291D01*
X36899774Y-13205214D01*
X36933835Y-13190281D01*
X36946844Y-13161449D01*
X36995731Y-13099020D01*
X37022214Y-13090182D01*
X37042071Y-13120789D01*
G36*
X37422469Y-13125699D02*
X37458691Y-13178521D01*
X37462000Y-13228728D01*
X37436164Y-13324428D01*
X37360930Y-13358567D01*
X37272410Y-13401516D01*
X37241077Y-13450931D01*
X37222164Y-13504775D01*
X37197483Y-13471869D01*
X37188612Y-13451992D01*
X37168427Y-13349415D01*
X37169919Y-13244174D01*
X37174106Y-13228728D01*
X37254182Y-13228728D01*
X37292861Y-13266249D01*
X37346545Y-13274909D01*
X37421589Y-13255570D01*
X37438909Y-13228728D01*
X37400229Y-13191206D01*
X37346545Y-13182546D01*
X37271501Y-13201885D01*
X37254182Y-13228728D01*
X37174106Y-13228728D01*
X37195396Y-13150205D01*
X37262789Y-13116287D01*
X37323454Y-13113273D01*
X37422469Y-13125699D01*
X37422469Y-13125699D01*
G37*
X37422469Y-13125699D02*
X37458691Y-13178521D01*
X37462000Y-13228728D01*
X37436164Y-13324428D01*
X37360930Y-13358567D01*
X37272410Y-13401516D01*
X37241077Y-13450931D01*
X37222164Y-13504775D01*
X37197483Y-13471869D01*
X37188612Y-13451992D01*
X37168427Y-13349415D01*
X37169919Y-13244174D01*
X37174106Y-13228728D01*
X37254182Y-13228728D01*
X37292861Y-13266249D01*
X37346545Y-13274909D01*
X37421589Y-13255570D01*
X37438909Y-13228728D01*
X37400229Y-13191206D01*
X37346545Y-13182546D01*
X37271501Y-13201885D01*
X37254182Y-13228728D01*
X37174106Y-13228728D01*
X37195396Y-13150205D01*
X37262789Y-13116287D01*
X37323454Y-13113273D01*
X37422469Y-13125699D01*
G36*
X37859459Y-13103559D02*
X37900716Y-13135789D01*
X37900727Y-13136364D01*
X37862048Y-13173886D01*
X37808363Y-13182546D01*
X37729254Y-13202154D01*
X37726528Y-13244151D01*
X37797435Y-13283293D01*
X37819909Y-13288499D01*
X37923818Y-13308513D01*
X37819909Y-13314802D01*
X37734972Y-13344182D01*
X37721556Y-13399227D01*
X37775642Y-13452450D01*
X37843000Y-13472740D01*
X37908158Y-13485467D01*
X37889831Y-13493483D01*
X37796818Y-13498899D01*
X37623636Y-13505818D01*
X37623636Y-13298000D01*
X37627652Y-13170210D01*
X37650841Y-13109684D01*
X37709914Y-13091357D01*
X37762182Y-13090182D01*
X37859459Y-13103559D01*
X37859459Y-13103559D01*
G37*
X37859459Y-13103559D02*
X37900716Y-13135789D01*
X37900727Y-13136364D01*
X37862048Y-13173886D01*
X37808363Y-13182546D01*
X37729254Y-13202154D01*
X37726528Y-13244151D01*
X37797435Y-13283293D01*
X37819909Y-13288499D01*
X37923818Y-13308513D01*
X37819909Y-13314802D01*
X37734972Y-13344182D01*
X37721556Y-13399227D01*
X37775642Y-13452450D01*
X37843000Y-13472740D01*
X37908158Y-13485467D01*
X37889831Y-13493483D01*
X37796818Y-13498899D01*
X37623636Y-13505818D01*
X37623636Y-13298000D01*
X37627652Y-13170210D01*
X37650841Y-13109684D01*
X37709914Y-13091357D01*
X37762182Y-13090182D01*
X37859459Y-13103559D01*
G36*
X38290729Y-13112837D02*
X38369624Y-13165747D01*
X38396023Y-13236360D01*
X38371986Y-13283941D01*
X38345877Y-13365202D01*
X38366332Y-13420530D01*
X38387756Y-13491622D01*
X38362721Y-13505818D01*
X38305019Y-13468876D01*
X38286882Y-13436546D01*
X38228735Y-13375169D01*
X38195968Y-13367273D01*
X38139056Y-13404347D01*
X38131636Y-13436546D01*
X38105295Y-13497981D01*
X38082799Y-13505818D01*
X38054123Y-13464025D01*
X38046006Y-13353150D01*
X38048163Y-13309546D01*
X38058571Y-13228728D01*
X38131636Y-13228728D01*
X38170316Y-13266249D01*
X38224000Y-13274909D01*
X38299044Y-13255570D01*
X38316363Y-13228728D01*
X38277684Y-13191206D01*
X38224000Y-13182546D01*
X38148956Y-13201885D01*
X38131636Y-13228728D01*
X38058571Y-13228728D01*
X38064367Y-13183734D01*
X38100260Y-13123092D01*
X38173111Y-13100459D01*
X38181771Y-13099393D01*
X38290729Y-13112837D01*
X38290729Y-13112837D01*
G37*
X38290729Y-13112837D02*
X38369624Y-13165747D01*
X38396023Y-13236360D01*
X38371986Y-13283941D01*
X38345877Y-13365202D01*
X38366332Y-13420530D01*
X38387756Y-13491622D01*
X38362721Y-13505818D01*
X38305019Y-13468876D01*
X38286882Y-13436546D01*
X38228735Y-13375169D01*
X38195968Y-13367273D01*
X38139056Y-13404347D01*
X38131636Y-13436546D01*
X38105295Y-13497981D01*
X38082799Y-13505818D01*
X38054123Y-13464025D01*
X38046006Y-13353150D01*
X38048163Y-13309546D01*
X38058571Y-13228728D01*
X38131636Y-13228728D01*
X38170316Y-13266249D01*
X38224000Y-13274909D01*
X38299044Y-13255570D01*
X38316363Y-13228728D01*
X38277684Y-13191206D01*
X38224000Y-13182546D01*
X38148956Y-13201885D01*
X38131636Y-13228728D01*
X38058571Y-13228728D01*
X38064367Y-13183734D01*
X38100260Y-13123092D01*
X38173111Y-13100459D01*
X38181771Y-13099393D01*
X38290729Y-13112837D01*
G36*
X38580412Y-13194726D02*
X38588009Y-13331304D01*
X38579781Y-13425635D01*
X38568965Y-13444218D01*
X38561993Y-13383711D01*
X38560481Y-13298000D01*
X38563937Y-13193217D01*
X38572212Y-13162569D01*
X38580412Y-13194726D01*
X38580412Y-13194726D01*
G37*
X38580412Y-13194726D02*
X38588009Y-13331304D01*
X38579781Y-13425635D01*
X38568965Y-13444218D01*
X38561993Y-13383711D01*
X38560481Y-13298000D01*
X38563937Y-13193217D01*
X38572212Y-13162569D01*
X38580412Y-13194726D01*
G36*
X38822312Y-13116821D02*
X38875954Y-13224566D01*
X38879402Y-13234282D01*
X38929635Y-13378381D01*
X38990224Y-13234282D01*
X39052701Y-13121716D01*
X39103389Y-13099083D01*
X39136821Y-13164171D01*
X39147636Y-13298000D01*
X39138464Y-13421938D01*
X39115256Y-13496283D01*
X39101454Y-13505818D01*
X39067270Y-13465927D01*
X39053190Y-13378818D01*
X39051107Y-13251818D01*
X38989580Y-13390364D01*
X38928054Y-13528909D01*
X38868833Y-13390364D01*
X38809612Y-13251818D01*
X38776270Y-13390364D01*
X38756382Y-13461725D01*
X38745280Y-13459041D01*
X38739363Y-13374813D01*
X38737464Y-13309546D01*
X38746120Y-13162995D01*
X38776718Y-13097525D01*
X38822312Y-13116821D01*
X38822312Y-13116821D01*
G37*
X38822312Y-13116821D02*
X38875954Y-13224566D01*
X38879402Y-13234282D01*
X38929635Y-13378381D01*
X38990224Y-13234282D01*
X39052701Y-13121716D01*
X39103389Y-13099083D01*
X39136821Y-13164171D01*
X39147636Y-13298000D01*
X39138464Y-13421938D01*
X39115256Y-13496283D01*
X39101454Y-13505818D01*
X39067270Y-13465927D01*
X39053190Y-13378818D01*
X39051107Y-13251818D01*
X38989580Y-13390364D01*
X38928054Y-13528909D01*
X38868833Y-13390364D01*
X38809612Y-13251818D01*
X38776270Y-13390364D01*
X38756382Y-13461725D01*
X38745280Y-13459041D01*
X38739363Y-13374813D01*
X38737464Y-13309546D01*
X38746120Y-13162995D01*
X38776718Y-13097525D01*
X38822312Y-13116821D01*
G36*
X34945091Y-13020909D02*
X34922000Y-13044000D01*
X34898909Y-13020909D01*
X34922000Y-12997818D01*
X34945091Y-13020909D01*
X34945091Y-13020909D01*
G37*
X34945091Y-13020909D02*
X34922000Y-13044000D01*
X34898909Y-13020909D01*
X34922000Y-12997818D01*
X34945091Y-13020909D01*
M02*
