G04 #@! TF.FileFunction,Copper,L1,Top,Signal*
%FSLAX46Y46*%
G04 Gerber Fmt 4.6, Leading zero omitted, Abs format (unit mm)*
G04 Created by KiCad (PCBNEW 4.0.2-stable) date Mon 06 Jun 2016 07:54:09 AM CEST*
%MOMM*%
G01*
G04 APERTURE LIST*
%ADD10C,0.050000*%
%ADD11C,0.500000*%
%ADD12C,1.250000*%
%ADD13R,4.064000X1.524000*%
%ADD14O,0.800000X0.300000*%
%ADD15O,0.300000X0.800000*%
%ADD16R,0.875000X0.875000*%
%ADD17R,1.450000X0.450000*%
%ADD18C,1.524000*%
%ADD19R,0.600000X0.400000*%
%ADD20R,3.500000X1.500000*%
%ADD21R,0.400000X0.600000*%
%ADD22R,0.700000X1.300000*%
%ADD23C,0.600000*%
%ADD24C,0.600000*%
%ADD25C,0.200000*%
%ADD26C,0.400000*%
%ADD27C,0.254000*%
G04 APERTURE END LIST*
D10*
D11*
X20800000Y-20200000D03*
X21800000Y-20200000D03*
X25650000Y-31400000D03*
X25650000Y-30100000D03*
X30450000Y-31500000D03*
X30600000Y-32600000D03*
X24950000Y-22350000D03*
X23950000Y-22350000D03*
X22950000Y-22350000D03*
X24500000Y-26450000D03*
D12*
X28800000Y-26800000D03*
D11*
X26850000Y-29400000D03*
X32700000Y-28950000D03*
X31850000Y-28050000D03*
X28550000Y-21400000D03*
X26550000Y-19950000D03*
X28550000Y-19950000D03*
X27550000Y-19950000D03*
X23900000Y-20200000D03*
X24900000Y-20200000D03*
X22900000Y-20200000D03*
X21500000Y-23850000D03*
X20500000Y-23850000D03*
X21500000Y-24850000D03*
X20500000Y-24850000D03*
X22500000Y-24850000D03*
X22500000Y-23850000D03*
X43100000Y-18500000D03*
X44100000Y-18500000D03*
X42100000Y-18500000D03*
X45100000Y-18500000D03*
X45050000Y-27050000D03*
X44050000Y-27050000D03*
X43050000Y-27050000D03*
X42050000Y-27050000D03*
X37500000Y-23850000D03*
X37500000Y-24850000D03*
X36500000Y-23850000D03*
X35500000Y-24850000D03*
X36500000Y-24850000D03*
X35500000Y-23850000D03*
X38500000Y-23850000D03*
X39500000Y-24850000D03*
X38500000Y-24850000D03*
X39500000Y-23850000D03*
X39500000Y-20750000D03*
X35500000Y-20750000D03*
X36500000Y-20750000D03*
X36500000Y-21750000D03*
X35500000Y-21750000D03*
X37500000Y-20750000D03*
X38500000Y-21750000D03*
X37500000Y-21750000D03*
X38500000Y-20750000D03*
X39500000Y-21750000D03*
X18250000Y-19600000D03*
X18250000Y-20600000D03*
X18250000Y-24700000D03*
X18250000Y-25700000D03*
X14650000Y-18600000D03*
X15650000Y-18600000D03*
X13650000Y-18600000D03*
X16650000Y-18600000D03*
X14650000Y-26700000D03*
X15650000Y-26700000D03*
X13650000Y-26700000D03*
X16650000Y-26700000D03*
X23900000Y-32200000D03*
X20900000Y-32200000D03*
X21900000Y-32200000D03*
X22900000Y-32200000D03*
X35750000Y-41050000D03*
X36750000Y-41050000D03*
X34750000Y-41050000D03*
X37750000Y-41050000D03*
X29900000Y-40800000D03*
X31800000Y-40300000D03*
X30900000Y-40800000D03*
D13*
X43550000Y-22850000D03*
X43550000Y-25390000D03*
X43550000Y-20310000D03*
D14*
X27300000Y-26050000D03*
X27300000Y-26550000D03*
X27300000Y-27050000D03*
X27300000Y-27550000D03*
D15*
X28050000Y-28300000D03*
X28550000Y-28300000D03*
X29050000Y-28300000D03*
X29550000Y-28300000D03*
D14*
X30300000Y-27550000D03*
X30300000Y-27050000D03*
X30300000Y-26550000D03*
X30300000Y-26050000D03*
D15*
X29550000Y-25300000D03*
X29050000Y-25300000D03*
X28550000Y-25300000D03*
X28050000Y-25300000D03*
D16*
X29237500Y-27237500D03*
X29237500Y-26362500D03*
X28362500Y-27237500D03*
X28362500Y-26362500D03*
D17*
X31000000Y-23375000D03*
X31000000Y-22725000D03*
X31000000Y-22075000D03*
X31000000Y-21425000D03*
X26600000Y-21425000D03*
X26600000Y-22075000D03*
X26600000Y-22725000D03*
X26600000Y-23375000D03*
D18*
X29300000Y-34000000D03*
X26760000Y-34000000D03*
X31840000Y-34000000D03*
D19*
X20500000Y-22250000D03*
X20500000Y-21350000D03*
X32800000Y-23350000D03*
X32800000Y-22450000D03*
X32800000Y-21350000D03*
X32800000Y-20450000D03*
X31700000Y-25650000D03*
X31700000Y-26550000D03*
X33000000Y-26150000D03*
X33000000Y-27050000D03*
X31800000Y-31450000D03*
X31800000Y-30550000D03*
X26800000Y-30550000D03*
X26800000Y-31450000D03*
D20*
X36600000Y-39300000D03*
X36600000Y-36800000D03*
X36600000Y-34300000D03*
X22100000Y-34100000D03*
X22100000Y-36600000D03*
X22100000Y-39100000D03*
D13*
X15150000Y-22650000D03*
X15150000Y-20110000D03*
X15150000Y-25190000D03*
D21*
X19350000Y-22600000D03*
X18450000Y-22600000D03*
D19*
X31300000Y-19950000D03*
X31300000Y-19050000D03*
D21*
X24700000Y-23500000D03*
X23800000Y-23500000D03*
D19*
X24500000Y-28450000D03*
X24500000Y-27550000D03*
X25900000Y-28450000D03*
X25900000Y-27550000D03*
D21*
X29350000Y-30250000D03*
X30250000Y-30250000D03*
X25050000Y-24800000D03*
X24150000Y-24800000D03*
D19*
X29900000Y-19950000D03*
X29900000Y-19050000D03*
D22*
X24500000Y-30200000D03*
X22600000Y-30200000D03*
D11*
X28702000Y-23114000D03*
X30545977Y-25350020D03*
X29327023Y-24492949D03*
X28650000Y-24200000D03*
D23*
X25350000Y-23375000D03*
D11*
X27850000Y-30500000D03*
X31000000Y-20650000D03*
X31400000Y-29300000D03*
X28600000Y-29300000D03*
X33789326Y-35050010D03*
X26399996Y-39300000D03*
X24700000Y-35000000D03*
X25500000Y-38900000D03*
X25100000Y-35900000D03*
X24600000Y-37700000D03*
X34200000Y-37900000D03*
D24*
X36600000Y-40800000D02*
X30600000Y-40800000D01*
D25*
X29350000Y-29700000D02*
X29350000Y-29550000D01*
X29350000Y-29550000D02*
X29350000Y-29200000D01*
X29350000Y-29750000D02*
X29350000Y-29550000D01*
X29350000Y-30250000D02*
X29350000Y-29750000D01*
X29050000Y-28900000D02*
X29050000Y-28300000D01*
X29350000Y-29200000D02*
X29050000Y-28900000D01*
X29350000Y-29700000D02*
X29350000Y-33950000D01*
X29350000Y-33950000D02*
X29300000Y-34000000D01*
X28452001Y-23363999D02*
X28702000Y-23114000D01*
X28050000Y-25300000D02*
X28050000Y-23766000D01*
X28050000Y-23766000D02*
X28452001Y-23363999D01*
X29550000Y-25300000D02*
X30495957Y-25300000D01*
X30495957Y-25300000D02*
X30545977Y-25350020D01*
X29257051Y-24492949D02*
X29327023Y-24492949D01*
X29050000Y-24700000D02*
X29257051Y-24492949D01*
X29050000Y-25300000D02*
X29050000Y-24700000D01*
X28550000Y-24300000D02*
X28650000Y-24200000D01*
X28550000Y-25300000D02*
X28550000Y-24300000D01*
X25350000Y-23375000D02*
X24825000Y-23375000D01*
X24825000Y-23375000D02*
X24700000Y-23500000D01*
X25050000Y-24800000D02*
X25050000Y-23850000D01*
X25050000Y-23850000D02*
X24700000Y-23500000D01*
X26600000Y-23375000D02*
X25350000Y-23375000D01*
X25350000Y-23375000D02*
X25175000Y-23375000D01*
X26800000Y-30550000D02*
X27800000Y-30550000D01*
X27800000Y-30550000D02*
X27850000Y-30500000D01*
D26*
X28800000Y-26800000D02*
X28362500Y-27237500D01*
D25*
X31000000Y-21425000D02*
X31000000Y-20650000D01*
X31000000Y-20650000D02*
X31000000Y-20250000D01*
D26*
X29237500Y-26362500D02*
X29237500Y-27237500D01*
X29650000Y-28300000D02*
X30400000Y-28300000D01*
X30400000Y-28300000D02*
X31400000Y-29300000D01*
D25*
X28050000Y-28300000D02*
X28050000Y-28750000D01*
X28050000Y-28750000D02*
X28600000Y-29300000D01*
X28550000Y-28300000D02*
X28550000Y-29250000D01*
X28550000Y-29250000D02*
X28600000Y-29300000D01*
X24500000Y-30200000D02*
X24500000Y-28450000D01*
D26*
X36600000Y-36800000D02*
X35539316Y-36800000D01*
X35539316Y-36800000D02*
X33789326Y-35050010D01*
D25*
X29550000Y-28300000D02*
X29550000Y-27550000D01*
X29550000Y-27550000D02*
X29237500Y-27237500D01*
X27300000Y-27550000D02*
X28050000Y-27550000D01*
X28050000Y-27550000D02*
X28362500Y-27237500D01*
X28550000Y-28300000D02*
X28550000Y-27425000D01*
X28550000Y-27425000D02*
X28362500Y-27237500D01*
X29237500Y-26362500D02*
X28362500Y-26362500D01*
X28362500Y-27237500D02*
X29237500Y-27237500D01*
X31000000Y-20250000D02*
X31300000Y-19950000D01*
X31300000Y-19950000D02*
X29900000Y-19950000D01*
X25900000Y-28450000D02*
X27900000Y-28450000D01*
X27900000Y-28450000D02*
X28050000Y-28300000D01*
X24500000Y-28450000D02*
X25900000Y-28450000D01*
X28050000Y-28300000D02*
X28050000Y-27550000D01*
D24*
X36600000Y-36800000D02*
X22300000Y-36800000D01*
X22300000Y-36800000D02*
X22100000Y-36600000D01*
D25*
X26600000Y-21425000D02*
X22275000Y-21425000D01*
X22275000Y-21425000D02*
X21450000Y-22250000D01*
X21450000Y-22250000D02*
X21000000Y-22250000D01*
X21000000Y-22250000D02*
X20500000Y-22250000D01*
X19350000Y-22600000D02*
X20150000Y-22600000D01*
X20150000Y-22600000D02*
X20500000Y-22250000D01*
X18450000Y-22600000D02*
X15200000Y-22600000D01*
X15200000Y-22600000D02*
X15150000Y-22650000D01*
D24*
X36600000Y-39300000D02*
X26399996Y-39300000D01*
X24700000Y-35000000D02*
X23800000Y-34100000D01*
X23800000Y-34100000D02*
X22100000Y-34100000D01*
X22100000Y-39100000D02*
X25300000Y-39100000D01*
X25300000Y-39100000D02*
X25500000Y-38900000D01*
X25453553Y-35900000D02*
X25100000Y-35900000D01*
X33407762Y-34300000D02*
X31807762Y-35900000D01*
X36600000Y-34300000D02*
X33407762Y-34300000D01*
X31807762Y-35900000D02*
X25453553Y-35900000D01*
X24600000Y-37700000D02*
X24800000Y-37900000D01*
X24800000Y-37900000D02*
X34200000Y-37900000D01*
D25*
X26760000Y-34000000D02*
X26760000Y-31490000D01*
X26760000Y-31490000D02*
X26800000Y-31450000D01*
X31840000Y-34000000D02*
X31840000Y-31490000D01*
X31840000Y-31490000D02*
X31800000Y-31450000D01*
X30533230Y-24300000D02*
X31550000Y-24300000D01*
X29906013Y-23672783D02*
X30533230Y-24300000D01*
X30075000Y-22725000D02*
X29906013Y-22893987D01*
X31000000Y-22725000D02*
X30075000Y-22725000D01*
X31550000Y-24300000D02*
X32900000Y-25650000D01*
X29906013Y-22893987D02*
X29906013Y-23672783D01*
X33000000Y-25750000D02*
X32900000Y-25650000D01*
X32900000Y-25650000D02*
X32300000Y-25050000D01*
X33000000Y-26150000D02*
X33000000Y-25750000D01*
X31000000Y-22725000D02*
X31925000Y-22725000D01*
X31925000Y-22725000D02*
X32200000Y-22450000D01*
X32200000Y-22450000D02*
X32800000Y-22450000D01*
X33000000Y-27050000D02*
X30300000Y-27050000D01*
X29506002Y-23876028D02*
X29506002Y-22643998D01*
X30329974Y-24700000D02*
X29506002Y-23876028D01*
X31150000Y-24700000D02*
X30329974Y-24700000D01*
X29506002Y-22643998D02*
X30075000Y-22075000D01*
X31700000Y-25650000D02*
X31700000Y-25250000D01*
X31700000Y-25250000D02*
X31150000Y-24700000D01*
X30075000Y-22075000D02*
X31000000Y-22075000D01*
X31000000Y-22075000D02*
X31975000Y-22075000D01*
X31975000Y-22075000D02*
X32700000Y-21350000D01*
X32700000Y-21350000D02*
X32800000Y-21350000D01*
X31700000Y-26550000D02*
X30300000Y-26550000D01*
X26600000Y-22725000D02*
X27440002Y-22725000D01*
X27649990Y-24350010D02*
X27300000Y-24700000D01*
X27440002Y-22725000D02*
X27649990Y-22934988D01*
X27649990Y-22934988D02*
X27649990Y-24350010D01*
X27300000Y-24700000D02*
X27300000Y-25700000D01*
X27300000Y-25700000D02*
X27300000Y-26050000D01*
X26600000Y-22725000D02*
X26600000Y-22075000D01*
X33600000Y-23350000D02*
X33300000Y-23350000D01*
X43550000Y-22850000D02*
X34100000Y-22850000D01*
X34100000Y-22850000D02*
X33600000Y-23350000D01*
X31000000Y-23375000D02*
X32775000Y-23375000D01*
X32775000Y-23375000D02*
X32800000Y-23350000D01*
X33300000Y-23350000D02*
X32800000Y-23350000D01*
G36*
X31500000Y-21500000D02*
X30941422Y-21500000D01*
X29800000Y-20358578D01*
X29800000Y-19900000D01*
X31500000Y-19900000D01*
X31500000Y-21500000D01*
X31500000Y-21500000D01*
G37*
X31500000Y-21500000D02*
X30941422Y-21500000D01*
X29800000Y-20358578D01*
X29800000Y-19900000D01*
X31500000Y-19900000D01*
X31500000Y-21500000D01*
D27*
G36*
X25921285Y-39778711D02*
X26140919Y-39925466D01*
X26399996Y-39977000D01*
X34465615Y-39977000D01*
X34465615Y-40050000D01*
X34479351Y-40123000D01*
X30600000Y-40123000D01*
X30340923Y-40174534D01*
X30121289Y-40321289D01*
X29974534Y-40540923D01*
X29923000Y-40800000D01*
X29974534Y-41059077D01*
X30121289Y-41278711D01*
X30340923Y-41425466D01*
X30600000Y-41477000D01*
X36600000Y-41477000D01*
X36859077Y-41425466D01*
X37078711Y-41278711D01*
X37225466Y-41059077D01*
X37277000Y-40800000D01*
X37225466Y-40540923D01*
X37154279Y-40434385D01*
X38350000Y-40434385D01*
X38423000Y-40420649D01*
X38423000Y-44400000D01*
X38459309Y-44582540D01*
X38562710Y-44737290D01*
X38717460Y-44840691D01*
X38900000Y-44877000D01*
X45823000Y-44877000D01*
X45823000Y-47723000D01*
X12877000Y-47723000D01*
X12877000Y-44877000D01*
X19800000Y-44877000D01*
X19982540Y-44840691D01*
X20137290Y-44737290D01*
X20240691Y-44582540D01*
X20277000Y-44400000D01*
X20277000Y-40219602D01*
X20350000Y-40234385D01*
X23850000Y-40234385D01*
X23989708Y-40208097D01*
X24118020Y-40125530D01*
X24204101Y-39999547D01*
X24234385Y-39850000D01*
X24234385Y-39777000D01*
X25300000Y-39777000D01*
X25559077Y-39725466D01*
X25778711Y-39578711D01*
X25784069Y-39573353D01*
X25921285Y-39778711D01*
X25921285Y-39778711D01*
G37*
X25921285Y-39778711D02*
X26140919Y-39925466D01*
X26399996Y-39977000D01*
X34465615Y-39977000D01*
X34465615Y-40050000D01*
X34479351Y-40123000D01*
X30600000Y-40123000D01*
X30340923Y-40174534D01*
X30121289Y-40321289D01*
X29974534Y-40540923D01*
X29923000Y-40800000D01*
X29974534Y-41059077D01*
X30121289Y-41278711D01*
X30340923Y-41425466D01*
X30600000Y-41477000D01*
X36600000Y-41477000D01*
X36859077Y-41425466D01*
X37078711Y-41278711D01*
X37225466Y-41059077D01*
X37277000Y-40800000D01*
X37225466Y-40540923D01*
X37154279Y-40434385D01*
X38350000Y-40434385D01*
X38423000Y-40420649D01*
X38423000Y-44400000D01*
X38459309Y-44582540D01*
X38562710Y-44737290D01*
X38717460Y-44840691D01*
X38900000Y-44877000D01*
X45823000Y-44877000D01*
X45823000Y-47723000D01*
X12877000Y-47723000D01*
X12877000Y-44877000D01*
X19800000Y-44877000D01*
X19982540Y-44840691D01*
X20137290Y-44737290D01*
X20240691Y-44582540D01*
X20277000Y-44400000D01*
X20277000Y-40219602D01*
X20350000Y-40234385D01*
X23850000Y-40234385D01*
X23989708Y-40208097D01*
X24118020Y-40125530D01*
X24204101Y-39999547D01*
X24234385Y-39850000D01*
X24234385Y-39777000D01*
X25300000Y-39777000D01*
X25559077Y-39725466D01*
X25778711Y-39578711D01*
X25784069Y-39573353D01*
X25921285Y-39778711D01*
G36*
X25490615Y-22300000D02*
X25510122Y-22403671D01*
X25490615Y-22500000D01*
X25490615Y-22700344D01*
X25485254Y-22698118D01*
X25215927Y-22697883D01*
X24967011Y-22800733D01*
X24943316Y-22824387D01*
X24900000Y-22815615D01*
X24500000Y-22815615D01*
X24360292Y-22841903D01*
X24247586Y-22914428D01*
X24213553Y-22880395D01*
X24074990Y-22823000D01*
X23994250Y-22823000D01*
X23900000Y-22917250D01*
X23900000Y-23373000D01*
X23947000Y-23373000D01*
X23947000Y-23627000D01*
X23900000Y-23627000D01*
X23900000Y-23647000D01*
X23700000Y-23647000D01*
X23700000Y-23627000D01*
X23317250Y-23627000D01*
X23223000Y-23721250D01*
X23223000Y-23874990D01*
X23280395Y-24013553D01*
X23386447Y-24119605D01*
X23525010Y-24177000D01*
X23605750Y-24177000D01*
X23672998Y-24109752D01*
X23672998Y-24177000D01*
X23744643Y-24177000D01*
X23736447Y-24180395D01*
X23630395Y-24286447D01*
X23573000Y-24425010D01*
X23573000Y-24578750D01*
X23667250Y-24673000D01*
X24050000Y-24673000D01*
X24050000Y-24653000D01*
X24250000Y-24653000D01*
X24250000Y-24673000D01*
X24297000Y-24673000D01*
X24297000Y-24927000D01*
X24250000Y-24927000D01*
X24250000Y-25382750D01*
X24344250Y-25477000D01*
X24424990Y-25477000D01*
X24563553Y-25419605D01*
X24598630Y-25384528D01*
X24700453Y-25454101D01*
X24850000Y-25484385D01*
X25250000Y-25484385D01*
X25389708Y-25458097D01*
X25518020Y-25375530D01*
X25604101Y-25249547D01*
X25634385Y-25100000D01*
X25634385Y-24500000D01*
X25608097Y-24360292D01*
X25527000Y-24234264D01*
X25527000Y-24034380D01*
X25723884Y-23953029D01*
X25725453Y-23954101D01*
X25875000Y-23984385D01*
X27172990Y-23984385D01*
X27172990Y-24152430D01*
X26962710Y-24362710D01*
X26859309Y-24517460D01*
X26823000Y-24700000D01*
X26823000Y-25569866D01*
X26662133Y-25677355D01*
X26547893Y-25848326D01*
X26507778Y-26050000D01*
X26547893Y-26251674D01*
X26580184Y-26300000D01*
X26547893Y-26348326D01*
X26507778Y-26550000D01*
X26547893Y-26751674D01*
X26580184Y-26800000D01*
X26547893Y-26848326D01*
X26507778Y-27050000D01*
X26529933Y-27161380D01*
X26519605Y-27136447D01*
X26413553Y-27030395D01*
X26274990Y-26973000D01*
X26121250Y-26973000D01*
X26027000Y-27067250D01*
X26027000Y-27450000D01*
X26047000Y-27450000D01*
X26047000Y-27650000D01*
X26027000Y-27650000D01*
X26027000Y-27697000D01*
X25773000Y-27697000D01*
X25773000Y-27650000D01*
X25317250Y-27650000D01*
X25223000Y-27744250D01*
X25223000Y-27824990D01*
X25280395Y-27963553D01*
X25289842Y-27973000D01*
X25110158Y-27973000D01*
X25119605Y-27963553D01*
X25177000Y-27824990D01*
X25177000Y-27744250D01*
X25082750Y-27650000D01*
X24627000Y-27650000D01*
X24627000Y-27697000D01*
X24373000Y-27697000D01*
X24373000Y-27650000D01*
X23917250Y-27650000D01*
X23823000Y-27744250D01*
X23823000Y-27824990D01*
X23880395Y-27963553D01*
X23915472Y-27998630D01*
X23845899Y-28100453D01*
X23815615Y-28250000D01*
X23815615Y-28650000D01*
X23841903Y-28789708D01*
X23924470Y-28918020D01*
X24023000Y-28985343D01*
X24023000Y-29189512D01*
X24010292Y-29191903D01*
X23881980Y-29274470D01*
X23795899Y-29400453D01*
X23765615Y-29550000D01*
X23765615Y-30850000D01*
X23791903Y-30989708D01*
X23874470Y-31118020D01*
X24000453Y-31204101D01*
X24150000Y-31234385D01*
X24850000Y-31234385D01*
X24989708Y-31208097D01*
X25118020Y-31125530D01*
X25204101Y-30999547D01*
X25234385Y-30850000D01*
X25234385Y-29550000D01*
X25208097Y-29410292D01*
X25125530Y-29281980D01*
X24999547Y-29195899D01*
X24977000Y-29191333D01*
X24977000Y-28984100D01*
X25065736Y-28927000D01*
X25337613Y-28927000D01*
X25450453Y-29004101D01*
X25600000Y-29034385D01*
X26200000Y-29034385D01*
X26339708Y-29008097D01*
X26465736Y-28927000D01*
X27608207Y-28927000D01*
X27609309Y-28932540D01*
X27712710Y-29087290D01*
X27972958Y-29347538D01*
X27972891Y-29424171D01*
X28068145Y-29654703D01*
X28244369Y-29831235D01*
X28474735Y-29926891D01*
X28724171Y-29927109D01*
X28774458Y-29906331D01*
X28765615Y-29950000D01*
X28765615Y-30550000D01*
X28791903Y-30689708D01*
X28873000Y-30815736D01*
X28873000Y-32944033D01*
X28655651Y-33033840D01*
X28334966Y-33353966D01*
X28161198Y-33772445D01*
X28160803Y-34225567D01*
X28333840Y-34644349D01*
X28653966Y-34965034D01*
X29072445Y-35138802D01*
X29525567Y-35139197D01*
X29944349Y-34966160D01*
X30265034Y-34646034D01*
X30438802Y-34227555D01*
X30439197Y-33774433D01*
X30266160Y-33355651D01*
X29946034Y-33034966D01*
X29827000Y-32985539D01*
X29827000Y-30860158D01*
X29836447Y-30869605D01*
X29975010Y-30927000D01*
X30055750Y-30927000D01*
X30150000Y-30832750D01*
X30150000Y-30377000D01*
X30350000Y-30377000D01*
X30350000Y-30832750D01*
X30444250Y-30927000D01*
X30524990Y-30927000D01*
X30663553Y-30869605D01*
X30769605Y-30763553D01*
X30827000Y-30624990D01*
X30827000Y-30471250D01*
X30732750Y-30377000D01*
X30350000Y-30377000D01*
X30150000Y-30377000D01*
X30103000Y-30377000D01*
X30103000Y-30275010D01*
X31123000Y-30275010D01*
X31123000Y-30355750D01*
X31217250Y-30450000D01*
X31673000Y-30450000D01*
X31673000Y-30067250D01*
X31927000Y-30067250D01*
X31927000Y-30450000D01*
X32382750Y-30450000D01*
X32477000Y-30355750D01*
X32477000Y-30275010D01*
X32419605Y-30136447D01*
X32313553Y-30030395D01*
X32174990Y-29973000D01*
X32021250Y-29973000D01*
X31927000Y-30067250D01*
X31673000Y-30067250D01*
X31578750Y-29973000D01*
X31425010Y-29973000D01*
X31286447Y-30030395D01*
X31180395Y-30136447D01*
X31123000Y-30275010D01*
X30103000Y-30275010D01*
X30103000Y-30123000D01*
X30150000Y-30123000D01*
X30150000Y-29667250D01*
X30350000Y-29667250D01*
X30350000Y-30123000D01*
X30732750Y-30123000D01*
X30827000Y-30028750D01*
X30827000Y-29875010D01*
X30769605Y-29736447D01*
X30663553Y-29630395D01*
X30524990Y-29573000D01*
X30444250Y-29573000D01*
X30350000Y-29667250D01*
X30150000Y-29667250D01*
X30055750Y-29573000D01*
X29975010Y-29573000D01*
X29836447Y-29630395D01*
X29827000Y-29639842D01*
X29827000Y-29200000D01*
X29792197Y-29025030D01*
X29922645Y-28937867D01*
X29963315Y-28877000D01*
X30160998Y-28877000D01*
X30818463Y-29534465D01*
X30868145Y-29654703D01*
X31044369Y-29831235D01*
X31274735Y-29926891D01*
X31524171Y-29927109D01*
X31754703Y-29831855D01*
X31931235Y-29655631D01*
X32026891Y-29425265D01*
X32027109Y-29175829D01*
X31931855Y-28945297D01*
X31755631Y-28768765D01*
X31634446Y-28718445D01*
X30878389Y-27962387D01*
X30937867Y-27922645D01*
X31052107Y-27751674D01*
X31092222Y-27550000D01*
X31087647Y-27527000D01*
X32437613Y-27527000D01*
X32550453Y-27604101D01*
X32700000Y-27634385D01*
X33300000Y-27634385D01*
X33439708Y-27608097D01*
X33568020Y-27525530D01*
X33654101Y-27399547D01*
X33684385Y-27250000D01*
X33684385Y-26850000D01*
X33658097Y-26710292D01*
X33586320Y-26598748D01*
X33654101Y-26499547D01*
X33684385Y-26350000D01*
X33684385Y-25950000D01*
X33658097Y-25810292D01*
X33575530Y-25681980D01*
X33472014Y-25611250D01*
X41141000Y-25611250D01*
X41141000Y-26226990D01*
X41198395Y-26365553D01*
X41304447Y-26471605D01*
X41443010Y-26529000D01*
X43328750Y-26529000D01*
X43423000Y-26434750D01*
X43423000Y-25517000D01*
X41235250Y-25517000D01*
X41141000Y-25611250D01*
X33472014Y-25611250D01*
X33449547Y-25595899D01*
X33446214Y-25595224D01*
X33440691Y-25567459D01*
X33337290Y-25412710D01*
X32477590Y-24553010D01*
X41141000Y-24553010D01*
X41141000Y-25168750D01*
X41235250Y-25263000D01*
X43423000Y-25263000D01*
X43423000Y-24345250D01*
X43328750Y-24251000D01*
X41443010Y-24251000D01*
X41304447Y-24308395D01*
X41198395Y-24414447D01*
X41141000Y-24553010D01*
X32477590Y-24553010D01*
X31887290Y-23962710D01*
X31872695Y-23952958D01*
X31993020Y-23875530D01*
X32009097Y-23852000D01*
X32274201Y-23852000D01*
X32350453Y-23904101D01*
X32500000Y-23934385D01*
X33100000Y-23934385D01*
X33239708Y-23908097D01*
X33365736Y-23827000D01*
X33600000Y-23827000D01*
X33782540Y-23790691D01*
X33937290Y-23687290D01*
X34297580Y-23327000D01*
X41133615Y-23327000D01*
X41133615Y-23612000D01*
X41159903Y-23751708D01*
X41242470Y-23880020D01*
X41368453Y-23966101D01*
X41518000Y-23996385D01*
X45582000Y-23996385D01*
X45721708Y-23970097D01*
X45823000Y-23904917D01*
X45823000Y-24335842D01*
X45795553Y-24308395D01*
X45656990Y-24251000D01*
X43771250Y-24251000D01*
X43677000Y-24345250D01*
X43677000Y-25263000D01*
X43697000Y-25263000D01*
X43697000Y-25517000D01*
X43677000Y-25517000D01*
X43677000Y-26434750D01*
X43771250Y-26529000D01*
X45656990Y-26529000D01*
X45795553Y-26471605D01*
X45823000Y-26444158D01*
X45823000Y-28523000D01*
X38900000Y-28523000D01*
X38717460Y-28559309D01*
X38562710Y-28662710D01*
X38459309Y-28817460D01*
X38423000Y-29000000D01*
X38423000Y-33180398D01*
X38350000Y-33165615D01*
X34850000Y-33165615D01*
X34710292Y-33191903D01*
X34581980Y-33274470D01*
X34495899Y-33400453D01*
X34465615Y-33550000D01*
X34465615Y-33623000D01*
X33407762Y-33623000D01*
X33148686Y-33674533D01*
X32979185Y-33787789D01*
X32979197Y-33774433D01*
X32806160Y-33355651D01*
X32486034Y-33034966D01*
X32317000Y-32964777D01*
X32317000Y-31958361D01*
X32368020Y-31925530D01*
X32454101Y-31799547D01*
X32484385Y-31650000D01*
X32484385Y-31250000D01*
X32458097Y-31110292D01*
X32385572Y-30997586D01*
X32419605Y-30963553D01*
X32477000Y-30824990D01*
X32477000Y-30744250D01*
X32382750Y-30650000D01*
X31927000Y-30650000D01*
X31927000Y-30697000D01*
X31673000Y-30697000D01*
X31673000Y-30650000D01*
X31217250Y-30650000D01*
X31123000Y-30744250D01*
X31123000Y-30824990D01*
X31180395Y-30963553D01*
X31215472Y-30998630D01*
X31145899Y-31100453D01*
X31115615Y-31250000D01*
X31115615Y-31650000D01*
X31141903Y-31789708D01*
X31224470Y-31918020D01*
X31350453Y-32004101D01*
X31363000Y-32006642D01*
X31363000Y-32964693D01*
X31195651Y-33033840D01*
X30874966Y-33353966D01*
X30701198Y-33772445D01*
X30700803Y-34225567D01*
X30873840Y-34644349D01*
X31193966Y-34965034D01*
X31611804Y-35138536D01*
X31527340Y-35223000D01*
X25332642Y-35223000D01*
X25376999Y-35000000D01*
X25325466Y-34740924D01*
X25178711Y-34521289D01*
X24882989Y-34225567D01*
X25620803Y-34225567D01*
X25793840Y-34644349D01*
X26113966Y-34965034D01*
X26532445Y-35138802D01*
X26985567Y-35139197D01*
X27404349Y-34966160D01*
X27725034Y-34646034D01*
X27898802Y-34227555D01*
X27899197Y-33774433D01*
X27726160Y-33355651D01*
X27406034Y-33034966D01*
X27237000Y-32964777D01*
X27237000Y-32008607D01*
X27239708Y-32008097D01*
X27368020Y-31925530D01*
X27454101Y-31799547D01*
X27484385Y-31650000D01*
X27484385Y-31250000D01*
X27458097Y-31110292D01*
X27404500Y-31027000D01*
X27490141Y-31027000D01*
X27494369Y-31031235D01*
X27724735Y-31126891D01*
X27974171Y-31127109D01*
X28204703Y-31031855D01*
X28381235Y-30855631D01*
X28476891Y-30625265D01*
X28477109Y-30375829D01*
X28381855Y-30145297D01*
X28205631Y-29968765D01*
X27975265Y-29873109D01*
X27725829Y-29872891D01*
X27495297Y-29968145D01*
X27390259Y-30073000D01*
X27362387Y-30073000D01*
X27249547Y-29995899D01*
X27100000Y-29965615D01*
X26500000Y-29965615D01*
X26360292Y-29991903D01*
X26231980Y-30074470D01*
X26145899Y-30200453D01*
X26115615Y-30350000D01*
X26115615Y-30750000D01*
X26141903Y-30889708D01*
X26213680Y-31001252D01*
X26145899Y-31100453D01*
X26115615Y-31250000D01*
X26115615Y-31650000D01*
X26141903Y-31789708D01*
X26224470Y-31918020D01*
X26283000Y-31958012D01*
X26283000Y-32964693D01*
X26115651Y-33033840D01*
X25794966Y-33353966D01*
X25621198Y-33772445D01*
X25620803Y-34225567D01*
X24882989Y-34225567D01*
X24278711Y-33621289D01*
X24265872Y-33612710D01*
X24234385Y-33591671D01*
X24234385Y-33350000D01*
X24208097Y-33210292D01*
X24125530Y-33081980D01*
X23999547Y-32995899D01*
X23850000Y-32965615D01*
X20350000Y-32965615D01*
X20277000Y-32979351D01*
X20277000Y-30421250D01*
X21873000Y-30421250D01*
X21873000Y-30924990D01*
X21930395Y-31063553D01*
X22036447Y-31169605D01*
X22175010Y-31227000D01*
X22378750Y-31227000D01*
X22473000Y-31132750D01*
X22473000Y-30327000D01*
X22727000Y-30327000D01*
X22727000Y-31132750D01*
X22821250Y-31227000D01*
X23024990Y-31227000D01*
X23163553Y-31169605D01*
X23269605Y-31063553D01*
X23327000Y-30924990D01*
X23327000Y-30421250D01*
X23232750Y-30327000D01*
X22727000Y-30327000D01*
X22473000Y-30327000D01*
X21967250Y-30327000D01*
X21873000Y-30421250D01*
X20277000Y-30421250D01*
X20277000Y-29475010D01*
X21873000Y-29475010D01*
X21873000Y-29978750D01*
X21967250Y-30073000D01*
X22473000Y-30073000D01*
X22473000Y-29267250D01*
X22727000Y-29267250D01*
X22727000Y-30073000D01*
X23232750Y-30073000D01*
X23327000Y-29978750D01*
X23327000Y-29475010D01*
X23269605Y-29336447D01*
X23163553Y-29230395D01*
X23024990Y-29173000D01*
X22821250Y-29173000D01*
X22727000Y-29267250D01*
X22473000Y-29267250D01*
X22378750Y-29173000D01*
X22175010Y-29173000D01*
X22036447Y-29230395D01*
X21930395Y-29336447D01*
X21873000Y-29475010D01*
X20277000Y-29475010D01*
X20277000Y-29000000D01*
X20240691Y-28817460D01*
X20137290Y-28662710D01*
X19982540Y-28559309D01*
X19800000Y-28523000D01*
X12877000Y-28523000D01*
X12877000Y-27275010D01*
X23823000Y-27275010D01*
X23823000Y-27355750D01*
X23917250Y-27450000D01*
X24373000Y-27450000D01*
X24373000Y-27067250D01*
X24627000Y-27067250D01*
X24627000Y-27450000D01*
X25082750Y-27450000D01*
X25177000Y-27355750D01*
X25177000Y-27275010D01*
X25223000Y-27275010D01*
X25223000Y-27355750D01*
X25317250Y-27450000D01*
X25773000Y-27450000D01*
X25773000Y-27067250D01*
X25678750Y-26973000D01*
X25525010Y-26973000D01*
X25386447Y-27030395D01*
X25280395Y-27136447D01*
X25223000Y-27275010D01*
X25177000Y-27275010D01*
X25119605Y-27136447D01*
X25013553Y-27030395D01*
X24874990Y-26973000D01*
X24721250Y-26973000D01*
X24627000Y-27067250D01*
X24373000Y-27067250D01*
X24278750Y-26973000D01*
X24125010Y-26973000D01*
X23986447Y-27030395D01*
X23880395Y-27136447D01*
X23823000Y-27275010D01*
X12877000Y-27275010D01*
X12877000Y-26244158D01*
X12904447Y-26271605D01*
X13043010Y-26329000D01*
X14928750Y-26329000D01*
X15023000Y-26234750D01*
X15023000Y-25317000D01*
X15277000Y-25317000D01*
X15277000Y-26234750D01*
X15371250Y-26329000D01*
X17256990Y-26329000D01*
X17395553Y-26271605D01*
X17501605Y-26165553D01*
X17559000Y-26026990D01*
X17559000Y-25411250D01*
X17464750Y-25317000D01*
X15277000Y-25317000D01*
X15023000Y-25317000D01*
X15003000Y-25317000D01*
X15003000Y-25063000D01*
X15023000Y-25063000D01*
X15023000Y-24145250D01*
X15277000Y-24145250D01*
X15277000Y-25063000D01*
X17464750Y-25063000D01*
X17506500Y-25021250D01*
X23573000Y-25021250D01*
X23573000Y-25174990D01*
X23630395Y-25313553D01*
X23736447Y-25419605D01*
X23875010Y-25477000D01*
X23955750Y-25477000D01*
X24050000Y-25382750D01*
X24050000Y-24927000D01*
X23667250Y-24927000D01*
X23573000Y-25021250D01*
X17506500Y-25021250D01*
X17559000Y-24968750D01*
X17559000Y-24353010D01*
X17501605Y-24214447D01*
X17395553Y-24108395D01*
X17256990Y-24051000D01*
X15371250Y-24051000D01*
X15277000Y-24145250D01*
X15023000Y-24145250D01*
X14928750Y-24051000D01*
X13043010Y-24051000D01*
X12904447Y-24108395D01*
X12877000Y-24135842D01*
X12877000Y-23703613D01*
X12968453Y-23766101D01*
X13118000Y-23796385D01*
X17182000Y-23796385D01*
X17321708Y-23770097D01*
X17450020Y-23687530D01*
X17536101Y-23561547D01*
X17566385Y-23412000D01*
X17566385Y-23077000D01*
X17915900Y-23077000D01*
X17974470Y-23168020D01*
X18100453Y-23254101D01*
X18250000Y-23284385D01*
X18650000Y-23284385D01*
X18789708Y-23258097D01*
X18901252Y-23186320D01*
X19000453Y-23254101D01*
X19150000Y-23284385D01*
X19550000Y-23284385D01*
X19689708Y-23258097D01*
X19818020Y-23175530D01*
X19852539Y-23125010D01*
X23223000Y-23125010D01*
X23223000Y-23278750D01*
X23317250Y-23373000D01*
X23700000Y-23373000D01*
X23700000Y-22917250D01*
X23605750Y-22823000D01*
X23525010Y-22823000D01*
X23386447Y-22880395D01*
X23280395Y-22986447D01*
X23223000Y-23125010D01*
X19852539Y-23125010D01*
X19885343Y-23077000D01*
X20150000Y-23077000D01*
X20332540Y-23040691D01*
X20487290Y-22937290D01*
X20590195Y-22834385D01*
X20800000Y-22834385D01*
X20939708Y-22808097D01*
X21065736Y-22727000D01*
X21450000Y-22727000D01*
X21632540Y-22690691D01*
X21787290Y-22587290D01*
X22472580Y-21902000D01*
X25490615Y-21902000D01*
X25490615Y-22300000D01*
X25490615Y-22300000D01*
G37*
X25490615Y-22300000D02*
X25510122Y-22403671D01*
X25490615Y-22500000D01*
X25490615Y-22700344D01*
X25485254Y-22698118D01*
X25215927Y-22697883D01*
X24967011Y-22800733D01*
X24943316Y-22824387D01*
X24900000Y-22815615D01*
X24500000Y-22815615D01*
X24360292Y-22841903D01*
X24247586Y-22914428D01*
X24213553Y-22880395D01*
X24074990Y-22823000D01*
X23994250Y-22823000D01*
X23900000Y-22917250D01*
X23900000Y-23373000D01*
X23947000Y-23373000D01*
X23947000Y-23627000D01*
X23900000Y-23627000D01*
X23900000Y-23647000D01*
X23700000Y-23647000D01*
X23700000Y-23627000D01*
X23317250Y-23627000D01*
X23223000Y-23721250D01*
X23223000Y-23874990D01*
X23280395Y-24013553D01*
X23386447Y-24119605D01*
X23525010Y-24177000D01*
X23605750Y-24177000D01*
X23672998Y-24109752D01*
X23672998Y-24177000D01*
X23744643Y-24177000D01*
X23736447Y-24180395D01*
X23630395Y-24286447D01*
X23573000Y-24425010D01*
X23573000Y-24578750D01*
X23667250Y-24673000D01*
X24050000Y-24673000D01*
X24050000Y-24653000D01*
X24250000Y-24653000D01*
X24250000Y-24673000D01*
X24297000Y-24673000D01*
X24297000Y-24927000D01*
X24250000Y-24927000D01*
X24250000Y-25382750D01*
X24344250Y-25477000D01*
X24424990Y-25477000D01*
X24563553Y-25419605D01*
X24598630Y-25384528D01*
X24700453Y-25454101D01*
X24850000Y-25484385D01*
X25250000Y-25484385D01*
X25389708Y-25458097D01*
X25518020Y-25375530D01*
X25604101Y-25249547D01*
X25634385Y-25100000D01*
X25634385Y-24500000D01*
X25608097Y-24360292D01*
X25527000Y-24234264D01*
X25527000Y-24034380D01*
X25723884Y-23953029D01*
X25725453Y-23954101D01*
X25875000Y-23984385D01*
X27172990Y-23984385D01*
X27172990Y-24152430D01*
X26962710Y-24362710D01*
X26859309Y-24517460D01*
X26823000Y-24700000D01*
X26823000Y-25569866D01*
X26662133Y-25677355D01*
X26547893Y-25848326D01*
X26507778Y-26050000D01*
X26547893Y-26251674D01*
X26580184Y-26300000D01*
X26547893Y-26348326D01*
X26507778Y-26550000D01*
X26547893Y-26751674D01*
X26580184Y-26800000D01*
X26547893Y-26848326D01*
X26507778Y-27050000D01*
X26529933Y-27161380D01*
X26519605Y-27136447D01*
X26413553Y-27030395D01*
X26274990Y-26973000D01*
X26121250Y-26973000D01*
X26027000Y-27067250D01*
X26027000Y-27450000D01*
X26047000Y-27450000D01*
X26047000Y-27650000D01*
X26027000Y-27650000D01*
X26027000Y-27697000D01*
X25773000Y-27697000D01*
X25773000Y-27650000D01*
X25317250Y-27650000D01*
X25223000Y-27744250D01*
X25223000Y-27824990D01*
X25280395Y-27963553D01*
X25289842Y-27973000D01*
X25110158Y-27973000D01*
X25119605Y-27963553D01*
X25177000Y-27824990D01*
X25177000Y-27744250D01*
X25082750Y-27650000D01*
X24627000Y-27650000D01*
X24627000Y-27697000D01*
X24373000Y-27697000D01*
X24373000Y-27650000D01*
X23917250Y-27650000D01*
X23823000Y-27744250D01*
X23823000Y-27824990D01*
X23880395Y-27963553D01*
X23915472Y-27998630D01*
X23845899Y-28100453D01*
X23815615Y-28250000D01*
X23815615Y-28650000D01*
X23841903Y-28789708D01*
X23924470Y-28918020D01*
X24023000Y-28985343D01*
X24023000Y-29189512D01*
X24010292Y-29191903D01*
X23881980Y-29274470D01*
X23795899Y-29400453D01*
X23765615Y-29550000D01*
X23765615Y-30850000D01*
X23791903Y-30989708D01*
X23874470Y-31118020D01*
X24000453Y-31204101D01*
X24150000Y-31234385D01*
X24850000Y-31234385D01*
X24989708Y-31208097D01*
X25118020Y-31125530D01*
X25204101Y-30999547D01*
X25234385Y-30850000D01*
X25234385Y-29550000D01*
X25208097Y-29410292D01*
X25125530Y-29281980D01*
X24999547Y-29195899D01*
X24977000Y-29191333D01*
X24977000Y-28984100D01*
X25065736Y-28927000D01*
X25337613Y-28927000D01*
X25450453Y-29004101D01*
X25600000Y-29034385D01*
X26200000Y-29034385D01*
X26339708Y-29008097D01*
X26465736Y-28927000D01*
X27608207Y-28927000D01*
X27609309Y-28932540D01*
X27712710Y-29087290D01*
X27972958Y-29347538D01*
X27972891Y-29424171D01*
X28068145Y-29654703D01*
X28244369Y-29831235D01*
X28474735Y-29926891D01*
X28724171Y-29927109D01*
X28774458Y-29906331D01*
X28765615Y-29950000D01*
X28765615Y-30550000D01*
X28791903Y-30689708D01*
X28873000Y-30815736D01*
X28873000Y-32944033D01*
X28655651Y-33033840D01*
X28334966Y-33353966D01*
X28161198Y-33772445D01*
X28160803Y-34225567D01*
X28333840Y-34644349D01*
X28653966Y-34965034D01*
X29072445Y-35138802D01*
X29525567Y-35139197D01*
X29944349Y-34966160D01*
X30265034Y-34646034D01*
X30438802Y-34227555D01*
X30439197Y-33774433D01*
X30266160Y-33355651D01*
X29946034Y-33034966D01*
X29827000Y-32985539D01*
X29827000Y-30860158D01*
X29836447Y-30869605D01*
X29975010Y-30927000D01*
X30055750Y-30927000D01*
X30150000Y-30832750D01*
X30150000Y-30377000D01*
X30350000Y-30377000D01*
X30350000Y-30832750D01*
X30444250Y-30927000D01*
X30524990Y-30927000D01*
X30663553Y-30869605D01*
X30769605Y-30763553D01*
X30827000Y-30624990D01*
X30827000Y-30471250D01*
X30732750Y-30377000D01*
X30350000Y-30377000D01*
X30150000Y-30377000D01*
X30103000Y-30377000D01*
X30103000Y-30275010D01*
X31123000Y-30275010D01*
X31123000Y-30355750D01*
X31217250Y-30450000D01*
X31673000Y-30450000D01*
X31673000Y-30067250D01*
X31927000Y-30067250D01*
X31927000Y-30450000D01*
X32382750Y-30450000D01*
X32477000Y-30355750D01*
X32477000Y-30275010D01*
X32419605Y-30136447D01*
X32313553Y-30030395D01*
X32174990Y-29973000D01*
X32021250Y-29973000D01*
X31927000Y-30067250D01*
X31673000Y-30067250D01*
X31578750Y-29973000D01*
X31425010Y-29973000D01*
X31286447Y-30030395D01*
X31180395Y-30136447D01*
X31123000Y-30275010D01*
X30103000Y-30275010D01*
X30103000Y-30123000D01*
X30150000Y-30123000D01*
X30150000Y-29667250D01*
X30350000Y-29667250D01*
X30350000Y-30123000D01*
X30732750Y-30123000D01*
X30827000Y-30028750D01*
X30827000Y-29875010D01*
X30769605Y-29736447D01*
X30663553Y-29630395D01*
X30524990Y-29573000D01*
X30444250Y-29573000D01*
X30350000Y-29667250D01*
X30150000Y-29667250D01*
X30055750Y-29573000D01*
X29975010Y-29573000D01*
X29836447Y-29630395D01*
X29827000Y-29639842D01*
X29827000Y-29200000D01*
X29792197Y-29025030D01*
X29922645Y-28937867D01*
X29963315Y-28877000D01*
X30160998Y-28877000D01*
X30818463Y-29534465D01*
X30868145Y-29654703D01*
X31044369Y-29831235D01*
X31274735Y-29926891D01*
X31524171Y-29927109D01*
X31754703Y-29831855D01*
X31931235Y-29655631D01*
X32026891Y-29425265D01*
X32027109Y-29175829D01*
X31931855Y-28945297D01*
X31755631Y-28768765D01*
X31634446Y-28718445D01*
X30878389Y-27962387D01*
X30937867Y-27922645D01*
X31052107Y-27751674D01*
X31092222Y-27550000D01*
X31087647Y-27527000D01*
X32437613Y-27527000D01*
X32550453Y-27604101D01*
X32700000Y-27634385D01*
X33300000Y-27634385D01*
X33439708Y-27608097D01*
X33568020Y-27525530D01*
X33654101Y-27399547D01*
X33684385Y-27250000D01*
X33684385Y-26850000D01*
X33658097Y-26710292D01*
X33586320Y-26598748D01*
X33654101Y-26499547D01*
X33684385Y-26350000D01*
X33684385Y-25950000D01*
X33658097Y-25810292D01*
X33575530Y-25681980D01*
X33472014Y-25611250D01*
X41141000Y-25611250D01*
X41141000Y-26226990D01*
X41198395Y-26365553D01*
X41304447Y-26471605D01*
X41443010Y-26529000D01*
X43328750Y-26529000D01*
X43423000Y-26434750D01*
X43423000Y-25517000D01*
X41235250Y-25517000D01*
X41141000Y-25611250D01*
X33472014Y-25611250D01*
X33449547Y-25595899D01*
X33446214Y-25595224D01*
X33440691Y-25567459D01*
X33337290Y-25412710D01*
X32477590Y-24553010D01*
X41141000Y-24553010D01*
X41141000Y-25168750D01*
X41235250Y-25263000D01*
X43423000Y-25263000D01*
X43423000Y-24345250D01*
X43328750Y-24251000D01*
X41443010Y-24251000D01*
X41304447Y-24308395D01*
X41198395Y-24414447D01*
X41141000Y-24553010D01*
X32477590Y-24553010D01*
X31887290Y-23962710D01*
X31872695Y-23952958D01*
X31993020Y-23875530D01*
X32009097Y-23852000D01*
X32274201Y-23852000D01*
X32350453Y-23904101D01*
X32500000Y-23934385D01*
X33100000Y-23934385D01*
X33239708Y-23908097D01*
X33365736Y-23827000D01*
X33600000Y-23827000D01*
X33782540Y-23790691D01*
X33937290Y-23687290D01*
X34297580Y-23327000D01*
X41133615Y-23327000D01*
X41133615Y-23612000D01*
X41159903Y-23751708D01*
X41242470Y-23880020D01*
X41368453Y-23966101D01*
X41518000Y-23996385D01*
X45582000Y-23996385D01*
X45721708Y-23970097D01*
X45823000Y-23904917D01*
X45823000Y-24335842D01*
X45795553Y-24308395D01*
X45656990Y-24251000D01*
X43771250Y-24251000D01*
X43677000Y-24345250D01*
X43677000Y-25263000D01*
X43697000Y-25263000D01*
X43697000Y-25517000D01*
X43677000Y-25517000D01*
X43677000Y-26434750D01*
X43771250Y-26529000D01*
X45656990Y-26529000D01*
X45795553Y-26471605D01*
X45823000Y-26444158D01*
X45823000Y-28523000D01*
X38900000Y-28523000D01*
X38717460Y-28559309D01*
X38562710Y-28662710D01*
X38459309Y-28817460D01*
X38423000Y-29000000D01*
X38423000Y-33180398D01*
X38350000Y-33165615D01*
X34850000Y-33165615D01*
X34710292Y-33191903D01*
X34581980Y-33274470D01*
X34495899Y-33400453D01*
X34465615Y-33550000D01*
X34465615Y-33623000D01*
X33407762Y-33623000D01*
X33148686Y-33674533D01*
X32979185Y-33787789D01*
X32979197Y-33774433D01*
X32806160Y-33355651D01*
X32486034Y-33034966D01*
X32317000Y-32964777D01*
X32317000Y-31958361D01*
X32368020Y-31925530D01*
X32454101Y-31799547D01*
X32484385Y-31650000D01*
X32484385Y-31250000D01*
X32458097Y-31110292D01*
X32385572Y-30997586D01*
X32419605Y-30963553D01*
X32477000Y-30824990D01*
X32477000Y-30744250D01*
X32382750Y-30650000D01*
X31927000Y-30650000D01*
X31927000Y-30697000D01*
X31673000Y-30697000D01*
X31673000Y-30650000D01*
X31217250Y-30650000D01*
X31123000Y-30744250D01*
X31123000Y-30824990D01*
X31180395Y-30963553D01*
X31215472Y-30998630D01*
X31145899Y-31100453D01*
X31115615Y-31250000D01*
X31115615Y-31650000D01*
X31141903Y-31789708D01*
X31224470Y-31918020D01*
X31350453Y-32004101D01*
X31363000Y-32006642D01*
X31363000Y-32964693D01*
X31195651Y-33033840D01*
X30874966Y-33353966D01*
X30701198Y-33772445D01*
X30700803Y-34225567D01*
X30873840Y-34644349D01*
X31193966Y-34965034D01*
X31611804Y-35138536D01*
X31527340Y-35223000D01*
X25332642Y-35223000D01*
X25376999Y-35000000D01*
X25325466Y-34740924D01*
X25178711Y-34521289D01*
X24882989Y-34225567D01*
X25620803Y-34225567D01*
X25793840Y-34644349D01*
X26113966Y-34965034D01*
X26532445Y-35138802D01*
X26985567Y-35139197D01*
X27404349Y-34966160D01*
X27725034Y-34646034D01*
X27898802Y-34227555D01*
X27899197Y-33774433D01*
X27726160Y-33355651D01*
X27406034Y-33034966D01*
X27237000Y-32964777D01*
X27237000Y-32008607D01*
X27239708Y-32008097D01*
X27368020Y-31925530D01*
X27454101Y-31799547D01*
X27484385Y-31650000D01*
X27484385Y-31250000D01*
X27458097Y-31110292D01*
X27404500Y-31027000D01*
X27490141Y-31027000D01*
X27494369Y-31031235D01*
X27724735Y-31126891D01*
X27974171Y-31127109D01*
X28204703Y-31031855D01*
X28381235Y-30855631D01*
X28476891Y-30625265D01*
X28477109Y-30375829D01*
X28381855Y-30145297D01*
X28205631Y-29968765D01*
X27975265Y-29873109D01*
X27725829Y-29872891D01*
X27495297Y-29968145D01*
X27390259Y-30073000D01*
X27362387Y-30073000D01*
X27249547Y-29995899D01*
X27100000Y-29965615D01*
X26500000Y-29965615D01*
X26360292Y-29991903D01*
X26231980Y-30074470D01*
X26145899Y-30200453D01*
X26115615Y-30350000D01*
X26115615Y-30750000D01*
X26141903Y-30889708D01*
X26213680Y-31001252D01*
X26145899Y-31100453D01*
X26115615Y-31250000D01*
X26115615Y-31650000D01*
X26141903Y-31789708D01*
X26224470Y-31918020D01*
X26283000Y-31958012D01*
X26283000Y-32964693D01*
X26115651Y-33033840D01*
X25794966Y-33353966D01*
X25621198Y-33772445D01*
X25620803Y-34225567D01*
X24882989Y-34225567D01*
X24278711Y-33621289D01*
X24265872Y-33612710D01*
X24234385Y-33591671D01*
X24234385Y-33350000D01*
X24208097Y-33210292D01*
X24125530Y-33081980D01*
X23999547Y-32995899D01*
X23850000Y-32965615D01*
X20350000Y-32965615D01*
X20277000Y-32979351D01*
X20277000Y-30421250D01*
X21873000Y-30421250D01*
X21873000Y-30924990D01*
X21930395Y-31063553D01*
X22036447Y-31169605D01*
X22175010Y-31227000D01*
X22378750Y-31227000D01*
X22473000Y-31132750D01*
X22473000Y-30327000D01*
X22727000Y-30327000D01*
X22727000Y-31132750D01*
X22821250Y-31227000D01*
X23024990Y-31227000D01*
X23163553Y-31169605D01*
X23269605Y-31063553D01*
X23327000Y-30924990D01*
X23327000Y-30421250D01*
X23232750Y-30327000D01*
X22727000Y-30327000D01*
X22473000Y-30327000D01*
X21967250Y-30327000D01*
X21873000Y-30421250D01*
X20277000Y-30421250D01*
X20277000Y-29475010D01*
X21873000Y-29475010D01*
X21873000Y-29978750D01*
X21967250Y-30073000D01*
X22473000Y-30073000D01*
X22473000Y-29267250D01*
X22727000Y-29267250D01*
X22727000Y-30073000D01*
X23232750Y-30073000D01*
X23327000Y-29978750D01*
X23327000Y-29475010D01*
X23269605Y-29336447D01*
X23163553Y-29230395D01*
X23024990Y-29173000D01*
X22821250Y-29173000D01*
X22727000Y-29267250D01*
X22473000Y-29267250D01*
X22378750Y-29173000D01*
X22175010Y-29173000D01*
X22036447Y-29230395D01*
X21930395Y-29336447D01*
X21873000Y-29475010D01*
X20277000Y-29475010D01*
X20277000Y-29000000D01*
X20240691Y-28817460D01*
X20137290Y-28662710D01*
X19982540Y-28559309D01*
X19800000Y-28523000D01*
X12877000Y-28523000D01*
X12877000Y-27275010D01*
X23823000Y-27275010D01*
X23823000Y-27355750D01*
X23917250Y-27450000D01*
X24373000Y-27450000D01*
X24373000Y-27067250D01*
X24627000Y-27067250D01*
X24627000Y-27450000D01*
X25082750Y-27450000D01*
X25177000Y-27355750D01*
X25177000Y-27275010D01*
X25223000Y-27275010D01*
X25223000Y-27355750D01*
X25317250Y-27450000D01*
X25773000Y-27450000D01*
X25773000Y-27067250D01*
X25678750Y-26973000D01*
X25525010Y-26973000D01*
X25386447Y-27030395D01*
X25280395Y-27136447D01*
X25223000Y-27275010D01*
X25177000Y-27275010D01*
X25119605Y-27136447D01*
X25013553Y-27030395D01*
X24874990Y-26973000D01*
X24721250Y-26973000D01*
X24627000Y-27067250D01*
X24373000Y-27067250D01*
X24278750Y-26973000D01*
X24125010Y-26973000D01*
X23986447Y-27030395D01*
X23880395Y-27136447D01*
X23823000Y-27275010D01*
X12877000Y-27275010D01*
X12877000Y-26244158D01*
X12904447Y-26271605D01*
X13043010Y-26329000D01*
X14928750Y-26329000D01*
X15023000Y-26234750D01*
X15023000Y-25317000D01*
X15277000Y-25317000D01*
X15277000Y-26234750D01*
X15371250Y-26329000D01*
X17256990Y-26329000D01*
X17395553Y-26271605D01*
X17501605Y-26165553D01*
X17559000Y-26026990D01*
X17559000Y-25411250D01*
X17464750Y-25317000D01*
X15277000Y-25317000D01*
X15023000Y-25317000D01*
X15003000Y-25317000D01*
X15003000Y-25063000D01*
X15023000Y-25063000D01*
X15023000Y-24145250D01*
X15277000Y-24145250D01*
X15277000Y-25063000D01*
X17464750Y-25063000D01*
X17506500Y-25021250D01*
X23573000Y-25021250D01*
X23573000Y-25174990D01*
X23630395Y-25313553D01*
X23736447Y-25419605D01*
X23875010Y-25477000D01*
X23955750Y-25477000D01*
X24050000Y-25382750D01*
X24050000Y-24927000D01*
X23667250Y-24927000D01*
X23573000Y-25021250D01*
X17506500Y-25021250D01*
X17559000Y-24968750D01*
X17559000Y-24353010D01*
X17501605Y-24214447D01*
X17395553Y-24108395D01*
X17256990Y-24051000D01*
X15371250Y-24051000D01*
X15277000Y-24145250D01*
X15023000Y-24145250D01*
X14928750Y-24051000D01*
X13043010Y-24051000D01*
X12904447Y-24108395D01*
X12877000Y-24135842D01*
X12877000Y-23703613D01*
X12968453Y-23766101D01*
X13118000Y-23796385D01*
X17182000Y-23796385D01*
X17321708Y-23770097D01*
X17450020Y-23687530D01*
X17536101Y-23561547D01*
X17566385Y-23412000D01*
X17566385Y-23077000D01*
X17915900Y-23077000D01*
X17974470Y-23168020D01*
X18100453Y-23254101D01*
X18250000Y-23284385D01*
X18650000Y-23284385D01*
X18789708Y-23258097D01*
X18901252Y-23186320D01*
X19000453Y-23254101D01*
X19150000Y-23284385D01*
X19550000Y-23284385D01*
X19689708Y-23258097D01*
X19818020Y-23175530D01*
X19852539Y-23125010D01*
X23223000Y-23125010D01*
X23223000Y-23278750D01*
X23317250Y-23373000D01*
X23700000Y-23373000D01*
X23700000Y-22917250D01*
X23605750Y-22823000D01*
X23525010Y-22823000D01*
X23386447Y-22880395D01*
X23280395Y-22986447D01*
X23223000Y-23125010D01*
X19852539Y-23125010D01*
X19885343Y-23077000D01*
X20150000Y-23077000D01*
X20332540Y-23040691D01*
X20487290Y-22937290D01*
X20590195Y-22834385D01*
X20800000Y-22834385D01*
X20939708Y-22808097D01*
X21065736Y-22727000D01*
X21450000Y-22727000D01*
X21632540Y-22690691D01*
X21787290Y-22587290D01*
X22472580Y-21902000D01*
X25490615Y-21902000D01*
X25490615Y-22300000D01*
G36*
X45823000Y-19255842D02*
X45795553Y-19228395D01*
X45656990Y-19171000D01*
X43771250Y-19171000D01*
X43677000Y-19265250D01*
X43677000Y-20183000D01*
X43697000Y-20183000D01*
X43697000Y-20437000D01*
X43677000Y-20437000D01*
X43677000Y-21354750D01*
X43771250Y-21449000D01*
X45656990Y-21449000D01*
X45795553Y-21391605D01*
X45823000Y-21364158D01*
X45823000Y-21796387D01*
X45731547Y-21733899D01*
X45582000Y-21703615D01*
X41518000Y-21703615D01*
X41378292Y-21729903D01*
X41249980Y-21812470D01*
X41163899Y-21938453D01*
X41133615Y-22088000D01*
X41133615Y-22373000D01*
X34100000Y-22373000D01*
X33917460Y-22409309D01*
X33762710Y-22512710D01*
X33407132Y-22868288D01*
X33454101Y-22799547D01*
X33484385Y-22650000D01*
X33484385Y-22250000D01*
X33458097Y-22110292D01*
X33375530Y-21981980D01*
X33253969Y-21898920D01*
X33368020Y-21825530D01*
X33454101Y-21699547D01*
X33484385Y-21550000D01*
X33484385Y-21150000D01*
X33458097Y-21010292D01*
X33385572Y-20897586D01*
X33419605Y-20863553D01*
X33477000Y-20724990D01*
X33477000Y-20644250D01*
X33382750Y-20550000D01*
X32927000Y-20550000D01*
X32927000Y-20597000D01*
X32673000Y-20597000D01*
X32673000Y-20550000D01*
X32217250Y-20550000D01*
X32123000Y-20644250D01*
X32123000Y-20724990D01*
X32180395Y-20863553D01*
X32215472Y-20898630D01*
X32145899Y-21000453D01*
X32115615Y-21150000D01*
X32115615Y-21259805D01*
X32109385Y-21266035D01*
X32109385Y-21200000D01*
X32083097Y-21060292D01*
X32000530Y-20931980D01*
X31977000Y-20915903D01*
X31977000Y-20531250D01*
X41141000Y-20531250D01*
X41141000Y-21146990D01*
X41198395Y-21285553D01*
X41304447Y-21391605D01*
X41443010Y-21449000D01*
X43328750Y-21449000D01*
X43423000Y-21354750D01*
X43423000Y-20437000D01*
X41235250Y-20437000D01*
X41141000Y-20531250D01*
X31977000Y-20531250D01*
X31977000Y-20186468D01*
X31979320Y-20175010D01*
X32123000Y-20175010D01*
X32123000Y-20255750D01*
X32217250Y-20350000D01*
X32673000Y-20350000D01*
X32673000Y-19967250D01*
X32927000Y-19967250D01*
X32927000Y-20350000D01*
X33382750Y-20350000D01*
X33477000Y-20255750D01*
X33477000Y-20175010D01*
X33419605Y-20036447D01*
X33313553Y-19930395D01*
X33174990Y-19873000D01*
X33021250Y-19873000D01*
X32927000Y-19967250D01*
X32673000Y-19967250D01*
X32578750Y-19873000D01*
X32425010Y-19873000D01*
X32286447Y-19930395D01*
X32180395Y-20036447D01*
X32123000Y-20175010D01*
X31979320Y-20175010D01*
X31984385Y-20150000D01*
X31984385Y-19750000D01*
X31958097Y-19610292D01*
X31885572Y-19497586D01*
X31910148Y-19473010D01*
X41141000Y-19473010D01*
X41141000Y-20088750D01*
X41235250Y-20183000D01*
X43423000Y-20183000D01*
X43423000Y-19265250D01*
X43328750Y-19171000D01*
X41443010Y-19171000D01*
X41304447Y-19228395D01*
X41198395Y-19334447D01*
X41141000Y-19473010D01*
X31910148Y-19473010D01*
X31919605Y-19463553D01*
X31977000Y-19324990D01*
X31977000Y-19244250D01*
X31882750Y-19150000D01*
X31427000Y-19150000D01*
X31427000Y-19197000D01*
X31173000Y-19197000D01*
X31173000Y-19150000D01*
X30717250Y-19150000D01*
X30623000Y-19244250D01*
X30623000Y-19324990D01*
X30663597Y-19423000D01*
X30536403Y-19423000D01*
X30577000Y-19324990D01*
X30577000Y-19244250D01*
X30482750Y-19150000D01*
X30027000Y-19150000D01*
X30027000Y-19197000D01*
X29773000Y-19197000D01*
X29773000Y-19150000D01*
X29317250Y-19150000D01*
X29223000Y-19244250D01*
X29223000Y-19324990D01*
X29280395Y-19463553D01*
X29315472Y-19498630D01*
X29245899Y-19600453D01*
X29215615Y-19750000D01*
X29215615Y-20150000D01*
X29241903Y-20289708D01*
X29324470Y-20418020D01*
X29326835Y-20419636D01*
X29350709Y-20541862D01*
X29433421Y-20666579D01*
X29903452Y-21136610D01*
X29890615Y-21200000D01*
X29890615Y-21635542D01*
X29737710Y-21737710D01*
X29168712Y-22306708D01*
X29065311Y-22461458D01*
X29042437Y-22576456D01*
X28827265Y-22487109D01*
X28577829Y-22486891D01*
X28347297Y-22582145D01*
X28170765Y-22758369D01*
X28117415Y-22886851D01*
X28090681Y-22752448D01*
X27987280Y-22597698D01*
X27777292Y-22387710D01*
X27701834Y-22337290D01*
X27709385Y-22300000D01*
X27709385Y-21850000D01*
X27689878Y-21746329D01*
X27709385Y-21650000D01*
X27709385Y-21200000D01*
X27683097Y-21060292D01*
X27600530Y-20931980D01*
X27474547Y-20845899D01*
X27325000Y-20815615D01*
X25875000Y-20815615D01*
X25735292Y-20841903D01*
X25606980Y-20924470D01*
X25590903Y-20948000D01*
X22275000Y-20948000D01*
X22092460Y-20984309D01*
X21937710Y-21087710D01*
X21252420Y-21773000D01*
X21110158Y-21773000D01*
X21119605Y-21763553D01*
X21177000Y-21624990D01*
X21177000Y-21544250D01*
X21082750Y-21450000D01*
X20627000Y-21450000D01*
X20627000Y-21497000D01*
X20373000Y-21497000D01*
X20373000Y-21450000D01*
X19917250Y-21450000D01*
X19823000Y-21544250D01*
X19823000Y-21624990D01*
X19880395Y-21763553D01*
X19915472Y-21798630D01*
X19845899Y-21900453D01*
X19820026Y-22028219D01*
X19699547Y-21945899D01*
X19550000Y-21915615D01*
X19150000Y-21915615D01*
X19010292Y-21941903D01*
X18898748Y-22013680D01*
X18799547Y-21945899D01*
X18650000Y-21915615D01*
X18250000Y-21915615D01*
X18110292Y-21941903D01*
X17981980Y-22024470D01*
X17914657Y-22123000D01*
X17566385Y-22123000D01*
X17566385Y-21888000D01*
X17540097Y-21748292D01*
X17457530Y-21619980D01*
X17331547Y-21533899D01*
X17182000Y-21503615D01*
X13118000Y-21503615D01*
X12978292Y-21529903D01*
X12877000Y-21595083D01*
X12877000Y-21164158D01*
X12904447Y-21191605D01*
X13043010Y-21249000D01*
X14928750Y-21249000D01*
X15023000Y-21154750D01*
X15023000Y-20237000D01*
X15277000Y-20237000D01*
X15277000Y-21154750D01*
X15371250Y-21249000D01*
X17256990Y-21249000D01*
X17395553Y-21191605D01*
X17501605Y-21085553D01*
X17505972Y-21075010D01*
X19823000Y-21075010D01*
X19823000Y-21155750D01*
X19917250Y-21250000D01*
X20373000Y-21250000D01*
X20373000Y-20867250D01*
X20627000Y-20867250D01*
X20627000Y-21250000D01*
X21082750Y-21250000D01*
X21177000Y-21155750D01*
X21177000Y-21075010D01*
X21119605Y-20936447D01*
X21013553Y-20830395D01*
X20874990Y-20773000D01*
X20721250Y-20773000D01*
X20627000Y-20867250D01*
X20373000Y-20867250D01*
X20278750Y-20773000D01*
X20125010Y-20773000D01*
X19986447Y-20830395D01*
X19880395Y-20936447D01*
X19823000Y-21075010D01*
X17505972Y-21075010D01*
X17559000Y-20946990D01*
X17559000Y-20331250D01*
X17464750Y-20237000D01*
X15277000Y-20237000D01*
X15023000Y-20237000D01*
X15003000Y-20237000D01*
X15003000Y-19983000D01*
X15023000Y-19983000D01*
X15023000Y-19065250D01*
X15277000Y-19065250D01*
X15277000Y-19983000D01*
X17464750Y-19983000D01*
X17559000Y-19888750D01*
X17559000Y-19273010D01*
X17501605Y-19134447D01*
X17395553Y-19028395D01*
X17256990Y-18971000D01*
X15371250Y-18971000D01*
X15277000Y-19065250D01*
X15023000Y-19065250D01*
X14928750Y-18971000D01*
X13043010Y-18971000D01*
X12904447Y-19028395D01*
X12877000Y-19055842D01*
X12877000Y-18775010D01*
X29223000Y-18775010D01*
X29223000Y-18855750D01*
X29317250Y-18950000D01*
X29773000Y-18950000D01*
X29773000Y-18567250D01*
X30027000Y-18567250D01*
X30027000Y-18950000D01*
X30482750Y-18950000D01*
X30577000Y-18855750D01*
X30577000Y-18775010D01*
X30623000Y-18775010D01*
X30623000Y-18855750D01*
X30717250Y-18950000D01*
X31173000Y-18950000D01*
X31173000Y-18567250D01*
X31427000Y-18567250D01*
X31427000Y-18950000D01*
X31882750Y-18950000D01*
X31977000Y-18855750D01*
X31977000Y-18775010D01*
X31919605Y-18636447D01*
X31813553Y-18530395D01*
X31674990Y-18473000D01*
X31521250Y-18473000D01*
X31427000Y-18567250D01*
X31173000Y-18567250D01*
X31078750Y-18473000D01*
X30925010Y-18473000D01*
X30786447Y-18530395D01*
X30680395Y-18636447D01*
X30623000Y-18775010D01*
X30577000Y-18775010D01*
X30519605Y-18636447D01*
X30413553Y-18530395D01*
X30274990Y-18473000D01*
X30121250Y-18473000D01*
X30027000Y-18567250D01*
X29773000Y-18567250D01*
X29678750Y-18473000D01*
X29525010Y-18473000D01*
X29386447Y-18530395D01*
X29280395Y-18636447D01*
X29223000Y-18775010D01*
X12877000Y-18775010D01*
X12877000Y-12677000D01*
X45823000Y-12677000D01*
X45823000Y-19255842D01*
X45823000Y-19255842D01*
G37*
X45823000Y-19255842D02*
X45795553Y-19228395D01*
X45656990Y-19171000D01*
X43771250Y-19171000D01*
X43677000Y-19265250D01*
X43677000Y-20183000D01*
X43697000Y-20183000D01*
X43697000Y-20437000D01*
X43677000Y-20437000D01*
X43677000Y-21354750D01*
X43771250Y-21449000D01*
X45656990Y-21449000D01*
X45795553Y-21391605D01*
X45823000Y-21364158D01*
X45823000Y-21796387D01*
X45731547Y-21733899D01*
X45582000Y-21703615D01*
X41518000Y-21703615D01*
X41378292Y-21729903D01*
X41249980Y-21812470D01*
X41163899Y-21938453D01*
X41133615Y-22088000D01*
X41133615Y-22373000D01*
X34100000Y-22373000D01*
X33917460Y-22409309D01*
X33762710Y-22512710D01*
X33407132Y-22868288D01*
X33454101Y-22799547D01*
X33484385Y-22650000D01*
X33484385Y-22250000D01*
X33458097Y-22110292D01*
X33375530Y-21981980D01*
X33253969Y-21898920D01*
X33368020Y-21825530D01*
X33454101Y-21699547D01*
X33484385Y-21550000D01*
X33484385Y-21150000D01*
X33458097Y-21010292D01*
X33385572Y-20897586D01*
X33419605Y-20863553D01*
X33477000Y-20724990D01*
X33477000Y-20644250D01*
X33382750Y-20550000D01*
X32927000Y-20550000D01*
X32927000Y-20597000D01*
X32673000Y-20597000D01*
X32673000Y-20550000D01*
X32217250Y-20550000D01*
X32123000Y-20644250D01*
X32123000Y-20724990D01*
X32180395Y-20863553D01*
X32215472Y-20898630D01*
X32145899Y-21000453D01*
X32115615Y-21150000D01*
X32115615Y-21259805D01*
X32109385Y-21266035D01*
X32109385Y-21200000D01*
X32083097Y-21060292D01*
X32000530Y-20931980D01*
X31977000Y-20915903D01*
X31977000Y-20531250D01*
X41141000Y-20531250D01*
X41141000Y-21146990D01*
X41198395Y-21285553D01*
X41304447Y-21391605D01*
X41443010Y-21449000D01*
X43328750Y-21449000D01*
X43423000Y-21354750D01*
X43423000Y-20437000D01*
X41235250Y-20437000D01*
X41141000Y-20531250D01*
X31977000Y-20531250D01*
X31977000Y-20186468D01*
X31979320Y-20175010D01*
X32123000Y-20175010D01*
X32123000Y-20255750D01*
X32217250Y-20350000D01*
X32673000Y-20350000D01*
X32673000Y-19967250D01*
X32927000Y-19967250D01*
X32927000Y-20350000D01*
X33382750Y-20350000D01*
X33477000Y-20255750D01*
X33477000Y-20175010D01*
X33419605Y-20036447D01*
X33313553Y-19930395D01*
X33174990Y-19873000D01*
X33021250Y-19873000D01*
X32927000Y-19967250D01*
X32673000Y-19967250D01*
X32578750Y-19873000D01*
X32425010Y-19873000D01*
X32286447Y-19930395D01*
X32180395Y-20036447D01*
X32123000Y-20175010D01*
X31979320Y-20175010D01*
X31984385Y-20150000D01*
X31984385Y-19750000D01*
X31958097Y-19610292D01*
X31885572Y-19497586D01*
X31910148Y-19473010D01*
X41141000Y-19473010D01*
X41141000Y-20088750D01*
X41235250Y-20183000D01*
X43423000Y-20183000D01*
X43423000Y-19265250D01*
X43328750Y-19171000D01*
X41443010Y-19171000D01*
X41304447Y-19228395D01*
X41198395Y-19334447D01*
X41141000Y-19473010D01*
X31910148Y-19473010D01*
X31919605Y-19463553D01*
X31977000Y-19324990D01*
X31977000Y-19244250D01*
X31882750Y-19150000D01*
X31427000Y-19150000D01*
X31427000Y-19197000D01*
X31173000Y-19197000D01*
X31173000Y-19150000D01*
X30717250Y-19150000D01*
X30623000Y-19244250D01*
X30623000Y-19324990D01*
X30663597Y-19423000D01*
X30536403Y-19423000D01*
X30577000Y-19324990D01*
X30577000Y-19244250D01*
X30482750Y-19150000D01*
X30027000Y-19150000D01*
X30027000Y-19197000D01*
X29773000Y-19197000D01*
X29773000Y-19150000D01*
X29317250Y-19150000D01*
X29223000Y-19244250D01*
X29223000Y-19324990D01*
X29280395Y-19463553D01*
X29315472Y-19498630D01*
X29245899Y-19600453D01*
X29215615Y-19750000D01*
X29215615Y-20150000D01*
X29241903Y-20289708D01*
X29324470Y-20418020D01*
X29326835Y-20419636D01*
X29350709Y-20541862D01*
X29433421Y-20666579D01*
X29903452Y-21136610D01*
X29890615Y-21200000D01*
X29890615Y-21635542D01*
X29737710Y-21737710D01*
X29168712Y-22306708D01*
X29065311Y-22461458D01*
X29042437Y-22576456D01*
X28827265Y-22487109D01*
X28577829Y-22486891D01*
X28347297Y-22582145D01*
X28170765Y-22758369D01*
X28117415Y-22886851D01*
X28090681Y-22752448D01*
X27987280Y-22597698D01*
X27777292Y-22387710D01*
X27701834Y-22337290D01*
X27709385Y-22300000D01*
X27709385Y-21850000D01*
X27689878Y-21746329D01*
X27709385Y-21650000D01*
X27709385Y-21200000D01*
X27683097Y-21060292D01*
X27600530Y-20931980D01*
X27474547Y-20845899D01*
X27325000Y-20815615D01*
X25875000Y-20815615D01*
X25735292Y-20841903D01*
X25606980Y-20924470D01*
X25590903Y-20948000D01*
X22275000Y-20948000D01*
X22092460Y-20984309D01*
X21937710Y-21087710D01*
X21252420Y-21773000D01*
X21110158Y-21773000D01*
X21119605Y-21763553D01*
X21177000Y-21624990D01*
X21177000Y-21544250D01*
X21082750Y-21450000D01*
X20627000Y-21450000D01*
X20627000Y-21497000D01*
X20373000Y-21497000D01*
X20373000Y-21450000D01*
X19917250Y-21450000D01*
X19823000Y-21544250D01*
X19823000Y-21624990D01*
X19880395Y-21763553D01*
X19915472Y-21798630D01*
X19845899Y-21900453D01*
X19820026Y-22028219D01*
X19699547Y-21945899D01*
X19550000Y-21915615D01*
X19150000Y-21915615D01*
X19010292Y-21941903D01*
X18898748Y-22013680D01*
X18799547Y-21945899D01*
X18650000Y-21915615D01*
X18250000Y-21915615D01*
X18110292Y-21941903D01*
X17981980Y-22024470D01*
X17914657Y-22123000D01*
X17566385Y-22123000D01*
X17566385Y-21888000D01*
X17540097Y-21748292D01*
X17457530Y-21619980D01*
X17331547Y-21533899D01*
X17182000Y-21503615D01*
X13118000Y-21503615D01*
X12978292Y-21529903D01*
X12877000Y-21595083D01*
X12877000Y-21164158D01*
X12904447Y-21191605D01*
X13043010Y-21249000D01*
X14928750Y-21249000D01*
X15023000Y-21154750D01*
X15023000Y-20237000D01*
X15277000Y-20237000D01*
X15277000Y-21154750D01*
X15371250Y-21249000D01*
X17256990Y-21249000D01*
X17395553Y-21191605D01*
X17501605Y-21085553D01*
X17505972Y-21075010D01*
X19823000Y-21075010D01*
X19823000Y-21155750D01*
X19917250Y-21250000D01*
X20373000Y-21250000D01*
X20373000Y-20867250D01*
X20627000Y-20867250D01*
X20627000Y-21250000D01*
X21082750Y-21250000D01*
X21177000Y-21155750D01*
X21177000Y-21075010D01*
X21119605Y-20936447D01*
X21013553Y-20830395D01*
X20874990Y-20773000D01*
X20721250Y-20773000D01*
X20627000Y-20867250D01*
X20373000Y-20867250D01*
X20278750Y-20773000D01*
X20125010Y-20773000D01*
X19986447Y-20830395D01*
X19880395Y-20936447D01*
X19823000Y-21075010D01*
X17505972Y-21075010D01*
X17559000Y-20946990D01*
X17559000Y-20331250D01*
X17464750Y-20237000D01*
X15277000Y-20237000D01*
X15023000Y-20237000D01*
X15003000Y-20237000D01*
X15003000Y-19983000D01*
X15023000Y-19983000D01*
X15023000Y-19065250D01*
X15277000Y-19065250D01*
X15277000Y-19983000D01*
X17464750Y-19983000D01*
X17559000Y-19888750D01*
X17559000Y-19273010D01*
X17501605Y-19134447D01*
X17395553Y-19028395D01*
X17256990Y-18971000D01*
X15371250Y-18971000D01*
X15277000Y-19065250D01*
X15023000Y-19065250D01*
X14928750Y-18971000D01*
X13043010Y-18971000D01*
X12904447Y-19028395D01*
X12877000Y-19055842D01*
X12877000Y-18775010D01*
X29223000Y-18775010D01*
X29223000Y-18855750D01*
X29317250Y-18950000D01*
X29773000Y-18950000D01*
X29773000Y-18567250D01*
X30027000Y-18567250D01*
X30027000Y-18950000D01*
X30482750Y-18950000D01*
X30577000Y-18855750D01*
X30577000Y-18775010D01*
X30623000Y-18775010D01*
X30623000Y-18855750D01*
X30717250Y-18950000D01*
X31173000Y-18950000D01*
X31173000Y-18567250D01*
X31427000Y-18567250D01*
X31427000Y-18950000D01*
X31882750Y-18950000D01*
X31977000Y-18855750D01*
X31977000Y-18775010D01*
X31919605Y-18636447D01*
X31813553Y-18530395D01*
X31674990Y-18473000D01*
X31521250Y-18473000D01*
X31427000Y-18567250D01*
X31173000Y-18567250D01*
X31078750Y-18473000D01*
X30925010Y-18473000D01*
X30786447Y-18530395D01*
X30680395Y-18636447D01*
X30623000Y-18775010D01*
X30577000Y-18775010D01*
X30519605Y-18636447D01*
X30413553Y-18530395D01*
X30274990Y-18473000D01*
X30121250Y-18473000D01*
X30027000Y-18567250D01*
X29773000Y-18567250D01*
X29678750Y-18473000D01*
X29525010Y-18473000D01*
X29386447Y-18530395D01*
X29280395Y-18636447D01*
X29223000Y-18775010D01*
X12877000Y-18775010D01*
X12877000Y-12677000D01*
X45823000Y-12677000D01*
X45823000Y-19255842D01*
M02*
