G04 #@! TF.FileFunction,Copper,L2,Bot,Signal*
%FSLAX46Y46*%
G04 Gerber Fmt 4.6, Leading zero omitted, Abs format (unit mm)*
G04 Created by KiCad (PCBNEW 4.0.2-stable) date Mon 06 Jun 2016 07:54:09 AM CEST*
%MOMM*%
G01*
G04 APERTURE LIST*
%ADD10C,0.050000*%
%ADD11C,0.500000*%
%ADD12C,1.250000*%
%ADD13R,4.064000X1.524000*%
%ADD14R,1.060000X0.650000*%
%ADD15C,1.524000*%
%ADD16R,0.400000X0.600000*%
%ADD17R,3.500000X1.500000*%
%ADD18C,0.600000*%
%ADD19C,0.200000*%
%ADD20C,0.400000*%
%ADD21C,0.600000*%
%ADD22C,0.254000*%
G04 APERTURE END LIST*
D10*
D11*
X20800000Y-20200000D03*
X21800000Y-20200000D03*
X25650000Y-31400000D03*
X25650000Y-30100000D03*
X30450000Y-31500000D03*
X30600000Y-32600000D03*
X24950000Y-22350000D03*
X23950000Y-22350000D03*
X22950000Y-22350000D03*
X24500000Y-26450000D03*
D12*
X28800000Y-26800000D03*
D11*
X26850000Y-29400000D03*
X32700000Y-28950000D03*
X31850000Y-28050000D03*
X28550000Y-21400000D03*
X26550000Y-19950000D03*
X28550000Y-19950000D03*
X27550000Y-19950000D03*
X23900000Y-20200000D03*
X24900000Y-20200000D03*
X22900000Y-20200000D03*
X21500000Y-23850000D03*
X20500000Y-23850000D03*
X21500000Y-24850000D03*
X20500000Y-24850000D03*
X22500000Y-24850000D03*
X22500000Y-23850000D03*
X43100000Y-18500000D03*
X44100000Y-18500000D03*
X42100000Y-18500000D03*
X45100000Y-18500000D03*
X45050000Y-27050000D03*
X44050000Y-27050000D03*
X43050000Y-27050000D03*
X42050000Y-27050000D03*
X37500000Y-23850000D03*
X37500000Y-24850000D03*
X36500000Y-23850000D03*
X35500000Y-24850000D03*
X36500000Y-24850000D03*
X35500000Y-23850000D03*
X38500000Y-23850000D03*
X39500000Y-24850000D03*
X38500000Y-24850000D03*
X39500000Y-23850000D03*
X39500000Y-20750000D03*
X35500000Y-20750000D03*
X36500000Y-20750000D03*
X36500000Y-21750000D03*
X35500000Y-21750000D03*
X37500000Y-20750000D03*
X38500000Y-21750000D03*
X37500000Y-21750000D03*
X38500000Y-20750000D03*
X39500000Y-21750000D03*
X18250000Y-19600000D03*
X18250000Y-20600000D03*
X18250000Y-24700000D03*
X18250000Y-25700000D03*
X14650000Y-18600000D03*
X15650000Y-18600000D03*
X13650000Y-18600000D03*
X16650000Y-18600000D03*
X14650000Y-26700000D03*
X15650000Y-26700000D03*
X13650000Y-26700000D03*
X16650000Y-26700000D03*
X23900000Y-32200000D03*
X20900000Y-32200000D03*
X21900000Y-32200000D03*
X22900000Y-32200000D03*
X35750000Y-41050000D03*
X36750000Y-41050000D03*
X34750000Y-41050000D03*
X37750000Y-41050000D03*
X29900000Y-40800000D03*
X31800000Y-40300000D03*
X30900000Y-40800000D03*
D13*
X43550000Y-25390000D03*
X43550000Y-20310000D03*
D14*
X29950000Y-37500000D03*
X29950000Y-38450000D03*
X29950000Y-39400000D03*
X27750000Y-39400000D03*
X27750000Y-37500000D03*
D15*
X29300000Y-34000000D03*
X26760000Y-34000000D03*
X31840000Y-34000000D03*
D16*
X31350000Y-38900000D03*
X32250000Y-38900000D03*
D17*
X36600000Y-39300000D03*
X36600000Y-36800000D03*
X36600000Y-34300000D03*
X22100000Y-34100000D03*
X22100000Y-36600000D03*
X22100000Y-39100000D03*
D13*
X15150000Y-20110000D03*
X15150000Y-25190000D03*
D16*
X27850000Y-36100000D03*
X28750000Y-36100000D03*
X27800000Y-40750000D03*
X28700000Y-40750000D03*
X31350000Y-37500000D03*
X32250000Y-37500000D03*
X27716000Y-24346000D03*
X26816000Y-24346000D03*
X27716000Y-25746000D03*
X26816000Y-25746000D03*
D10*
G36*
X32408858Y-23939619D02*
X31489619Y-24858858D01*
X30994644Y-24363883D01*
X31913883Y-23444644D01*
X32408858Y-23939619D01*
X32408858Y-23939619D01*
G37*
G36*
X31065356Y-22596117D02*
X30146117Y-23515356D01*
X29651142Y-23020381D01*
X30570381Y-22101142D01*
X31065356Y-22596117D01*
X31065356Y-22596117D01*
G37*
D11*
X28702000Y-23114000D03*
X30545977Y-25350020D03*
X29327023Y-24492949D03*
X28650000Y-24200000D03*
D18*
X25350000Y-23375000D03*
D11*
X27850000Y-30500000D03*
X31000000Y-20650000D03*
X31400000Y-29300000D03*
X28600000Y-29300000D03*
X33789326Y-35050010D03*
X26399996Y-39300000D03*
X24700000Y-35000000D03*
X25500000Y-38900000D03*
X25100000Y-35900000D03*
X24600000Y-37700000D03*
X34200000Y-37900000D03*
D19*
X31701751Y-24151751D02*
X31701751Y-22557751D01*
X31701751Y-22557751D02*
X30734000Y-21590000D01*
X30734000Y-21590000D02*
X30226000Y-21590000D01*
X30226000Y-21590000D02*
X28951999Y-22864001D01*
X28951999Y-22864001D02*
X28702000Y-23114000D01*
X31701751Y-24151751D02*
X31701751Y-24194246D01*
X31701751Y-24194246D02*
X30545977Y-25350020D01*
X29327023Y-24492949D02*
X29719972Y-24100000D01*
X30358249Y-22808249D02*
X29827920Y-23338578D01*
X29827920Y-23338578D02*
X29827920Y-23992052D01*
X29827920Y-23992052D02*
X29719972Y-24100000D01*
X29500000Y-24319972D02*
X29327023Y-24492949D01*
X27716000Y-24346000D02*
X27716000Y-23846000D01*
X27716000Y-23846000D02*
X27245000Y-23375000D01*
X27245000Y-23375000D02*
X25774264Y-23375000D01*
X25774264Y-23375000D02*
X25350000Y-23375000D01*
X28650000Y-24200000D02*
X27862000Y-24200000D01*
X27862000Y-24200000D02*
X27716000Y-24346000D01*
X27716000Y-25746000D02*
X27716000Y-24346000D01*
X27850000Y-27700000D02*
X27716000Y-27566000D01*
X27716000Y-27566000D02*
X27716000Y-25746000D01*
X25575000Y-23375000D02*
X25350000Y-23375000D01*
X27850000Y-30500000D02*
X27850000Y-27700000D01*
X27850000Y-30500000D02*
X27850000Y-35600000D01*
X27850000Y-35600000D02*
X27850000Y-36100000D01*
D20*
X27850000Y-36100000D02*
X27850000Y-37400000D01*
X27850000Y-37400000D02*
X27750000Y-37500000D01*
X33789326Y-31689326D02*
X33789326Y-23439326D01*
X33789326Y-23439326D02*
X31000000Y-20650000D01*
X33789326Y-31689326D02*
X31400000Y-29300000D01*
X31400000Y-29300000D02*
X28600000Y-29300000D01*
X33789326Y-35050010D02*
X33789326Y-31689326D01*
D19*
X29950000Y-39400000D02*
X30850000Y-39400000D01*
X30850000Y-39400000D02*
X31350000Y-38900000D01*
D20*
X31350000Y-37500000D02*
X31350000Y-38900000D01*
X31350000Y-37500000D02*
X29950000Y-37500000D01*
D19*
X27800000Y-40750000D02*
X27800000Y-39450000D01*
X27800000Y-39450000D02*
X27750000Y-39400000D01*
D21*
X26399996Y-38946447D02*
X26399996Y-39300000D01*
X25510002Y-35000000D02*
X26399996Y-35889994D01*
X26399996Y-35889994D02*
X26399996Y-38946447D01*
X24700000Y-35000000D02*
X25510002Y-35000000D01*
X25100000Y-35900000D02*
X25500000Y-36300000D01*
X25500000Y-36300000D02*
X25500000Y-38900000D01*
X23500000Y-36600000D02*
X24600000Y-37700000D01*
X36600000Y-36800000D02*
X35300000Y-36800000D01*
X35300000Y-36800000D02*
X34200000Y-37900000D01*
X22100000Y-36600000D02*
X23500000Y-36600000D01*
X33400000Y-36500000D02*
X33400000Y-38800000D01*
X33400000Y-38800000D02*
X33400000Y-40400000D01*
D19*
X32250000Y-38900000D02*
X33300000Y-38900000D01*
X33300000Y-38900000D02*
X33400000Y-38800000D01*
D21*
X36600000Y-34300000D02*
X35600000Y-34300000D01*
X35600000Y-34300000D02*
X33400000Y-36500000D01*
X27350000Y-42000000D02*
X24450000Y-39100000D01*
X33400000Y-40400000D02*
X31800000Y-42000000D01*
X31800000Y-42000000D02*
X27350000Y-42000000D01*
X24450000Y-39100000D02*
X22100000Y-39100000D01*
D22*
G36*
X38423000Y-38173000D02*
X36821250Y-38173000D01*
X36727000Y-38267250D01*
X36727000Y-39173000D01*
X36747000Y-39173000D01*
X36747000Y-39427000D01*
X36727000Y-39427000D01*
X36727000Y-40332750D01*
X36821250Y-40427000D01*
X38423000Y-40427000D01*
X38423000Y-44400000D01*
X38459309Y-44582540D01*
X38562710Y-44737290D01*
X38717460Y-44840691D01*
X38900000Y-44877000D01*
X45823000Y-44877000D01*
X45823000Y-47723000D01*
X12877000Y-47723000D01*
X12877000Y-44877000D01*
X19800000Y-44877000D01*
X19982540Y-44840691D01*
X20137290Y-44737290D01*
X20240691Y-44582540D01*
X20277000Y-44400000D01*
X20277000Y-40219602D01*
X20350000Y-40234385D01*
X23850000Y-40234385D01*
X23989708Y-40208097D01*
X24118020Y-40125530D01*
X24204101Y-39999547D01*
X24234385Y-39850000D01*
X24234385Y-39841807D01*
X26871288Y-42478711D01*
X26981106Y-42552089D01*
X27090923Y-42625466D01*
X27350000Y-42677000D01*
X31800000Y-42677000D01*
X32059077Y-42625466D01*
X32278711Y-42478711D01*
X33878712Y-40878711D01*
X34025467Y-40659076D01*
X34077000Y-40400000D01*
X34077000Y-39521250D01*
X34473000Y-39521250D01*
X34473000Y-40124990D01*
X34530395Y-40263553D01*
X34636447Y-40369605D01*
X34775010Y-40427000D01*
X36378750Y-40427000D01*
X36473000Y-40332750D01*
X36473000Y-39427000D01*
X34567250Y-39427000D01*
X34473000Y-39521250D01*
X34077000Y-39521250D01*
X34077000Y-38552534D01*
X34200000Y-38577000D01*
X34459076Y-38525466D01*
X34473000Y-38516162D01*
X34473000Y-39078750D01*
X34567250Y-39173000D01*
X36473000Y-39173000D01*
X36473000Y-38267250D01*
X36378750Y-38173000D01*
X34884422Y-38173000D01*
X35123037Y-37934385D01*
X38350000Y-37934385D01*
X38423000Y-37920649D01*
X38423000Y-38173000D01*
X38423000Y-38173000D01*
G37*
X38423000Y-38173000D02*
X36821250Y-38173000D01*
X36727000Y-38267250D01*
X36727000Y-39173000D01*
X36747000Y-39173000D01*
X36747000Y-39427000D01*
X36727000Y-39427000D01*
X36727000Y-40332750D01*
X36821250Y-40427000D01*
X38423000Y-40427000D01*
X38423000Y-44400000D01*
X38459309Y-44582540D01*
X38562710Y-44737290D01*
X38717460Y-44840691D01*
X38900000Y-44877000D01*
X45823000Y-44877000D01*
X45823000Y-47723000D01*
X12877000Y-47723000D01*
X12877000Y-44877000D01*
X19800000Y-44877000D01*
X19982540Y-44840691D01*
X20137290Y-44737290D01*
X20240691Y-44582540D01*
X20277000Y-44400000D01*
X20277000Y-40219602D01*
X20350000Y-40234385D01*
X23850000Y-40234385D01*
X23989708Y-40208097D01*
X24118020Y-40125530D01*
X24204101Y-39999547D01*
X24234385Y-39850000D01*
X24234385Y-39841807D01*
X26871288Y-42478711D01*
X26981106Y-42552089D01*
X27090923Y-42625466D01*
X27350000Y-42677000D01*
X31800000Y-42677000D01*
X32059077Y-42625466D01*
X32278711Y-42478711D01*
X33878712Y-40878711D01*
X34025467Y-40659076D01*
X34077000Y-40400000D01*
X34077000Y-39521250D01*
X34473000Y-39521250D01*
X34473000Y-40124990D01*
X34530395Y-40263553D01*
X34636447Y-40369605D01*
X34775010Y-40427000D01*
X36378750Y-40427000D01*
X36473000Y-40332750D01*
X36473000Y-39427000D01*
X34567250Y-39427000D01*
X34473000Y-39521250D01*
X34077000Y-39521250D01*
X34077000Y-38552534D01*
X34200000Y-38577000D01*
X34459076Y-38525466D01*
X34473000Y-38516162D01*
X34473000Y-39078750D01*
X34567250Y-39173000D01*
X36473000Y-39173000D01*
X36473000Y-38267250D01*
X36378750Y-38173000D01*
X34884422Y-38173000D01*
X35123037Y-37934385D01*
X38350000Y-37934385D01*
X38423000Y-37920649D01*
X38423000Y-38173000D01*
G36*
X28474735Y-29926891D02*
X28724171Y-29927109D01*
X28845444Y-29877000D01*
X31154584Y-29877000D01*
X31165553Y-29881555D01*
X33212326Y-31928327D01*
X33212326Y-34804594D01*
X33162435Y-34924745D01*
X33162217Y-35174181D01*
X33257471Y-35404713D01*
X33397546Y-35545032D01*
X32921289Y-36021289D01*
X32774534Y-36240923D01*
X32723000Y-36500000D01*
X32723000Y-36939842D01*
X32663553Y-36880395D01*
X32524990Y-36823000D01*
X32444250Y-36823000D01*
X32350000Y-36917250D01*
X32350000Y-37373000D01*
X32397000Y-37373000D01*
X32397000Y-37627000D01*
X32350000Y-37627000D01*
X32350000Y-38082750D01*
X32444250Y-38177000D01*
X32524990Y-38177000D01*
X32663553Y-38119605D01*
X32723000Y-38060158D01*
X32723000Y-38330251D01*
X32599547Y-38245899D01*
X32450000Y-38215615D01*
X32050000Y-38215615D01*
X31927000Y-38238759D01*
X31927000Y-38157113D01*
X31975010Y-38177000D01*
X32055750Y-38177000D01*
X32150000Y-38082750D01*
X32150000Y-37627000D01*
X32103000Y-37627000D01*
X32103000Y-37373000D01*
X32150000Y-37373000D01*
X32150000Y-36917250D01*
X32055750Y-36823000D01*
X31975010Y-36823000D01*
X31836447Y-36880395D01*
X31801370Y-36915472D01*
X31699547Y-36845899D01*
X31550000Y-36815615D01*
X31150000Y-36815615D01*
X31010292Y-36841903D01*
X30884264Y-36923000D01*
X30765839Y-36923000D01*
X30755530Y-36906980D01*
X30629547Y-36820899D01*
X30480000Y-36790615D01*
X29420000Y-36790615D01*
X29280292Y-36816903D01*
X29151980Y-36899470D01*
X29065899Y-37025453D01*
X29035615Y-37175000D01*
X29035615Y-37825000D01*
X29061903Y-37964708D01*
X29071899Y-37980242D01*
X29043000Y-38050010D01*
X29043000Y-38228750D01*
X29137250Y-38323000D01*
X29823000Y-38323000D01*
X29823000Y-38303000D01*
X30077000Y-38303000D01*
X30077000Y-38323000D01*
X30097000Y-38323000D01*
X30097000Y-38577000D01*
X30077000Y-38577000D01*
X30077000Y-38597000D01*
X29823000Y-38597000D01*
X29823000Y-38577000D01*
X29137250Y-38577000D01*
X29043000Y-38671250D01*
X29043000Y-38849990D01*
X29071103Y-38917837D01*
X29065899Y-38925453D01*
X29035615Y-39075000D01*
X29035615Y-39725000D01*
X29061903Y-39864708D01*
X29144470Y-39993020D01*
X29270453Y-40079101D01*
X29420000Y-40109385D01*
X30480000Y-40109385D01*
X30619708Y-40083097D01*
X30748020Y-40000530D01*
X30832425Y-39877000D01*
X30850000Y-39877000D01*
X31032540Y-39840691D01*
X31187290Y-39737290D01*
X31340195Y-39584385D01*
X31550000Y-39584385D01*
X31689708Y-39558097D01*
X31801252Y-39486320D01*
X31900453Y-39554101D01*
X32050000Y-39584385D01*
X32450000Y-39584385D01*
X32589708Y-39558097D01*
X32718020Y-39475530D01*
X32723000Y-39468242D01*
X32723000Y-40119577D01*
X31519578Y-41323000D01*
X29160158Y-41323000D01*
X29219605Y-41263553D01*
X29277000Y-41124990D01*
X29277000Y-40971250D01*
X29182750Y-40877000D01*
X28800000Y-40877000D01*
X28800000Y-40897000D01*
X28600000Y-40897000D01*
X28600000Y-40877000D01*
X28553000Y-40877000D01*
X28553000Y-40623000D01*
X28600000Y-40623000D01*
X28600000Y-40167250D01*
X28800000Y-40167250D01*
X28800000Y-40623000D01*
X29182750Y-40623000D01*
X29277000Y-40528750D01*
X29277000Y-40375010D01*
X29219605Y-40236447D01*
X29113553Y-40130395D01*
X28974990Y-40073000D01*
X28894250Y-40073000D01*
X28800000Y-40167250D01*
X28600000Y-40167250D01*
X28505750Y-40073000D01*
X28435399Y-40073000D01*
X28548020Y-40000530D01*
X28634101Y-39874547D01*
X28664385Y-39725000D01*
X28664385Y-39075000D01*
X28638097Y-38935292D01*
X28555530Y-38806980D01*
X28429547Y-38720899D01*
X28280000Y-38690615D01*
X27220000Y-38690615D01*
X27080292Y-38716903D01*
X27076996Y-38719024D01*
X27076996Y-38180426D01*
X27220000Y-38209385D01*
X28280000Y-38209385D01*
X28419708Y-38183097D01*
X28548020Y-38100530D01*
X28634101Y-37974547D01*
X28664385Y-37825000D01*
X28664385Y-37175000D01*
X28638097Y-37035292D01*
X28555530Y-36906980D01*
X28429547Y-36820899D01*
X28427000Y-36820383D01*
X28427000Y-36757113D01*
X28475010Y-36777000D01*
X28555750Y-36777000D01*
X28650000Y-36682750D01*
X28650000Y-36227000D01*
X28850000Y-36227000D01*
X28850000Y-36682750D01*
X28944250Y-36777000D01*
X29024990Y-36777000D01*
X29163553Y-36719605D01*
X29269605Y-36613553D01*
X29327000Y-36474990D01*
X29327000Y-36321250D01*
X29232750Y-36227000D01*
X28850000Y-36227000D01*
X28650000Y-36227000D01*
X28603000Y-36227000D01*
X28603000Y-35973000D01*
X28650000Y-35973000D01*
X28650000Y-35517250D01*
X28850000Y-35517250D01*
X28850000Y-35973000D01*
X29232750Y-35973000D01*
X29327000Y-35878750D01*
X29327000Y-35725010D01*
X29269605Y-35586447D01*
X29163553Y-35480395D01*
X29024990Y-35423000D01*
X28944250Y-35423000D01*
X28850000Y-35517250D01*
X28650000Y-35517250D01*
X28555750Y-35423000D01*
X28475010Y-35423000D01*
X28336447Y-35480395D01*
X28327000Y-35489842D01*
X28327000Y-34627795D01*
X28333840Y-34644349D01*
X28653966Y-34965034D01*
X29072445Y-35138802D01*
X29525567Y-35139197D01*
X29944349Y-34966160D01*
X30265034Y-34646034D01*
X30438802Y-34227555D01*
X30438803Y-34225567D01*
X30700803Y-34225567D01*
X30873840Y-34644349D01*
X31193966Y-34965034D01*
X31612445Y-35138802D01*
X32065567Y-35139197D01*
X32484349Y-34966160D01*
X32805034Y-34646034D01*
X32978802Y-34227555D01*
X32979197Y-33774433D01*
X32806160Y-33355651D01*
X32486034Y-33034966D01*
X32067555Y-32861198D01*
X31614433Y-32860803D01*
X31195651Y-33033840D01*
X30874966Y-33353966D01*
X30701198Y-33772445D01*
X30700803Y-34225567D01*
X30438803Y-34225567D01*
X30439197Y-33774433D01*
X30266160Y-33355651D01*
X29946034Y-33034966D01*
X29527555Y-32861198D01*
X29074433Y-32860803D01*
X28655651Y-33033840D01*
X28334966Y-33353966D01*
X28327000Y-33373150D01*
X28327000Y-30909771D01*
X28381235Y-30855631D01*
X28476891Y-30625265D01*
X28477109Y-30375829D01*
X28381855Y-30145297D01*
X28327000Y-30090346D01*
X28327000Y-29865546D01*
X28474735Y-29926891D01*
X28474735Y-29926891D01*
G37*
X28474735Y-29926891D02*
X28724171Y-29927109D01*
X28845444Y-29877000D01*
X31154584Y-29877000D01*
X31165553Y-29881555D01*
X33212326Y-31928327D01*
X33212326Y-34804594D01*
X33162435Y-34924745D01*
X33162217Y-35174181D01*
X33257471Y-35404713D01*
X33397546Y-35545032D01*
X32921289Y-36021289D01*
X32774534Y-36240923D01*
X32723000Y-36500000D01*
X32723000Y-36939842D01*
X32663553Y-36880395D01*
X32524990Y-36823000D01*
X32444250Y-36823000D01*
X32350000Y-36917250D01*
X32350000Y-37373000D01*
X32397000Y-37373000D01*
X32397000Y-37627000D01*
X32350000Y-37627000D01*
X32350000Y-38082750D01*
X32444250Y-38177000D01*
X32524990Y-38177000D01*
X32663553Y-38119605D01*
X32723000Y-38060158D01*
X32723000Y-38330251D01*
X32599547Y-38245899D01*
X32450000Y-38215615D01*
X32050000Y-38215615D01*
X31927000Y-38238759D01*
X31927000Y-38157113D01*
X31975010Y-38177000D01*
X32055750Y-38177000D01*
X32150000Y-38082750D01*
X32150000Y-37627000D01*
X32103000Y-37627000D01*
X32103000Y-37373000D01*
X32150000Y-37373000D01*
X32150000Y-36917250D01*
X32055750Y-36823000D01*
X31975010Y-36823000D01*
X31836447Y-36880395D01*
X31801370Y-36915472D01*
X31699547Y-36845899D01*
X31550000Y-36815615D01*
X31150000Y-36815615D01*
X31010292Y-36841903D01*
X30884264Y-36923000D01*
X30765839Y-36923000D01*
X30755530Y-36906980D01*
X30629547Y-36820899D01*
X30480000Y-36790615D01*
X29420000Y-36790615D01*
X29280292Y-36816903D01*
X29151980Y-36899470D01*
X29065899Y-37025453D01*
X29035615Y-37175000D01*
X29035615Y-37825000D01*
X29061903Y-37964708D01*
X29071899Y-37980242D01*
X29043000Y-38050010D01*
X29043000Y-38228750D01*
X29137250Y-38323000D01*
X29823000Y-38323000D01*
X29823000Y-38303000D01*
X30077000Y-38303000D01*
X30077000Y-38323000D01*
X30097000Y-38323000D01*
X30097000Y-38577000D01*
X30077000Y-38577000D01*
X30077000Y-38597000D01*
X29823000Y-38597000D01*
X29823000Y-38577000D01*
X29137250Y-38577000D01*
X29043000Y-38671250D01*
X29043000Y-38849990D01*
X29071103Y-38917837D01*
X29065899Y-38925453D01*
X29035615Y-39075000D01*
X29035615Y-39725000D01*
X29061903Y-39864708D01*
X29144470Y-39993020D01*
X29270453Y-40079101D01*
X29420000Y-40109385D01*
X30480000Y-40109385D01*
X30619708Y-40083097D01*
X30748020Y-40000530D01*
X30832425Y-39877000D01*
X30850000Y-39877000D01*
X31032540Y-39840691D01*
X31187290Y-39737290D01*
X31340195Y-39584385D01*
X31550000Y-39584385D01*
X31689708Y-39558097D01*
X31801252Y-39486320D01*
X31900453Y-39554101D01*
X32050000Y-39584385D01*
X32450000Y-39584385D01*
X32589708Y-39558097D01*
X32718020Y-39475530D01*
X32723000Y-39468242D01*
X32723000Y-40119577D01*
X31519578Y-41323000D01*
X29160158Y-41323000D01*
X29219605Y-41263553D01*
X29277000Y-41124990D01*
X29277000Y-40971250D01*
X29182750Y-40877000D01*
X28800000Y-40877000D01*
X28800000Y-40897000D01*
X28600000Y-40897000D01*
X28600000Y-40877000D01*
X28553000Y-40877000D01*
X28553000Y-40623000D01*
X28600000Y-40623000D01*
X28600000Y-40167250D01*
X28800000Y-40167250D01*
X28800000Y-40623000D01*
X29182750Y-40623000D01*
X29277000Y-40528750D01*
X29277000Y-40375010D01*
X29219605Y-40236447D01*
X29113553Y-40130395D01*
X28974990Y-40073000D01*
X28894250Y-40073000D01*
X28800000Y-40167250D01*
X28600000Y-40167250D01*
X28505750Y-40073000D01*
X28435399Y-40073000D01*
X28548020Y-40000530D01*
X28634101Y-39874547D01*
X28664385Y-39725000D01*
X28664385Y-39075000D01*
X28638097Y-38935292D01*
X28555530Y-38806980D01*
X28429547Y-38720899D01*
X28280000Y-38690615D01*
X27220000Y-38690615D01*
X27080292Y-38716903D01*
X27076996Y-38719024D01*
X27076996Y-38180426D01*
X27220000Y-38209385D01*
X28280000Y-38209385D01*
X28419708Y-38183097D01*
X28548020Y-38100530D01*
X28634101Y-37974547D01*
X28664385Y-37825000D01*
X28664385Y-37175000D01*
X28638097Y-37035292D01*
X28555530Y-36906980D01*
X28429547Y-36820899D01*
X28427000Y-36820383D01*
X28427000Y-36757113D01*
X28475010Y-36777000D01*
X28555750Y-36777000D01*
X28650000Y-36682750D01*
X28650000Y-36227000D01*
X28850000Y-36227000D01*
X28850000Y-36682750D01*
X28944250Y-36777000D01*
X29024990Y-36777000D01*
X29163553Y-36719605D01*
X29269605Y-36613553D01*
X29327000Y-36474990D01*
X29327000Y-36321250D01*
X29232750Y-36227000D01*
X28850000Y-36227000D01*
X28650000Y-36227000D01*
X28603000Y-36227000D01*
X28603000Y-35973000D01*
X28650000Y-35973000D01*
X28650000Y-35517250D01*
X28850000Y-35517250D01*
X28850000Y-35973000D01*
X29232750Y-35973000D01*
X29327000Y-35878750D01*
X29327000Y-35725010D01*
X29269605Y-35586447D01*
X29163553Y-35480395D01*
X29024990Y-35423000D01*
X28944250Y-35423000D01*
X28850000Y-35517250D01*
X28650000Y-35517250D01*
X28555750Y-35423000D01*
X28475010Y-35423000D01*
X28336447Y-35480395D01*
X28327000Y-35489842D01*
X28327000Y-34627795D01*
X28333840Y-34644349D01*
X28653966Y-34965034D01*
X29072445Y-35138802D01*
X29525567Y-35139197D01*
X29944349Y-34966160D01*
X30265034Y-34646034D01*
X30438802Y-34227555D01*
X30438803Y-34225567D01*
X30700803Y-34225567D01*
X30873840Y-34644349D01*
X31193966Y-34965034D01*
X31612445Y-35138802D01*
X32065567Y-35139197D01*
X32484349Y-34966160D01*
X32805034Y-34646034D01*
X32978802Y-34227555D01*
X32979197Y-33774433D01*
X32806160Y-33355651D01*
X32486034Y-33034966D01*
X32067555Y-32861198D01*
X31614433Y-32860803D01*
X31195651Y-33033840D01*
X30874966Y-33353966D01*
X30701198Y-33772445D01*
X30700803Y-34225567D01*
X30438803Y-34225567D01*
X30439197Y-33774433D01*
X30266160Y-33355651D01*
X29946034Y-33034966D01*
X29527555Y-32861198D01*
X29074433Y-32860803D01*
X28655651Y-33033840D01*
X28334966Y-33353966D01*
X28327000Y-33373150D01*
X28327000Y-30909771D01*
X28381235Y-30855631D01*
X28476891Y-30625265D01*
X28477109Y-30375829D01*
X28381855Y-30145297D01*
X28327000Y-30090346D01*
X28327000Y-29865546D01*
X28474735Y-29926891D01*
G36*
X45823000Y-19255842D02*
X45795553Y-19228395D01*
X45656990Y-19171000D01*
X43771250Y-19171000D01*
X43677000Y-19265250D01*
X43677000Y-20183000D01*
X43697000Y-20183000D01*
X43697000Y-20437000D01*
X43677000Y-20437000D01*
X43677000Y-21354750D01*
X43771250Y-21449000D01*
X45656990Y-21449000D01*
X45795553Y-21391605D01*
X45823000Y-21364158D01*
X45823000Y-24335842D01*
X45795553Y-24308395D01*
X45656990Y-24251000D01*
X43771250Y-24251000D01*
X43677000Y-24345250D01*
X43677000Y-25263000D01*
X43697000Y-25263000D01*
X43697000Y-25517000D01*
X43677000Y-25517000D01*
X43677000Y-26434750D01*
X43771250Y-26529000D01*
X45656990Y-26529000D01*
X45795553Y-26471605D01*
X45823000Y-26444158D01*
X45823000Y-28523000D01*
X38900000Y-28523000D01*
X38717460Y-28559309D01*
X38562710Y-28662710D01*
X38459309Y-28817460D01*
X38423000Y-29000000D01*
X38423000Y-33180398D01*
X38350000Y-33165615D01*
X34850000Y-33165615D01*
X34710292Y-33191903D01*
X34581980Y-33274470D01*
X34495899Y-33400453D01*
X34465615Y-33550000D01*
X34465615Y-34476963D01*
X34366326Y-34576252D01*
X34366326Y-25611250D01*
X41141000Y-25611250D01*
X41141000Y-26226990D01*
X41198395Y-26365553D01*
X41304447Y-26471605D01*
X41443010Y-26529000D01*
X43328750Y-26529000D01*
X43423000Y-26434750D01*
X43423000Y-25517000D01*
X41235250Y-25517000D01*
X41141000Y-25611250D01*
X34366326Y-25611250D01*
X34366326Y-24553010D01*
X41141000Y-24553010D01*
X41141000Y-25168750D01*
X41235250Y-25263000D01*
X43423000Y-25263000D01*
X43423000Y-24345250D01*
X43328750Y-24251000D01*
X41443010Y-24251000D01*
X41304447Y-24308395D01*
X41198395Y-24414447D01*
X41141000Y-24553010D01*
X34366326Y-24553010D01*
X34366326Y-23439331D01*
X34366327Y-23439326D01*
X34322404Y-23218518D01*
X34291885Y-23172843D01*
X34197327Y-23031325D01*
X34197324Y-23031323D01*
X31697252Y-20531250D01*
X41141000Y-20531250D01*
X41141000Y-21146990D01*
X41198395Y-21285553D01*
X41304447Y-21391605D01*
X41443010Y-21449000D01*
X43328750Y-21449000D01*
X43423000Y-21354750D01*
X43423000Y-20437000D01*
X41235250Y-20437000D01*
X41141000Y-20531250D01*
X31697252Y-20531250D01*
X31581536Y-20415534D01*
X31531855Y-20295297D01*
X31355631Y-20118765D01*
X31125265Y-20023109D01*
X30875829Y-20022891D01*
X30645297Y-20118145D01*
X30468765Y-20294369D01*
X30373109Y-20524735D01*
X30372891Y-20774171D01*
X30468145Y-21004703D01*
X30576253Y-21113000D01*
X30226000Y-21113000D01*
X30043459Y-21149309D01*
X29888710Y-21252710D01*
X28654462Y-22486958D01*
X28577829Y-22486891D01*
X28347297Y-22582145D01*
X28170765Y-22758369D01*
X28075109Y-22988735D01*
X28074891Y-23238171D01*
X28170145Y-23468703D01*
X28346369Y-23645235D01*
X28348551Y-23646141D01*
X28295297Y-23668145D01*
X28240346Y-23723000D01*
X28168534Y-23723000D01*
X28156691Y-23663460D01*
X28053290Y-23508710D01*
X27582290Y-23037710D01*
X27427540Y-22934309D01*
X27245000Y-22898000D01*
X25830420Y-22898000D01*
X25733990Y-22801402D01*
X25485254Y-22698118D01*
X25215927Y-22697883D01*
X24967011Y-22800733D01*
X24776402Y-22991010D01*
X24673118Y-23239746D01*
X24672883Y-23509073D01*
X24775733Y-23757989D01*
X24966010Y-23948598D01*
X25214746Y-24051882D01*
X25484073Y-24052117D01*
X25732989Y-23949267D01*
X25830426Y-23852000D01*
X26288296Y-23852000D01*
X26239000Y-23971010D01*
X26239000Y-24124750D01*
X26333250Y-24219000D01*
X26716000Y-24219000D01*
X26716000Y-24199000D01*
X26916000Y-24199000D01*
X26916000Y-24219000D01*
X26963000Y-24219000D01*
X26963000Y-24473000D01*
X26916000Y-24473000D01*
X26916000Y-24928750D01*
X27010250Y-25023000D01*
X27090990Y-25023000D01*
X27229553Y-24965605D01*
X27239000Y-24956158D01*
X27239000Y-25135842D01*
X27229553Y-25126395D01*
X27090990Y-25069000D01*
X27010250Y-25069000D01*
X26916000Y-25163250D01*
X26916000Y-25619000D01*
X26963000Y-25619000D01*
X26963000Y-25873000D01*
X26916000Y-25873000D01*
X26916000Y-26328750D01*
X27010250Y-26423000D01*
X27090990Y-26423000D01*
X27229553Y-26365605D01*
X27239000Y-26356158D01*
X27239000Y-27566000D01*
X27275309Y-27748540D01*
X27373000Y-27894744D01*
X27373000Y-30090229D01*
X27318765Y-30144369D01*
X27223109Y-30374735D01*
X27222891Y-30624171D01*
X27318145Y-30854703D01*
X27373000Y-30909654D01*
X27373000Y-33021249D01*
X26987555Y-32861198D01*
X26534433Y-32860803D01*
X26115651Y-33033840D01*
X25794966Y-33353966D01*
X25621198Y-33772445D01*
X25620803Y-34225567D01*
X25674589Y-34355739D01*
X25510002Y-34323000D01*
X24700000Y-34323000D01*
X24440923Y-34374534D01*
X24227000Y-34517473D01*
X24227000Y-34321250D01*
X24132750Y-34227000D01*
X22227000Y-34227000D01*
X22227000Y-35132750D01*
X22321250Y-35227000D01*
X23924990Y-35227000D01*
X24057256Y-35172213D01*
X24074534Y-35259077D01*
X24221289Y-35478711D01*
X24440923Y-35625466D01*
X24479708Y-35633181D01*
X24474534Y-35640924D01*
X24423000Y-35900000D01*
X24474534Y-36159076D01*
X24621289Y-36378711D01*
X24823000Y-36580423D01*
X24823000Y-36965578D01*
X24234385Y-36376963D01*
X24234385Y-35850000D01*
X24208097Y-35710292D01*
X24125530Y-35581980D01*
X23999547Y-35495899D01*
X23850000Y-35465615D01*
X20350000Y-35465615D01*
X20277000Y-35479351D01*
X20277000Y-35227000D01*
X21878750Y-35227000D01*
X21973000Y-35132750D01*
X21973000Y-34227000D01*
X21953000Y-34227000D01*
X21953000Y-33973000D01*
X21973000Y-33973000D01*
X21973000Y-33067250D01*
X22227000Y-33067250D01*
X22227000Y-33973000D01*
X24132750Y-33973000D01*
X24227000Y-33878750D01*
X24227000Y-33275010D01*
X24169605Y-33136447D01*
X24063553Y-33030395D01*
X23924990Y-32973000D01*
X22321250Y-32973000D01*
X22227000Y-33067250D01*
X21973000Y-33067250D01*
X21878750Y-32973000D01*
X20277000Y-32973000D01*
X20277000Y-29000000D01*
X20240691Y-28817460D01*
X20137290Y-28662710D01*
X19982540Y-28559309D01*
X19800000Y-28523000D01*
X12877000Y-28523000D01*
X12877000Y-26244158D01*
X12904447Y-26271605D01*
X13043010Y-26329000D01*
X14928750Y-26329000D01*
X15023000Y-26234750D01*
X15023000Y-25317000D01*
X15277000Y-25317000D01*
X15277000Y-26234750D01*
X15371250Y-26329000D01*
X17256990Y-26329000D01*
X17395553Y-26271605D01*
X17501605Y-26165553D01*
X17559000Y-26026990D01*
X17559000Y-25967250D01*
X26239000Y-25967250D01*
X26239000Y-26120990D01*
X26296395Y-26259553D01*
X26402447Y-26365605D01*
X26541010Y-26423000D01*
X26621750Y-26423000D01*
X26716000Y-26328750D01*
X26716000Y-25873000D01*
X26333250Y-25873000D01*
X26239000Y-25967250D01*
X17559000Y-25967250D01*
X17559000Y-25411250D01*
X17518760Y-25371010D01*
X26239000Y-25371010D01*
X26239000Y-25524750D01*
X26333250Y-25619000D01*
X26716000Y-25619000D01*
X26716000Y-25163250D01*
X26621750Y-25069000D01*
X26541010Y-25069000D01*
X26402447Y-25126395D01*
X26296395Y-25232447D01*
X26239000Y-25371010D01*
X17518760Y-25371010D01*
X17464750Y-25317000D01*
X15277000Y-25317000D01*
X15023000Y-25317000D01*
X15003000Y-25317000D01*
X15003000Y-25063000D01*
X15023000Y-25063000D01*
X15023000Y-24145250D01*
X15277000Y-24145250D01*
X15277000Y-25063000D01*
X17464750Y-25063000D01*
X17559000Y-24968750D01*
X17559000Y-24567250D01*
X26239000Y-24567250D01*
X26239000Y-24720990D01*
X26296395Y-24859553D01*
X26402447Y-24965605D01*
X26541010Y-25023000D01*
X26621750Y-25023000D01*
X26716000Y-24928750D01*
X26716000Y-24473000D01*
X26333250Y-24473000D01*
X26239000Y-24567250D01*
X17559000Y-24567250D01*
X17559000Y-24353010D01*
X17501605Y-24214447D01*
X17395553Y-24108395D01*
X17256990Y-24051000D01*
X15371250Y-24051000D01*
X15277000Y-24145250D01*
X15023000Y-24145250D01*
X14928750Y-24051000D01*
X13043010Y-24051000D01*
X12904447Y-24108395D01*
X12877000Y-24135842D01*
X12877000Y-21164158D01*
X12904447Y-21191605D01*
X13043010Y-21249000D01*
X14928750Y-21249000D01*
X15023000Y-21154750D01*
X15023000Y-20237000D01*
X15277000Y-20237000D01*
X15277000Y-21154750D01*
X15371250Y-21249000D01*
X17256990Y-21249000D01*
X17395553Y-21191605D01*
X17501605Y-21085553D01*
X17559000Y-20946990D01*
X17559000Y-20331250D01*
X17464750Y-20237000D01*
X15277000Y-20237000D01*
X15023000Y-20237000D01*
X15003000Y-20237000D01*
X15003000Y-19983000D01*
X15023000Y-19983000D01*
X15023000Y-19065250D01*
X15277000Y-19065250D01*
X15277000Y-19983000D01*
X17464750Y-19983000D01*
X17559000Y-19888750D01*
X17559000Y-19473010D01*
X41141000Y-19473010D01*
X41141000Y-20088750D01*
X41235250Y-20183000D01*
X43423000Y-20183000D01*
X43423000Y-19265250D01*
X43328750Y-19171000D01*
X41443010Y-19171000D01*
X41304447Y-19228395D01*
X41198395Y-19334447D01*
X41141000Y-19473010D01*
X17559000Y-19473010D01*
X17559000Y-19273010D01*
X17501605Y-19134447D01*
X17395553Y-19028395D01*
X17256990Y-18971000D01*
X15371250Y-18971000D01*
X15277000Y-19065250D01*
X15023000Y-19065250D01*
X14928750Y-18971000D01*
X13043010Y-18971000D01*
X12904447Y-19028395D01*
X12877000Y-19055842D01*
X12877000Y-12677000D01*
X45823000Y-12677000D01*
X45823000Y-19255842D01*
X45823000Y-19255842D01*
G37*
X45823000Y-19255842D02*
X45795553Y-19228395D01*
X45656990Y-19171000D01*
X43771250Y-19171000D01*
X43677000Y-19265250D01*
X43677000Y-20183000D01*
X43697000Y-20183000D01*
X43697000Y-20437000D01*
X43677000Y-20437000D01*
X43677000Y-21354750D01*
X43771250Y-21449000D01*
X45656990Y-21449000D01*
X45795553Y-21391605D01*
X45823000Y-21364158D01*
X45823000Y-24335842D01*
X45795553Y-24308395D01*
X45656990Y-24251000D01*
X43771250Y-24251000D01*
X43677000Y-24345250D01*
X43677000Y-25263000D01*
X43697000Y-25263000D01*
X43697000Y-25517000D01*
X43677000Y-25517000D01*
X43677000Y-26434750D01*
X43771250Y-26529000D01*
X45656990Y-26529000D01*
X45795553Y-26471605D01*
X45823000Y-26444158D01*
X45823000Y-28523000D01*
X38900000Y-28523000D01*
X38717460Y-28559309D01*
X38562710Y-28662710D01*
X38459309Y-28817460D01*
X38423000Y-29000000D01*
X38423000Y-33180398D01*
X38350000Y-33165615D01*
X34850000Y-33165615D01*
X34710292Y-33191903D01*
X34581980Y-33274470D01*
X34495899Y-33400453D01*
X34465615Y-33550000D01*
X34465615Y-34476963D01*
X34366326Y-34576252D01*
X34366326Y-25611250D01*
X41141000Y-25611250D01*
X41141000Y-26226990D01*
X41198395Y-26365553D01*
X41304447Y-26471605D01*
X41443010Y-26529000D01*
X43328750Y-26529000D01*
X43423000Y-26434750D01*
X43423000Y-25517000D01*
X41235250Y-25517000D01*
X41141000Y-25611250D01*
X34366326Y-25611250D01*
X34366326Y-24553010D01*
X41141000Y-24553010D01*
X41141000Y-25168750D01*
X41235250Y-25263000D01*
X43423000Y-25263000D01*
X43423000Y-24345250D01*
X43328750Y-24251000D01*
X41443010Y-24251000D01*
X41304447Y-24308395D01*
X41198395Y-24414447D01*
X41141000Y-24553010D01*
X34366326Y-24553010D01*
X34366326Y-23439331D01*
X34366327Y-23439326D01*
X34322404Y-23218518D01*
X34291885Y-23172843D01*
X34197327Y-23031325D01*
X34197324Y-23031323D01*
X31697252Y-20531250D01*
X41141000Y-20531250D01*
X41141000Y-21146990D01*
X41198395Y-21285553D01*
X41304447Y-21391605D01*
X41443010Y-21449000D01*
X43328750Y-21449000D01*
X43423000Y-21354750D01*
X43423000Y-20437000D01*
X41235250Y-20437000D01*
X41141000Y-20531250D01*
X31697252Y-20531250D01*
X31581536Y-20415534D01*
X31531855Y-20295297D01*
X31355631Y-20118765D01*
X31125265Y-20023109D01*
X30875829Y-20022891D01*
X30645297Y-20118145D01*
X30468765Y-20294369D01*
X30373109Y-20524735D01*
X30372891Y-20774171D01*
X30468145Y-21004703D01*
X30576253Y-21113000D01*
X30226000Y-21113000D01*
X30043459Y-21149309D01*
X29888710Y-21252710D01*
X28654462Y-22486958D01*
X28577829Y-22486891D01*
X28347297Y-22582145D01*
X28170765Y-22758369D01*
X28075109Y-22988735D01*
X28074891Y-23238171D01*
X28170145Y-23468703D01*
X28346369Y-23645235D01*
X28348551Y-23646141D01*
X28295297Y-23668145D01*
X28240346Y-23723000D01*
X28168534Y-23723000D01*
X28156691Y-23663460D01*
X28053290Y-23508710D01*
X27582290Y-23037710D01*
X27427540Y-22934309D01*
X27245000Y-22898000D01*
X25830420Y-22898000D01*
X25733990Y-22801402D01*
X25485254Y-22698118D01*
X25215927Y-22697883D01*
X24967011Y-22800733D01*
X24776402Y-22991010D01*
X24673118Y-23239746D01*
X24672883Y-23509073D01*
X24775733Y-23757989D01*
X24966010Y-23948598D01*
X25214746Y-24051882D01*
X25484073Y-24052117D01*
X25732989Y-23949267D01*
X25830426Y-23852000D01*
X26288296Y-23852000D01*
X26239000Y-23971010D01*
X26239000Y-24124750D01*
X26333250Y-24219000D01*
X26716000Y-24219000D01*
X26716000Y-24199000D01*
X26916000Y-24199000D01*
X26916000Y-24219000D01*
X26963000Y-24219000D01*
X26963000Y-24473000D01*
X26916000Y-24473000D01*
X26916000Y-24928750D01*
X27010250Y-25023000D01*
X27090990Y-25023000D01*
X27229553Y-24965605D01*
X27239000Y-24956158D01*
X27239000Y-25135842D01*
X27229553Y-25126395D01*
X27090990Y-25069000D01*
X27010250Y-25069000D01*
X26916000Y-25163250D01*
X26916000Y-25619000D01*
X26963000Y-25619000D01*
X26963000Y-25873000D01*
X26916000Y-25873000D01*
X26916000Y-26328750D01*
X27010250Y-26423000D01*
X27090990Y-26423000D01*
X27229553Y-26365605D01*
X27239000Y-26356158D01*
X27239000Y-27566000D01*
X27275309Y-27748540D01*
X27373000Y-27894744D01*
X27373000Y-30090229D01*
X27318765Y-30144369D01*
X27223109Y-30374735D01*
X27222891Y-30624171D01*
X27318145Y-30854703D01*
X27373000Y-30909654D01*
X27373000Y-33021249D01*
X26987555Y-32861198D01*
X26534433Y-32860803D01*
X26115651Y-33033840D01*
X25794966Y-33353966D01*
X25621198Y-33772445D01*
X25620803Y-34225567D01*
X25674589Y-34355739D01*
X25510002Y-34323000D01*
X24700000Y-34323000D01*
X24440923Y-34374534D01*
X24227000Y-34517473D01*
X24227000Y-34321250D01*
X24132750Y-34227000D01*
X22227000Y-34227000D01*
X22227000Y-35132750D01*
X22321250Y-35227000D01*
X23924990Y-35227000D01*
X24057256Y-35172213D01*
X24074534Y-35259077D01*
X24221289Y-35478711D01*
X24440923Y-35625466D01*
X24479708Y-35633181D01*
X24474534Y-35640924D01*
X24423000Y-35900000D01*
X24474534Y-36159076D01*
X24621289Y-36378711D01*
X24823000Y-36580423D01*
X24823000Y-36965578D01*
X24234385Y-36376963D01*
X24234385Y-35850000D01*
X24208097Y-35710292D01*
X24125530Y-35581980D01*
X23999547Y-35495899D01*
X23850000Y-35465615D01*
X20350000Y-35465615D01*
X20277000Y-35479351D01*
X20277000Y-35227000D01*
X21878750Y-35227000D01*
X21973000Y-35132750D01*
X21973000Y-34227000D01*
X21953000Y-34227000D01*
X21953000Y-33973000D01*
X21973000Y-33973000D01*
X21973000Y-33067250D01*
X22227000Y-33067250D01*
X22227000Y-33973000D01*
X24132750Y-33973000D01*
X24227000Y-33878750D01*
X24227000Y-33275010D01*
X24169605Y-33136447D01*
X24063553Y-33030395D01*
X23924990Y-32973000D01*
X22321250Y-32973000D01*
X22227000Y-33067250D01*
X21973000Y-33067250D01*
X21878750Y-32973000D01*
X20277000Y-32973000D01*
X20277000Y-29000000D01*
X20240691Y-28817460D01*
X20137290Y-28662710D01*
X19982540Y-28559309D01*
X19800000Y-28523000D01*
X12877000Y-28523000D01*
X12877000Y-26244158D01*
X12904447Y-26271605D01*
X13043010Y-26329000D01*
X14928750Y-26329000D01*
X15023000Y-26234750D01*
X15023000Y-25317000D01*
X15277000Y-25317000D01*
X15277000Y-26234750D01*
X15371250Y-26329000D01*
X17256990Y-26329000D01*
X17395553Y-26271605D01*
X17501605Y-26165553D01*
X17559000Y-26026990D01*
X17559000Y-25967250D01*
X26239000Y-25967250D01*
X26239000Y-26120990D01*
X26296395Y-26259553D01*
X26402447Y-26365605D01*
X26541010Y-26423000D01*
X26621750Y-26423000D01*
X26716000Y-26328750D01*
X26716000Y-25873000D01*
X26333250Y-25873000D01*
X26239000Y-25967250D01*
X17559000Y-25967250D01*
X17559000Y-25411250D01*
X17518760Y-25371010D01*
X26239000Y-25371010D01*
X26239000Y-25524750D01*
X26333250Y-25619000D01*
X26716000Y-25619000D01*
X26716000Y-25163250D01*
X26621750Y-25069000D01*
X26541010Y-25069000D01*
X26402447Y-25126395D01*
X26296395Y-25232447D01*
X26239000Y-25371010D01*
X17518760Y-25371010D01*
X17464750Y-25317000D01*
X15277000Y-25317000D01*
X15023000Y-25317000D01*
X15003000Y-25317000D01*
X15003000Y-25063000D01*
X15023000Y-25063000D01*
X15023000Y-24145250D01*
X15277000Y-24145250D01*
X15277000Y-25063000D01*
X17464750Y-25063000D01*
X17559000Y-24968750D01*
X17559000Y-24567250D01*
X26239000Y-24567250D01*
X26239000Y-24720990D01*
X26296395Y-24859553D01*
X26402447Y-24965605D01*
X26541010Y-25023000D01*
X26621750Y-25023000D01*
X26716000Y-24928750D01*
X26716000Y-24473000D01*
X26333250Y-24473000D01*
X26239000Y-24567250D01*
X17559000Y-24567250D01*
X17559000Y-24353010D01*
X17501605Y-24214447D01*
X17395553Y-24108395D01*
X17256990Y-24051000D01*
X15371250Y-24051000D01*
X15277000Y-24145250D01*
X15023000Y-24145250D01*
X14928750Y-24051000D01*
X13043010Y-24051000D01*
X12904447Y-24108395D01*
X12877000Y-24135842D01*
X12877000Y-21164158D01*
X12904447Y-21191605D01*
X13043010Y-21249000D01*
X14928750Y-21249000D01*
X15023000Y-21154750D01*
X15023000Y-20237000D01*
X15277000Y-20237000D01*
X15277000Y-21154750D01*
X15371250Y-21249000D01*
X17256990Y-21249000D01*
X17395553Y-21191605D01*
X17501605Y-21085553D01*
X17559000Y-20946990D01*
X17559000Y-20331250D01*
X17464750Y-20237000D01*
X15277000Y-20237000D01*
X15023000Y-20237000D01*
X15003000Y-20237000D01*
X15003000Y-19983000D01*
X15023000Y-19983000D01*
X15023000Y-19065250D01*
X15277000Y-19065250D01*
X15277000Y-19983000D01*
X17464750Y-19983000D01*
X17559000Y-19888750D01*
X17559000Y-19473010D01*
X41141000Y-19473010D01*
X41141000Y-20088750D01*
X41235250Y-20183000D01*
X43423000Y-20183000D01*
X43423000Y-19265250D01*
X43328750Y-19171000D01*
X41443010Y-19171000D01*
X41304447Y-19228395D01*
X41198395Y-19334447D01*
X41141000Y-19473010D01*
X17559000Y-19473010D01*
X17559000Y-19273010D01*
X17501605Y-19134447D01*
X17395553Y-19028395D01*
X17256990Y-18971000D01*
X15371250Y-18971000D01*
X15277000Y-19065250D01*
X15023000Y-19065250D01*
X14928750Y-18971000D01*
X13043010Y-18971000D01*
X12904447Y-19028395D01*
X12877000Y-19055842D01*
X12877000Y-12677000D01*
X45823000Y-12677000D01*
X45823000Y-19255842D01*
G36*
X33212326Y-23678327D02*
X33212326Y-30296325D01*
X31981536Y-29065534D01*
X31931855Y-28945297D01*
X31755631Y-28768765D01*
X31525265Y-28673109D01*
X31275829Y-28672891D01*
X31154556Y-28723000D01*
X28845416Y-28723000D01*
X28725265Y-28673109D01*
X28475829Y-28672891D01*
X28327000Y-28734386D01*
X28327000Y-27700000D01*
X28324516Y-27687511D01*
X28599816Y-27801825D01*
X28998436Y-27802173D01*
X29366846Y-27649949D01*
X29648959Y-27368328D01*
X29801825Y-27000184D01*
X29802173Y-26601564D01*
X29649949Y-26233154D01*
X29368328Y-25951041D01*
X29000184Y-25798175D01*
X28601564Y-25797827D01*
X28300385Y-25922272D01*
X28300385Y-25446000D01*
X28274097Y-25306292D01*
X28193000Y-25180264D01*
X28193000Y-24908387D01*
X28270101Y-24795547D01*
X28285021Y-24721871D01*
X28294369Y-24731235D01*
X28524735Y-24826891D01*
X28774171Y-24827109D01*
X28784856Y-24822694D01*
X28795168Y-24847652D01*
X28971392Y-25024184D01*
X29201758Y-25119840D01*
X29451194Y-25120058D01*
X29681726Y-25024804D01*
X29858258Y-24848580D01*
X29953914Y-24618214D01*
X29953982Y-24540570D01*
X30165210Y-24329342D01*
X30268611Y-24174592D01*
X30304920Y-23992052D01*
X30304920Y-23862097D01*
X30417918Y-23787157D01*
X31224751Y-22980324D01*
X31224751Y-23590174D01*
X30722843Y-24092082D01*
X30642643Y-24209458D01*
X30610296Y-24358573D01*
X30638511Y-24508524D01*
X30668171Y-24553246D01*
X30498439Y-24722978D01*
X30421806Y-24722911D01*
X30191274Y-24818165D01*
X30014742Y-24994389D01*
X29919086Y-25224755D01*
X29918868Y-25474191D01*
X30014122Y-25704723D01*
X30190346Y-25881255D01*
X30420712Y-25976911D01*
X30670148Y-25977129D01*
X30900680Y-25881875D01*
X31077212Y-25705651D01*
X31172868Y-25475285D01*
X31172936Y-25397641D01*
X31355346Y-25215231D01*
X31484309Y-25243206D01*
X31634260Y-25214991D01*
X31761420Y-25130659D01*
X32680659Y-24211420D01*
X32760859Y-24094044D01*
X32793206Y-23944929D01*
X32764991Y-23794978D01*
X32680659Y-23667818D01*
X32185684Y-23172843D01*
X32178751Y-23168106D01*
X32178751Y-22644752D01*
X33212326Y-23678327D01*
X33212326Y-23678327D01*
G37*
X33212326Y-23678327D02*
X33212326Y-30296325D01*
X31981536Y-29065534D01*
X31931855Y-28945297D01*
X31755631Y-28768765D01*
X31525265Y-28673109D01*
X31275829Y-28672891D01*
X31154556Y-28723000D01*
X28845416Y-28723000D01*
X28725265Y-28673109D01*
X28475829Y-28672891D01*
X28327000Y-28734386D01*
X28327000Y-27700000D01*
X28324516Y-27687511D01*
X28599816Y-27801825D01*
X28998436Y-27802173D01*
X29366846Y-27649949D01*
X29648959Y-27368328D01*
X29801825Y-27000184D01*
X29802173Y-26601564D01*
X29649949Y-26233154D01*
X29368328Y-25951041D01*
X29000184Y-25798175D01*
X28601564Y-25797827D01*
X28300385Y-25922272D01*
X28300385Y-25446000D01*
X28274097Y-25306292D01*
X28193000Y-25180264D01*
X28193000Y-24908387D01*
X28270101Y-24795547D01*
X28285021Y-24721871D01*
X28294369Y-24731235D01*
X28524735Y-24826891D01*
X28774171Y-24827109D01*
X28784856Y-24822694D01*
X28795168Y-24847652D01*
X28971392Y-25024184D01*
X29201758Y-25119840D01*
X29451194Y-25120058D01*
X29681726Y-25024804D01*
X29858258Y-24848580D01*
X29953914Y-24618214D01*
X29953982Y-24540570D01*
X30165210Y-24329342D01*
X30268611Y-24174592D01*
X30304920Y-23992052D01*
X30304920Y-23862097D01*
X30417918Y-23787157D01*
X31224751Y-22980324D01*
X31224751Y-23590174D01*
X30722843Y-24092082D01*
X30642643Y-24209458D01*
X30610296Y-24358573D01*
X30638511Y-24508524D01*
X30668171Y-24553246D01*
X30498439Y-24722978D01*
X30421806Y-24722911D01*
X30191274Y-24818165D01*
X30014742Y-24994389D01*
X29919086Y-25224755D01*
X29918868Y-25474191D01*
X30014122Y-25704723D01*
X30190346Y-25881255D01*
X30420712Y-25976911D01*
X30670148Y-25977129D01*
X30900680Y-25881875D01*
X31077212Y-25705651D01*
X31172868Y-25475285D01*
X31172936Y-25397641D01*
X31355346Y-25215231D01*
X31484309Y-25243206D01*
X31634260Y-25214991D01*
X31761420Y-25130659D01*
X32680659Y-24211420D01*
X32760859Y-24094044D01*
X32793206Y-23944929D01*
X32764991Y-23794978D01*
X32680659Y-23667818D01*
X32185684Y-23172843D01*
X32178751Y-23168106D01*
X32178751Y-22644752D01*
X33212326Y-23678327D01*
M02*
