G04 #@! TF.FileFunction,Soldermask,Bot*
%FSLAX46Y46*%
G04 Gerber Fmt 4.6, Leading zero omitted, Abs format (unit mm)*
G04 Created by KiCad (PCBNEW 4.0.2-stable) date Mon 06 Jun 2016 07:54:09 AM CEST*
%MOMM*%
G01*
G04 APERTURE LIST*
%ADD10C,0.050000*%
%ADD11C,0.900000*%
%ADD12C,1.650000*%
%ADD13R,4.464000X1.924000*%
%ADD14R,1.460000X1.050000*%
%ADD15C,1.924000*%
%ADD16R,0.800000X1.000000*%
%ADD17R,3.900000X1.900000*%
G04 APERTURE END LIST*
D10*
D11*
X20800000Y-20200000D03*
X21800000Y-20200000D03*
X25650000Y-31400000D03*
X25650000Y-30100000D03*
X30450000Y-31500000D03*
X30600000Y-32600000D03*
X24950000Y-22350000D03*
X23950000Y-22350000D03*
X22950000Y-22350000D03*
X24500000Y-26450000D03*
D12*
X28800000Y-26800000D03*
D11*
X26850000Y-29400000D03*
X32700000Y-28950000D03*
X31850000Y-28050000D03*
X28550000Y-21400000D03*
X26550000Y-19950000D03*
X28550000Y-19950000D03*
X27550000Y-19950000D03*
X23900000Y-20200000D03*
X24900000Y-20200000D03*
X22900000Y-20200000D03*
X21500000Y-23850000D03*
X20500000Y-23850000D03*
X21500000Y-24850000D03*
X20500000Y-24850000D03*
X22500000Y-24850000D03*
X22500000Y-23850000D03*
X43100000Y-18500000D03*
X44100000Y-18500000D03*
X42100000Y-18500000D03*
X45100000Y-18500000D03*
X45050000Y-27050000D03*
X44050000Y-27050000D03*
X43050000Y-27050000D03*
X42050000Y-27050000D03*
X37500000Y-23850000D03*
X37500000Y-24850000D03*
X36500000Y-23850000D03*
X35500000Y-24850000D03*
X36500000Y-24850000D03*
X35500000Y-23850000D03*
X38500000Y-23850000D03*
X39500000Y-24850000D03*
X38500000Y-24850000D03*
X39500000Y-23850000D03*
X39500000Y-20750000D03*
X35500000Y-20750000D03*
X36500000Y-20750000D03*
X36500000Y-21750000D03*
X35500000Y-21750000D03*
X37500000Y-20750000D03*
X38500000Y-21750000D03*
X37500000Y-21750000D03*
X38500000Y-20750000D03*
X39500000Y-21750000D03*
X18250000Y-19600000D03*
X18250000Y-20600000D03*
X18250000Y-24700000D03*
X18250000Y-25700000D03*
X14650000Y-18600000D03*
X15650000Y-18600000D03*
X13650000Y-18600000D03*
X16650000Y-18600000D03*
X14650000Y-26700000D03*
X15650000Y-26700000D03*
X13650000Y-26700000D03*
X16650000Y-26700000D03*
X23900000Y-32200000D03*
X20900000Y-32200000D03*
X21900000Y-32200000D03*
X22900000Y-32200000D03*
X35750000Y-41050000D03*
X36750000Y-41050000D03*
X34750000Y-41050000D03*
X37750000Y-41050000D03*
X29900000Y-40800000D03*
X31800000Y-40300000D03*
X30900000Y-40800000D03*
D13*
X43550000Y-25390000D03*
X43550000Y-20310000D03*
D14*
X29950000Y-37500000D03*
X29950000Y-38450000D03*
X29950000Y-39400000D03*
X27750000Y-39400000D03*
X27750000Y-37500000D03*
D15*
X29300000Y-34000000D03*
X26760000Y-34000000D03*
X31840000Y-34000000D03*
D16*
X31350000Y-38900000D03*
X32250000Y-38900000D03*
D17*
X36600000Y-39300000D03*
X36600000Y-36800000D03*
X36600000Y-34300000D03*
X22100000Y-34100000D03*
X22100000Y-36600000D03*
X22100000Y-39100000D03*
D13*
X15150000Y-20110000D03*
X15150000Y-25190000D03*
D16*
X27850000Y-36100000D03*
X28750000Y-36100000D03*
X27800000Y-40750000D03*
X28700000Y-40750000D03*
X31350000Y-37500000D03*
X32250000Y-37500000D03*
X27716000Y-24346000D03*
X26816000Y-24346000D03*
X27716000Y-25746000D03*
X26816000Y-25746000D03*
D10*
G36*
X32691700Y-23939619D02*
X31489619Y-25141700D01*
X30711802Y-24363883D01*
X31913883Y-23161802D01*
X32691700Y-23939619D01*
X32691700Y-23939619D01*
G37*
G36*
X31348198Y-22596117D02*
X30146117Y-23798198D01*
X29368300Y-23020381D01*
X30570381Y-21818300D01*
X31348198Y-22596117D01*
X31348198Y-22596117D01*
G37*
M02*
