M48
INCH,TZ
T1C0.014
T2C0.016
T3C0.032
T4C0.039
%
G90
G05
T1
X5374Y-7323
X5374Y-10512
X5768Y-7323
X5768Y-10512
X6161Y-7323
X6161Y-10512
X6555Y-7323
X6555Y-10512
X7185Y-7717
X7185Y-8110
X7185Y-9724
X7185Y-10118
X8071Y-9390
X8071Y-9783
X8189Y-7953
X8228Y-12677
X8465Y-9390
X8465Y-9783
X8583Y-7953
X8622Y-12677
X8858Y-9390
X8858Y-9783
X9016Y-7953
X9016Y-12677
X9035Y-8799
X9409Y-7953
X9409Y-12677
X9429Y-8799
X9646Y-10413
X9685Y-14843
X9724Y-13780
X9803Y-7953
X9823Y-8799
X9882Y-14134
X10039Y-15315
X10098Y-11850
X10098Y-12362
X10394Y-15472
X10453Y-7854
X10571Y-11575
X10846Y-7854
X10965Y-12008
X11240Y-7854
X11240Y-8425
X11260Y-11535
X11280Y-9528
X11300Y-9100
X11546Y-9643
X11772Y-16063
X11988Y-12402
X12026Y-9980
X12047Y-12835
X12165Y-16063
X12205Y-8130
X12362Y-11535
X12520Y-15866
X12539Y-11043
X12874Y-11398
X13303Y-13799
X13465Y-14921
X13681Y-16161
X13976Y-8169
X13976Y-8563
X13976Y-9390
X13976Y-9783
X14075Y-16161
X14370Y-8169
X14370Y-8563
X14370Y-9390
X14370Y-9783
X14469Y-16161
X14764Y-8169
X14764Y-8563
X14764Y-9390
X14764Y-9783
X14862Y-16161
X15157Y-8169
X15157Y-8563
X15157Y-9390
X15157Y-9783
X15551Y-8169
X15551Y-8563
X15551Y-9390
X15551Y-9783
X16555Y-10650
X16575Y-7283
X16949Y-10650
X16969Y-7283
X17343Y-10650
X17362Y-7283
X17736Y-10650
X17756Y-7283
T2
X9980Y-9203
T3
X10535Y-13386
X11535Y-13386
X12535Y-13386
T4
X11339Y-10551
T0
M30
