G04 #@! TF.FileFunction,Profile,NP*
%FSLAX46Y46*%
G04 Gerber Fmt 4.6, Leading zero omitted, Abs format (unit mm)*
G04 Created by KiCad (PCBNEW 4.0.2-stable) date Thu 12 May 2016 11:20:09 PM CEST*
%MOMM*%
G01*
G04 APERTURE LIST*
%ADD10C,0.050000*%
%ADD11C,0.150000*%
%ADD12C,2.400000*%
%ADD13C,1.600000*%
G04 APERTURE END LIST*
D10*
D11*
X66500000Y-64900000D02*
X66500000Y-64900000D01*
X24200000Y-64900000D02*
X24200000Y-64900000D01*
X36400000Y-71000000D02*
X36400000Y-71000000D01*
D12*
X43950000Y-86550000D02*
X57450000Y-86550000D01*
X43950000Y-81750000D02*
X57450000Y-81750000D01*
X43950000Y-84150000D02*
X57450000Y-84150000D01*
X43950000Y-87500000D02*
X57450000Y-87500000D01*
X43950000Y-79350000D02*
X57450000Y-79350000D01*
X43950000Y-87500000D02*
X43950000Y-79349847D01*
X57450000Y-87500000D02*
X57450000Y-79349847D01*
X43950000Y-64100000D02*
X57450000Y-64100000D01*
X43950000Y-61700000D02*
X57450000Y-61700000D01*
X43950000Y-59300000D02*
X57450000Y-59300000D01*
X57450000Y-65050000D02*
X57450000Y-56899847D01*
X43950000Y-65050000D02*
X43950000Y-56899847D01*
X43950000Y-65050000D02*
X57450000Y-65050000D01*
X43950000Y-56900000D02*
X57450000Y-56900000D01*
D13*
X82448722Y-59050000D02*
X90950000Y-59050000D01*
X90950000Y-60250000D02*
X90950000Y-57950000D01*
X82448722Y-60250000D02*
X82448722Y-57950000D01*
X82450000Y-60250000D02*
X90950000Y-60250000D01*
X82448722Y-57950000D02*
X90950000Y-57950000D01*
D11*
X97600000Y-35500000D02*
X100400000Y-35500000D01*
X97500000Y-26100000D02*
X100600000Y-26100000D01*
D12*
X107801477Y-94600000D02*
X23200000Y-94600000D01*
X23200000Y-71745314D02*
X23200000Y-94600000D01*
X65500000Y-72649772D02*
X65500000Y-94500000D01*
X107800000Y-72254000D02*
X107800000Y-94550000D01*
X107800000Y-49700000D02*
X98799445Y-49700000D01*
X107800000Y-49700000D02*
X107800000Y-72100000D01*
X65500000Y-49700000D02*
X65500000Y-72100000D01*
X107801477Y-72100000D02*
X23200000Y-72100000D01*
X23200000Y-49191314D02*
X23200000Y-71807960D01*
X98600000Y-11899868D02*
X98600000Y-49700000D01*
X98600000Y-11900000D02*
X23200000Y-11900000D01*
X98601061Y-49700000D02*
X23200000Y-49700000D01*
X57350000Y-25450000D02*
X57350000Y-30650900D01*
X64700000Y-30825000D02*
X64700000Y-35600000D01*
X64700000Y-39750000D02*
X64700000Y-43800000D01*
X49950000Y-30825000D02*
X49950000Y-35600000D01*
X49950000Y-39750000D02*
X49950000Y-43800000D01*
X57300000Y-43798201D02*
X57300000Y-46002269D01*
X23200000Y-11900000D02*
X23200000Y-49700000D01*
X57150000Y-30800000D02*
X49950000Y-30800000D01*
X57150000Y-43800000D02*
X49950000Y-43800000D01*
D11*
X64900000Y-43900000D02*
X64900000Y-43900000D01*
D12*
X64700000Y-43800000D02*
X57500000Y-43800000D01*
X64700000Y-30800000D02*
X57500000Y-30800000D01*
X57350000Y-15145081D02*
X57350000Y-21500133D01*
M02*
