G04 #@! TF.FileFunction,Legend,Top*
%FSLAX46Y46*%
G04 Gerber Fmt 4.6, Leading zero omitted, Abs format (unit mm)*
G04 Created by KiCad (PCBNEW 4.0.2-stable) date Thu 12 May 2016 11:20:09 PM CEST*
%MOMM*%
G01*
G04 APERTURE LIST*
%ADD10C,0.050000*%
%ADD11C,0.300000*%
%ADD12C,0.100000*%
%ADD13C,0.150000*%
%ADD14C,0.381000*%
%ADD15C,0.010000*%
G04 APERTURE END LIST*
D10*
D11*
X77326190Y-54709524D02*
X77611905Y-54804762D01*
X78088095Y-54804762D01*
X78278571Y-54709524D01*
X78373809Y-54614286D01*
X78469048Y-54423810D01*
X78469048Y-54233333D01*
X78373809Y-54042857D01*
X78278571Y-53947619D01*
X78088095Y-53852381D01*
X77707143Y-53757143D01*
X77516667Y-53661905D01*
X77421428Y-53566667D01*
X77326190Y-53376190D01*
X77326190Y-53185714D01*
X77421428Y-52995238D01*
X77516667Y-52900000D01*
X77707143Y-52804762D01*
X78183333Y-52804762D01*
X78469048Y-52900000D01*
X79326190Y-53471429D02*
X79326190Y-55471429D01*
X79326190Y-53566667D02*
X79516667Y-53471429D01*
X79897619Y-53471429D01*
X80088095Y-53566667D01*
X80183333Y-53661905D01*
X80278571Y-53852381D01*
X80278571Y-54423810D01*
X80183333Y-54614286D01*
X80088095Y-54709524D01*
X79897619Y-54804762D01*
X79516667Y-54804762D01*
X79326190Y-54709524D01*
X81897619Y-54709524D02*
X81707143Y-54804762D01*
X81326191Y-54804762D01*
X81135714Y-54709524D01*
X81040476Y-54519048D01*
X81040476Y-53757143D01*
X81135714Y-53566667D01*
X81326191Y-53471429D01*
X81707143Y-53471429D01*
X81897619Y-53566667D01*
X81992857Y-53757143D01*
X81992857Y-53947619D01*
X81040476Y-54138095D01*
X83707143Y-54709524D02*
X83516667Y-54804762D01*
X83135715Y-54804762D01*
X82945239Y-54709524D01*
X82850000Y-54614286D01*
X82754762Y-54423810D01*
X82754762Y-53852381D01*
X82850000Y-53661905D01*
X82945239Y-53566667D01*
X83135715Y-53471429D01*
X83516667Y-53471429D01*
X83707143Y-53566667D01*
X84278572Y-53471429D02*
X85040477Y-53471429D01*
X84564286Y-52804762D02*
X84564286Y-54519048D01*
X84659525Y-54709524D01*
X84850001Y-54804762D01*
X85040477Y-54804762D01*
X85707143Y-54804762D02*
X85707143Y-53471429D01*
X85707143Y-53852381D02*
X85802382Y-53661905D01*
X85897620Y-53566667D01*
X86088096Y-53471429D01*
X86278572Y-53471429D01*
X87230953Y-54804762D02*
X87040477Y-54709524D01*
X86945238Y-54614286D01*
X86850000Y-54423810D01*
X86850000Y-53852381D01*
X86945238Y-53661905D01*
X87040477Y-53566667D01*
X87230953Y-53471429D01*
X87516667Y-53471429D01*
X87707143Y-53566667D01*
X87802381Y-53661905D01*
X87897619Y-53852381D01*
X87897619Y-54423810D01*
X87802381Y-54614286D01*
X87707143Y-54709524D01*
X87516667Y-54804762D01*
X87230953Y-54804762D01*
X88754762Y-54804762D02*
X88754762Y-53471429D01*
X88754762Y-53661905D02*
X88850001Y-53566667D01*
X89040477Y-53471429D01*
X89326191Y-53471429D01*
X89516667Y-53566667D01*
X89611905Y-53757143D01*
X89611905Y-54804762D01*
X89611905Y-53757143D02*
X89707143Y-53566667D01*
X89897620Y-53471429D01*
X90183334Y-53471429D01*
X90373810Y-53566667D01*
X90469048Y-53757143D01*
X90469048Y-54804762D01*
X92183334Y-54709524D02*
X91992858Y-54804762D01*
X91611906Y-54804762D01*
X91421429Y-54709524D01*
X91326191Y-54519048D01*
X91326191Y-53757143D01*
X91421429Y-53566667D01*
X91611906Y-53471429D01*
X91992858Y-53471429D01*
X92183334Y-53566667D01*
X92278572Y-53757143D01*
X92278572Y-53947619D01*
X91326191Y-54138095D01*
X92850001Y-53471429D02*
X93611906Y-53471429D01*
X93135715Y-52804762D02*
X93135715Y-54519048D01*
X93230954Y-54709524D01*
X93421430Y-54804762D01*
X93611906Y-54804762D01*
X95040477Y-54709524D02*
X94850001Y-54804762D01*
X94469049Y-54804762D01*
X94278572Y-54709524D01*
X94183334Y-54519048D01*
X94183334Y-53757143D01*
X94278572Y-53566667D01*
X94469049Y-53471429D01*
X94850001Y-53471429D01*
X95040477Y-53566667D01*
X95135715Y-53757143D01*
X95135715Y-53947619D01*
X94183334Y-54138095D01*
X95992858Y-54804762D02*
X95992858Y-53471429D01*
X95992858Y-53852381D02*
X96088097Y-53661905D01*
X96183335Y-53566667D01*
X96373811Y-53471429D01*
X96564287Y-53471429D01*
D12*
X85395238Y-47085714D02*
X84633333Y-47371429D01*
X85395238Y-47657143D01*
X86300000Y-47752381D02*
X86300000Y-47228571D01*
X86252381Y-47133333D01*
X86157143Y-47085714D01*
X85966666Y-47085714D01*
X85871428Y-47133333D01*
X86300000Y-47704762D02*
X86204762Y-47752381D01*
X85966666Y-47752381D01*
X85871428Y-47704762D01*
X85823809Y-47609524D01*
X85823809Y-47514286D01*
X85871428Y-47419048D01*
X85966666Y-47371429D01*
X86204762Y-47371429D01*
X86300000Y-47323810D01*
X86633333Y-47085714D02*
X87014285Y-47085714D01*
X86776190Y-46752381D02*
X86776190Y-47609524D01*
X86823809Y-47704762D01*
X86919047Y-47752381D01*
X87014285Y-47752381D01*
X87252381Y-47752381D02*
X87776191Y-47085714D01*
X87252381Y-47085714D02*
X87776191Y-47752381D01*
X88776191Y-47276190D02*
X88728572Y-47228571D01*
X88633334Y-47180952D01*
X88538096Y-47180952D01*
X88442858Y-47228571D01*
X88395238Y-47276190D01*
X88347619Y-47371429D01*
X88347619Y-47466667D01*
X88395238Y-47561905D01*
X88442858Y-47609524D01*
X88538096Y-47657143D01*
X88633334Y-47657143D01*
X88728572Y-47609524D01*
X88776191Y-47561905D01*
X88776191Y-47180952D02*
X88776191Y-47561905D01*
X88823810Y-47609524D01*
X88871429Y-47609524D01*
X88966667Y-47561905D01*
X89014286Y-47466667D01*
X89014286Y-47228571D01*
X88919048Y-47085714D01*
X88776191Y-46990476D01*
X88585715Y-46942857D01*
X88395238Y-46990476D01*
X88252381Y-47085714D01*
X88157143Y-47228571D01*
X88109524Y-47419048D01*
X88157143Y-47609524D01*
X88252381Y-47752381D01*
X88395238Y-47847619D01*
X88585715Y-47895238D01*
X88776191Y-47847619D01*
X88919048Y-47752381D01*
X89871429Y-47752381D02*
X89871429Y-47228571D01*
X89823810Y-47133333D01*
X89728572Y-47085714D01*
X89538095Y-47085714D01*
X89442857Y-47133333D01*
X89871429Y-47704762D02*
X89776191Y-47752381D01*
X89538095Y-47752381D01*
X89442857Y-47704762D01*
X89395238Y-47609524D01*
X89395238Y-47514286D01*
X89442857Y-47419048D01*
X89538095Y-47371429D01*
X89776191Y-47371429D01*
X89871429Y-47323810D01*
X90204762Y-47085714D02*
X90585714Y-47085714D01*
X90347619Y-46752381D02*
X90347619Y-47609524D01*
X90395238Y-47704762D01*
X90490476Y-47752381D01*
X90585714Y-47752381D01*
X90823810Y-47752381D02*
X91347620Y-47085714D01*
X90823810Y-47085714D02*
X91347620Y-47752381D01*
X91728572Y-47657143D02*
X91776191Y-47704762D01*
X91728572Y-47752381D01*
X91680953Y-47704762D01*
X91728572Y-47657143D01*
X91728572Y-47752381D01*
X92204762Y-47085714D02*
X92204762Y-47752381D01*
X92204762Y-47180952D02*
X92252381Y-47133333D01*
X92347619Y-47085714D01*
X92490477Y-47085714D01*
X92585715Y-47133333D01*
X92633334Y-47228571D01*
X92633334Y-47752381D01*
X93538096Y-47752381D02*
X93538096Y-47228571D01*
X93490477Y-47133333D01*
X93395239Y-47085714D01*
X93204762Y-47085714D01*
X93109524Y-47133333D01*
X93538096Y-47704762D02*
X93442858Y-47752381D01*
X93204762Y-47752381D01*
X93109524Y-47704762D01*
X93061905Y-47609524D01*
X93061905Y-47514286D01*
X93109524Y-47419048D01*
X93204762Y-47371429D01*
X93442858Y-47371429D01*
X93538096Y-47323810D01*
X94014286Y-47752381D02*
X94014286Y-47085714D01*
X94014286Y-47180952D02*
X94061905Y-47133333D01*
X94157143Y-47085714D01*
X94300001Y-47085714D01*
X94395239Y-47133333D01*
X94442858Y-47228571D01*
X94442858Y-47752381D01*
X94442858Y-47228571D02*
X94490477Y-47133333D01*
X94585715Y-47085714D01*
X94728572Y-47085714D01*
X94823810Y-47133333D01*
X94871429Y-47228571D01*
X94871429Y-47752381D01*
X95728572Y-47704762D02*
X95633334Y-47752381D01*
X95442857Y-47752381D01*
X95347619Y-47704762D01*
X95300000Y-47609524D01*
X95300000Y-47228571D01*
X95347619Y-47133333D01*
X95442857Y-47085714D01*
X95633334Y-47085714D01*
X95728572Y-47133333D01*
X95776191Y-47228571D01*
X95776191Y-47323810D01*
X95300000Y-47419048D01*
X96204762Y-47085714D02*
X96966667Y-47371429D01*
X96204762Y-47657143D01*
X59337143Y-46792381D02*
X59337143Y-47506667D01*
X59289523Y-47649524D01*
X59194285Y-47744762D01*
X59051428Y-47792381D01*
X58956190Y-47792381D01*
X59956190Y-47792381D02*
X59860952Y-47744762D01*
X59813333Y-47697143D01*
X59765714Y-47601905D01*
X59765714Y-47316190D01*
X59813333Y-47220952D01*
X59860952Y-47173333D01*
X59956190Y-47125714D01*
X60099048Y-47125714D01*
X60194286Y-47173333D01*
X60241905Y-47220952D01*
X60289524Y-47316190D01*
X60289524Y-47601905D01*
X60241905Y-47697143D01*
X60194286Y-47744762D01*
X60099048Y-47792381D01*
X59956190Y-47792381D01*
X60670476Y-47744762D02*
X60765714Y-47792381D01*
X60956190Y-47792381D01*
X61051429Y-47744762D01*
X61099048Y-47649524D01*
X61099048Y-47601905D01*
X61051429Y-47506667D01*
X60956190Y-47459048D01*
X60813333Y-47459048D01*
X60718095Y-47411429D01*
X60670476Y-47316190D01*
X60670476Y-47268571D01*
X60718095Y-47173333D01*
X60813333Y-47125714D01*
X60956190Y-47125714D01*
X61051429Y-47173333D01*
X61908572Y-47744762D02*
X61813334Y-47792381D01*
X61622857Y-47792381D01*
X61527619Y-47744762D01*
X61480000Y-47649524D01*
X61480000Y-47268571D01*
X61527619Y-47173333D01*
X61622857Y-47125714D01*
X61813334Y-47125714D01*
X61908572Y-47173333D01*
X61956191Y-47268571D01*
X61956191Y-47363810D01*
X61480000Y-47459048D01*
X62241905Y-47125714D02*
X62622857Y-47125714D01*
X62384762Y-47792381D02*
X62384762Y-46935238D01*
X62432381Y-46840000D01*
X62527619Y-46792381D01*
X62622857Y-46792381D01*
X64241906Y-46840000D02*
X64146668Y-46792381D01*
X64003811Y-46792381D01*
X63860953Y-46840000D01*
X63765715Y-46935238D01*
X63718096Y-47030476D01*
X63670477Y-47220952D01*
X63670477Y-47363810D01*
X63718096Y-47554286D01*
X63765715Y-47649524D01*
X63860953Y-47744762D01*
X64003811Y-47792381D01*
X64099049Y-47792381D01*
X64241906Y-47744762D01*
X64289525Y-47697143D01*
X64289525Y-47363810D01*
X64099049Y-47363810D01*
X65146668Y-47792381D02*
X65146668Y-47268571D01*
X65099049Y-47173333D01*
X65003811Y-47125714D01*
X64813334Y-47125714D01*
X64718096Y-47173333D01*
X65146668Y-47744762D02*
X65051430Y-47792381D01*
X64813334Y-47792381D01*
X64718096Y-47744762D01*
X64670477Y-47649524D01*
X64670477Y-47554286D01*
X64718096Y-47459048D01*
X64813334Y-47411429D01*
X65051430Y-47411429D01*
X65146668Y-47363810D01*
X65622858Y-47125714D02*
X65622858Y-47982857D01*
X65575239Y-48078095D01*
X65480001Y-48125714D01*
X65432382Y-48125714D01*
X65622858Y-46792381D02*
X65575239Y-46840000D01*
X65622858Y-46887619D01*
X65670477Y-46840000D01*
X65622858Y-46792381D01*
X65622858Y-46887619D01*
X66527620Y-47792381D02*
X66527620Y-46792381D01*
X66527620Y-47744762D02*
X66432382Y-47792381D01*
X66241905Y-47792381D01*
X66146667Y-47744762D01*
X66099048Y-47697143D01*
X66051429Y-47601905D01*
X66051429Y-47316190D01*
X66099048Y-47220952D01*
X66146667Y-47173333D01*
X66241905Y-47125714D01*
X66432382Y-47125714D01*
X66527620Y-47173333D01*
X67432382Y-47125714D02*
X67432382Y-47792381D01*
X67003810Y-47125714D02*
X67003810Y-47649524D01*
X67051429Y-47744762D01*
X67146667Y-47792381D01*
X67289525Y-47792381D01*
X67384763Y-47744762D01*
X67432382Y-47697143D01*
X67860953Y-47744762D02*
X67956191Y-47792381D01*
X68146667Y-47792381D01*
X68241906Y-47744762D01*
X68289525Y-47649524D01*
X68289525Y-47601905D01*
X68241906Y-47506667D01*
X68146667Y-47459048D01*
X68003810Y-47459048D01*
X67908572Y-47411429D01*
X67860953Y-47316190D01*
X67860953Y-47268571D01*
X67908572Y-47173333D01*
X68003810Y-47125714D01*
X68146667Y-47125714D01*
X68241906Y-47173333D01*
X69099049Y-47744762D02*
X69003811Y-47792381D01*
X68813334Y-47792381D01*
X68718096Y-47744762D01*
X68670477Y-47649524D01*
X68670477Y-47268571D01*
X68718096Y-47173333D01*
X68813334Y-47125714D01*
X69003811Y-47125714D01*
X69099049Y-47173333D01*
X69146668Y-47268571D01*
X69146668Y-47363810D01*
X68670477Y-47459048D01*
X69575239Y-47792381D02*
X69575239Y-46792381D01*
X69670477Y-47411429D02*
X69956192Y-47792381D01*
X69956192Y-47125714D02*
X69575239Y-47506667D01*
D13*
X90075000Y-38150000D02*
X90075000Y-38650000D01*
X91125000Y-38650000D02*
X91125000Y-38150000D01*
X64694454Y-22348008D02*
X65048008Y-21994454D01*
X64305546Y-21251992D02*
X63951992Y-21605546D01*
X82675000Y-22950000D02*
X82675000Y-23450000D01*
X83725000Y-23450000D02*
X83725000Y-22950000D01*
X73575000Y-23100000D02*
X73575000Y-23600000D01*
X74625000Y-23600000D02*
X74625000Y-23100000D01*
X75450000Y-33625000D02*
X75950000Y-33625000D01*
X75950000Y-32575000D02*
X75450000Y-32575000D01*
X83450000Y-38225000D02*
X82950000Y-38225000D01*
X82950000Y-39275000D02*
X83450000Y-39275000D01*
X78900000Y-43075000D02*
X77900000Y-43075000D01*
X77900000Y-41725000D02*
X78900000Y-41725000D01*
X91350000Y-28975000D02*
X90850000Y-28975000D01*
X90850000Y-30025000D02*
X91350000Y-30025000D01*
X66156000Y-19373000D02*
X65656000Y-19373000D01*
X65656000Y-20423000D02*
X66156000Y-20423000D01*
X71325000Y-40650000D02*
X71325000Y-40150000D01*
X70275000Y-40150000D02*
X70275000Y-40650000D01*
X87450000Y-41625000D02*
X87950000Y-41625000D01*
X87950000Y-40575000D02*
X87450000Y-40575000D01*
X63775000Y-19250000D02*
X63775000Y-19750000D01*
X64825000Y-19750000D02*
X64825000Y-19250000D01*
X75025000Y-17250000D02*
X75025000Y-16750000D01*
X73975000Y-16750000D02*
X73975000Y-17250000D01*
X69100000Y-18925000D02*
X69600000Y-18925000D01*
X69600000Y-17875000D02*
X69100000Y-17875000D01*
X67700000Y-17875000D02*
X67200000Y-17875000D01*
X67200000Y-18925000D02*
X67700000Y-18925000D01*
X79950000Y-30975000D02*
X79450000Y-30975000D01*
X79450000Y-32025000D02*
X79950000Y-32025000D01*
X79950000Y-32275000D02*
X79450000Y-32275000D01*
X79450000Y-33325000D02*
X79950000Y-33325000D01*
X83725000Y-32650000D02*
X83725000Y-32150000D01*
X82675000Y-32150000D02*
X82675000Y-32650000D01*
X82425000Y-32650000D02*
X82425000Y-32150000D01*
X81375000Y-32150000D02*
X81375000Y-32650000D01*
X83250000Y-37525000D02*
X83750000Y-37525000D01*
X83750000Y-36475000D02*
X83250000Y-36475000D01*
X83250000Y-36225000D02*
X83750000Y-36225000D01*
X83750000Y-35175000D02*
X83250000Y-35175000D01*
X80550000Y-44625000D02*
X81050000Y-44625000D01*
X81050000Y-43575000D02*
X80550000Y-43575000D01*
X30600000Y-20625000D02*
X31100000Y-20625000D01*
X31100000Y-19575000D02*
X30600000Y-19575000D01*
X94475000Y-39825000D02*
X94225000Y-39825000D01*
X94475000Y-43175000D02*
X94225000Y-43175000D01*
X91125000Y-43175000D02*
X91375000Y-43175000D01*
X91125000Y-39825000D02*
X91375000Y-39825000D01*
X94475000Y-39825000D02*
X94475000Y-43175000D01*
X91125000Y-39825000D02*
X91125000Y-43175000D01*
X94225000Y-39825000D02*
X94225000Y-38575000D01*
X68295000Y-19239000D02*
X68295000Y-19489000D01*
X71645000Y-19239000D02*
X71645000Y-19489000D01*
X71645000Y-22589000D02*
X71645000Y-22339000D01*
X68295000Y-22589000D02*
X68295000Y-22339000D01*
X68295000Y-19239000D02*
X71645000Y-19239000D01*
X68295000Y-22589000D02*
X71645000Y-22589000D01*
X68295000Y-19489000D02*
X67045000Y-19489000D01*
X87000000Y-32000000D02*
G75*
G03X87000000Y-32000000I-100000J0D01*
G01*
X86350000Y-31750000D02*
X86850000Y-31750000D01*
X86350000Y-28850000D02*
X86350000Y-31750000D01*
X86850000Y-28850000D02*
X86350000Y-28850000D01*
X86850000Y-31750000D02*
X86850000Y-28850000D01*
X93500000Y-38175000D02*
X92300000Y-38175000D01*
X92300000Y-36425000D02*
X93500000Y-36425000D01*
X96175000Y-41000000D02*
X96175000Y-42000000D01*
X94825000Y-42000000D02*
X94825000Y-41000000D01*
X91750000Y-44925000D02*
X92750000Y-44925000D01*
X92750000Y-46275000D02*
X91750000Y-46275000D01*
X89775000Y-40200000D02*
X89775000Y-40700000D01*
X90825000Y-40700000D02*
X90825000Y-40200000D01*
X89025000Y-43650000D02*
X89025000Y-42450000D01*
X90775000Y-42450000D02*
X90775000Y-43650000D01*
X83975000Y-22950000D02*
X83975000Y-23450000D01*
X85025000Y-23450000D02*
X85025000Y-22950000D01*
X65900000Y-25425000D02*
X67100000Y-25425000D01*
X67100000Y-27175000D02*
X65900000Y-27175000D01*
X69525000Y-27250000D02*
X69525000Y-26750000D01*
X68475000Y-26750000D02*
X68475000Y-27250000D01*
X80650000Y-27125000D02*
X81150000Y-27125000D01*
X81150000Y-26075000D02*
X80650000Y-26075000D01*
X91700000Y-23700000D02*
X91700000Y-27800000D01*
X88700000Y-23700000D02*
X88700000Y-27800000D01*
X88675000Y-29550000D02*
X88675000Y-30050000D01*
X89725000Y-30050000D02*
X89725000Y-29550000D01*
X74650000Y-33975000D02*
X74150000Y-33975000D01*
X74150000Y-35025000D02*
X74650000Y-35025000D01*
X86850000Y-27475000D02*
X86350000Y-27475000D01*
X86350000Y-28525000D02*
X86850000Y-28525000D01*
X31950000Y-19275000D02*
X30750000Y-19275000D01*
X30750000Y-17525000D02*
X31950000Y-17525000D01*
X31275000Y-24000000D02*
X31275000Y-25200000D01*
X29525000Y-25200000D02*
X29525000Y-24000000D01*
X35225000Y-36850000D02*
X35225000Y-37350000D01*
X36275000Y-37350000D02*
X36275000Y-36850000D01*
X27500000Y-36025000D02*
X28000000Y-36025000D01*
X28000000Y-34975000D02*
X27500000Y-34975000D01*
X30650000Y-26375000D02*
X30150000Y-26375000D01*
X30150000Y-27425000D02*
X30650000Y-27425000D01*
X35262207Y-25333137D02*
X35762207Y-25333137D01*
X35762207Y-24283137D02*
X35262207Y-24283137D01*
X36587207Y-26358137D02*
X36587207Y-25158137D01*
X38337207Y-25158137D02*
X38337207Y-26358137D01*
X43750000Y-20475000D02*
X43250000Y-20475000D01*
X43250000Y-21525000D02*
X43750000Y-21525000D01*
X44200000Y-22875000D02*
X44700000Y-22875000D01*
X44700000Y-21825000D02*
X44200000Y-21825000D01*
X50425000Y-25250000D02*
X50425000Y-24750000D01*
X49375000Y-24750000D02*
X49375000Y-25250000D01*
X78900000Y-44775000D02*
X77900000Y-44775000D01*
X77900000Y-43425000D02*
X78900000Y-43425000D01*
D14*
X52329700Y-27217040D02*
X52329700Y-19718960D01*
X53079000Y-19718960D02*
X53079000Y-27217040D01*
X53830840Y-27217040D02*
X53830840Y-19718960D01*
X55329440Y-19718960D02*
X55329440Y-27217040D01*
X54580140Y-27217040D02*
X54580140Y-19718960D01*
X51580400Y-19967880D02*
X51580400Y-26968120D01*
X51580400Y-26968120D02*
X52080780Y-26968120D01*
X58080260Y-19467500D02*
X58580640Y-19467500D01*
X58080260Y-27468500D02*
X58580640Y-27468500D01*
X58329180Y-27468500D02*
X58329180Y-19467500D01*
X58080260Y-19467500D02*
X58080260Y-27468500D01*
X58580640Y-25466980D02*
X62581140Y-25466980D01*
X62581140Y-25466980D02*
X62581140Y-26467740D01*
X62581140Y-26467740D02*
X58580640Y-26467740D01*
X58580640Y-22967620D02*
X62581140Y-22967620D01*
X62581140Y-22967620D02*
X62581140Y-23968380D01*
X62581140Y-23968380D02*
X58580640Y-23968380D01*
X58580640Y-20468260D02*
X62581140Y-20468260D01*
X62581140Y-20468260D02*
X62581140Y-21469020D01*
X62581140Y-21469020D02*
X58580640Y-21469020D01*
X51580400Y-19967880D02*
X58580640Y-19967880D01*
X58580640Y-19467500D02*
X58580640Y-27468500D01*
X58580640Y-26968120D02*
X52080780Y-26968120D01*
X18299700Y-27199040D02*
X18299700Y-19700960D01*
X19049000Y-19700960D02*
X19049000Y-27199040D01*
X19800840Y-27199040D02*
X19800840Y-19700960D01*
X21299440Y-19700960D02*
X21299440Y-27199040D01*
X20550140Y-27199040D02*
X20550140Y-19700960D01*
X17550400Y-19949880D02*
X17550400Y-26950120D01*
X17550400Y-26950120D02*
X18050780Y-26950120D01*
X24050260Y-19449500D02*
X24550640Y-19449500D01*
X24050260Y-27450500D02*
X24550640Y-27450500D01*
X24299180Y-27450500D02*
X24299180Y-19449500D01*
X24050260Y-19449500D02*
X24050260Y-27450500D01*
X24550640Y-25448980D02*
X28551140Y-25448980D01*
X28551140Y-25448980D02*
X28551140Y-26449740D01*
X28551140Y-26449740D02*
X24550640Y-26449740D01*
X24550640Y-22949620D02*
X28551140Y-22949620D01*
X28551140Y-22949620D02*
X28551140Y-23950380D01*
X28551140Y-23950380D02*
X24550640Y-23950380D01*
X24550640Y-20450260D02*
X28551140Y-20450260D01*
X28551140Y-20450260D02*
X28551140Y-21451020D01*
X28551140Y-21451020D02*
X24550640Y-21451020D01*
X17550400Y-19949880D02*
X24550640Y-19949880D01*
X24550640Y-19449500D02*
X24550640Y-27450500D01*
X24550640Y-26950120D02*
X18050780Y-26950120D01*
X62210300Y-19718960D02*
X62210300Y-27217040D01*
X61461000Y-27217040D02*
X61461000Y-19718960D01*
X60709160Y-19718960D02*
X60709160Y-27217040D01*
X59210560Y-27217040D02*
X59210560Y-19718960D01*
X59959860Y-19718960D02*
X59959860Y-27217040D01*
X62959600Y-26968120D02*
X62959600Y-19967880D01*
X62959600Y-19967880D02*
X62459220Y-19967880D01*
X56459740Y-27468500D02*
X55959360Y-27468500D01*
X56459740Y-19467500D02*
X55959360Y-19467500D01*
X56210820Y-19467500D02*
X56210820Y-27468500D01*
X56459740Y-27468500D02*
X56459740Y-19467500D01*
X55959360Y-21469020D02*
X51958860Y-21469020D01*
X51958860Y-21469020D02*
X51958860Y-20468260D01*
X51958860Y-20468260D02*
X55959360Y-20468260D01*
X55959360Y-23968380D02*
X51958860Y-23968380D01*
X51958860Y-23968380D02*
X51958860Y-22967620D01*
X51958860Y-22967620D02*
X55959360Y-22967620D01*
X55959360Y-26467740D02*
X51958860Y-26467740D01*
X51958860Y-26467740D02*
X51958860Y-25466980D01*
X51958860Y-25466980D02*
X55959360Y-25466980D01*
X62959600Y-26968120D02*
X55959360Y-26968120D01*
X55959360Y-27468500D02*
X55959360Y-19467500D01*
X55959360Y-19967880D02*
X62459220Y-19967880D01*
D13*
X35175000Y-20850000D02*
X35175000Y-21350000D01*
X36225000Y-21350000D02*
X36225000Y-20850000D01*
X35775000Y-23458137D02*
X35775000Y-22958137D01*
X34725000Y-22958137D02*
X34725000Y-23458137D01*
X37200000Y-22925000D02*
X36700000Y-22925000D01*
X36700000Y-23975000D02*
X37200000Y-23975000D01*
X98817460Y-35150900D02*
X98817460Y-26450900D01*
X92412460Y-35150900D02*
X92412460Y-26450900D01*
X92412460Y-26450900D02*
X98817460Y-26450900D01*
X97587460Y-26450900D02*
X97587460Y-35150900D01*
X98817460Y-35150900D02*
X92412460Y-35150900D01*
X71449760Y-15700840D02*
X71449760Y-15749100D01*
X72150800Y-18499820D02*
X71449760Y-18499820D01*
X71449760Y-18499820D02*
X71449760Y-18250900D01*
X71449760Y-15700840D02*
X71449760Y-15500180D01*
X71449760Y-15500180D02*
X72150800Y-15500180D01*
X35599160Y-29649760D02*
X35550900Y-29649760D01*
X32800180Y-30350800D02*
X32800180Y-29649760D01*
X32800180Y-29649760D02*
X33049100Y-29649760D01*
X35599160Y-29649760D02*
X35799820Y-29649760D01*
X35799820Y-29649760D02*
X35799820Y-30350800D01*
X80550000Y-42925000D02*
X81050000Y-42925000D01*
X81050000Y-41875000D02*
X80550000Y-41875000D01*
X30925000Y-22050000D02*
X30925000Y-21550000D01*
X29875000Y-21550000D02*
X29875000Y-22050000D01*
X32150000Y-26525000D02*
X32650000Y-26525000D01*
X32650000Y-25475000D02*
X32150000Y-25475000D01*
X33900000Y-32075000D02*
X33400000Y-32075000D01*
X33400000Y-33125000D02*
X33900000Y-33125000D01*
X29400000Y-34675000D02*
X29900000Y-34675000D01*
X29900000Y-33625000D02*
X29400000Y-33625000D01*
X27500000Y-34675000D02*
X28000000Y-34675000D01*
X28000000Y-33625000D02*
X27500000Y-33625000D01*
X35262207Y-26633137D02*
X35762207Y-26633137D01*
X35762207Y-25583137D02*
X35262207Y-25583137D01*
X36225000Y-19450000D02*
X36225000Y-18950000D01*
X35175000Y-18950000D02*
X35175000Y-19450000D01*
X39100000Y-22925000D02*
X38600000Y-22925000D01*
X38600000Y-23975000D02*
X39100000Y-23975000D01*
X37600000Y-18375000D02*
X37100000Y-18375000D01*
X37100000Y-19425000D02*
X37600000Y-19425000D01*
X41350000Y-21525000D02*
X41850000Y-21525000D01*
X41850000Y-20475000D02*
X41350000Y-20475000D01*
X42200000Y-26825000D02*
X41700000Y-26825000D01*
X41700000Y-27875000D02*
X42200000Y-27875000D01*
X42250000Y-22875000D02*
X42750000Y-22875000D01*
X42750000Y-21825000D02*
X42250000Y-21825000D01*
X42175000Y-25950000D02*
X42175000Y-25450000D01*
X41125000Y-25450000D02*
X41125000Y-25950000D01*
X49350000Y-23925000D02*
X49850000Y-23925000D01*
X49850000Y-22875000D02*
X49350000Y-22875000D01*
X80575000Y-25675000D02*
X80575000Y-25530000D01*
X76425000Y-25675000D02*
X76425000Y-25530000D01*
X76425000Y-20525000D02*
X76425000Y-20670000D01*
X80575000Y-20525000D02*
X80575000Y-20670000D01*
X80575000Y-25675000D02*
X76425000Y-25675000D01*
X80575000Y-20525000D02*
X76425000Y-20525000D01*
X80575000Y-25530000D02*
X81975000Y-25530000D01*
X81662500Y-34175000D02*
X81662500Y-34700000D01*
X76412500Y-39425000D02*
X76412500Y-38900000D01*
X81662500Y-39425000D02*
X81662500Y-38900000D01*
X76412500Y-34175000D02*
X76937500Y-34175000D01*
X76412500Y-39425000D02*
X76937500Y-39425000D01*
X81662500Y-39425000D02*
X81137500Y-39425000D01*
X81662500Y-34175000D02*
X81137500Y-34175000D01*
X73800000Y-36900000D02*
X72300000Y-36900000D01*
X73800000Y-38300000D02*
X73800000Y-36900000D01*
X30775000Y-33275000D02*
X30775000Y-33130000D01*
X26625000Y-33275000D02*
X26625000Y-33130000D01*
X26625000Y-28125000D02*
X26625000Y-28270000D01*
X30775000Y-28125000D02*
X30775000Y-28270000D01*
X30775000Y-33275000D02*
X26625000Y-33275000D01*
X30775000Y-28125000D02*
X26625000Y-28125000D01*
X30775000Y-33130000D02*
X32175000Y-33130000D01*
X38000000Y-19500000D02*
G75*
G03X38000000Y-19500000I-100000J0D01*
G01*
X38450000Y-19750000D02*
X37950000Y-19750000D01*
X38450000Y-22650000D02*
X38450000Y-19750000D01*
X37950000Y-22650000D02*
X38450000Y-22650000D01*
X37950000Y-19750000D02*
X37950000Y-22650000D01*
X45700000Y-24550000D02*
G75*
G03X45700000Y-24550000I-100000J0D01*
G01*
X45350000Y-25100000D02*
X45350000Y-24600000D01*
X42450000Y-25100000D02*
X45350000Y-25100000D01*
X42450000Y-24600000D02*
X42450000Y-25100000D01*
X45350000Y-24600000D02*
X42450000Y-24600000D01*
X34400000Y-28575000D02*
X33400000Y-28575000D01*
X33400000Y-27225000D02*
X34400000Y-27225000D01*
D15*
G36*
X85920927Y-13726688D02*
X86449605Y-13728072D01*
X87062816Y-13730374D01*
X87145729Y-13730720D01*
X90255818Y-13743818D01*
X90525689Y-13852664D01*
X90887550Y-14046317D01*
X91210111Y-14312949D01*
X91476872Y-14636035D01*
X91671332Y-14999048D01*
X91672032Y-15000781D01*
X91779818Y-15267818D01*
X91779818Y-19978364D01*
X91672032Y-20245401D01*
X91477942Y-20608560D01*
X91211475Y-20931867D01*
X90889132Y-21198796D01*
X90527414Y-21392821D01*
X90525689Y-21393518D01*
X90255818Y-21502364D01*
X87115454Y-21511648D01*
X86483654Y-21513262D01*
X85937504Y-21514023D01*
X85470293Y-21513813D01*
X85075310Y-21512515D01*
X84745845Y-21510011D01*
X84475188Y-21506184D01*
X84256627Y-21500917D01*
X84083452Y-21494090D01*
X83948952Y-21485588D01*
X83846416Y-21475292D01*
X83769134Y-21463085D01*
X83722210Y-21452199D01*
X83329601Y-21299303D01*
X82983308Y-21071290D01*
X82692748Y-20777717D01*
X82467334Y-20428140D01*
X82316479Y-20032112D01*
X82314065Y-20022931D01*
X82294877Y-19899959D01*
X82278376Y-19696742D01*
X82264561Y-19425362D01*
X82253433Y-19097900D01*
X82244991Y-18726435D01*
X82239237Y-18323048D01*
X82236168Y-17899821D01*
X82235785Y-17468833D01*
X82238089Y-17042165D01*
X82243079Y-16631898D01*
X82250755Y-16250113D01*
X82261119Y-15908889D01*
X82274168Y-15620308D01*
X82289905Y-15396450D01*
X82300233Y-15314000D01*
X82451091Y-15314000D01*
X82451091Y-17623091D01*
X82451150Y-18143930D01*
X82451560Y-18580814D01*
X82452672Y-18942151D01*
X82454835Y-19236351D01*
X82458399Y-19471822D01*
X82463715Y-19656973D01*
X82471132Y-19800212D01*
X82481001Y-19909948D01*
X82493672Y-19994589D01*
X82509494Y-20062545D01*
X82528817Y-20122223D01*
X82551993Y-20182034D01*
X82558260Y-20197573D01*
X82684119Y-20432506D01*
X82866138Y-20676278D01*
X83077808Y-20898122D01*
X83292624Y-21067274D01*
X83324267Y-21086662D01*
X83406517Y-21134123D01*
X83484508Y-21175151D01*
X83565288Y-21210193D01*
X83655902Y-21239695D01*
X83763401Y-21264104D01*
X83894830Y-21283866D01*
X84057238Y-21299428D01*
X84257672Y-21311237D01*
X84503181Y-21319739D01*
X84800810Y-21325381D01*
X85157609Y-21328610D01*
X85580625Y-21329872D01*
X86076905Y-21329614D01*
X86653498Y-21328283D01*
X87115454Y-21326931D01*
X90209636Y-21317637D01*
X90486727Y-21206405D01*
X90747230Y-21064083D01*
X91005660Y-20856965D01*
X91237271Y-20609799D01*
X91417319Y-20347326D01*
X91483860Y-20209273D01*
X91509671Y-20143675D01*
X91531201Y-20081049D01*
X91548901Y-20012623D01*
X91563222Y-19929623D01*
X91574617Y-19823280D01*
X91583536Y-19684820D01*
X91590432Y-19505471D01*
X91595755Y-19276462D01*
X91599958Y-18989020D01*
X91603492Y-18634375D01*
X91606809Y-18203752D01*
X91609861Y-17761637D01*
X91613167Y-17216585D01*
X91614634Y-16755249D01*
X91613625Y-16368986D01*
X91609506Y-16049156D01*
X91601638Y-15787117D01*
X91589387Y-15574229D01*
X91572117Y-15401850D01*
X91549190Y-15261340D01*
X91519971Y-15144058D01*
X91483824Y-15041361D01*
X91440112Y-14944611D01*
X91396247Y-14860057D01*
X91237771Y-14630853D01*
X91019883Y-14402979D01*
X90771999Y-14202787D01*
X90523535Y-14056630D01*
X90476779Y-14036370D01*
X90209636Y-13928546D01*
X83836545Y-13928546D01*
X83559454Y-14039777D01*
X83298951Y-14182100D01*
X83040522Y-14389217D01*
X82808911Y-14636384D01*
X82628862Y-14898856D01*
X82562322Y-15036909D01*
X82451091Y-15314000D01*
X82300233Y-15314000D01*
X82308327Y-15249395D01*
X82314065Y-15223251D01*
X82463986Y-14823074D01*
X82688348Y-14472097D01*
X82978806Y-14178633D01*
X83327015Y-13950997D01*
X83724630Y-13797503D01*
X83752504Y-13790158D01*
X83818588Y-13775657D01*
X83899617Y-13763294D01*
X84002550Y-13752945D01*
X84134346Y-13744490D01*
X84301964Y-13737806D01*
X84512361Y-13732771D01*
X84772498Y-13729264D01*
X85089332Y-13727162D01*
X85469822Y-13726344D01*
X85920927Y-13726688D01*
X85920927Y-13726688D01*
G37*
X85920927Y-13726688D02*
X86449605Y-13728072D01*
X87062816Y-13730374D01*
X87145729Y-13730720D01*
X90255818Y-13743818D01*
X90525689Y-13852664D01*
X90887550Y-14046317D01*
X91210111Y-14312949D01*
X91476872Y-14636035D01*
X91671332Y-14999048D01*
X91672032Y-15000781D01*
X91779818Y-15267818D01*
X91779818Y-19978364D01*
X91672032Y-20245401D01*
X91477942Y-20608560D01*
X91211475Y-20931867D01*
X90889132Y-21198796D01*
X90527414Y-21392821D01*
X90525689Y-21393518D01*
X90255818Y-21502364D01*
X87115454Y-21511648D01*
X86483654Y-21513262D01*
X85937504Y-21514023D01*
X85470293Y-21513813D01*
X85075310Y-21512515D01*
X84745845Y-21510011D01*
X84475188Y-21506184D01*
X84256627Y-21500917D01*
X84083452Y-21494090D01*
X83948952Y-21485588D01*
X83846416Y-21475292D01*
X83769134Y-21463085D01*
X83722210Y-21452199D01*
X83329601Y-21299303D01*
X82983308Y-21071290D01*
X82692748Y-20777717D01*
X82467334Y-20428140D01*
X82316479Y-20032112D01*
X82314065Y-20022931D01*
X82294877Y-19899959D01*
X82278376Y-19696742D01*
X82264561Y-19425362D01*
X82253433Y-19097900D01*
X82244991Y-18726435D01*
X82239237Y-18323048D01*
X82236168Y-17899821D01*
X82235785Y-17468833D01*
X82238089Y-17042165D01*
X82243079Y-16631898D01*
X82250755Y-16250113D01*
X82261119Y-15908889D01*
X82274168Y-15620308D01*
X82289905Y-15396450D01*
X82300233Y-15314000D01*
X82451091Y-15314000D01*
X82451091Y-17623091D01*
X82451150Y-18143930D01*
X82451560Y-18580814D01*
X82452672Y-18942151D01*
X82454835Y-19236351D01*
X82458399Y-19471822D01*
X82463715Y-19656973D01*
X82471132Y-19800212D01*
X82481001Y-19909948D01*
X82493672Y-19994589D01*
X82509494Y-20062545D01*
X82528817Y-20122223D01*
X82551993Y-20182034D01*
X82558260Y-20197573D01*
X82684119Y-20432506D01*
X82866138Y-20676278D01*
X83077808Y-20898122D01*
X83292624Y-21067274D01*
X83324267Y-21086662D01*
X83406517Y-21134123D01*
X83484508Y-21175151D01*
X83565288Y-21210193D01*
X83655902Y-21239695D01*
X83763401Y-21264104D01*
X83894830Y-21283866D01*
X84057238Y-21299428D01*
X84257672Y-21311237D01*
X84503181Y-21319739D01*
X84800810Y-21325381D01*
X85157609Y-21328610D01*
X85580625Y-21329872D01*
X86076905Y-21329614D01*
X86653498Y-21328283D01*
X87115454Y-21326931D01*
X90209636Y-21317637D01*
X90486727Y-21206405D01*
X90747230Y-21064083D01*
X91005660Y-20856965D01*
X91237271Y-20609799D01*
X91417319Y-20347326D01*
X91483860Y-20209273D01*
X91509671Y-20143675D01*
X91531201Y-20081049D01*
X91548901Y-20012623D01*
X91563222Y-19929623D01*
X91574617Y-19823280D01*
X91583536Y-19684820D01*
X91590432Y-19505471D01*
X91595755Y-19276462D01*
X91599958Y-18989020D01*
X91603492Y-18634375D01*
X91606809Y-18203752D01*
X91609861Y-17761637D01*
X91613167Y-17216585D01*
X91614634Y-16755249D01*
X91613625Y-16368986D01*
X91609506Y-16049156D01*
X91601638Y-15787117D01*
X91589387Y-15574229D01*
X91572117Y-15401850D01*
X91549190Y-15261340D01*
X91519971Y-15144058D01*
X91483824Y-15041361D01*
X91440112Y-14944611D01*
X91396247Y-14860057D01*
X91237771Y-14630853D01*
X91019883Y-14402979D01*
X90771999Y-14202787D01*
X90523535Y-14056630D01*
X90476779Y-14036370D01*
X90209636Y-13928546D01*
X83836545Y-13928546D01*
X83559454Y-14039777D01*
X83298951Y-14182100D01*
X83040522Y-14389217D01*
X82808911Y-14636384D01*
X82628862Y-14898856D01*
X82562322Y-15036909D01*
X82451091Y-15314000D01*
X82300233Y-15314000D01*
X82308327Y-15249395D01*
X82314065Y-15223251D01*
X82463986Y-14823074D01*
X82688348Y-14472097D01*
X82978806Y-14178633D01*
X83327015Y-13950997D01*
X83724630Y-13797503D01*
X83752504Y-13790158D01*
X83818588Y-13775657D01*
X83899617Y-13763294D01*
X84002550Y-13752945D01*
X84134346Y-13744490D01*
X84301964Y-13737806D01*
X84512361Y-13732771D01*
X84772498Y-13729264D01*
X85089332Y-13727162D01*
X85469822Y-13726344D01*
X85920927Y-13726688D01*
G36*
X84249720Y-20663643D02*
X84255172Y-20689343D01*
X84267467Y-20738253D01*
X84298629Y-20757166D01*
X84365116Y-20802844D01*
X84353617Y-20842310D01*
X84277509Y-20855774D01*
X84235737Y-20850220D01*
X84119289Y-20855453D01*
X84068484Y-20917712D01*
X84094410Y-21019493D01*
X84111811Y-21045859D01*
X84169800Y-21101849D01*
X84230670Y-21080863D01*
X84248300Y-21066858D01*
X84323397Y-21028985D01*
X84362338Y-21049104D01*
X84346444Y-21106746D01*
X84282592Y-21142117D01*
X84178695Y-21156000D01*
X84061970Y-21131417D01*
X84003586Y-21053814D01*
X83982823Y-20918450D01*
X84015261Y-20805607D01*
X84073597Y-20754707D01*
X84115345Y-20711013D01*
X84110645Y-20689343D01*
X84127677Y-20657018D01*
X84182909Y-20648000D01*
X84249720Y-20663643D01*
X84249720Y-20663643D01*
G37*
X84249720Y-20663643D02*
X84255172Y-20689343D01*
X84267467Y-20738253D01*
X84298629Y-20757166D01*
X84365116Y-20802844D01*
X84353617Y-20842310D01*
X84277509Y-20855774D01*
X84235737Y-20850220D01*
X84119289Y-20855453D01*
X84068484Y-20917712D01*
X84094410Y-21019493D01*
X84111811Y-21045859D01*
X84169800Y-21101849D01*
X84230670Y-21080863D01*
X84248300Y-21066858D01*
X84323397Y-21028985D01*
X84362338Y-21049104D01*
X84346444Y-21106746D01*
X84282592Y-21142117D01*
X84178695Y-21156000D01*
X84061970Y-21131417D01*
X84003586Y-21053814D01*
X83982823Y-20918450D01*
X84015261Y-20805607D01*
X84073597Y-20754707D01*
X84115345Y-20711013D01*
X84110645Y-20689343D01*
X84127677Y-20657018D01*
X84182909Y-20648000D01*
X84249720Y-20663643D01*
G36*
X84634432Y-20778712D02*
X84688036Y-20872557D01*
X84694571Y-20887751D01*
X84755621Y-21035138D01*
X84815761Y-20887751D01*
X84874569Y-20772995D01*
X84914787Y-20742272D01*
X84927214Y-20787729D01*
X84902653Y-20901514D01*
X84886554Y-20948182D01*
X84817486Y-21094441D01*
X84752928Y-21148683D01*
X84693099Y-21110832D01*
X84653968Y-21029000D01*
X84608154Y-20905759D01*
X84575237Y-20821182D01*
X84567816Y-20755166D01*
X84588001Y-20740364D01*
X84634432Y-20778712D01*
X84634432Y-20778712D01*
G37*
X84634432Y-20778712D02*
X84688036Y-20872557D01*
X84694571Y-20887751D01*
X84755621Y-21035138D01*
X84815761Y-20887751D01*
X84874569Y-20772995D01*
X84914787Y-20742272D01*
X84927214Y-20787729D01*
X84902653Y-20901514D01*
X84886554Y-20948182D01*
X84817486Y-21094441D01*
X84752928Y-21148683D01*
X84693099Y-21110832D01*
X84653968Y-21029000D01*
X84608154Y-20905759D01*
X84575237Y-20821182D01*
X84567816Y-20755166D01*
X84588001Y-20740364D01*
X84634432Y-20778712D01*
G36*
X85227415Y-20781210D02*
X85250572Y-20882476D01*
X85253848Y-20913546D01*
X85281326Y-21043025D01*
X85335996Y-21086709D01*
X85337454Y-21086728D01*
X85392714Y-21044824D01*
X85420752Y-20917187D01*
X85421060Y-20913546D01*
X85444107Y-20793669D01*
X85478263Y-20744125D01*
X85509096Y-20770396D01*
X85522182Y-20875132D01*
X85506757Y-21037361D01*
X85454195Y-21126036D01*
X85355067Y-21155712D01*
X85340210Y-21156000D01*
X85236284Y-21145734D01*
X85183515Y-21125212D01*
X85160951Y-21061508D01*
X85153118Y-20955273D01*
X85158827Y-20842846D01*
X85176886Y-20760565D01*
X85196121Y-20740364D01*
X85227415Y-20781210D01*
X85227415Y-20781210D01*
G37*
X85227415Y-20781210D02*
X85250572Y-20882476D01*
X85253848Y-20913546D01*
X85281326Y-21043025D01*
X85335996Y-21086709D01*
X85337454Y-21086728D01*
X85392714Y-21044824D01*
X85420752Y-20917187D01*
X85421060Y-20913546D01*
X85444107Y-20793669D01*
X85478263Y-20744125D01*
X85509096Y-20770396D01*
X85522182Y-20875132D01*
X85506757Y-21037361D01*
X85454195Y-21126036D01*
X85355067Y-21155712D01*
X85340210Y-21156000D01*
X85236284Y-21145734D01*
X85183515Y-21125212D01*
X85160951Y-21061508D01*
X85153118Y-20955273D01*
X85158827Y-20842846D01*
X85176886Y-20760565D01*
X85196121Y-20740364D01*
X85227415Y-20781210D01*
G36*
X85999942Y-20750610D02*
X86069394Y-20774420D01*
X86076363Y-20786546D01*
X86038958Y-20827517D01*
X86007091Y-20832728D01*
X85955855Y-20867778D01*
X85937943Y-20979643D01*
X85937818Y-20994364D01*
X85926219Y-21101201D01*
X85897697Y-21154604D01*
X85891636Y-21156000D01*
X85859776Y-21115727D01*
X85845509Y-21018084D01*
X85845454Y-21011001D01*
X85819104Y-20881157D01*
X85764636Y-20804651D01*
X85725027Y-20766533D01*
X85747961Y-20748146D01*
X85846840Y-20742196D01*
X85880091Y-20741833D01*
X85999942Y-20750610D01*
X85999942Y-20750610D01*
G37*
X85999942Y-20750610D02*
X86069394Y-20774420D01*
X86076363Y-20786546D01*
X86038958Y-20827517D01*
X86007091Y-20832728D01*
X85955855Y-20867778D01*
X85937943Y-20979643D01*
X85937818Y-20994364D01*
X85926219Y-21101201D01*
X85897697Y-21154604D01*
X85891636Y-21156000D01*
X85859776Y-21115727D01*
X85845509Y-21018084D01*
X85845454Y-21011001D01*
X85819104Y-20881157D01*
X85764636Y-20804651D01*
X85725027Y-20766533D01*
X85747961Y-20748146D01*
X85846840Y-20742196D01*
X85880091Y-20741833D01*
X85999942Y-20750610D01*
G36*
X86941449Y-20774693D02*
X86930944Y-20821182D01*
X86890541Y-20925520D01*
X86852213Y-21029000D01*
X86795841Y-21131671D01*
X86734586Y-21142196D01*
X86668668Y-21060651D01*
X86619627Y-20948182D01*
X86582071Y-20815285D01*
X86584285Y-20748341D01*
X86617071Y-20755203D01*
X86671228Y-20843724D01*
X86690420Y-20887751D01*
X86750561Y-21035138D01*
X86811610Y-20887751D01*
X86864421Y-20788848D01*
X86913163Y-20741147D01*
X86918180Y-20740364D01*
X86941449Y-20774693D01*
X86941449Y-20774693D01*
G37*
X86941449Y-20774693D02*
X86930944Y-20821182D01*
X86890541Y-20925520D01*
X86852213Y-21029000D01*
X86795841Y-21131671D01*
X86734586Y-21142196D01*
X86668668Y-21060651D01*
X86619627Y-20948182D01*
X86582071Y-20815285D01*
X86584285Y-20748341D01*
X86617071Y-20755203D01*
X86671228Y-20843724D01*
X86690420Y-20887751D01*
X86750561Y-21035138D01*
X86811610Y-20887751D01*
X86864421Y-20788848D01*
X86913163Y-20741147D01*
X86918180Y-20740364D01*
X86941449Y-20774693D01*
G36*
X87611909Y-20748983D02*
X87717197Y-20771256D01*
X87757607Y-20825415D01*
X87762000Y-20878909D01*
X87736589Y-20974081D01*
X87658091Y-21009121D01*
X87576849Y-21045652D01*
X87554182Y-21089939D01*
X87528196Y-21149307D01*
X87508000Y-21156000D01*
X87480619Y-21114688D01*
X87464062Y-21010014D01*
X87461818Y-20945256D01*
X87463411Y-20878909D01*
X87554182Y-20878909D01*
X87591587Y-20919881D01*
X87623454Y-20925091D01*
X87684912Y-20900154D01*
X87692727Y-20878909D01*
X87655322Y-20837938D01*
X87623454Y-20832728D01*
X87561997Y-20857664D01*
X87554182Y-20878909D01*
X87463411Y-20878909D01*
X87464906Y-20816713D01*
X87486016Y-20757294D01*
X87542921Y-20743760D01*
X87611909Y-20748983D01*
X87611909Y-20748983D01*
G37*
X87611909Y-20748983D02*
X87717197Y-20771256D01*
X87757607Y-20825415D01*
X87762000Y-20878909D01*
X87736589Y-20974081D01*
X87658091Y-21009121D01*
X87576849Y-21045652D01*
X87554182Y-21089939D01*
X87528196Y-21149307D01*
X87508000Y-21156000D01*
X87480619Y-21114688D01*
X87464062Y-21010014D01*
X87461818Y-20945256D01*
X87463411Y-20878909D01*
X87554182Y-20878909D01*
X87591587Y-20919881D01*
X87623454Y-20925091D01*
X87684912Y-20900154D01*
X87692727Y-20878909D01*
X87655322Y-20837938D01*
X87623454Y-20832728D01*
X87561997Y-20857664D01*
X87554182Y-20878909D01*
X87463411Y-20878909D01*
X87464906Y-20816713D01*
X87486016Y-20757294D01*
X87542921Y-20743760D01*
X87611909Y-20748983D01*
G36*
X88310241Y-20764246D02*
X88376090Y-20826487D01*
X88364908Y-20912977D01*
X88345538Y-20940633D01*
X88321186Y-21013245D01*
X88348838Y-21054729D01*
X88377504Y-21118643D01*
X88367054Y-21143612D01*
X88316626Y-21140407D01*
X88272678Y-21098200D01*
X88197256Y-21030036D01*
X88134009Y-21026469D01*
X88108363Y-21086728D01*
X88083427Y-21148185D01*
X88062182Y-21156000D01*
X88034640Y-21114723D01*
X88018119Y-21010289D01*
X88016000Y-20948182D01*
X88017854Y-20878909D01*
X88108363Y-20878909D01*
X88147043Y-20916431D01*
X88200727Y-20925091D01*
X88275771Y-20905751D01*
X88293091Y-20878909D01*
X88254411Y-20841387D01*
X88200727Y-20832728D01*
X88125683Y-20852067D01*
X88108363Y-20878909D01*
X88017854Y-20878909D01*
X88019419Y-20820490D01*
X88042827Y-20760025D01*
X88105952Y-20741647D01*
X88179086Y-20740364D01*
X88310241Y-20764246D01*
X88310241Y-20764246D01*
G37*
X88310241Y-20764246D02*
X88376090Y-20826487D01*
X88364908Y-20912977D01*
X88345538Y-20940633D01*
X88321186Y-21013245D01*
X88348838Y-21054729D01*
X88377504Y-21118643D01*
X88367054Y-21143612D01*
X88316626Y-21140407D01*
X88272678Y-21098200D01*
X88197256Y-21030036D01*
X88134009Y-21026469D01*
X88108363Y-21086728D01*
X88083427Y-21148185D01*
X88062182Y-21156000D01*
X88034640Y-21114723D01*
X88018119Y-21010289D01*
X88016000Y-20948182D01*
X88017854Y-20878909D01*
X88108363Y-20878909D01*
X88147043Y-20916431D01*
X88200727Y-20925091D01*
X88275771Y-20905751D01*
X88293091Y-20878909D01*
X88254411Y-20841387D01*
X88200727Y-20832728D01*
X88125683Y-20852067D01*
X88108363Y-20878909D01*
X88017854Y-20878909D01*
X88019419Y-20820490D01*
X88042827Y-20760025D01*
X88105952Y-20741647D01*
X88179086Y-20740364D01*
X88310241Y-20764246D01*
G36*
X88829742Y-20780992D02*
X88882364Y-20866476D01*
X88931084Y-20977178D01*
X88962099Y-21081070D01*
X88961605Y-21146126D01*
X88958337Y-21150219D01*
X88918221Y-21143261D01*
X88906374Y-21121364D01*
X88848945Y-21073762D01*
X88759117Y-21067697D01*
X88688288Y-21105856D01*
X88685636Y-21109818D01*
X88628072Y-21154212D01*
X88615532Y-21156000D01*
X88606933Y-21118572D01*
X88632336Y-21023599D01*
X88656153Y-20962489D01*
X88676037Y-20922366D01*
X88754909Y-20922366D01*
X88788433Y-20969394D01*
X88801091Y-20971273D01*
X88846072Y-20955516D01*
X88847273Y-20950908D01*
X88814911Y-20911479D01*
X88801091Y-20902000D01*
X88758535Y-20905662D01*
X88754909Y-20922366D01*
X88676037Y-20922366D01*
X88715591Y-20842554D01*
X88769849Y-20765306D01*
X88787022Y-20752750D01*
X88829742Y-20780992D01*
X88829742Y-20780992D01*
G37*
X88829742Y-20780992D02*
X88882364Y-20866476D01*
X88931084Y-20977178D01*
X88962099Y-21081070D01*
X88961605Y-21146126D01*
X88958337Y-21150219D01*
X88918221Y-21143261D01*
X88906374Y-21121364D01*
X88848945Y-21073762D01*
X88759117Y-21067697D01*
X88688288Y-21105856D01*
X88685636Y-21109818D01*
X88628072Y-21154212D01*
X88615532Y-21156000D01*
X88606933Y-21118572D01*
X88632336Y-21023599D01*
X88656153Y-20962489D01*
X88676037Y-20922366D01*
X88754909Y-20922366D01*
X88788433Y-20969394D01*
X88801091Y-20971273D01*
X88846072Y-20955516D01*
X88847273Y-20950908D01*
X88814911Y-20911479D01*
X88801091Y-20902000D01*
X88758535Y-20905662D01*
X88754909Y-20922366D01*
X88676037Y-20922366D01*
X88715591Y-20842554D01*
X88769849Y-20765306D01*
X88787022Y-20752750D01*
X88829742Y-20780992D01*
G36*
X89478231Y-20775152D02*
X89450723Y-20851715D01*
X89406492Y-20918016D01*
X89333795Y-21026426D01*
X89317674Y-21083445D01*
X89358830Y-21111228D01*
X89413000Y-21123408D01*
X89447004Y-21137248D01*
X89392827Y-21147102D01*
X89343727Y-21149711D01*
X89232426Y-21147315D01*
X89173405Y-21133493D01*
X89170545Y-21128648D01*
X89196343Y-21077158D01*
X89259095Y-20988786D01*
X89265528Y-20980545D01*
X89360510Y-20859795D01*
X89253982Y-20813999D01*
X89189484Y-20782474D01*
X89199458Y-20765543D01*
X89292371Y-20752100D01*
X89301985Y-20751026D01*
X89431104Y-20745508D01*
X89478231Y-20775152D01*
X89478231Y-20775152D01*
G37*
X89478231Y-20775152D02*
X89450723Y-20851715D01*
X89406492Y-20918016D01*
X89333795Y-21026426D01*
X89317674Y-21083445D01*
X89358830Y-21111228D01*
X89413000Y-21123408D01*
X89447004Y-21137248D01*
X89392827Y-21147102D01*
X89343727Y-21149711D01*
X89232426Y-21147315D01*
X89173405Y-21133493D01*
X89170545Y-21128648D01*
X89196343Y-21077158D01*
X89259095Y-20988786D01*
X89265528Y-20980545D01*
X89360510Y-20859795D01*
X89253982Y-20813999D01*
X89189484Y-20782474D01*
X89199458Y-20765543D01*
X89292371Y-20752100D01*
X89301985Y-20751026D01*
X89431104Y-20745508D01*
X89478231Y-20775152D01*
G36*
X89993200Y-20751963D02*
X90046604Y-20780485D01*
X90048000Y-20786546D01*
X90008478Y-20821262D01*
X89932545Y-20832728D01*
X89838164Y-20849808D01*
X89824400Y-20887610D01*
X89889045Y-20925973D01*
X89944091Y-20938195D01*
X90071091Y-20957434D01*
X89944091Y-20964353D01*
X89842379Y-20991294D01*
X89817542Y-21041845D01*
X89866323Y-21093684D01*
X89967182Y-21122593D01*
X90047597Y-21134310D01*
X90046496Y-21141582D01*
X89959096Y-21147104D01*
X89921000Y-21148609D01*
X89724727Y-21156000D01*
X89724727Y-20948182D01*
X89728178Y-20820489D01*
X89751563Y-20760023D01*
X89814435Y-20741646D01*
X89886363Y-20740364D01*
X89993200Y-20751963D01*
X89993200Y-20751963D01*
G37*
X89993200Y-20751963D02*
X90046604Y-20780485D01*
X90048000Y-20786546D01*
X90008478Y-20821262D01*
X89932545Y-20832728D01*
X89838164Y-20849808D01*
X89824400Y-20887610D01*
X89889045Y-20925973D01*
X89944091Y-20938195D01*
X90071091Y-20957434D01*
X89944091Y-20964353D01*
X89842379Y-20991294D01*
X89817542Y-21041845D01*
X89866323Y-21093684D01*
X89967182Y-21122593D01*
X90047597Y-21134310D01*
X90046496Y-21141582D01*
X89959096Y-21147104D01*
X89921000Y-21148609D01*
X89724727Y-21156000D01*
X89724727Y-20948182D01*
X89728178Y-20820489D01*
X89751563Y-20760023D01*
X89814435Y-20741646D01*
X89886363Y-20740364D01*
X89993200Y-20751963D01*
G36*
X86297550Y-14696280D02*
X86863318Y-14698926D01*
X87142064Y-14700318D01*
X89840182Y-14713637D01*
X90060487Y-14823074D01*
X90219855Y-14923591D01*
X90384932Y-15060154D01*
X90465474Y-15142321D01*
X90540309Y-15229902D01*
X90602708Y-15313642D01*
X90653733Y-15402481D01*
X90694446Y-15505364D01*
X90725908Y-15631232D01*
X90749181Y-15789028D01*
X90765327Y-15987694D01*
X90775407Y-16236174D01*
X90780484Y-16543410D01*
X90781620Y-16918343D01*
X90779875Y-17369918D01*
X90777285Y-17768520D01*
X90773877Y-18241836D01*
X90770528Y-18632038D01*
X90766727Y-18948376D01*
X90761962Y-19200096D01*
X90755719Y-19396449D01*
X90747487Y-19546681D01*
X90736754Y-19660043D01*
X90723006Y-19745780D01*
X90705733Y-19813144D01*
X90684421Y-19871380D01*
X90658558Y-19929739D01*
X90657433Y-19932182D01*
X90494271Y-20212148D01*
X90298741Y-20408119D01*
X90065785Y-20522228D01*
X89790345Y-20556613D01*
X89467363Y-20513407D01*
X89352109Y-20483245D01*
X89000571Y-20334350D01*
X88682831Y-20102600D01*
X88402733Y-19792509D01*
X88164115Y-19408591D01*
X87970818Y-18955361D01*
X87920343Y-18800320D01*
X87903217Y-18743935D01*
X88119597Y-18743935D01*
X88130644Y-18807749D01*
X88175936Y-18933576D01*
X88247624Y-19101218D01*
X88309969Y-19233983D01*
X88524590Y-19613093D01*
X88759869Y-19907158D01*
X89021208Y-20122227D01*
X89182713Y-20211235D01*
X89357948Y-20286556D01*
X89463063Y-20318400D01*
X89494688Y-20307746D01*
X89449455Y-20255573D01*
X89331565Y-20167994D01*
X89172595Y-20052010D01*
X89032380Y-19928908D01*
X88896782Y-19782612D01*
X88751660Y-19597046D01*
X88582872Y-19356135D01*
X88474233Y-19193315D01*
X88349780Y-19010866D01*
X88243271Y-18866396D01*
X88164425Y-18772222D01*
X88122963Y-18740660D01*
X88119597Y-18743935D01*
X87903217Y-18743935D01*
X87823201Y-18480500D01*
X87407710Y-18759875D01*
X87237066Y-18870736D01*
X87095199Y-18955619D01*
X86998779Y-19005008D01*
X86965322Y-19012353D01*
X86955765Y-18972874D01*
X86957666Y-18971198D01*
X87000612Y-18939725D01*
X87101961Y-18865570D01*
X87245552Y-18760556D01*
X87379963Y-18662282D01*
X87541991Y-18541859D01*
X87670376Y-18442666D01*
X87750464Y-18376273D01*
X87769803Y-18354409D01*
X87721404Y-18339029D01*
X87607045Y-18311310D01*
X87451300Y-18277202D01*
X87448430Y-18276600D01*
X87139920Y-18179241D01*
X86822743Y-18020128D01*
X86814641Y-18015255D01*
X86663103Y-17926979D01*
X86544325Y-17863957D01*
X86477879Y-17836349D01*
X86470781Y-17836734D01*
X86450124Y-17885666D01*
X86408627Y-18003565D01*
X86352887Y-18171206D01*
X86306247Y-18316300D01*
X86120602Y-18836401D01*
X85917674Y-19275491D01*
X85691741Y-19644191D01*
X85437079Y-19953129D01*
X85409202Y-19981763D01*
X85151529Y-20213913D01*
X84899677Y-20373643D01*
X84625943Y-20474596D01*
X84302620Y-20530415D01*
X84293121Y-20531406D01*
X84120862Y-20542062D01*
X83996593Y-20525866D01*
X83878023Y-20475481D01*
X83836545Y-20452199D01*
X83713596Y-20361296D01*
X83694021Y-20337586D01*
X84390727Y-20337586D01*
X84529273Y-20304863D01*
X84657079Y-20263580D01*
X84813166Y-20198850D01*
X84868935Y-20172374D01*
X85120018Y-20002898D01*
X85365659Y-19750414D01*
X85599524Y-19424273D01*
X85815276Y-19033828D01*
X86006581Y-18588429D01*
X86077972Y-18387649D01*
X86152692Y-18158608D01*
X86195196Y-18007986D01*
X86205366Y-17927591D01*
X86183082Y-17909235D01*
X86128224Y-17944727D01*
X86072243Y-17995451D01*
X85916454Y-18174146D01*
X85774476Y-18405668D01*
X85637534Y-18705566D01*
X85565583Y-18893199D01*
X85484060Y-19095786D01*
X85393003Y-19290189D01*
X85309498Y-19440518D01*
X85293786Y-19464184D01*
X85169915Y-19619051D01*
X84997950Y-19804542D01*
X84803219Y-19995243D01*
X84611050Y-20165737D01*
X84529273Y-20231313D01*
X84390727Y-20337586D01*
X83694021Y-20337586D01*
X83606854Y-20232006D01*
X83496206Y-20039687D01*
X83490182Y-20027919D01*
X83328545Y-19710809D01*
X83315070Y-17770422D01*
X83311749Y-17251115D01*
X83310463Y-16815272D01*
X83312470Y-16453998D01*
X83319030Y-16158397D01*
X83331402Y-15919574D01*
X83346837Y-15768004D01*
X83486451Y-15768004D01*
X83499862Y-17711548D01*
X83513273Y-19655091D01*
X83651818Y-19932182D01*
X83746996Y-20095238D01*
X83846254Y-20221428D01*
X83911299Y-20275381D01*
X83976763Y-20305209D01*
X84037391Y-20307329D01*
X84115222Y-20274072D01*
X84232295Y-20197764D01*
X84326935Y-20130706D01*
X84736476Y-19796388D01*
X85055495Y-19444036D01*
X85283960Y-19073690D01*
X85383733Y-18823818D01*
X85496758Y-18532173D01*
X85640601Y-18257085D01*
X85803099Y-18016180D01*
X85972089Y-17827087D01*
X86135408Y-17707430D01*
X86162743Y-17694842D01*
X86233134Y-17656097D01*
X86282629Y-17595197D01*
X86294003Y-17565364D01*
X86508446Y-17565364D01*
X86516452Y-17633812D01*
X86551001Y-17646182D01*
X86619170Y-17670142D01*
X86739443Y-17733448D01*
X86887731Y-17823238D01*
X86912022Y-17838926D01*
X87168363Y-17985457D01*
X87401280Y-18069617D01*
X87635880Y-18102689D01*
X87712083Y-18090829D01*
X87721676Y-18026813D01*
X87717080Y-18004091D01*
X87702541Y-17922939D01*
X87678355Y-17769326D01*
X87647405Y-17562302D01*
X87612572Y-17320915D01*
X87596580Y-17207455D01*
X87561958Y-16965858D01*
X87530728Y-16758847D01*
X87505464Y-16602650D01*
X87488734Y-16513490D01*
X87484322Y-16499064D01*
X87430059Y-16496598D01*
X87313624Y-16514433D01*
X87161298Y-16546264D01*
X86999358Y-16585789D01*
X86854083Y-16626706D01*
X86751751Y-16662712D01*
X86719051Y-16682607D01*
X86695589Y-16749088D01*
X86660807Y-16881184D01*
X86621139Y-17053867D01*
X86609452Y-17108868D01*
X86570238Y-17293678D01*
X86535776Y-17450325D01*
X86512146Y-17551319D01*
X86508446Y-17565364D01*
X86294003Y-17565364D01*
X86322773Y-17489907D01*
X86365111Y-17317995D01*
X86370063Y-17295588D01*
X86413020Y-17078304D01*
X86439154Y-16899621D01*
X86446739Y-16775848D01*
X86434043Y-16723296D01*
X86430816Y-16722546D01*
X86340419Y-16742703D01*
X86182434Y-16798721D01*
X85971259Y-16883914D01*
X85721287Y-16991598D01*
X85446914Y-17115090D01*
X85162536Y-17247705D01*
X84882548Y-17382760D01*
X84621346Y-17513569D01*
X84393324Y-17633450D01*
X84212878Y-17735719D01*
X84118026Y-17796419D01*
X84031624Y-17854290D01*
X84009911Y-17858266D01*
X84043728Y-17809928D01*
X84044363Y-17809125D01*
X84144933Y-17713932D01*
X84314335Y-17588460D01*
X84537591Y-17441248D01*
X84799723Y-17280832D01*
X85085751Y-17115752D01*
X85380696Y-16954545D01*
X85669582Y-16805749D01*
X85937428Y-16677902D01*
X86169256Y-16579542D01*
X86258897Y-16546815D01*
X86502170Y-16464124D01*
X86511806Y-16432305D01*
X87699752Y-16432305D01*
X87722238Y-16635153D01*
X87743550Y-16811309D01*
X87772413Y-17027763D01*
X87806088Y-17266397D01*
X87841836Y-17509091D01*
X87876921Y-17737726D01*
X87908602Y-17934186D01*
X87934142Y-18080350D01*
X87950802Y-18158101D01*
X87953470Y-18165092D01*
X87984120Y-18174433D01*
X88048066Y-18145182D01*
X88152952Y-18071759D01*
X88306422Y-17948588D01*
X88516119Y-17770089D01*
X88627564Y-17673111D01*
X88891237Y-17429274D01*
X89087368Y-17218696D01*
X89212237Y-17045901D01*
X89262121Y-16915415D01*
X89262909Y-16900658D01*
X89223565Y-16809948D01*
X89121893Y-16707455D01*
X88982427Y-16612785D01*
X88829704Y-16545546D01*
X88812036Y-16540358D01*
X88691636Y-16516953D01*
X88508873Y-16492912D01*
X88293650Y-16471855D01*
X88170437Y-16462736D01*
X87699752Y-16432305D01*
X86511806Y-16432305D01*
X86545370Y-16321474D01*
X86779252Y-16321474D01*
X86805503Y-16345723D01*
X86880027Y-16346056D01*
X87018474Y-16323512D01*
X87152522Y-16296593D01*
X87426058Y-16240095D01*
X87399396Y-16014973D01*
X87360936Y-15821301D01*
X87298887Y-15645947D01*
X87223920Y-15512034D01*
X87146702Y-15442687D01*
X87133597Y-15438884D01*
X87073407Y-15470975D01*
X87002718Y-15572504D01*
X86931754Y-15722899D01*
X86870737Y-15901589D01*
X86839937Y-16029818D01*
X86811917Y-16163448D01*
X86786868Y-16267777D01*
X86785622Y-16272273D01*
X86779252Y-16321474D01*
X86545370Y-16321474D01*
X86655152Y-15958965D01*
X86732816Y-15716448D01*
X86799385Y-15545267D01*
X86863674Y-15426566D01*
X86934500Y-15341489D01*
X86950977Y-15326176D01*
X87067432Y-15232933D01*
X87152879Y-15207949D01*
X87238819Y-15251485D01*
X87322533Y-15329247D01*
X87396266Y-15435139D01*
X87477443Y-15599972D01*
X87553971Y-15792412D01*
X87613753Y-15981128D01*
X87644694Y-16134788D01*
X87646545Y-16168574D01*
X87668811Y-16198946D01*
X87745633Y-16211174D01*
X87892050Y-16206659D01*
X87981363Y-16199818D01*
X88219544Y-16190622D01*
X88485508Y-16197875D01*
X88754620Y-16219092D01*
X89002242Y-16251784D01*
X89203736Y-16293464D01*
X89322592Y-16335228D01*
X89521008Y-16459482D01*
X89640230Y-16595578D01*
X89679666Y-16749007D01*
X89638722Y-16925256D01*
X89516805Y-17129817D01*
X89313322Y-17368178D01*
X89198443Y-17484546D01*
X89040575Y-17625363D01*
X88828732Y-17795297D01*
X88587991Y-17975706D01*
X88343435Y-18147946D01*
X88120142Y-18293374D01*
X88067830Y-18324987D01*
X88087444Y-18361430D01*
X88155445Y-18447674D01*
X88257536Y-18565684D01*
X88266770Y-18575981D01*
X88402241Y-18741769D01*
X88549361Y-18945018D01*
X88676226Y-19141641D01*
X88974759Y-19563973D01*
X89326302Y-19912718D01*
X89676647Y-20158916D01*
X89859973Y-20263714D01*
X89988886Y-20317362D01*
X90086826Y-20318411D01*
X90177232Y-20265410D01*
X90283544Y-20156910D01*
X90316775Y-20119325D01*
X90384071Y-20038283D01*
X90439902Y-19956223D01*
X90485332Y-19863998D01*
X90521426Y-19752466D01*
X90549251Y-19612480D01*
X90569871Y-19434896D01*
X90584351Y-19210570D01*
X90593757Y-18930357D01*
X90599154Y-18585113D01*
X90601607Y-18165692D01*
X90602182Y-17669273D01*
X90601598Y-17168857D01*
X90599174Y-16751756D01*
X90593899Y-16408928D01*
X90584763Y-16131327D01*
X90570754Y-15909911D01*
X90550862Y-15735635D01*
X90524077Y-15599455D01*
X90489388Y-15492327D01*
X90445784Y-15405207D01*
X90392256Y-15329052D01*
X90333026Y-15260517D01*
X90206040Y-15146452D01*
X90048847Y-15036455D01*
X89996753Y-15006517D01*
X89794000Y-14898364D01*
X84298363Y-14898364D01*
X84044363Y-15041822D01*
X83891531Y-15139082D01*
X83782178Y-15243872D01*
X83686067Y-15388581D01*
X83638407Y-15476642D01*
X83486451Y-15768004D01*
X83346837Y-15768004D01*
X83350847Y-15728632D01*
X83378624Y-15576675D01*
X83415993Y-15454809D01*
X83464213Y-15354137D01*
X83524544Y-15265763D01*
X83598245Y-15180791D01*
X83686578Y-15090327D01*
X83695904Y-15080996D01*
X83774308Y-15002594D01*
X83845966Y-14935313D01*
X83918252Y-14878339D01*
X83998537Y-14830856D01*
X84094195Y-14792051D01*
X84212597Y-14761110D01*
X84361117Y-14737217D01*
X84547126Y-14719559D01*
X84777997Y-14707320D01*
X85061102Y-14699688D01*
X85403815Y-14695846D01*
X85813507Y-14694982D01*
X86297550Y-14696280D01*
X86297550Y-14696280D01*
G37*
X86297550Y-14696280D02*
X86863318Y-14698926D01*
X87142064Y-14700318D01*
X89840182Y-14713637D01*
X90060487Y-14823074D01*
X90219855Y-14923591D01*
X90384932Y-15060154D01*
X90465474Y-15142321D01*
X90540309Y-15229902D01*
X90602708Y-15313642D01*
X90653733Y-15402481D01*
X90694446Y-15505364D01*
X90725908Y-15631232D01*
X90749181Y-15789028D01*
X90765327Y-15987694D01*
X90775407Y-16236174D01*
X90780484Y-16543410D01*
X90781620Y-16918343D01*
X90779875Y-17369918D01*
X90777285Y-17768520D01*
X90773877Y-18241836D01*
X90770528Y-18632038D01*
X90766727Y-18948376D01*
X90761962Y-19200096D01*
X90755719Y-19396449D01*
X90747487Y-19546681D01*
X90736754Y-19660043D01*
X90723006Y-19745780D01*
X90705733Y-19813144D01*
X90684421Y-19871380D01*
X90658558Y-19929739D01*
X90657433Y-19932182D01*
X90494271Y-20212148D01*
X90298741Y-20408119D01*
X90065785Y-20522228D01*
X89790345Y-20556613D01*
X89467363Y-20513407D01*
X89352109Y-20483245D01*
X89000571Y-20334350D01*
X88682831Y-20102600D01*
X88402733Y-19792509D01*
X88164115Y-19408591D01*
X87970818Y-18955361D01*
X87920343Y-18800320D01*
X87903217Y-18743935D01*
X88119597Y-18743935D01*
X88130644Y-18807749D01*
X88175936Y-18933576D01*
X88247624Y-19101218D01*
X88309969Y-19233983D01*
X88524590Y-19613093D01*
X88759869Y-19907158D01*
X89021208Y-20122227D01*
X89182713Y-20211235D01*
X89357948Y-20286556D01*
X89463063Y-20318400D01*
X89494688Y-20307746D01*
X89449455Y-20255573D01*
X89331565Y-20167994D01*
X89172595Y-20052010D01*
X89032380Y-19928908D01*
X88896782Y-19782612D01*
X88751660Y-19597046D01*
X88582872Y-19356135D01*
X88474233Y-19193315D01*
X88349780Y-19010866D01*
X88243271Y-18866396D01*
X88164425Y-18772222D01*
X88122963Y-18740660D01*
X88119597Y-18743935D01*
X87903217Y-18743935D01*
X87823201Y-18480500D01*
X87407710Y-18759875D01*
X87237066Y-18870736D01*
X87095199Y-18955619D01*
X86998779Y-19005008D01*
X86965322Y-19012353D01*
X86955765Y-18972874D01*
X86957666Y-18971198D01*
X87000612Y-18939725D01*
X87101961Y-18865570D01*
X87245552Y-18760556D01*
X87379963Y-18662282D01*
X87541991Y-18541859D01*
X87670376Y-18442666D01*
X87750464Y-18376273D01*
X87769803Y-18354409D01*
X87721404Y-18339029D01*
X87607045Y-18311310D01*
X87451300Y-18277202D01*
X87448430Y-18276600D01*
X87139920Y-18179241D01*
X86822743Y-18020128D01*
X86814641Y-18015255D01*
X86663103Y-17926979D01*
X86544325Y-17863957D01*
X86477879Y-17836349D01*
X86470781Y-17836734D01*
X86450124Y-17885666D01*
X86408627Y-18003565D01*
X86352887Y-18171206D01*
X86306247Y-18316300D01*
X86120602Y-18836401D01*
X85917674Y-19275491D01*
X85691741Y-19644191D01*
X85437079Y-19953129D01*
X85409202Y-19981763D01*
X85151529Y-20213913D01*
X84899677Y-20373643D01*
X84625943Y-20474596D01*
X84302620Y-20530415D01*
X84293121Y-20531406D01*
X84120862Y-20542062D01*
X83996593Y-20525866D01*
X83878023Y-20475481D01*
X83836545Y-20452199D01*
X83713596Y-20361296D01*
X83694021Y-20337586D01*
X84390727Y-20337586D01*
X84529273Y-20304863D01*
X84657079Y-20263580D01*
X84813166Y-20198850D01*
X84868935Y-20172374D01*
X85120018Y-20002898D01*
X85365659Y-19750414D01*
X85599524Y-19424273D01*
X85815276Y-19033828D01*
X86006581Y-18588429D01*
X86077972Y-18387649D01*
X86152692Y-18158608D01*
X86195196Y-18007986D01*
X86205366Y-17927591D01*
X86183082Y-17909235D01*
X86128224Y-17944727D01*
X86072243Y-17995451D01*
X85916454Y-18174146D01*
X85774476Y-18405668D01*
X85637534Y-18705566D01*
X85565583Y-18893199D01*
X85484060Y-19095786D01*
X85393003Y-19290189D01*
X85309498Y-19440518D01*
X85293786Y-19464184D01*
X85169915Y-19619051D01*
X84997950Y-19804542D01*
X84803219Y-19995243D01*
X84611050Y-20165737D01*
X84529273Y-20231313D01*
X84390727Y-20337586D01*
X83694021Y-20337586D01*
X83606854Y-20232006D01*
X83496206Y-20039687D01*
X83490182Y-20027919D01*
X83328545Y-19710809D01*
X83315070Y-17770422D01*
X83311749Y-17251115D01*
X83310463Y-16815272D01*
X83312470Y-16453998D01*
X83319030Y-16158397D01*
X83331402Y-15919574D01*
X83346837Y-15768004D01*
X83486451Y-15768004D01*
X83499862Y-17711548D01*
X83513273Y-19655091D01*
X83651818Y-19932182D01*
X83746996Y-20095238D01*
X83846254Y-20221428D01*
X83911299Y-20275381D01*
X83976763Y-20305209D01*
X84037391Y-20307329D01*
X84115222Y-20274072D01*
X84232295Y-20197764D01*
X84326935Y-20130706D01*
X84736476Y-19796388D01*
X85055495Y-19444036D01*
X85283960Y-19073690D01*
X85383733Y-18823818D01*
X85496758Y-18532173D01*
X85640601Y-18257085D01*
X85803099Y-18016180D01*
X85972089Y-17827087D01*
X86135408Y-17707430D01*
X86162743Y-17694842D01*
X86233134Y-17656097D01*
X86282629Y-17595197D01*
X86294003Y-17565364D01*
X86508446Y-17565364D01*
X86516452Y-17633812D01*
X86551001Y-17646182D01*
X86619170Y-17670142D01*
X86739443Y-17733448D01*
X86887731Y-17823238D01*
X86912022Y-17838926D01*
X87168363Y-17985457D01*
X87401280Y-18069617D01*
X87635880Y-18102689D01*
X87712083Y-18090829D01*
X87721676Y-18026813D01*
X87717080Y-18004091D01*
X87702541Y-17922939D01*
X87678355Y-17769326D01*
X87647405Y-17562302D01*
X87612572Y-17320915D01*
X87596580Y-17207455D01*
X87561958Y-16965858D01*
X87530728Y-16758847D01*
X87505464Y-16602650D01*
X87488734Y-16513490D01*
X87484322Y-16499064D01*
X87430059Y-16496598D01*
X87313624Y-16514433D01*
X87161298Y-16546264D01*
X86999358Y-16585789D01*
X86854083Y-16626706D01*
X86751751Y-16662712D01*
X86719051Y-16682607D01*
X86695589Y-16749088D01*
X86660807Y-16881184D01*
X86621139Y-17053867D01*
X86609452Y-17108868D01*
X86570238Y-17293678D01*
X86535776Y-17450325D01*
X86512146Y-17551319D01*
X86508446Y-17565364D01*
X86294003Y-17565364D01*
X86322773Y-17489907D01*
X86365111Y-17317995D01*
X86370063Y-17295588D01*
X86413020Y-17078304D01*
X86439154Y-16899621D01*
X86446739Y-16775848D01*
X86434043Y-16723296D01*
X86430816Y-16722546D01*
X86340419Y-16742703D01*
X86182434Y-16798721D01*
X85971259Y-16883914D01*
X85721287Y-16991598D01*
X85446914Y-17115090D01*
X85162536Y-17247705D01*
X84882548Y-17382760D01*
X84621346Y-17513569D01*
X84393324Y-17633450D01*
X84212878Y-17735719D01*
X84118026Y-17796419D01*
X84031624Y-17854290D01*
X84009911Y-17858266D01*
X84043728Y-17809928D01*
X84044363Y-17809125D01*
X84144933Y-17713932D01*
X84314335Y-17588460D01*
X84537591Y-17441248D01*
X84799723Y-17280832D01*
X85085751Y-17115752D01*
X85380696Y-16954545D01*
X85669582Y-16805749D01*
X85937428Y-16677902D01*
X86169256Y-16579542D01*
X86258897Y-16546815D01*
X86502170Y-16464124D01*
X86511806Y-16432305D01*
X87699752Y-16432305D01*
X87722238Y-16635153D01*
X87743550Y-16811309D01*
X87772413Y-17027763D01*
X87806088Y-17266397D01*
X87841836Y-17509091D01*
X87876921Y-17737726D01*
X87908602Y-17934186D01*
X87934142Y-18080350D01*
X87950802Y-18158101D01*
X87953470Y-18165092D01*
X87984120Y-18174433D01*
X88048066Y-18145182D01*
X88152952Y-18071759D01*
X88306422Y-17948588D01*
X88516119Y-17770089D01*
X88627564Y-17673111D01*
X88891237Y-17429274D01*
X89087368Y-17218696D01*
X89212237Y-17045901D01*
X89262121Y-16915415D01*
X89262909Y-16900658D01*
X89223565Y-16809948D01*
X89121893Y-16707455D01*
X88982427Y-16612785D01*
X88829704Y-16545546D01*
X88812036Y-16540358D01*
X88691636Y-16516953D01*
X88508873Y-16492912D01*
X88293650Y-16471855D01*
X88170437Y-16462736D01*
X87699752Y-16432305D01*
X86511806Y-16432305D01*
X86545370Y-16321474D01*
X86779252Y-16321474D01*
X86805503Y-16345723D01*
X86880027Y-16346056D01*
X87018474Y-16323512D01*
X87152522Y-16296593D01*
X87426058Y-16240095D01*
X87399396Y-16014973D01*
X87360936Y-15821301D01*
X87298887Y-15645947D01*
X87223920Y-15512034D01*
X87146702Y-15442687D01*
X87133597Y-15438884D01*
X87073407Y-15470975D01*
X87002718Y-15572504D01*
X86931754Y-15722899D01*
X86870737Y-15901589D01*
X86839937Y-16029818D01*
X86811917Y-16163448D01*
X86786868Y-16267777D01*
X86785622Y-16272273D01*
X86779252Y-16321474D01*
X86545370Y-16321474D01*
X86655152Y-15958965D01*
X86732816Y-15716448D01*
X86799385Y-15545267D01*
X86863674Y-15426566D01*
X86934500Y-15341489D01*
X86950977Y-15326176D01*
X87067432Y-15232933D01*
X87152879Y-15207949D01*
X87238819Y-15251485D01*
X87322533Y-15329247D01*
X87396266Y-15435139D01*
X87477443Y-15599972D01*
X87553971Y-15792412D01*
X87613753Y-15981128D01*
X87644694Y-16134788D01*
X87646545Y-16168574D01*
X87668811Y-16198946D01*
X87745633Y-16211174D01*
X87892050Y-16206659D01*
X87981363Y-16199818D01*
X88219544Y-16190622D01*
X88485508Y-16197875D01*
X88754620Y-16219092D01*
X89002242Y-16251784D01*
X89203736Y-16293464D01*
X89322592Y-16335228D01*
X89521008Y-16459482D01*
X89640230Y-16595578D01*
X89679666Y-16749007D01*
X89638722Y-16925256D01*
X89516805Y-17129817D01*
X89313322Y-17368178D01*
X89198443Y-17484546D01*
X89040575Y-17625363D01*
X88828732Y-17795297D01*
X88587991Y-17975706D01*
X88343435Y-18147946D01*
X88120142Y-18293374D01*
X88067830Y-18324987D01*
X88087444Y-18361430D01*
X88155445Y-18447674D01*
X88257536Y-18565684D01*
X88266770Y-18575981D01*
X88402241Y-18741769D01*
X88549361Y-18945018D01*
X88676226Y-19141641D01*
X88974759Y-19563973D01*
X89326302Y-19912718D01*
X89676647Y-20158916D01*
X89859973Y-20263714D01*
X89988886Y-20317362D01*
X90086826Y-20318411D01*
X90177232Y-20265410D01*
X90283544Y-20156910D01*
X90316775Y-20119325D01*
X90384071Y-20038283D01*
X90439902Y-19956223D01*
X90485332Y-19863998D01*
X90521426Y-19752466D01*
X90549251Y-19612480D01*
X90569871Y-19434896D01*
X90584351Y-19210570D01*
X90593757Y-18930357D01*
X90599154Y-18585113D01*
X90601607Y-18165692D01*
X90602182Y-17669273D01*
X90601598Y-17168857D01*
X90599174Y-16751756D01*
X90593899Y-16408928D01*
X90584763Y-16131327D01*
X90570754Y-15909911D01*
X90550862Y-15735635D01*
X90524077Y-15599455D01*
X90489388Y-15492327D01*
X90445784Y-15405207D01*
X90392256Y-15329052D01*
X90333026Y-15260517D01*
X90206040Y-15146452D01*
X90048847Y-15036455D01*
X89996753Y-15006517D01*
X89794000Y-14898364D01*
X84298363Y-14898364D01*
X84044363Y-15041822D01*
X83891531Y-15139082D01*
X83782178Y-15243872D01*
X83686067Y-15388581D01*
X83638407Y-15476642D01*
X83486451Y-15768004D01*
X83346837Y-15768004D01*
X83350847Y-15728632D01*
X83378624Y-15576675D01*
X83415993Y-15454809D01*
X83464213Y-15354137D01*
X83524544Y-15265763D01*
X83598245Y-15180791D01*
X83686578Y-15090327D01*
X83695904Y-15080996D01*
X83774308Y-15002594D01*
X83845966Y-14935313D01*
X83918252Y-14878339D01*
X83998537Y-14830856D01*
X84094195Y-14792051D01*
X84212597Y-14761110D01*
X84361117Y-14737217D01*
X84547126Y-14719559D01*
X84777997Y-14707320D01*
X85061102Y-14699688D01*
X85403815Y-14695846D01*
X85813507Y-14694982D01*
X86297550Y-14696280D01*
G36*
X87478631Y-19026484D02*
X87528472Y-19088094D01*
X87589431Y-19246351D01*
X87589497Y-19433528D01*
X87541955Y-19582171D01*
X87483944Y-19664524D01*
X87421019Y-19715136D01*
X87377616Y-19718088D01*
X87370923Y-19693576D01*
X87397365Y-19630198D01*
X87440196Y-19565446D01*
X87502336Y-19410036D01*
X87481070Y-19225191D01*
X87437541Y-19121707D01*
X87401394Y-19021417D01*
X87419857Y-18987914D01*
X87478631Y-19026484D01*
X87478631Y-19026484D01*
G37*
X87478631Y-19026484D02*
X87528472Y-19088094D01*
X87589431Y-19246351D01*
X87589497Y-19433528D01*
X87541955Y-19582171D01*
X87483944Y-19664524D01*
X87421019Y-19715136D01*
X87377616Y-19718088D01*
X87370923Y-19693576D01*
X87397365Y-19630198D01*
X87440196Y-19565446D01*
X87502336Y-19410036D01*
X87481070Y-19225191D01*
X87437541Y-19121707D01*
X87401394Y-19021417D01*
X87419857Y-18987914D01*
X87478631Y-19026484D01*
G36*
X86636941Y-19117542D02*
X86729259Y-19213629D01*
X86786123Y-19331452D01*
X86788327Y-19419893D01*
X86710525Y-19555593D01*
X86592567Y-19620948D01*
X86458059Y-19609461D01*
X86353454Y-19539637D01*
X86284263Y-19439102D01*
X86262453Y-19359855D01*
X86394703Y-19359855D01*
X86432901Y-19458527D01*
X86506205Y-19525813D01*
X86540491Y-19535991D01*
X86590691Y-19511043D01*
X86621309Y-19484218D01*
X86669850Y-19386162D01*
X86651816Y-19286196D01*
X86584093Y-19213246D01*
X86483566Y-19196240D01*
X86457363Y-19203362D01*
X86400045Y-19263550D01*
X86394703Y-19359855D01*
X86262453Y-19359855D01*
X86261091Y-19354909D01*
X86299560Y-19241161D01*
X86392242Y-19138364D01*
X86505044Y-19081028D01*
X86534830Y-19077818D01*
X86636941Y-19117542D01*
X86636941Y-19117542D01*
G37*
X86636941Y-19117542D02*
X86729259Y-19213629D01*
X86786123Y-19331452D01*
X86788327Y-19419893D01*
X86710525Y-19555593D01*
X86592567Y-19620948D01*
X86458059Y-19609461D01*
X86353454Y-19539637D01*
X86284263Y-19439102D01*
X86262453Y-19359855D01*
X86394703Y-19359855D01*
X86432901Y-19458527D01*
X86506205Y-19525813D01*
X86540491Y-19535991D01*
X86590691Y-19511043D01*
X86621309Y-19484218D01*
X86669850Y-19386162D01*
X86651816Y-19286196D01*
X86584093Y-19213246D01*
X86483566Y-19196240D01*
X86457363Y-19203362D01*
X86400045Y-19263550D01*
X86394703Y-19359855D01*
X86262453Y-19359855D01*
X86261091Y-19354909D01*
X86299560Y-19241161D01*
X86392242Y-19138364D01*
X86505044Y-19081028D01*
X86534830Y-19077818D01*
X86636941Y-19117542D01*
G36*
X87274962Y-19075390D02*
X87299190Y-19104281D01*
X87357061Y-19245528D01*
X87361143Y-19414974D01*
X87321648Y-19542673D01*
X87264753Y-19613069D01*
X87214598Y-19630087D01*
X87197142Y-19591768D01*
X87208816Y-19551182D01*
X87264131Y-19357228D01*
X87246440Y-19203668D01*
X87231562Y-19171402D01*
X87198540Y-19076710D01*
X87217660Y-19040088D01*
X87274962Y-19075390D01*
X87274962Y-19075390D01*
G37*
X87274962Y-19075390D02*
X87299190Y-19104281D01*
X87357061Y-19245528D01*
X87361143Y-19414974D01*
X87321648Y-19542673D01*
X87264753Y-19613069D01*
X87214598Y-19630087D01*
X87197142Y-19591768D01*
X87208816Y-19551182D01*
X87264131Y-19357228D01*
X87246440Y-19203668D01*
X87231562Y-19171402D01*
X87198540Y-19076710D01*
X87217660Y-19040088D01*
X87274962Y-19075390D01*
G36*
X87075248Y-19201282D02*
X87102496Y-19291182D01*
X87097992Y-19400683D01*
X87087844Y-19435728D01*
X87044632Y-19519327D01*
X87008030Y-19540265D01*
X86996151Y-19516546D01*
X86987150Y-19401762D01*
X86991809Y-19282180D01*
X87007271Y-19192854D01*
X87024653Y-19166757D01*
X87075248Y-19201282D01*
X87075248Y-19201282D01*
G37*
X87075248Y-19201282D02*
X87102496Y-19291182D01*
X87097992Y-19400683D01*
X87087844Y-19435728D01*
X87044632Y-19519327D01*
X87008030Y-19540265D01*
X86996151Y-19516546D01*
X86987150Y-19401762D01*
X86991809Y-19282180D01*
X87007271Y-19192854D01*
X87024653Y-19166757D01*
X87075248Y-19201282D01*
G36*
X91372174Y-18915794D02*
X91320719Y-18958594D01*
X91258802Y-19016330D01*
X91269041Y-19056642D01*
X91320646Y-19097133D01*
X91380622Y-19155076D01*
X91387127Y-19185721D01*
X91337295Y-19179902D01*
X91274464Y-19143315D01*
X91168863Y-19090794D01*
X91101355Y-19077818D01*
X91028122Y-19058752D01*
X91030189Y-19017591D01*
X91102849Y-18978391D01*
X91121727Y-18973686D01*
X91250773Y-18939888D01*
X91318000Y-18918351D01*
X91381677Y-18897942D01*
X91372174Y-18915794D01*
X91372174Y-18915794D01*
G37*
X91372174Y-18915794D02*
X91320719Y-18958594D01*
X91258802Y-19016330D01*
X91269041Y-19056642D01*
X91320646Y-19097133D01*
X91380622Y-19155076D01*
X91387127Y-19185721D01*
X91337295Y-19179902D01*
X91274464Y-19143315D01*
X91168863Y-19090794D01*
X91101355Y-19077818D01*
X91028122Y-19058752D01*
X91030189Y-19017591D01*
X91102849Y-18978391D01*
X91121727Y-18973686D01*
X91250773Y-18939888D01*
X91318000Y-18918351D01*
X91381677Y-18897942D01*
X91372174Y-18915794D01*
G36*
X82961964Y-18780307D02*
X83069515Y-18847286D01*
X83100608Y-18948355D01*
X83072755Y-19034982D01*
X82991296Y-19105355D01*
X82865102Y-19124000D01*
X82758913Y-19112292D01*
X82706320Y-19083537D01*
X82705091Y-19077818D01*
X82745748Y-19047546D01*
X82845977Y-19032133D01*
X82870113Y-19031637D01*
X82980766Y-19022614D01*
X83020902Y-18988086D01*
X83019826Y-18950818D01*
X82961667Y-18882055D01*
X82854803Y-18855529D01*
X82754814Y-18831768D01*
X82706143Y-18795642D01*
X82720774Y-18764608D01*
X82785909Y-18755176D01*
X82961964Y-18780307D01*
X82961964Y-18780307D01*
G37*
X82961964Y-18780307D02*
X83069515Y-18847286D01*
X83100608Y-18948355D01*
X83072755Y-19034982D01*
X82991296Y-19105355D01*
X82865102Y-19124000D01*
X82758913Y-19112292D01*
X82706320Y-19083537D01*
X82705091Y-19077818D01*
X82745748Y-19047546D01*
X82845977Y-19032133D01*
X82870113Y-19031637D01*
X82980766Y-19022614D01*
X83020902Y-18988086D01*
X83019826Y-18950818D01*
X82961667Y-18882055D01*
X82854803Y-18855529D01*
X82754814Y-18831768D01*
X82706143Y-18795642D01*
X82720774Y-18764608D01*
X82785909Y-18755176D01*
X82961964Y-18780307D01*
G36*
X82658909Y-18916182D02*
X82635818Y-18939273D01*
X82612727Y-18916182D01*
X82635818Y-18893091D01*
X82658909Y-18916182D01*
X82658909Y-18916182D01*
G37*
X82658909Y-18916182D02*
X82635818Y-18939273D01*
X82612727Y-18916182D01*
X82635818Y-18893091D01*
X82658909Y-18916182D01*
G36*
X91293504Y-18445946D02*
X91342470Y-18454726D01*
X91329545Y-18463107D01*
X91256675Y-18505614D01*
X91273101Y-18571592D01*
X91318000Y-18616000D01*
X91376254Y-18686307D01*
X91387273Y-18721176D01*
X91359206Y-18729930D01*
X91294909Y-18685273D01*
X91221283Y-18629739D01*
X91165519Y-18639073D01*
X91118091Y-18678115D01*
X91030241Y-18743772D01*
X90992179Y-18747549D01*
X91015597Y-18695178D01*
X91055950Y-18647660D01*
X91135703Y-18552703D01*
X91145273Y-18499832D01*
X91084312Y-18470684D01*
X91052454Y-18463865D01*
X91033518Y-18452748D01*
X91093756Y-18445083D01*
X91179454Y-18442919D01*
X91293504Y-18445946D01*
X91293504Y-18445946D01*
G37*
X91293504Y-18445946D02*
X91342470Y-18454726D01*
X91329545Y-18463107D01*
X91256675Y-18505614D01*
X91273101Y-18571592D01*
X91318000Y-18616000D01*
X91376254Y-18686307D01*
X91387273Y-18721176D01*
X91359206Y-18729930D01*
X91294909Y-18685273D01*
X91221283Y-18629739D01*
X91165519Y-18639073D01*
X91118091Y-18678115D01*
X91030241Y-18743772D01*
X90992179Y-18747549D01*
X91015597Y-18695178D01*
X91055950Y-18647660D01*
X91135703Y-18552703D01*
X91145273Y-18499832D01*
X91084312Y-18470684D01*
X91052454Y-18463865D01*
X91033518Y-18452748D01*
X91093756Y-18445083D01*
X91179454Y-18442919D01*
X91293504Y-18445946D01*
G36*
X83075656Y-18381201D02*
X83093742Y-18414688D01*
X83105414Y-18511959D01*
X83082966Y-18607461D01*
X83037517Y-18660322D01*
X83026406Y-18662182D01*
X83005682Y-18622862D01*
X83010473Y-18526731D01*
X83013061Y-18512091D01*
X83022025Y-18415816D01*
X82998752Y-18403765D01*
X82947167Y-18475174D01*
X82917575Y-18530717D01*
X82844506Y-18628462D01*
X82769462Y-18651593D01*
X82736841Y-18632356D01*
X82708245Y-18555682D01*
X82710951Y-18451064D01*
X82741826Y-18370742D01*
X82753124Y-18360856D01*
X82781495Y-18371512D01*
X82771208Y-18450494D01*
X82764003Y-18543437D01*
X82791568Y-18569818D01*
X82839126Y-18530579D01*
X82870854Y-18454364D01*
X82924286Y-18366087D01*
X83003607Y-18339732D01*
X83075656Y-18381201D01*
X83075656Y-18381201D01*
G37*
X83075656Y-18381201D02*
X83093742Y-18414688D01*
X83105414Y-18511959D01*
X83082966Y-18607461D01*
X83037517Y-18660322D01*
X83026406Y-18662182D01*
X83005682Y-18622862D01*
X83010473Y-18526731D01*
X83013061Y-18512091D01*
X83022025Y-18415816D01*
X82998752Y-18403765D01*
X82947167Y-18475174D01*
X82917575Y-18530717D01*
X82844506Y-18628462D01*
X82769462Y-18651593D01*
X82736841Y-18632356D01*
X82708245Y-18555682D01*
X82710951Y-18451064D01*
X82741826Y-18370742D01*
X82753124Y-18360856D01*
X82781495Y-18371512D01*
X82771208Y-18450494D01*
X82764003Y-18543437D01*
X82791568Y-18569818D01*
X82839126Y-18530579D01*
X82870854Y-18454364D01*
X82924286Y-18366087D01*
X83003607Y-18339732D01*
X83075656Y-18381201D01*
G36*
X91301609Y-18209425D02*
X91377082Y-18232381D01*
X91387273Y-18246546D01*
X91346342Y-18275641D01*
X91244266Y-18291653D01*
X91205271Y-18292728D01*
X91082301Y-18281992D01*
X91003480Y-18255329D01*
X90994727Y-18246546D01*
X91016633Y-18217200D01*
X91117094Y-18201841D01*
X91176729Y-18200364D01*
X91301609Y-18209425D01*
X91301609Y-18209425D01*
G37*
X91301609Y-18209425D02*
X91377082Y-18232381D01*
X91387273Y-18246546D01*
X91346342Y-18275641D01*
X91244266Y-18291653D01*
X91205271Y-18292728D01*
X91082301Y-18281992D01*
X91003480Y-18255329D01*
X90994727Y-18246546D01*
X91016633Y-18217200D01*
X91117094Y-18201841D01*
X91176729Y-18200364D01*
X91301609Y-18209425D01*
G36*
X82735676Y-17957909D02*
X82793248Y-17997202D01*
X82902232Y-18015472D01*
X82914032Y-18015637D01*
X83027698Y-18028167D01*
X83095313Y-18058649D01*
X83097636Y-18061818D01*
X83077026Y-18092291D01*
X82979938Y-18107220D01*
X82942112Y-18108000D01*
X82810198Y-18120597D01*
X82746968Y-18163880D01*
X82736925Y-18188818D01*
X82723843Y-18199943D01*
X82715443Y-18133842D01*
X82714094Y-18084909D01*
X82717906Y-17984390D01*
X82729517Y-17949224D01*
X82735676Y-17957909D01*
X82735676Y-17957909D01*
G37*
X82735676Y-17957909D02*
X82793248Y-17997202D01*
X82902232Y-18015472D01*
X82914032Y-18015637D01*
X83027698Y-18028167D01*
X83095313Y-18058649D01*
X83097636Y-18061818D01*
X83077026Y-18092291D01*
X82979938Y-18107220D01*
X82942112Y-18108000D01*
X82810198Y-18120597D01*
X82746968Y-18163880D01*
X82736925Y-18188818D01*
X82723843Y-18199943D01*
X82715443Y-18133842D01*
X82714094Y-18084909D01*
X82717906Y-17984390D01*
X82729517Y-17949224D01*
X82735676Y-17957909D01*
G36*
X91114608Y-17836324D02*
X91168965Y-17877091D01*
X91268158Y-17949052D01*
X91319847Y-17958982D01*
X91346184Y-17905504D01*
X91354680Y-17865546D01*
X91368906Y-17818072D01*
X91377921Y-17858403D01*
X91380983Y-17911728D01*
X91374757Y-18021388D01*
X91335736Y-18054864D01*
X91252124Y-18015441D01*
X91185682Y-17966103D01*
X91064000Y-17870387D01*
X91064000Y-17966103D01*
X91045269Y-18042948D01*
X91017818Y-18061818D01*
X90985392Y-18021688D01*
X90971640Y-17924997D01*
X90971636Y-17923273D01*
X90983379Y-17819704D01*
X91026893Y-17791691D01*
X91114608Y-17836324D01*
X91114608Y-17836324D01*
G37*
X91114608Y-17836324D02*
X91168965Y-17877091D01*
X91268158Y-17949052D01*
X91319847Y-17958982D01*
X91346184Y-17905504D01*
X91354680Y-17865546D01*
X91368906Y-17818072D01*
X91377921Y-17858403D01*
X91380983Y-17911728D01*
X91374757Y-18021388D01*
X91335736Y-18054864D01*
X91252124Y-18015441D01*
X91185682Y-17966103D01*
X91064000Y-17870387D01*
X91064000Y-17966103D01*
X91045269Y-18042948D01*
X91017818Y-18061818D01*
X90985392Y-18021688D01*
X90971640Y-17924997D01*
X90971636Y-17923273D01*
X90983379Y-17819704D01*
X91026893Y-17791691D01*
X91114608Y-17836324D01*
G36*
X83100924Y-17532090D02*
X83052606Y-17579524D01*
X82990950Y-17644468D01*
X83003625Y-17714519D01*
X83018361Y-17739691D01*
X83046948Y-17806808D01*
X83013881Y-17827848D01*
X82910872Y-17804482D01*
X82832091Y-17777233D01*
X82729987Y-17723461D01*
X82718569Y-17668571D01*
X82816201Y-17668571D01*
X82820545Y-17692364D01*
X82879587Y-17736784D01*
X82892543Y-17738546D01*
X82934756Y-17703321D01*
X82936000Y-17692364D01*
X82898410Y-17651834D01*
X82864002Y-17646182D01*
X82816201Y-17668571D01*
X82718569Y-17668571D01*
X82718331Y-17667427D01*
X82797660Y-17605829D01*
X82865244Y-17574553D01*
X83001991Y-17525237D01*
X83084146Y-17511178D01*
X83100924Y-17532090D01*
X83100924Y-17532090D01*
G37*
X83100924Y-17532090D02*
X83052606Y-17579524D01*
X82990950Y-17644468D01*
X83003625Y-17714519D01*
X83018361Y-17739691D01*
X83046948Y-17806808D01*
X83013881Y-17827848D01*
X82910872Y-17804482D01*
X82832091Y-17777233D01*
X82729987Y-17723461D01*
X82718569Y-17668571D01*
X82816201Y-17668571D01*
X82820545Y-17692364D01*
X82879587Y-17736784D01*
X82892543Y-17738546D01*
X82934756Y-17703321D01*
X82936000Y-17692364D01*
X82898410Y-17651834D01*
X82864002Y-17646182D01*
X82816201Y-17668571D01*
X82718569Y-17668571D01*
X82718331Y-17667427D01*
X82797660Y-17605829D01*
X82865244Y-17574553D01*
X83001991Y-17525237D01*
X83084146Y-17511178D01*
X83100924Y-17532090D01*
G36*
X91372174Y-17391794D02*
X91320719Y-17434594D01*
X91258802Y-17492330D01*
X91269041Y-17532642D01*
X91320646Y-17573133D01*
X91379427Y-17632184D01*
X91383829Y-17665020D01*
X91331900Y-17661160D01*
X91268447Y-17624083D01*
X91151918Y-17568892D01*
X91072820Y-17555287D01*
X90999291Y-17538195D01*
X91002691Y-17501476D01*
X91075201Y-17462229D01*
X91121045Y-17449817D01*
X91250124Y-17416069D01*
X91318000Y-17394351D01*
X91381677Y-17373942D01*
X91372174Y-17391794D01*
X91372174Y-17391794D01*
G37*
X91372174Y-17391794D02*
X91320719Y-17434594D01*
X91258802Y-17492330D01*
X91269041Y-17532642D01*
X91320646Y-17573133D01*
X91379427Y-17632184D01*
X91383829Y-17665020D01*
X91331900Y-17661160D01*
X91268447Y-17624083D01*
X91151918Y-17568892D01*
X91072820Y-17555287D01*
X90999291Y-17538195D01*
X91002691Y-17501476D01*
X91075201Y-17462229D01*
X91121045Y-17449817D01*
X91250124Y-17416069D01*
X91318000Y-17394351D01*
X91381677Y-17373942D01*
X91372174Y-17391794D01*
G36*
X82765259Y-17103390D02*
X82867602Y-17140882D01*
X82958722Y-17180182D01*
X83069704Y-17232115D01*
X83105858Y-17265057D01*
X83077552Y-17295694D01*
X83042649Y-17315264D01*
X82893866Y-17386464D01*
X82777050Y-17426740D01*
X82712109Y-17429995D01*
X82705091Y-17418648D01*
X82743800Y-17376989D01*
X82838642Y-17328106D01*
X82855182Y-17321634D01*
X83005273Y-17265142D01*
X82855182Y-17218072D01*
X82754196Y-17176060D01*
X82705811Y-17135600D01*
X82705091Y-17131501D01*
X82717118Y-17101421D01*
X82765259Y-17103390D01*
X82765259Y-17103390D01*
G37*
X82765259Y-17103390D02*
X82867602Y-17140882D01*
X82958722Y-17180182D01*
X83069704Y-17232115D01*
X83105858Y-17265057D01*
X83077552Y-17295694D01*
X83042649Y-17315264D01*
X82893866Y-17386464D01*
X82777050Y-17426740D01*
X82712109Y-17429995D01*
X82705091Y-17418648D01*
X82743800Y-17376989D01*
X82838642Y-17328106D01*
X82855182Y-17321634D01*
X83005273Y-17265142D01*
X82855182Y-17218072D01*
X82754196Y-17176060D01*
X82705811Y-17135600D01*
X82705091Y-17131501D01*
X82717118Y-17101421D01*
X82765259Y-17103390D01*
G36*
X91305354Y-16956821D02*
X91365827Y-16978778D01*
X91382358Y-17037116D01*
X91380983Y-17103546D01*
X91373909Y-17188418D01*
X91362475Y-17183990D01*
X91354680Y-17149728D01*
X91315301Y-17068535D01*
X91271818Y-17045818D01*
X91215149Y-17085070D01*
X91188955Y-17149728D01*
X91168942Y-17253637D01*
X91162653Y-17149728D01*
X91132641Y-17068582D01*
X91089816Y-17045818D01*
X91011189Y-17017673D01*
X90994727Y-16999637D01*
X91016633Y-16970291D01*
X91117094Y-16954932D01*
X91176729Y-16953455D01*
X91305354Y-16956821D01*
X91305354Y-16956821D01*
G37*
X91305354Y-16956821D02*
X91365827Y-16978778D01*
X91382358Y-17037116D01*
X91380983Y-17103546D01*
X91373909Y-17188418D01*
X91362475Y-17183990D01*
X91354680Y-17149728D01*
X91315301Y-17068535D01*
X91271818Y-17045818D01*
X91215149Y-17085070D01*
X91188955Y-17149728D01*
X91168942Y-17253637D01*
X91162653Y-17149728D01*
X91132641Y-17068582D01*
X91089816Y-17045818D01*
X91011189Y-17017673D01*
X90994727Y-16999637D01*
X91016633Y-16970291D01*
X91117094Y-16954932D01*
X91176729Y-16953455D01*
X91305354Y-16956821D01*
G36*
X82736925Y-16364637D02*
X82788686Y-16425753D01*
X82910258Y-16445431D01*
X82916295Y-16445455D01*
X83021779Y-16457284D01*
X83073485Y-16486295D01*
X83074545Y-16491637D01*
X83034009Y-16522420D01*
X82934599Y-16537509D01*
X82916295Y-16537818D01*
X82791846Y-16556096D01*
X82737776Y-16615556D01*
X82736925Y-16618637D01*
X82724757Y-16626986D01*
X82717125Y-16558716D01*
X82715805Y-16491637D01*
X82719688Y-16386770D01*
X82729595Y-16349570D01*
X82736925Y-16364637D01*
X82736925Y-16364637D01*
G37*
X82736925Y-16364637D02*
X82788686Y-16425753D01*
X82910258Y-16445431D01*
X82916295Y-16445455D01*
X83021779Y-16457284D01*
X83073485Y-16486295D01*
X83074545Y-16491637D01*
X83034009Y-16522420D01*
X82934599Y-16537509D01*
X82916295Y-16537818D01*
X82791846Y-16556096D01*
X82737776Y-16615556D01*
X82736925Y-16618637D01*
X82724757Y-16626986D01*
X82717125Y-16558716D01*
X82715805Y-16491637D01*
X82719688Y-16386770D01*
X82729595Y-16349570D01*
X82736925Y-16364637D01*
G36*
X91464242Y-16414667D02*
X91469769Y-16469474D01*
X91464242Y-16476243D01*
X91436787Y-16469903D01*
X91433454Y-16445455D01*
X91450352Y-16407442D01*
X91464242Y-16414667D01*
X91464242Y-16414667D01*
G37*
X91464242Y-16414667D02*
X91469769Y-16469474D01*
X91464242Y-16476243D01*
X91436787Y-16469903D01*
X91433454Y-16445455D01*
X91450352Y-16407442D01*
X91464242Y-16414667D01*
G36*
X91307089Y-16412946D02*
X91325673Y-16423762D01*
X91265165Y-16430734D01*
X91179454Y-16432246D01*
X91074671Y-16428790D01*
X91044023Y-16420515D01*
X91076180Y-16412316D01*
X91212758Y-16404718D01*
X91307089Y-16412946D01*
X91307089Y-16412946D01*
G37*
X91307089Y-16412946D02*
X91325673Y-16423762D01*
X91265165Y-16430734D01*
X91179454Y-16432246D01*
X91074671Y-16428790D01*
X91044023Y-16420515D01*
X91076180Y-16412316D01*
X91212758Y-16404718D01*
X91307089Y-16412946D01*
G36*
X91295702Y-15948697D02*
X91374776Y-15968653D01*
X91387273Y-15983637D01*
X91360569Y-16029380D01*
X91352636Y-16030845D01*
X91294815Y-16057166D01*
X91205314Y-16118483D01*
X91092628Y-16205093D01*
X91211446Y-16182380D01*
X91311088Y-16182520D01*
X91361494Y-16210197D01*
X91343634Y-16244396D01*
X91235838Y-16259767D01*
X91182180Y-16260728D01*
X91057297Y-16251899D01*
X90981824Y-16229531D01*
X90971636Y-16215732D01*
X91008519Y-16166500D01*
X91099473Y-16102711D01*
X91121727Y-16090286D01*
X91271818Y-16009836D01*
X91110182Y-15979725D01*
X91020110Y-15961623D01*
X91006281Y-15951797D01*
X91074749Y-15946451D01*
X91167909Y-15943534D01*
X91295702Y-15948697D01*
X91295702Y-15948697D01*
G37*
X91295702Y-15948697D02*
X91374776Y-15968653D01*
X91387273Y-15983637D01*
X91360569Y-16029380D01*
X91352636Y-16030845D01*
X91294815Y-16057166D01*
X91205314Y-16118483D01*
X91092628Y-16205093D01*
X91211446Y-16182380D01*
X91311088Y-16182520D01*
X91361494Y-16210197D01*
X91343634Y-16244396D01*
X91235838Y-16259767D01*
X91182180Y-16260728D01*
X91057297Y-16251899D01*
X90981824Y-16229531D01*
X90971636Y-16215732D01*
X91008519Y-16166500D01*
X91099473Y-16102711D01*
X91121727Y-16090286D01*
X91271818Y-16009836D01*
X91110182Y-15979725D01*
X91020110Y-15961623D01*
X91006281Y-15951797D01*
X91074749Y-15946451D01*
X91167909Y-15943534D01*
X91295702Y-15948697D01*
G36*
X83074545Y-15914364D02*
X83107818Y-15976795D01*
X83120727Y-16078726D01*
X83114464Y-16162261D01*
X83078976Y-16201828D01*
X82989216Y-16213796D01*
X82912909Y-16214546D01*
X82785327Y-16210993D01*
X82725545Y-16188244D01*
X82709008Y-16128161D01*
X82709694Y-16064455D01*
X82715206Y-15972945D01*
X82726843Y-15967247D01*
X82744330Y-16020998D01*
X82784260Y-16103113D01*
X82820545Y-16127633D01*
X82867035Y-16088837D01*
X82896760Y-16020998D01*
X82918442Y-15952902D01*
X82927696Y-15968811D01*
X82931396Y-16041364D01*
X82951915Y-16142949D01*
X82988792Y-16163418D01*
X83020583Y-16105926D01*
X83028363Y-16027093D01*
X83040871Y-15934771D01*
X83072961Y-15913453D01*
X83074545Y-15914364D01*
X83074545Y-15914364D01*
G37*
X83074545Y-15914364D02*
X83107818Y-15976795D01*
X83120727Y-16078726D01*
X83114464Y-16162261D01*
X83078976Y-16201828D01*
X82989216Y-16213796D01*
X82912909Y-16214546D01*
X82785327Y-16210993D01*
X82725545Y-16188244D01*
X82709008Y-16128161D01*
X82709694Y-16064455D01*
X82715206Y-15972945D01*
X82726843Y-15967247D01*
X82744330Y-16020998D01*
X82784260Y-16103113D01*
X82820545Y-16127633D01*
X82867035Y-16088837D01*
X82896760Y-16020998D01*
X82918442Y-15952902D01*
X82927696Y-15968811D01*
X82931396Y-16041364D01*
X82951915Y-16142949D01*
X82988792Y-16163418D01*
X83020583Y-16105926D01*
X83028363Y-16027093D01*
X83040871Y-15934771D01*
X83072961Y-15913453D01*
X83074545Y-15914364D01*
G36*
X91294909Y-15470432D02*
X91254523Y-15509169D01*
X91155181Y-15543425D01*
X91133664Y-15547883D01*
X91027425Y-15576016D01*
X90991427Y-15619980D01*
X91000125Y-15688521D01*
X91011517Y-15777758D01*
X90992328Y-15794393D01*
X90954615Y-15728775D01*
X90953486Y-15725859D01*
X90927632Y-15596888D01*
X90973155Y-15520983D01*
X91017818Y-15501840D01*
X91145350Y-15465660D01*
X91202545Y-15449434D01*
X91275891Y-15447223D01*
X91294909Y-15470432D01*
X91294909Y-15470432D01*
G37*
X91294909Y-15470432D02*
X91254523Y-15509169D01*
X91155181Y-15543425D01*
X91133664Y-15547883D01*
X91027425Y-15576016D01*
X90991427Y-15619980D01*
X91000125Y-15688521D01*
X91011517Y-15777758D01*
X90992328Y-15794393D01*
X90954615Y-15728775D01*
X90953486Y-15725859D01*
X90927632Y-15596888D01*
X90973155Y-15520983D01*
X91017818Y-15501840D01*
X91145350Y-15465660D01*
X91202545Y-15449434D01*
X91275891Y-15447223D01*
X91294909Y-15470432D01*
G36*
X82911785Y-15425207D02*
X82896197Y-15444447D01*
X82854147Y-15543659D01*
X82883832Y-15622872D01*
X82971958Y-15653746D01*
X82993521Y-15651908D01*
X83073937Y-15614520D01*
X83086635Y-15533214D01*
X83095062Y-15452630D01*
X83121272Y-15429455D01*
X83157794Y-15466464D01*
X83164757Y-15551508D01*
X83143585Y-15645606D01*
X83111491Y-15697309D01*
X83002344Y-15749233D01*
X82880552Y-15723425D01*
X82825821Y-15682133D01*
X82784422Y-15585245D01*
X82804752Y-15475494D01*
X82876463Y-15397115D01*
X82894228Y-15389687D01*
X82935228Y-15383818D01*
X82911785Y-15425207D01*
X82911785Y-15425207D01*
G37*
X82911785Y-15425207D02*
X82896197Y-15444447D01*
X82854147Y-15543659D01*
X82883832Y-15622872D01*
X82971958Y-15653746D01*
X82993521Y-15651908D01*
X83073937Y-15614520D01*
X83086635Y-15533214D01*
X83095062Y-15452630D01*
X83121272Y-15429455D01*
X83157794Y-15466464D01*
X83164757Y-15551508D01*
X83143585Y-15645606D01*
X83111491Y-15697309D01*
X83002344Y-15749233D01*
X82880552Y-15723425D01*
X82825821Y-15682133D01*
X82784422Y-15585245D01*
X82804752Y-15475494D01*
X82876463Y-15397115D01*
X82894228Y-15389687D01*
X82935228Y-15383818D01*
X82911785Y-15425207D01*
G36*
X91067622Y-15200272D02*
X90951774Y-15321179D01*
X90885011Y-15372731D01*
X90859064Y-15357977D01*
X90865665Y-15279962D01*
X90866733Y-15274289D01*
X90861361Y-15183418D01*
X90808637Y-15152364D01*
X90925454Y-15152364D01*
X90960598Y-15197204D01*
X90971636Y-15198546D01*
X91016476Y-15163402D01*
X91017818Y-15152364D01*
X90982675Y-15107524D01*
X90971636Y-15106182D01*
X90926796Y-15141325D01*
X90925454Y-15152364D01*
X90808637Y-15152364D01*
X90785181Y-15138549D01*
X90781527Y-15137575D01*
X90705272Y-15108949D01*
X90714086Y-15083942D01*
X90810473Y-15061328D01*
X90977018Y-15041735D01*
X91234901Y-15017271D01*
X91067622Y-15200272D01*
X91067622Y-15200272D01*
G37*
X91067622Y-15200272D02*
X90951774Y-15321179D01*
X90885011Y-15372731D01*
X90859064Y-15357977D01*
X90865665Y-15279962D01*
X90866733Y-15274289D01*
X90861361Y-15183418D01*
X90808637Y-15152364D01*
X90925454Y-15152364D01*
X90960598Y-15197204D01*
X90971636Y-15198546D01*
X91016476Y-15163402D01*
X91017818Y-15152364D01*
X90982675Y-15107524D01*
X90971636Y-15106182D01*
X90926796Y-15141325D01*
X90925454Y-15152364D01*
X90808637Y-15152364D01*
X90785181Y-15138549D01*
X90781527Y-15137575D01*
X90705272Y-15108949D01*
X90714086Y-15083942D01*
X90810473Y-15061328D01*
X90977018Y-15041735D01*
X91234901Y-15017271D01*
X91067622Y-15200272D01*
G36*
X83242408Y-14935922D02*
X83261566Y-14945732D01*
X83358113Y-15008943D01*
X83395663Y-15059840D01*
X83368265Y-15082784D01*
X83310666Y-15074744D01*
X83219801Y-15080647D01*
X83181829Y-15135768D01*
X83213388Y-15208542D01*
X83231890Y-15224209D01*
X83287077Y-15278618D01*
X83272741Y-15300993D01*
X83206407Y-15290186D01*
X83105599Y-15245050D01*
X83086091Y-15233759D01*
X82993455Y-15166888D01*
X82941855Y-15109559D01*
X82939095Y-15078045D01*
X82992975Y-15088622D01*
X83023747Y-15103711D01*
X83100143Y-15124804D01*
X83139998Y-15076392D01*
X83138131Y-14979802D01*
X83115869Y-14938692D01*
X83085444Y-14885527D01*
X83126981Y-14884573D01*
X83242408Y-14935922D01*
X83242408Y-14935922D01*
G37*
X83242408Y-14935922D02*
X83261566Y-14945732D01*
X83358113Y-15008943D01*
X83395663Y-15059840D01*
X83368265Y-15082784D01*
X83310666Y-15074744D01*
X83219801Y-15080647D01*
X83181829Y-15135768D01*
X83213388Y-15208542D01*
X83231890Y-15224209D01*
X83287077Y-15278618D01*
X83272741Y-15300993D01*
X83206407Y-15290186D01*
X83105599Y-15245050D01*
X83086091Y-15233759D01*
X82993455Y-15166888D01*
X82941855Y-15109559D01*
X82939095Y-15078045D01*
X82992975Y-15088622D01*
X83023747Y-15103711D01*
X83100143Y-15124804D01*
X83139998Y-15076392D01*
X83138131Y-14979802D01*
X83115869Y-14938692D01*
X83085444Y-14885527D01*
X83126981Y-14884573D01*
X83242408Y-14935922D01*
G36*
X83582177Y-14492535D02*
X83653225Y-14570912D01*
X83717270Y-14664292D01*
X83752378Y-14742197D01*
X83749415Y-14769979D01*
X83692106Y-14773082D01*
X83599863Y-14742500D01*
X83491275Y-14707389D01*
X83452334Y-14727961D01*
X83487989Y-14799297D01*
X83513016Y-14828808D01*
X83557763Y-14895015D01*
X83546666Y-14921455D01*
X83489379Y-14887012D01*
X83412003Y-14801990D01*
X83395925Y-14780250D01*
X83328920Y-14667589D01*
X83332912Y-14613108D01*
X83410124Y-14613328D01*
X83487824Y-14636622D01*
X83594558Y-14664458D01*
X83623133Y-14643619D01*
X83575808Y-14570865D01*
X83552297Y-14544091D01*
X83512295Y-14481732D01*
X83526061Y-14459637D01*
X83582177Y-14492535D01*
X83582177Y-14492535D01*
G37*
X83582177Y-14492535D02*
X83653225Y-14570912D01*
X83717270Y-14664292D01*
X83752378Y-14742197D01*
X83749415Y-14769979D01*
X83692106Y-14773082D01*
X83599863Y-14742500D01*
X83491275Y-14707389D01*
X83452334Y-14727961D01*
X83487989Y-14799297D01*
X83513016Y-14828808D01*
X83557763Y-14895015D01*
X83546666Y-14921455D01*
X83489379Y-14887012D01*
X83412003Y-14801990D01*
X83395925Y-14780250D01*
X83328920Y-14667589D01*
X83332912Y-14613108D01*
X83410124Y-14613328D01*
X83487824Y-14636622D01*
X83594558Y-14664458D01*
X83623133Y-14643619D01*
X83575808Y-14570865D01*
X83552297Y-14544091D01*
X83512295Y-14481732D01*
X83526061Y-14459637D01*
X83582177Y-14492535D01*
G36*
X90689101Y-14538067D02*
X90765577Y-14602855D01*
X90790404Y-14628720D01*
X90847197Y-14698273D01*
X90851324Y-14720773D01*
X90840883Y-14716039D01*
X90763447Y-14722193D01*
X90653020Y-14801653D01*
X90644611Y-14809596D01*
X90561537Y-14881487D01*
X90514090Y-14907627D01*
X90509818Y-14902743D01*
X90535834Y-14844719D01*
X90598804Y-14753650D01*
X90602418Y-14749029D01*
X90661616Y-14652199D01*
X90654001Y-14583829D01*
X90642945Y-14568563D01*
X90609145Y-14513316D01*
X90630744Y-14505686D01*
X90689101Y-14538067D01*
X90689101Y-14538067D01*
G37*
X90689101Y-14538067D02*
X90765577Y-14602855D01*
X90790404Y-14628720D01*
X90847197Y-14698273D01*
X90851324Y-14720773D01*
X90840883Y-14716039D01*
X90763447Y-14722193D01*
X90653020Y-14801653D01*
X90644611Y-14809596D01*
X90561537Y-14881487D01*
X90514090Y-14907627D01*
X90509818Y-14902743D01*
X90535834Y-14844719D01*
X90598804Y-14753650D01*
X90602418Y-14749029D01*
X90661616Y-14652199D01*
X90654001Y-14583829D01*
X90642945Y-14568563D01*
X90609145Y-14513316D01*
X90630744Y-14505686D01*
X90689101Y-14538067D01*
G36*
X90202685Y-14281744D02*
X90218445Y-14302237D01*
X90267735Y-14413880D01*
X90282555Y-14503100D01*
X90286201Y-14621273D01*
X90332585Y-14494273D01*
X90378604Y-14403406D01*
X90421303Y-14367273D01*
X90456424Y-14383175D01*
X90448657Y-14441304D01*
X90394741Y-14557296D01*
X90373125Y-14598182D01*
X90286486Y-14759818D01*
X90236516Y-14629812D01*
X90199307Y-14518423D01*
X90183420Y-14445085D01*
X90165274Y-14438127D01*
X90130181Y-14494273D01*
X90075889Y-14584192D01*
X90045590Y-14594240D01*
X90045110Y-14535102D01*
X90080276Y-14417468D01*
X90083614Y-14408864D01*
X90132070Y-14295799D01*
X90166480Y-14257601D01*
X90202685Y-14281744D01*
X90202685Y-14281744D01*
G37*
X90202685Y-14281744D02*
X90218445Y-14302237D01*
X90267735Y-14413880D01*
X90282555Y-14503100D01*
X90286201Y-14621273D01*
X90332585Y-14494273D01*
X90378604Y-14403406D01*
X90421303Y-14367273D01*
X90456424Y-14383175D01*
X90448657Y-14441304D01*
X90394741Y-14557296D01*
X90373125Y-14598182D01*
X90286486Y-14759818D01*
X90236516Y-14629812D01*
X90199307Y-14518423D01*
X90183420Y-14445085D01*
X90165274Y-14438127D01*
X90130181Y-14494273D01*
X90075889Y-14584192D01*
X90045590Y-14594240D01*
X90045110Y-14535102D01*
X90080276Y-14417468D01*
X90083614Y-14408864D01*
X90132070Y-14295799D01*
X90166480Y-14257601D01*
X90202685Y-14281744D01*
G36*
X83807893Y-14309912D02*
X83853616Y-14381960D01*
X83876732Y-14432091D01*
X83923616Y-14561235D01*
X83932001Y-14625604D01*
X83905877Y-14617652D01*
X83849233Y-14529832D01*
X83837146Y-14506979D01*
X83791500Y-14394779D01*
X83779376Y-14312773D01*
X83780957Y-14306415D01*
X83807893Y-14309912D01*
X83807893Y-14309912D01*
G37*
X83807893Y-14309912D02*
X83853616Y-14381960D01*
X83876732Y-14432091D01*
X83923616Y-14561235D01*
X83932001Y-14625604D01*
X83905877Y-14617652D01*
X83849233Y-14529832D01*
X83837146Y-14506979D01*
X83791500Y-14394779D01*
X83779376Y-14312773D01*
X83780957Y-14306415D01*
X83807893Y-14309912D01*
G36*
X84310521Y-14179189D02*
X84355522Y-14212803D01*
X84321837Y-14225552D01*
X84268668Y-14227323D01*
X84155829Y-14258443D01*
X84116711Y-14336808D01*
X84157992Y-14441859D01*
X84215982Y-14497849D01*
X84276851Y-14476863D01*
X84294482Y-14462858D01*
X84367628Y-14425752D01*
X84402051Y-14432476D01*
X84398939Y-14476848D01*
X84337167Y-14522997D01*
X84247601Y-14549996D01*
X84226782Y-14551293D01*
X84132161Y-14521285D01*
X84099782Y-14496582D01*
X84046152Y-14394422D01*
X84057290Y-14287291D01*
X84116845Y-14199818D01*
X84208461Y-14156633D01*
X84310521Y-14179189D01*
X84310521Y-14179189D01*
G37*
X84310521Y-14179189D02*
X84355522Y-14212803D01*
X84321837Y-14225552D01*
X84268668Y-14227323D01*
X84155829Y-14258443D01*
X84116711Y-14336808D01*
X84157992Y-14441859D01*
X84215982Y-14497849D01*
X84276851Y-14476863D01*
X84294482Y-14462858D01*
X84367628Y-14425752D01*
X84402051Y-14432476D01*
X84398939Y-14476848D01*
X84337167Y-14522997D01*
X84247601Y-14549996D01*
X84226782Y-14551293D01*
X84132161Y-14521285D01*
X84099782Y-14496582D01*
X84046152Y-14394422D01*
X84057290Y-14287291D01*
X84116845Y-14199818D01*
X84208461Y-14156633D01*
X84310521Y-14179189D01*
G36*
X89871215Y-14150501D02*
X89909454Y-14183426D01*
X89871141Y-14209379D01*
X89787979Y-14199999D01*
X89703307Y-14196347D01*
X89683527Y-14230586D01*
X89723043Y-14280918D01*
X89816261Y-14325544D01*
X89820515Y-14326759D01*
X89895203Y-14349515D01*
X89884427Y-14358774D01*
X89805545Y-14362670D01*
X89713290Y-14379327D01*
X89678545Y-14409606D01*
X89717040Y-14453955D01*
X89805545Y-14498324D01*
X89879075Y-14530212D01*
X89866376Y-14542577D01*
X89840182Y-14542997D01*
X89718367Y-14530709D01*
X89667000Y-14520166D01*
X89601982Y-14470211D01*
X89590871Y-14361547D01*
X89615289Y-14240273D01*
X89665180Y-14160143D01*
X89771471Y-14136385D01*
X89776295Y-14136364D01*
X89871215Y-14150501D01*
X89871215Y-14150501D01*
G37*
X89871215Y-14150501D02*
X89909454Y-14183426D01*
X89871141Y-14209379D01*
X89787979Y-14199999D01*
X89703307Y-14196347D01*
X89683527Y-14230586D01*
X89723043Y-14280918D01*
X89816261Y-14325544D01*
X89820515Y-14326759D01*
X89895203Y-14349515D01*
X89884427Y-14358774D01*
X89805545Y-14362670D01*
X89713290Y-14379327D01*
X89678545Y-14409606D01*
X89717040Y-14453955D01*
X89805545Y-14498324D01*
X89879075Y-14530212D01*
X89866376Y-14542577D01*
X89840182Y-14542997D01*
X89718367Y-14530709D01*
X89667000Y-14520166D01*
X89601982Y-14470211D01*
X89590871Y-14361547D01*
X89615289Y-14240273D01*
X89665180Y-14160143D01*
X89771471Y-14136385D01*
X89776295Y-14136364D01*
X89871215Y-14150501D01*
G36*
X84635021Y-14129190D02*
X84644727Y-14190596D01*
X84648247Y-14253704D01*
X84672721Y-14260001D01*
X84739016Y-14207585D01*
X84771397Y-14179050D01*
X84842255Y-14119287D01*
X84849648Y-14122496D01*
X84816871Y-14163873D01*
X84765984Y-14235126D01*
X84768947Y-14293064D01*
X84828613Y-14378801D01*
X84832099Y-14383236D01*
X84883404Y-14464064D01*
X84885155Y-14504687D01*
X84879379Y-14505818D01*
X84819011Y-14470757D01*
X84772555Y-14413455D01*
X84714472Y-14341500D01*
X84679800Y-14321091D01*
X84651279Y-14359862D01*
X84644727Y-14413455D01*
X84625387Y-14488499D01*
X84598545Y-14505818D01*
X84571003Y-14464542D01*
X84554482Y-14360107D01*
X84552363Y-14298000D01*
X84561536Y-14174062D01*
X84584744Y-14099718D01*
X84598545Y-14090182D01*
X84635021Y-14129190D01*
X84635021Y-14129190D01*
G37*
X84635021Y-14129190D02*
X84644727Y-14190596D01*
X84648247Y-14253704D01*
X84672721Y-14260001D01*
X84739016Y-14207585D01*
X84771397Y-14179050D01*
X84842255Y-14119287D01*
X84849648Y-14122496D01*
X84816871Y-14163873D01*
X84765984Y-14235126D01*
X84768947Y-14293064D01*
X84828613Y-14378801D01*
X84832099Y-14383236D01*
X84883404Y-14464064D01*
X84885155Y-14504687D01*
X84879379Y-14505818D01*
X84819011Y-14470757D01*
X84772555Y-14413455D01*
X84714472Y-14341500D01*
X84679800Y-14321091D01*
X84651279Y-14359862D01*
X84644727Y-14413455D01*
X84625387Y-14488499D01*
X84598545Y-14505818D01*
X84571003Y-14464542D01*
X84554482Y-14360107D01*
X84552363Y-14298000D01*
X84561536Y-14174062D01*
X84584744Y-14099718D01*
X84598545Y-14090182D01*
X84635021Y-14129190D01*
G36*
X85187363Y-14097102D02*
X85285617Y-14103121D01*
X85296158Y-14111457D01*
X85233545Y-14123260D01*
X85132690Y-14162615D01*
X85112852Y-14220903D01*
X85174032Y-14272705D01*
X85233545Y-14288013D01*
X85360545Y-14307252D01*
X85233545Y-14314172D01*
X85135674Y-14340948D01*
X85106545Y-14387296D01*
X85146685Y-14441827D01*
X85233545Y-14472740D01*
X85298703Y-14485467D01*
X85280376Y-14493483D01*
X85187363Y-14498899D01*
X85014182Y-14505818D01*
X85014182Y-14090182D01*
X85187363Y-14097102D01*
X85187363Y-14097102D01*
G37*
X85187363Y-14097102D02*
X85285617Y-14103121D01*
X85296158Y-14111457D01*
X85233545Y-14123260D01*
X85132690Y-14162615D01*
X85112852Y-14220903D01*
X85174032Y-14272705D01*
X85233545Y-14288013D01*
X85360545Y-14307252D01*
X85233545Y-14314172D01*
X85135674Y-14340948D01*
X85106545Y-14387296D01*
X85146685Y-14441827D01*
X85233545Y-14472740D01*
X85298703Y-14485467D01*
X85280376Y-14493483D01*
X85187363Y-14498899D01*
X85014182Y-14505818D01*
X85014182Y-14090182D01*
X85187363Y-14097102D01*
G36*
X86017974Y-14129897D02*
X86067188Y-14230801D01*
X86092310Y-14298000D01*
X86125259Y-14418404D01*
X86130242Y-14493418D01*
X86119742Y-14505818D01*
X86077605Y-14470591D01*
X86076363Y-14459637D01*
X86040967Y-14420523D01*
X85961162Y-14418204D01*
X85876519Y-14451031D01*
X85854691Y-14468873D01*
X85807296Y-14496521D01*
X85799273Y-14474513D01*
X85817338Y-14389598D01*
X85861121Y-14276768D01*
X85873617Y-14251818D01*
X85937818Y-14251818D01*
X85961986Y-14313287D01*
X85982550Y-14321091D01*
X86007960Y-14287240D01*
X86000700Y-14251818D01*
X85967921Y-14191054D01*
X85955968Y-14182546D01*
X85939824Y-14220257D01*
X85937818Y-14251818D01*
X85873617Y-14251818D01*
X85915004Y-14169184D01*
X85963369Y-14100009D01*
X85980278Y-14090182D01*
X86017974Y-14129897D01*
X86017974Y-14129897D01*
G37*
X86017974Y-14129897D02*
X86067188Y-14230801D01*
X86092310Y-14298000D01*
X86125259Y-14418404D01*
X86130242Y-14493418D01*
X86119742Y-14505818D01*
X86077605Y-14470591D01*
X86076363Y-14459637D01*
X86040967Y-14420523D01*
X85961162Y-14418204D01*
X85876519Y-14451031D01*
X85854691Y-14468873D01*
X85807296Y-14496521D01*
X85799273Y-14474513D01*
X85817338Y-14389598D01*
X85861121Y-14276768D01*
X85873617Y-14251818D01*
X85937818Y-14251818D01*
X85961986Y-14313287D01*
X85982550Y-14321091D01*
X86007960Y-14287240D01*
X86000700Y-14251818D01*
X85967921Y-14191054D01*
X85955968Y-14182546D01*
X85939824Y-14220257D01*
X85937818Y-14251818D01*
X85873617Y-14251818D01*
X85915004Y-14169184D01*
X85963369Y-14100009D01*
X85980278Y-14090182D01*
X86017974Y-14129897D01*
G36*
X86780636Y-14094785D02*
X86874102Y-14099892D01*
X86881576Y-14110717D01*
X86818696Y-14130696D01*
X86716279Y-14179292D01*
X86694711Y-14234072D01*
X86755943Y-14277728D01*
X86800989Y-14287749D01*
X86930727Y-14307252D01*
X86799879Y-14314172D01*
X86706697Y-14339514D01*
X86692878Y-14388565D01*
X86756022Y-14442062D01*
X86818696Y-14465305D01*
X86884176Y-14486603D01*
X86869483Y-14496693D01*
X86780636Y-14501215D01*
X86688415Y-14499125D01*
X86644735Y-14468965D01*
X86631461Y-14386181D01*
X86630545Y-14298000D01*
X86634098Y-14170418D01*
X86656847Y-14110637D01*
X86716930Y-14094099D01*
X86780636Y-14094785D01*
X86780636Y-14094785D01*
G37*
X86780636Y-14094785D02*
X86874102Y-14099892D01*
X86881576Y-14110717D01*
X86818696Y-14130696D01*
X86716279Y-14179292D01*
X86694711Y-14234072D01*
X86755943Y-14277728D01*
X86800989Y-14287749D01*
X86930727Y-14307252D01*
X86799879Y-14314172D01*
X86706697Y-14339514D01*
X86692878Y-14388565D01*
X86756022Y-14442062D01*
X86818696Y-14465305D01*
X86884176Y-14486603D01*
X86869483Y-14496693D01*
X86780636Y-14501215D01*
X86688415Y-14499125D01*
X86644735Y-14468965D01*
X86631461Y-14386181D01*
X86630545Y-14298000D01*
X86634098Y-14170418D01*
X86656847Y-14110637D01*
X86716930Y-14094099D01*
X86780636Y-14094785D01*
G36*
X87342071Y-14120789D02*
X87314692Y-14179124D01*
X87282346Y-14275262D01*
X87313310Y-14386942D01*
X87344168Y-14481388D01*
X87323931Y-14500676D01*
X87261414Y-14439471D01*
X87250401Y-14425000D01*
X87200957Y-14371730D01*
X87158277Y-14389387D01*
X87119778Y-14436546D01*
X87067317Y-14492275D01*
X87047650Y-14491237D01*
X87066291Y-14424358D01*
X87096642Y-14359279D01*
X87123344Y-14264480D01*
X87096642Y-14214533D01*
X87047475Y-14143659D01*
X87060627Y-14113935D01*
X87123573Y-14146206D01*
X87132839Y-14154291D01*
X87199774Y-14205214D01*
X87233835Y-14190281D01*
X87246844Y-14161449D01*
X87295731Y-14099020D01*
X87322214Y-14090182D01*
X87342071Y-14120789D01*
X87342071Y-14120789D01*
G37*
X87342071Y-14120789D02*
X87314692Y-14179124D01*
X87282346Y-14275262D01*
X87313310Y-14386942D01*
X87344168Y-14481388D01*
X87323931Y-14500676D01*
X87261414Y-14439471D01*
X87250401Y-14425000D01*
X87200957Y-14371730D01*
X87158277Y-14389387D01*
X87119778Y-14436546D01*
X87067317Y-14492275D01*
X87047650Y-14491237D01*
X87066291Y-14424358D01*
X87096642Y-14359279D01*
X87123344Y-14264480D01*
X87096642Y-14214533D01*
X87047475Y-14143659D01*
X87060627Y-14113935D01*
X87123573Y-14146206D01*
X87132839Y-14154291D01*
X87199774Y-14205214D01*
X87233835Y-14190281D01*
X87246844Y-14161449D01*
X87295731Y-14099020D01*
X87322214Y-14090182D01*
X87342071Y-14120789D01*
G36*
X87722469Y-14125699D02*
X87758691Y-14178521D01*
X87762000Y-14228728D01*
X87736164Y-14324428D01*
X87660930Y-14358567D01*
X87572410Y-14401516D01*
X87541077Y-14450931D01*
X87522164Y-14504775D01*
X87497483Y-14471869D01*
X87488612Y-14451992D01*
X87468427Y-14349415D01*
X87469919Y-14244174D01*
X87474106Y-14228728D01*
X87554182Y-14228728D01*
X87592861Y-14266249D01*
X87646545Y-14274909D01*
X87721589Y-14255570D01*
X87738909Y-14228728D01*
X87700229Y-14191206D01*
X87646545Y-14182546D01*
X87571501Y-14201885D01*
X87554182Y-14228728D01*
X87474106Y-14228728D01*
X87495396Y-14150205D01*
X87562789Y-14116287D01*
X87623454Y-14113273D01*
X87722469Y-14125699D01*
X87722469Y-14125699D01*
G37*
X87722469Y-14125699D02*
X87758691Y-14178521D01*
X87762000Y-14228728D01*
X87736164Y-14324428D01*
X87660930Y-14358567D01*
X87572410Y-14401516D01*
X87541077Y-14450931D01*
X87522164Y-14504775D01*
X87497483Y-14471869D01*
X87488612Y-14451992D01*
X87468427Y-14349415D01*
X87469919Y-14244174D01*
X87474106Y-14228728D01*
X87554182Y-14228728D01*
X87592861Y-14266249D01*
X87646545Y-14274909D01*
X87721589Y-14255570D01*
X87738909Y-14228728D01*
X87700229Y-14191206D01*
X87646545Y-14182546D01*
X87571501Y-14201885D01*
X87554182Y-14228728D01*
X87474106Y-14228728D01*
X87495396Y-14150205D01*
X87562789Y-14116287D01*
X87623454Y-14113273D01*
X87722469Y-14125699D01*
G36*
X88159459Y-14103559D02*
X88200716Y-14135789D01*
X88200727Y-14136364D01*
X88162048Y-14173886D01*
X88108363Y-14182546D01*
X88029254Y-14202154D01*
X88026528Y-14244151D01*
X88097435Y-14283293D01*
X88119909Y-14288499D01*
X88223818Y-14308513D01*
X88119909Y-14314802D01*
X88034972Y-14344182D01*
X88021556Y-14399227D01*
X88075642Y-14452450D01*
X88143000Y-14472740D01*
X88208158Y-14485467D01*
X88189831Y-14493483D01*
X88096818Y-14498899D01*
X87923636Y-14505818D01*
X87923636Y-14298000D01*
X87927652Y-14170210D01*
X87950841Y-14109684D01*
X88009914Y-14091357D01*
X88062182Y-14090182D01*
X88159459Y-14103559D01*
X88159459Y-14103559D01*
G37*
X88159459Y-14103559D02*
X88200716Y-14135789D01*
X88200727Y-14136364D01*
X88162048Y-14173886D01*
X88108363Y-14182546D01*
X88029254Y-14202154D01*
X88026528Y-14244151D01*
X88097435Y-14283293D01*
X88119909Y-14288499D01*
X88223818Y-14308513D01*
X88119909Y-14314802D01*
X88034972Y-14344182D01*
X88021556Y-14399227D01*
X88075642Y-14452450D01*
X88143000Y-14472740D01*
X88208158Y-14485467D01*
X88189831Y-14493483D01*
X88096818Y-14498899D01*
X87923636Y-14505818D01*
X87923636Y-14298000D01*
X87927652Y-14170210D01*
X87950841Y-14109684D01*
X88009914Y-14091357D01*
X88062182Y-14090182D01*
X88159459Y-14103559D01*
G36*
X88590729Y-14112837D02*
X88669624Y-14165747D01*
X88696023Y-14236360D01*
X88671986Y-14283941D01*
X88645877Y-14365202D01*
X88666332Y-14420530D01*
X88687756Y-14491622D01*
X88662721Y-14505818D01*
X88605019Y-14468876D01*
X88586882Y-14436546D01*
X88528735Y-14375169D01*
X88495968Y-14367273D01*
X88439056Y-14404347D01*
X88431636Y-14436546D01*
X88405295Y-14497981D01*
X88382799Y-14505818D01*
X88354123Y-14464025D01*
X88346006Y-14353150D01*
X88348163Y-14309546D01*
X88358571Y-14228728D01*
X88431636Y-14228728D01*
X88470316Y-14266249D01*
X88524000Y-14274909D01*
X88599044Y-14255570D01*
X88616363Y-14228728D01*
X88577684Y-14191206D01*
X88524000Y-14182546D01*
X88448956Y-14201885D01*
X88431636Y-14228728D01*
X88358571Y-14228728D01*
X88364367Y-14183734D01*
X88400260Y-14123092D01*
X88473111Y-14100459D01*
X88481771Y-14099393D01*
X88590729Y-14112837D01*
X88590729Y-14112837D01*
G37*
X88590729Y-14112837D02*
X88669624Y-14165747D01*
X88696023Y-14236360D01*
X88671986Y-14283941D01*
X88645877Y-14365202D01*
X88666332Y-14420530D01*
X88687756Y-14491622D01*
X88662721Y-14505818D01*
X88605019Y-14468876D01*
X88586882Y-14436546D01*
X88528735Y-14375169D01*
X88495968Y-14367273D01*
X88439056Y-14404347D01*
X88431636Y-14436546D01*
X88405295Y-14497981D01*
X88382799Y-14505818D01*
X88354123Y-14464025D01*
X88346006Y-14353150D01*
X88348163Y-14309546D01*
X88358571Y-14228728D01*
X88431636Y-14228728D01*
X88470316Y-14266249D01*
X88524000Y-14274909D01*
X88599044Y-14255570D01*
X88616363Y-14228728D01*
X88577684Y-14191206D01*
X88524000Y-14182546D01*
X88448956Y-14201885D01*
X88431636Y-14228728D01*
X88358571Y-14228728D01*
X88364367Y-14183734D01*
X88400260Y-14123092D01*
X88473111Y-14100459D01*
X88481771Y-14099393D01*
X88590729Y-14112837D01*
G36*
X88880412Y-14194726D02*
X88888009Y-14331304D01*
X88879781Y-14425635D01*
X88868965Y-14444218D01*
X88861993Y-14383711D01*
X88860481Y-14298000D01*
X88863937Y-14193217D01*
X88872212Y-14162569D01*
X88880412Y-14194726D01*
X88880412Y-14194726D01*
G37*
X88880412Y-14194726D02*
X88888009Y-14331304D01*
X88879781Y-14425635D01*
X88868965Y-14444218D01*
X88861993Y-14383711D01*
X88860481Y-14298000D01*
X88863937Y-14193217D01*
X88872212Y-14162569D01*
X88880412Y-14194726D01*
G36*
X89122312Y-14116821D02*
X89175954Y-14224566D01*
X89179402Y-14234282D01*
X89229635Y-14378381D01*
X89290224Y-14234282D01*
X89352701Y-14121716D01*
X89403389Y-14099083D01*
X89436821Y-14164171D01*
X89447636Y-14298000D01*
X89438464Y-14421938D01*
X89415256Y-14496283D01*
X89401454Y-14505818D01*
X89367270Y-14465927D01*
X89353190Y-14378818D01*
X89351107Y-14251818D01*
X89289580Y-14390364D01*
X89228054Y-14528909D01*
X89168833Y-14390364D01*
X89109612Y-14251818D01*
X89076270Y-14390364D01*
X89056382Y-14461725D01*
X89045280Y-14459041D01*
X89039363Y-14374813D01*
X89037464Y-14309546D01*
X89046120Y-14162995D01*
X89076718Y-14097525D01*
X89122312Y-14116821D01*
X89122312Y-14116821D01*
G37*
X89122312Y-14116821D02*
X89175954Y-14224566D01*
X89179402Y-14234282D01*
X89229635Y-14378381D01*
X89290224Y-14234282D01*
X89352701Y-14121716D01*
X89403389Y-14099083D01*
X89436821Y-14164171D01*
X89447636Y-14298000D01*
X89438464Y-14421938D01*
X89415256Y-14496283D01*
X89401454Y-14505818D01*
X89367270Y-14465927D01*
X89353190Y-14378818D01*
X89351107Y-14251818D01*
X89289580Y-14390364D01*
X89228054Y-14528909D01*
X89168833Y-14390364D01*
X89109612Y-14251818D01*
X89076270Y-14390364D01*
X89056382Y-14461725D01*
X89045280Y-14459041D01*
X89039363Y-14374813D01*
X89037464Y-14309546D01*
X89046120Y-14162995D01*
X89076718Y-14097525D01*
X89122312Y-14116821D01*
G36*
X85245091Y-14020909D02*
X85222000Y-14044000D01*
X85198909Y-14020909D01*
X85222000Y-13997818D01*
X85245091Y-14020909D01*
X85245091Y-14020909D01*
G37*
X85245091Y-14020909D02*
X85222000Y-14044000D01*
X85198909Y-14020909D01*
X85222000Y-13997818D01*
X85245091Y-14020909D01*
G36*
X72316274Y-59224196D02*
X73043207Y-59226098D01*
X73886372Y-59229263D01*
X74000378Y-59229739D01*
X78276750Y-59247750D01*
X78647823Y-59397412D01*
X79145381Y-59663685D01*
X79588902Y-60030304D01*
X79955698Y-60474547D01*
X80223082Y-60973691D01*
X80224044Y-60976073D01*
X80372250Y-61343250D01*
X80372250Y-67820250D01*
X80224044Y-68187426D01*
X79957170Y-68686770D01*
X79590778Y-69131317D01*
X79147557Y-69498344D01*
X78650195Y-69765128D01*
X78647823Y-69766087D01*
X78276750Y-69915750D01*
X73958750Y-69928516D01*
X73090024Y-69930735D01*
X72339067Y-69931781D01*
X71696652Y-69931492D01*
X71153551Y-69929708D01*
X70700537Y-69926265D01*
X70328383Y-69921003D01*
X70027862Y-69913759D01*
X69789746Y-69904373D01*
X69604809Y-69892682D01*
X69463822Y-69878525D01*
X69357559Y-69861741D01*
X69293039Y-69846773D01*
X68753201Y-69636540D01*
X68277049Y-69323023D01*
X67877529Y-68919361D01*
X67567584Y-68438691D01*
X67360159Y-67894154D01*
X67356839Y-67881529D01*
X67330456Y-67712442D01*
X67307767Y-67433020D01*
X67288772Y-67059872D01*
X67273470Y-66609611D01*
X67261862Y-66098847D01*
X67253950Y-65544191D01*
X67249730Y-64962253D01*
X67249204Y-64369645D01*
X67252372Y-63782976D01*
X67259234Y-63218859D01*
X67269788Y-62693904D01*
X67284038Y-62224722D01*
X67301981Y-61827922D01*
X67323619Y-61520118D01*
X67337821Y-61406750D01*
X67545250Y-61406750D01*
X67545250Y-64581750D01*
X67545331Y-65297903D01*
X67545895Y-65898618D01*
X67547423Y-66395457D01*
X67550397Y-66799982D01*
X67555299Y-67123755D01*
X67562608Y-67378337D01*
X67572807Y-67575290D01*
X67586377Y-67726177D01*
X67603799Y-67842559D01*
X67625554Y-67935998D01*
X67652124Y-68018056D01*
X67683990Y-68100296D01*
X67692608Y-68121662D01*
X67865664Y-68444695D01*
X68115939Y-68779881D01*
X68406986Y-69084917D01*
X68702358Y-69317500D01*
X68745867Y-69344159D01*
X68858961Y-69409418D01*
X68966199Y-69465832D01*
X69077270Y-69514015D01*
X69201866Y-69554580D01*
X69349676Y-69588142D01*
X69530391Y-69615314D01*
X69753702Y-69636712D01*
X70029299Y-69652949D01*
X70366873Y-69664640D01*
X70776114Y-69672398D01*
X71266713Y-69676838D01*
X71848359Y-69678573D01*
X72530745Y-69678219D01*
X73323559Y-69676388D01*
X73958750Y-69674530D01*
X78213250Y-69661750D01*
X78594250Y-69508807D01*
X78952442Y-69313113D01*
X79307782Y-69028327D01*
X79626247Y-68688472D01*
X79873813Y-68327573D01*
X79965307Y-68137750D01*
X80000797Y-68047553D01*
X80030401Y-67961442D01*
X80054738Y-67867355D01*
X80074430Y-67753231D01*
X80090098Y-67607009D01*
X80102362Y-67416626D01*
X80111843Y-67170022D01*
X80119163Y-66855134D01*
X80124942Y-66459902D01*
X80129802Y-65972264D01*
X80134362Y-65380159D01*
X80138559Y-64772250D01*
X80143104Y-64022804D01*
X80145121Y-63388466D01*
X80143735Y-62857355D01*
X80138070Y-62417588D01*
X80127253Y-62057285D01*
X80110408Y-61764564D01*
X80086660Y-61527543D01*
X80055136Y-61334342D01*
X80014960Y-61173079D01*
X79965258Y-61031871D01*
X79905154Y-60898839D01*
X79844839Y-60782578D01*
X79626935Y-60467422D01*
X79327339Y-60154095D01*
X78986498Y-59878832D01*
X78644861Y-59677866D01*
X78580570Y-59650008D01*
X78213250Y-59501750D01*
X69450250Y-59501750D01*
X69069250Y-59654692D01*
X68711057Y-59850386D01*
X68355717Y-60135172D01*
X68037252Y-60475027D01*
X67789686Y-60835926D01*
X67698192Y-61025750D01*
X67545250Y-61406750D01*
X67337821Y-61406750D01*
X67348950Y-61317918D01*
X67356839Y-61281970D01*
X67562980Y-60731727D01*
X67871478Y-60249132D01*
X68270858Y-59845620D01*
X68749646Y-59532620D01*
X69296366Y-59321566D01*
X69334693Y-59311466D01*
X69425558Y-59291528D01*
X69536973Y-59274528D01*
X69678506Y-59260299D01*
X69859726Y-59248673D01*
X70090200Y-59239482D01*
X70379497Y-59232559D01*
X70737184Y-59227737D01*
X71172831Y-59224847D01*
X71696005Y-59223723D01*
X72316274Y-59224196D01*
X72316274Y-59224196D01*
G37*
X72316274Y-59224196D02*
X73043207Y-59226098D01*
X73886372Y-59229263D01*
X74000378Y-59229739D01*
X78276750Y-59247750D01*
X78647823Y-59397412D01*
X79145381Y-59663685D01*
X79588902Y-60030304D01*
X79955698Y-60474547D01*
X80223082Y-60973691D01*
X80224044Y-60976073D01*
X80372250Y-61343250D01*
X80372250Y-67820250D01*
X80224044Y-68187426D01*
X79957170Y-68686770D01*
X79590778Y-69131317D01*
X79147557Y-69498344D01*
X78650195Y-69765128D01*
X78647823Y-69766087D01*
X78276750Y-69915750D01*
X73958750Y-69928516D01*
X73090024Y-69930735D01*
X72339067Y-69931781D01*
X71696652Y-69931492D01*
X71153551Y-69929708D01*
X70700537Y-69926265D01*
X70328383Y-69921003D01*
X70027862Y-69913759D01*
X69789746Y-69904373D01*
X69604809Y-69892682D01*
X69463822Y-69878525D01*
X69357559Y-69861741D01*
X69293039Y-69846773D01*
X68753201Y-69636540D01*
X68277049Y-69323023D01*
X67877529Y-68919361D01*
X67567584Y-68438691D01*
X67360159Y-67894154D01*
X67356839Y-67881529D01*
X67330456Y-67712442D01*
X67307767Y-67433020D01*
X67288772Y-67059872D01*
X67273470Y-66609611D01*
X67261862Y-66098847D01*
X67253950Y-65544191D01*
X67249730Y-64962253D01*
X67249204Y-64369645D01*
X67252372Y-63782976D01*
X67259234Y-63218859D01*
X67269788Y-62693904D01*
X67284038Y-62224722D01*
X67301981Y-61827922D01*
X67323619Y-61520118D01*
X67337821Y-61406750D01*
X67545250Y-61406750D01*
X67545250Y-64581750D01*
X67545331Y-65297903D01*
X67545895Y-65898618D01*
X67547423Y-66395457D01*
X67550397Y-66799982D01*
X67555299Y-67123755D01*
X67562608Y-67378337D01*
X67572807Y-67575290D01*
X67586377Y-67726177D01*
X67603799Y-67842559D01*
X67625554Y-67935998D01*
X67652124Y-68018056D01*
X67683990Y-68100296D01*
X67692608Y-68121662D01*
X67865664Y-68444695D01*
X68115939Y-68779881D01*
X68406986Y-69084917D01*
X68702358Y-69317500D01*
X68745867Y-69344159D01*
X68858961Y-69409418D01*
X68966199Y-69465832D01*
X69077270Y-69514015D01*
X69201866Y-69554580D01*
X69349676Y-69588142D01*
X69530391Y-69615314D01*
X69753702Y-69636712D01*
X70029299Y-69652949D01*
X70366873Y-69664640D01*
X70776114Y-69672398D01*
X71266713Y-69676838D01*
X71848359Y-69678573D01*
X72530745Y-69678219D01*
X73323559Y-69676388D01*
X73958750Y-69674530D01*
X78213250Y-69661750D01*
X78594250Y-69508807D01*
X78952442Y-69313113D01*
X79307782Y-69028327D01*
X79626247Y-68688472D01*
X79873813Y-68327573D01*
X79965307Y-68137750D01*
X80000797Y-68047553D01*
X80030401Y-67961442D01*
X80054738Y-67867355D01*
X80074430Y-67753231D01*
X80090098Y-67607009D01*
X80102362Y-67416626D01*
X80111843Y-67170022D01*
X80119163Y-66855134D01*
X80124942Y-66459902D01*
X80129802Y-65972264D01*
X80134362Y-65380159D01*
X80138559Y-64772250D01*
X80143104Y-64022804D01*
X80145121Y-63388466D01*
X80143735Y-62857355D01*
X80138070Y-62417588D01*
X80127253Y-62057285D01*
X80110408Y-61764564D01*
X80086660Y-61527543D01*
X80055136Y-61334342D01*
X80014960Y-61173079D01*
X79965258Y-61031871D01*
X79905154Y-60898839D01*
X79844839Y-60782578D01*
X79626935Y-60467422D01*
X79327339Y-60154095D01*
X78986498Y-59878832D01*
X78644861Y-59677866D01*
X78580570Y-59650008D01*
X78213250Y-59501750D01*
X69450250Y-59501750D01*
X69069250Y-59654692D01*
X68711057Y-59850386D01*
X68355717Y-60135172D01*
X68037252Y-60475027D01*
X67789686Y-60835926D01*
X67698192Y-61025750D01*
X67545250Y-61406750D01*
X67337821Y-61406750D01*
X67348950Y-61317918D01*
X67356839Y-61281970D01*
X67562980Y-60731727D01*
X67871478Y-60249132D01*
X68270858Y-59845620D01*
X68749646Y-59532620D01*
X69296366Y-59321566D01*
X69334693Y-59311466D01*
X69425558Y-59291528D01*
X69536973Y-59274528D01*
X69678506Y-59260299D01*
X69859726Y-59248673D01*
X70090200Y-59239482D01*
X70379497Y-59232559D01*
X70737184Y-59227737D01*
X71172831Y-59224847D01*
X71696005Y-59223723D01*
X72316274Y-59224196D01*
G36*
X70018365Y-68762508D02*
X70025862Y-68797846D01*
X70042767Y-68865097D01*
X70085614Y-68891103D01*
X70177034Y-68953909D01*
X70161224Y-69008175D01*
X70056574Y-69026688D01*
X69999138Y-69019052D01*
X69839022Y-69026248D01*
X69769165Y-69111854D01*
X69804813Y-69251802D01*
X69828739Y-69288055D01*
X69908475Y-69365042D01*
X69992171Y-69336185D01*
X70016413Y-69316929D01*
X70119671Y-69264853D01*
X70173214Y-69292517D01*
X70151361Y-69371775D01*
X70063563Y-69420410D01*
X69920706Y-69439500D01*
X69760208Y-69405698D01*
X69679930Y-69298993D01*
X69651381Y-69112868D01*
X69695984Y-68957709D01*
X69776196Y-68887721D01*
X69833599Y-68827642D01*
X69827137Y-68797846D01*
X69850556Y-68753399D01*
X69926500Y-68741000D01*
X70018365Y-68762508D01*
X70018365Y-68762508D01*
G37*
X70018365Y-68762508D02*
X70025862Y-68797846D01*
X70042767Y-68865097D01*
X70085614Y-68891103D01*
X70177034Y-68953909D01*
X70161224Y-69008175D01*
X70056574Y-69026688D01*
X69999138Y-69019052D01*
X69839022Y-69026248D01*
X69769165Y-69111854D01*
X69804813Y-69251802D01*
X69828739Y-69288055D01*
X69908475Y-69365042D01*
X69992171Y-69336185D01*
X70016413Y-69316929D01*
X70119671Y-69264853D01*
X70173214Y-69292517D01*
X70151361Y-69371775D01*
X70063563Y-69420410D01*
X69920706Y-69439500D01*
X69760208Y-69405698D01*
X69679930Y-69298993D01*
X69651381Y-69112868D01*
X69695984Y-68957709D01*
X69776196Y-68887721D01*
X69833599Y-68827642D01*
X69827137Y-68797846D01*
X69850556Y-68753399D01*
X69926500Y-68741000D01*
X70018365Y-68762508D01*
G36*
X70547343Y-68920729D02*
X70621049Y-69049765D01*
X70630035Y-69070657D01*
X70713978Y-69273314D01*
X70796671Y-69070657D01*
X70877533Y-68912868D01*
X70932831Y-68870624D01*
X70949919Y-68933127D01*
X70916147Y-69089581D01*
X70894012Y-69153750D01*
X70799044Y-69354855D01*
X70710276Y-69429438D01*
X70628011Y-69377393D01*
X70574206Y-69264875D01*
X70511211Y-69095417D01*
X70465951Y-68979125D01*
X70455747Y-68888353D01*
X70483502Y-68868000D01*
X70547343Y-68920729D01*
X70547343Y-68920729D01*
G37*
X70547343Y-68920729D02*
X70621049Y-69049765D01*
X70630035Y-69070657D01*
X70713978Y-69273314D01*
X70796671Y-69070657D01*
X70877533Y-68912868D01*
X70932831Y-68870624D01*
X70949919Y-68933127D01*
X70916147Y-69089581D01*
X70894012Y-69153750D01*
X70799044Y-69354855D01*
X70710276Y-69429438D01*
X70628011Y-69377393D01*
X70574206Y-69264875D01*
X70511211Y-69095417D01*
X70465951Y-68979125D01*
X70455747Y-68888353D01*
X70483502Y-68868000D01*
X70547343Y-68920729D01*
G36*
X71362695Y-68924163D02*
X71394537Y-69063404D01*
X71399041Y-69106125D01*
X71436823Y-69284159D01*
X71511995Y-69344224D01*
X71514000Y-69344250D01*
X71589982Y-69286633D01*
X71628533Y-69111131D01*
X71628958Y-69106125D01*
X71660646Y-68941295D01*
X71707611Y-68873172D01*
X71750007Y-68909294D01*
X71768000Y-69053306D01*
X71746790Y-69276371D01*
X71674518Y-69398298D01*
X71538216Y-69439103D01*
X71517789Y-69439500D01*
X71374891Y-69425383D01*
X71302333Y-69397166D01*
X71271307Y-69309572D01*
X71260537Y-69163499D01*
X71268387Y-69008912D01*
X71293219Y-68895776D01*
X71319666Y-68868000D01*
X71362695Y-68924163D01*
X71362695Y-68924163D01*
G37*
X71362695Y-68924163D02*
X71394537Y-69063404D01*
X71399041Y-69106125D01*
X71436823Y-69284159D01*
X71511995Y-69344224D01*
X71514000Y-69344250D01*
X71589982Y-69286633D01*
X71628533Y-69111131D01*
X71628958Y-69106125D01*
X71660646Y-68941295D01*
X71707611Y-68873172D01*
X71750007Y-68909294D01*
X71768000Y-69053306D01*
X71746790Y-69276371D01*
X71674518Y-69398298D01*
X71538216Y-69439103D01*
X71517789Y-69439500D01*
X71374891Y-69425383D01*
X71302333Y-69397166D01*
X71271307Y-69309572D01*
X71260537Y-69163499D01*
X71268387Y-69008912D01*
X71293219Y-68895776D01*
X71319666Y-68868000D01*
X71362695Y-68924163D01*
G36*
X72424921Y-68882088D02*
X72520417Y-68914827D01*
X72530000Y-68931500D01*
X72478567Y-68987835D01*
X72434750Y-68995000D01*
X72364301Y-69043194D01*
X72339672Y-69197008D01*
X72339500Y-69217250D01*
X72323550Y-69364150D01*
X72284333Y-69437580D01*
X72276000Y-69439500D01*
X72232192Y-69384124D01*
X72212575Y-69249865D01*
X72212500Y-69240125D01*
X72176268Y-69061590D01*
X72101375Y-68956394D01*
X72046912Y-68903983D01*
X72078446Y-68878700D01*
X72214404Y-68870519D01*
X72260125Y-68870019D01*
X72424921Y-68882088D01*
X72424921Y-68882088D01*
G37*
X72424921Y-68882088D02*
X72520417Y-68914827D01*
X72530000Y-68931500D01*
X72478567Y-68987835D01*
X72434750Y-68995000D01*
X72364301Y-69043194D01*
X72339672Y-69197008D01*
X72339500Y-69217250D01*
X72323550Y-69364150D01*
X72284333Y-69437580D01*
X72276000Y-69439500D01*
X72232192Y-69384124D01*
X72212575Y-69249865D01*
X72212500Y-69240125D01*
X72176268Y-69061590D01*
X72101375Y-68956394D01*
X72046912Y-68903983D01*
X72078446Y-68878700D01*
X72214404Y-68870519D01*
X72260125Y-68870019D01*
X72424921Y-68882088D01*
G36*
X73719492Y-68915202D02*
X73705048Y-68979125D01*
X73649494Y-69122589D01*
X73596793Y-69264875D01*
X73519282Y-69406047D01*
X73435056Y-69420519D01*
X73344418Y-69308394D01*
X73276987Y-69153750D01*
X73225348Y-68971016D01*
X73228392Y-68878968D01*
X73273472Y-68888404D01*
X73347939Y-69010119D01*
X73374328Y-69070657D01*
X73457021Y-69273314D01*
X73540964Y-69070657D01*
X73613578Y-68934666D01*
X73680599Y-68869076D01*
X73687497Y-68868000D01*
X73719492Y-68915202D01*
X73719492Y-68915202D01*
G37*
X73719492Y-68915202D02*
X73705048Y-68979125D01*
X73649494Y-69122589D01*
X73596793Y-69264875D01*
X73519282Y-69406047D01*
X73435056Y-69420519D01*
X73344418Y-69308394D01*
X73276987Y-69153750D01*
X73225348Y-68971016D01*
X73228392Y-68878968D01*
X73273472Y-68888404D01*
X73347939Y-69010119D01*
X73374328Y-69070657D01*
X73457021Y-69273314D01*
X73540964Y-69070657D01*
X73613578Y-68934666D01*
X73680599Y-68869076D01*
X73687497Y-68868000D01*
X73719492Y-68915202D01*
G36*
X74641375Y-68879851D02*
X74786146Y-68910477D01*
X74841710Y-68984945D01*
X74847750Y-69058500D01*
X74812809Y-69189361D01*
X74704875Y-69237541D01*
X74593168Y-69287771D01*
X74562000Y-69348666D01*
X74526269Y-69430296D01*
X74498500Y-69439500D01*
X74460851Y-69382696D01*
X74438085Y-69238769D01*
X74435000Y-69149726D01*
X74437191Y-69058500D01*
X74562000Y-69058500D01*
X74613432Y-69114835D01*
X74657250Y-69122000D01*
X74741753Y-69087711D01*
X74752500Y-69058500D01*
X74701067Y-69002164D01*
X74657250Y-68995000D01*
X74572746Y-69029288D01*
X74562000Y-69058500D01*
X74437191Y-69058500D01*
X74439245Y-68972979D01*
X74468272Y-68891278D01*
X74546516Y-68872669D01*
X74641375Y-68879851D01*
X74641375Y-68879851D01*
G37*
X74641375Y-68879851D02*
X74786146Y-68910477D01*
X74841710Y-68984945D01*
X74847750Y-69058500D01*
X74812809Y-69189361D01*
X74704875Y-69237541D01*
X74593168Y-69287771D01*
X74562000Y-69348666D01*
X74526269Y-69430296D01*
X74498500Y-69439500D01*
X74460851Y-69382696D01*
X74438085Y-69238769D01*
X74435000Y-69149726D01*
X74437191Y-69058500D01*
X74562000Y-69058500D01*
X74613432Y-69114835D01*
X74657250Y-69122000D01*
X74741753Y-69087711D01*
X74752500Y-69058500D01*
X74701067Y-69002164D01*
X74657250Y-68995000D01*
X74572746Y-69029288D01*
X74562000Y-69058500D01*
X74437191Y-69058500D01*
X74439245Y-68972979D01*
X74468272Y-68891278D01*
X74546516Y-68872669D01*
X74641375Y-68879851D01*
G36*
X75601581Y-68900838D02*
X75692124Y-68986418D01*
X75676748Y-69105342D01*
X75650114Y-69143369D01*
X75616631Y-69243211D01*
X75654652Y-69300252D01*
X75694067Y-69388133D01*
X75679699Y-69422466D01*
X75610360Y-69418059D01*
X75549932Y-69360025D01*
X75446227Y-69266299D01*
X75359262Y-69261394D01*
X75324000Y-69344250D01*
X75289711Y-69428753D01*
X75260500Y-69439500D01*
X75222630Y-69382744D01*
X75199913Y-69239146D01*
X75197000Y-69153750D01*
X75199550Y-69058500D01*
X75324000Y-69058500D01*
X75377184Y-69110092D01*
X75451000Y-69122000D01*
X75554185Y-69095407D01*
X75578000Y-69058500D01*
X75524815Y-69006907D01*
X75451000Y-68995000D01*
X75347814Y-69021592D01*
X75324000Y-69058500D01*
X75199550Y-69058500D01*
X75201701Y-68978174D01*
X75233888Y-68895033D01*
X75320684Y-68869764D01*
X75421242Y-68868000D01*
X75601581Y-68900838D01*
X75601581Y-68900838D01*
G37*
X75601581Y-68900838D02*
X75692124Y-68986418D01*
X75676748Y-69105342D01*
X75650114Y-69143369D01*
X75616631Y-69243211D01*
X75654652Y-69300252D01*
X75694067Y-69388133D01*
X75679699Y-69422466D01*
X75610360Y-69418059D01*
X75549932Y-69360025D01*
X75446227Y-69266299D01*
X75359262Y-69261394D01*
X75324000Y-69344250D01*
X75289711Y-69428753D01*
X75260500Y-69439500D01*
X75222630Y-69382744D01*
X75199913Y-69239146D01*
X75197000Y-69153750D01*
X75199550Y-69058500D01*
X75324000Y-69058500D01*
X75377184Y-69110092D01*
X75451000Y-69122000D01*
X75554185Y-69095407D01*
X75578000Y-69058500D01*
X75524815Y-69006907D01*
X75451000Y-68995000D01*
X75347814Y-69021592D01*
X75324000Y-69058500D01*
X75199550Y-69058500D01*
X75201701Y-68978174D01*
X75233888Y-68895033D01*
X75320684Y-68869764D01*
X75421242Y-68868000D01*
X75601581Y-68900838D01*
G36*
X76315895Y-68923863D02*
X76388250Y-69041404D01*
X76455240Y-69193619D01*
X76497886Y-69336470D01*
X76497206Y-69425923D01*
X76492713Y-69431551D01*
X76437553Y-69421983D01*
X76421264Y-69391875D01*
X76342299Y-69326423D01*
X76218785Y-69318083D01*
X76121396Y-69370551D01*
X76117750Y-69376000D01*
X76038598Y-69437041D01*
X76021356Y-69439500D01*
X76009532Y-69388036D01*
X76044462Y-69257448D01*
X76077211Y-69173422D01*
X76104551Y-69118252D01*
X76213000Y-69118252D01*
X76259095Y-69182915D01*
X76276500Y-69185500D01*
X76338349Y-69163834D01*
X76340000Y-69157497D01*
X76295503Y-69103283D01*
X76276500Y-69090250D01*
X76217985Y-69095284D01*
X76213000Y-69118252D01*
X76104551Y-69118252D01*
X76158937Y-69008511D01*
X76233542Y-68902295D01*
X76257155Y-68885031D01*
X76315895Y-68923863D01*
X76315895Y-68923863D01*
G37*
X76315895Y-68923863D02*
X76388250Y-69041404D01*
X76455240Y-69193619D01*
X76497886Y-69336470D01*
X76497206Y-69425923D01*
X76492713Y-69431551D01*
X76437553Y-69421983D01*
X76421264Y-69391875D01*
X76342299Y-69326423D01*
X76218785Y-69318083D01*
X76121396Y-69370551D01*
X76117750Y-69376000D01*
X76038598Y-69437041D01*
X76021356Y-69439500D01*
X76009532Y-69388036D01*
X76044462Y-69257448D01*
X76077211Y-69173422D01*
X76104551Y-69118252D01*
X76213000Y-69118252D01*
X76259095Y-69182915D01*
X76276500Y-69185500D01*
X76338349Y-69163834D01*
X76340000Y-69157497D01*
X76295503Y-69103283D01*
X76276500Y-69090250D01*
X76217985Y-69095284D01*
X76213000Y-69118252D01*
X76104551Y-69118252D01*
X76158937Y-69008511D01*
X76233542Y-68902295D01*
X76257155Y-68885031D01*
X76315895Y-68923863D01*
G36*
X77207567Y-68915834D02*
X77169743Y-69021107D01*
X77108927Y-69112271D01*
X77008969Y-69261335D01*
X76986801Y-69339736D01*
X77043391Y-69377938D01*
X77117875Y-69394685D01*
X77164631Y-69413716D01*
X77090137Y-69427265D01*
X77022625Y-69430852D01*
X76869586Y-69427557D01*
X76788432Y-69408552D01*
X76784500Y-69401890D01*
X76819972Y-69331092D01*
X76906255Y-69209580D01*
X76915100Y-69198249D01*
X77045701Y-69032217D01*
X76899225Y-68969247D01*
X76810540Y-68925901D01*
X76824255Y-68902620D01*
X76952009Y-68884136D01*
X76965229Y-68882660D01*
X77142767Y-68875073D01*
X77207567Y-68915834D01*
X77207567Y-68915834D01*
G37*
X77207567Y-68915834D02*
X77169743Y-69021107D01*
X77108927Y-69112271D01*
X77008969Y-69261335D01*
X76986801Y-69339736D01*
X77043391Y-69377938D01*
X77117875Y-69394685D01*
X77164631Y-69413716D01*
X77090137Y-69427265D01*
X77022625Y-69430852D01*
X76869586Y-69427557D01*
X76788432Y-69408552D01*
X76784500Y-69401890D01*
X76819972Y-69331092D01*
X76906255Y-69209580D01*
X76915100Y-69198249D01*
X77045701Y-69032217D01*
X76899225Y-68969247D01*
X76810540Y-68925901D01*
X76824255Y-68902620D01*
X76952009Y-68884136D01*
X76965229Y-68882660D01*
X77142767Y-68875073D01*
X77207567Y-68915834D01*
G36*
X77915650Y-68883949D02*
X77989080Y-68923166D01*
X77991000Y-68931500D01*
X77936657Y-68979234D01*
X77832250Y-68995000D01*
X77702476Y-69018486D01*
X77683550Y-69070464D01*
X77772437Y-69123213D01*
X77848125Y-69140017D01*
X78022750Y-69166471D01*
X77848125Y-69175985D01*
X77708271Y-69213029D01*
X77674120Y-69282537D01*
X77741194Y-69353814D01*
X77879875Y-69393564D01*
X77990445Y-69409676D01*
X77988932Y-69419675D01*
X77868757Y-69427267D01*
X77816375Y-69429337D01*
X77546500Y-69439500D01*
X77546500Y-69153750D01*
X77551244Y-68978172D01*
X77583399Y-68895031D01*
X77669847Y-68869762D01*
X77768750Y-68868000D01*
X77915650Y-68883949D01*
X77915650Y-68883949D01*
G37*
X77915650Y-68883949D02*
X77989080Y-68923166D01*
X77991000Y-68931500D01*
X77936657Y-68979234D01*
X77832250Y-68995000D01*
X77702476Y-69018486D01*
X77683550Y-69070464D01*
X77772437Y-69123213D01*
X77848125Y-69140017D01*
X78022750Y-69166471D01*
X77848125Y-69175985D01*
X77708271Y-69213029D01*
X77674120Y-69282537D01*
X77741194Y-69353814D01*
X77879875Y-69393564D01*
X77990445Y-69409676D01*
X77988932Y-69419675D01*
X77868757Y-69427267D01*
X77816375Y-69429337D01*
X77546500Y-69439500D01*
X77546500Y-69153750D01*
X77551244Y-68978172D01*
X77583399Y-68895031D01*
X77669847Y-68869762D01*
X77768750Y-68868000D01*
X77915650Y-68883949D01*
G36*
X72834131Y-60557384D02*
X73612062Y-60561023D01*
X73995338Y-60562936D01*
X77705250Y-60581250D01*
X78008169Y-60731726D01*
X78227301Y-60869937D01*
X78454281Y-61057711D01*
X78565026Y-61170691D01*
X78667924Y-61291115D01*
X78753723Y-61406256D01*
X78823883Y-61528411D01*
X78879863Y-61669874D01*
X78923123Y-61842943D01*
X78955123Y-62059912D01*
X78977324Y-62333079D01*
X78991185Y-62674739D01*
X78998166Y-63097187D01*
X78999727Y-63612721D01*
X78997327Y-64233636D01*
X78993767Y-64781714D01*
X78989080Y-65432523D01*
X78984476Y-65969052D01*
X78979250Y-66404016D01*
X78972697Y-66750132D01*
X78964114Y-67020116D01*
X78952795Y-67226686D01*
X78938036Y-67382558D01*
X78919134Y-67500447D01*
X78895382Y-67593072D01*
X78866078Y-67673147D01*
X78830517Y-67753391D01*
X78828970Y-67756750D01*
X78604622Y-68141703D01*
X78335768Y-68411162D01*
X78015454Y-68568063D01*
X77636724Y-68615341D01*
X77192624Y-68555934D01*
X77034150Y-68514461D01*
X76550784Y-68309731D01*
X76113893Y-67991074D01*
X75728757Y-67564698D01*
X75400657Y-67036811D01*
X75134875Y-66413620D01*
X75065472Y-66200439D01*
X75041924Y-66122910D01*
X75339446Y-66122910D01*
X75354636Y-66210654D01*
X75416912Y-66383667D01*
X75515483Y-66614173D01*
X75601207Y-66796726D01*
X75896312Y-67318003D01*
X76219820Y-67722342D01*
X76579160Y-68018061D01*
X76801230Y-68140447D01*
X77042179Y-68244013D01*
X77186711Y-68287799D01*
X77230195Y-68273150D01*
X77168000Y-68201413D01*
X77005902Y-68080990D01*
X76787317Y-67921512D01*
X76594523Y-67752247D01*
X76408076Y-67551090D01*
X76208532Y-67295938D01*
X75976449Y-66964685D01*
X75827070Y-66740807D01*
X75655948Y-66489940D01*
X75509498Y-66291294D01*
X75401085Y-66161804D01*
X75344073Y-66118407D01*
X75339446Y-66122910D01*
X75041924Y-66122910D01*
X74931901Y-65760686D01*
X74360601Y-66144827D01*
X74125965Y-66297262D01*
X73930898Y-66413975D01*
X73798321Y-66481885D01*
X73752317Y-66491984D01*
X73739177Y-66437700D01*
X73741791Y-66435396D01*
X73800841Y-66392121D01*
X73940196Y-66290158D01*
X74137633Y-66145764D01*
X74322449Y-66010637D01*
X74545237Y-65845056D01*
X74721766Y-65708665D01*
X74831888Y-65617375D01*
X74858479Y-65587312D01*
X74791931Y-65566165D01*
X74634687Y-65528051D01*
X74420538Y-65481152D01*
X74416591Y-65480324D01*
X73992389Y-65346456D01*
X73556272Y-65127675D01*
X73545131Y-65120975D01*
X73336766Y-64999595D01*
X73173446Y-64912940D01*
X73082084Y-64874980D01*
X73072324Y-64875509D01*
X73043920Y-64942789D01*
X72986862Y-65104901D01*
X72910220Y-65335408D01*
X72846090Y-65534911D01*
X72590828Y-66250051D01*
X72311802Y-66853799D01*
X72001144Y-67360762D01*
X71650984Y-67785551D01*
X71612652Y-67824923D01*
X71258352Y-68144130D01*
X70912056Y-68363758D01*
X70535671Y-68502568D01*
X70091103Y-68579320D01*
X70078041Y-68580682D01*
X69841185Y-68595335D01*
X69670315Y-68573065D01*
X69507281Y-68503786D01*
X69450250Y-68471772D01*
X69281194Y-68346782D01*
X69254278Y-68314179D01*
X70212250Y-68314179D01*
X70402750Y-68269186D01*
X70578484Y-68212422D01*
X70793102Y-68123418D01*
X70869785Y-68087014D01*
X71215025Y-67853984D01*
X71552782Y-67506818D01*
X71874345Y-67058375D01*
X72171004Y-66521512D01*
X72434049Y-65909089D01*
X72532212Y-65633017D01*
X72634951Y-65318086D01*
X72693394Y-65110979D01*
X72707378Y-65000437D01*
X72676737Y-64975197D01*
X72601308Y-65023999D01*
X72524334Y-65093744D01*
X72310123Y-65339450D01*
X72114904Y-65657793D01*
X71926609Y-66070152D01*
X71827677Y-66328148D01*
X71715582Y-66606705D01*
X71590379Y-66874009D01*
X71475559Y-67080711D01*
X71453956Y-67113252D01*
X71283633Y-67326195D01*
X71047181Y-67581245D01*
X70779426Y-67843458D01*
X70515193Y-68077888D01*
X70402750Y-68168055D01*
X70212250Y-68314179D01*
X69254278Y-68314179D01*
X69134425Y-68169008D01*
X68982283Y-67904569D01*
X68974000Y-67888387D01*
X68751750Y-67452362D01*
X68733220Y-64784329D01*
X68728655Y-64070282D01*
X68726887Y-63470998D01*
X68729646Y-62974247D01*
X68738666Y-62567796D01*
X68755678Y-62239413D01*
X68776901Y-62031005D01*
X68968870Y-62031005D01*
X68987310Y-64703377D01*
X69005750Y-67375750D01*
X69196250Y-67756750D01*
X69327119Y-67980952D01*
X69463599Y-68154462D01*
X69553036Y-68228649D01*
X69643049Y-68269661D01*
X69726412Y-68272577D01*
X69833430Y-68226848D01*
X69994405Y-68121925D01*
X70124536Y-68029720D01*
X70687655Y-67570032D01*
X71126305Y-67085549D01*
X71440444Y-66576323D01*
X71577633Y-66232750D01*
X71733042Y-65831737D01*
X71930826Y-65453490D01*
X72154261Y-65122247D01*
X72386622Y-64862244D01*
X72611186Y-64697716D01*
X72648772Y-64680407D01*
X72745559Y-64627133D01*
X72813614Y-64543395D01*
X72829253Y-64502375D01*
X73124113Y-64502375D01*
X73135122Y-64596491D01*
X73182626Y-64613500D01*
X73276358Y-64646444D01*
X73441734Y-64733490D01*
X73645630Y-64856952D01*
X73679030Y-64878522D01*
X74031499Y-65080003D01*
X74351760Y-65195722D01*
X74674334Y-65241197D01*
X74779114Y-65224889D01*
X74792305Y-65136867D01*
X74785985Y-65105625D01*
X74765993Y-64994040D01*
X74732738Y-64782823D01*
X74690182Y-64498164D01*
X74642287Y-64166257D01*
X74620297Y-64010250D01*
X74572692Y-63678053D01*
X74529751Y-63393414D01*
X74495012Y-63178643D01*
X74472009Y-63056048D01*
X74465942Y-63036212D01*
X74391330Y-63032822D01*
X74231233Y-63057344D01*
X74021784Y-63101112D01*
X73799117Y-63155459D01*
X73599363Y-63211720D01*
X73458658Y-63261228D01*
X73413694Y-63288583D01*
X73381435Y-63379995D01*
X73333610Y-63561627D01*
X73279066Y-63799066D01*
X73262996Y-63874693D01*
X73209077Y-64128807D01*
X73161691Y-64344196D01*
X73129201Y-64483063D01*
X73124113Y-64502375D01*
X72829253Y-64502375D01*
X72868812Y-64398621D01*
X72927028Y-64162242D01*
X72933836Y-64131433D01*
X72992902Y-63832667D01*
X73028837Y-63586978D01*
X73039265Y-63416791D01*
X73021809Y-63344531D01*
X73017372Y-63343500D01*
X72893075Y-63371216D01*
X72675847Y-63448240D01*
X72385480Y-63565381D01*
X72041769Y-63713447D01*
X71664507Y-63883248D01*
X71273487Y-64065594D01*
X70888504Y-64251294D01*
X70529350Y-64431157D01*
X70215820Y-64595994D01*
X69967707Y-64736612D01*
X69837286Y-64820075D01*
X69718483Y-64899648D01*
X69688627Y-64905115D01*
X69735126Y-64838650D01*
X69736000Y-64837546D01*
X69874283Y-64706656D01*
X70107211Y-64534132D01*
X70414188Y-64331715D01*
X70774618Y-64111143D01*
X71167907Y-63884158D01*
X71573457Y-63662498D01*
X71970675Y-63457904D01*
X72338963Y-63282114D01*
X72657727Y-63146869D01*
X72780983Y-63101869D01*
X73115484Y-62988169D01*
X73128733Y-62944419D01*
X74762159Y-62944419D01*
X74793077Y-63223334D01*
X74822381Y-63465549D01*
X74862067Y-63763174D01*
X74908370Y-64091295D01*
X74957525Y-64424999D01*
X75005766Y-64739373D01*
X75049327Y-65009505D01*
X75084445Y-65210481D01*
X75107352Y-65317388D01*
X75111021Y-65327000D01*
X75153164Y-65339844D01*
X75241091Y-65299624D01*
X75385309Y-65198668D01*
X75596330Y-65029308D01*
X75884663Y-64783871D01*
X76037900Y-64650527D01*
X76400451Y-64315250D01*
X76670131Y-64025706D01*
X76841825Y-63788114D01*
X76910416Y-63608695D01*
X76911500Y-63588404D01*
X76857402Y-63463678D01*
X76717602Y-63322749D01*
X76525836Y-63192578D01*
X76315842Y-63100125D01*
X76291549Y-63092992D01*
X76125999Y-63060809D01*
X75874700Y-63027753D01*
X75578768Y-62998799D01*
X75409351Y-62986261D01*
X74762159Y-62944419D01*
X73128733Y-62944419D01*
X73174883Y-62792026D01*
X73496471Y-62792026D01*
X73532567Y-62825368D01*
X73635037Y-62825827D01*
X73825402Y-62794828D01*
X74009717Y-62757815D01*
X74385830Y-62680130D01*
X74349169Y-62370586D01*
X74296286Y-62104288D01*
X74210970Y-61863176D01*
X74107889Y-61679046D01*
X74001715Y-61583694D01*
X73983696Y-61578465D01*
X73900934Y-61622590D01*
X73803737Y-61762192D01*
X73706161Y-61968985D01*
X73622263Y-62214684D01*
X73579913Y-62391000D01*
X73541386Y-62574741D01*
X73506944Y-62718192D01*
X73505230Y-62724375D01*
X73496471Y-62792026D01*
X73174883Y-62792026D01*
X73325834Y-62293576D01*
X73432621Y-61960115D01*
X73524154Y-61724742D01*
X73612552Y-61561528D01*
X73709938Y-61444547D01*
X73732594Y-61423491D01*
X73892719Y-61295282D01*
X74010208Y-61260929D01*
X74128375Y-61320791D01*
X74243483Y-61427714D01*
X74344865Y-61573315D01*
X74456484Y-61799960D01*
X74561710Y-62064566D01*
X74643910Y-62324051D01*
X74686454Y-62535332D01*
X74689000Y-62581788D01*
X74719614Y-62623550D01*
X74825245Y-62640363D01*
X75026568Y-62634156D01*
X75149375Y-62624749D01*
X75476872Y-62612104D01*
X75842574Y-62622078D01*
X76212603Y-62651250D01*
X76553083Y-62696202D01*
X76830137Y-62753512D01*
X76993564Y-62810937D01*
X77266386Y-62981787D01*
X77430317Y-63168919D01*
X77484541Y-63379883D01*
X77428242Y-63622227D01*
X77260606Y-63903497D01*
X76980817Y-64231243D01*
X76822859Y-64391250D01*
X76605791Y-64584873D01*
X76314506Y-64818533D01*
X75983488Y-65066595D01*
X75647223Y-65303425D01*
X75340195Y-65503389D01*
X75268265Y-65546857D01*
X75295235Y-65596966D01*
X75388737Y-65715551D01*
X75529112Y-65877814D01*
X75541808Y-65891973D01*
X75728081Y-66119932D01*
X75930371Y-66399399D01*
X76104811Y-66669755D01*
X76515293Y-67250462D01*
X76998665Y-67729986D01*
X77480390Y-68068509D01*
X77732462Y-68212606D01*
X77909718Y-68286372D01*
X78044385Y-68287814D01*
X78168694Y-68214938D01*
X78314872Y-68065750D01*
X78360565Y-68014071D01*
X78453098Y-67902639D01*
X78529865Y-67789806D01*
X78592331Y-67662997D01*
X78641961Y-67509639D01*
X78680220Y-67317159D01*
X78708572Y-67072982D01*
X78728482Y-66764533D01*
X78741415Y-66379241D01*
X78748836Y-65904529D01*
X78752209Y-65327825D01*
X78753000Y-64645250D01*
X78752197Y-63957177D01*
X78748864Y-63383664D01*
X78741611Y-62912275D01*
X78729048Y-62530574D01*
X78709786Y-62226127D01*
X78682435Y-61986497D01*
X78645606Y-61799249D01*
X78597908Y-61651948D01*
X78537953Y-61532159D01*
X78464351Y-61427446D01*
X78382911Y-61333211D01*
X78208305Y-61176371D01*
X77992165Y-61025125D01*
X77920535Y-60983961D01*
X77641750Y-60835250D01*
X70085250Y-60835250D01*
X69736000Y-61032505D01*
X69525855Y-61166237D01*
X69375495Y-61310323D01*
X69243342Y-61509299D01*
X69177810Y-61630382D01*
X68968870Y-62031005D01*
X68776901Y-62031005D01*
X68782415Y-61976868D01*
X68820608Y-61767928D01*
X68871990Y-61600362D01*
X68938292Y-61461937D01*
X69021247Y-61340423D01*
X69122587Y-61223587D01*
X69244044Y-61099199D01*
X69256868Y-61086368D01*
X69364673Y-60978566D01*
X69463203Y-60886055D01*
X69562596Y-60807715D01*
X69672988Y-60742426D01*
X69804518Y-60689070D01*
X69967321Y-60646525D01*
X70171535Y-60613673D01*
X70427298Y-60589392D01*
X70744746Y-60572565D01*
X71134016Y-60562070D01*
X71605245Y-60556788D01*
X72168571Y-60555599D01*
X72834131Y-60557384D01*
X72834131Y-60557384D01*
G37*
X72834131Y-60557384D02*
X73612062Y-60561023D01*
X73995338Y-60562936D01*
X77705250Y-60581250D01*
X78008169Y-60731726D01*
X78227301Y-60869937D01*
X78454281Y-61057711D01*
X78565026Y-61170691D01*
X78667924Y-61291115D01*
X78753723Y-61406256D01*
X78823883Y-61528411D01*
X78879863Y-61669874D01*
X78923123Y-61842943D01*
X78955123Y-62059912D01*
X78977324Y-62333079D01*
X78991185Y-62674739D01*
X78998166Y-63097187D01*
X78999727Y-63612721D01*
X78997327Y-64233636D01*
X78993767Y-64781714D01*
X78989080Y-65432523D01*
X78984476Y-65969052D01*
X78979250Y-66404016D01*
X78972697Y-66750132D01*
X78964114Y-67020116D01*
X78952795Y-67226686D01*
X78938036Y-67382558D01*
X78919134Y-67500447D01*
X78895382Y-67593072D01*
X78866078Y-67673147D01*
X78830517Y-67753391D01*
X78828970Y-67756750D01*
X78604622Y-68141703D01*
X78335768Y-68411162D01*
X78015454Y-68568063D01*
X77636724Y-68615341D01*
X77192624Y-68555934D01*
X77034150Y-68514461D01*
X76550784Y-68309731D01*
X76113893Y-67991074D01*
X75728757Y-67564698D01*
X75400657Y-67036811D01*
X75134875Y-66413620D01*
X75065472Y-66200439D01*
X75041924Y-66122910D01*
X75339446Y-66122910D01*
X75354636Y-66210654D01*
X75416912Y-66383667D01*
X75515483Y-66614173D01*
X75601207Y-66796726D01*
X75896312Y-67318003D01*
X76219820Y-67722342D01*
X76579160Y-68018061D01*
X76801230Y-68140447D01*
X77042179Y-68244013D01*
X77186711Y-68287799D01*
X77230195Y-68273150D01*
X77168000Y-68201413D01*
X77005902Y-68080990D01*
X76787317Y-67921512D01*
X76594523Y-67752247D01*
X76408076Y-67551090D01*
X76208532Y-67295938D01*
X75976449Y-66964685D01*
X75827070Y-66740807D01*
X75655948Y-66489940D01*
X75509498Y-66291294D01*
X75401085Y-66161804D01*
X75344073Y-66118407D01*
X75339446Y-66122910D01*
X75041924Y-66122910D01*
X74931901Y-65760686D01*
X74360601Y-66144827D01*
X74125965Y-66297262D01*
X73930898Y-66413975D01*
X73798321Y-66481885D01*
X73752317Y-66491984D01*
X73739177Y-66437700D01*
X73741791Y-66435396D01*
X73800841Y-66392121D01*
X73940196Y-66290158D01*
X74137633Y-66145764D01*
X74322449Y-66010637D01*
X74545237Y-65845056D01*
X74721766Y-65708665D01*
X74831888Y-65617375D01*
X74858479Y-65587312D01*
X74791931Y-65566165D01*
X74634687Y-65528051D01*
X74420538Y-65481152D01*
X74416591Y-65480324D01*
X73992389Y-65346456D01*
X73556272Y-65127675D01*
X73545131Y-65120975D01*
X73336766Y-64999595D01*
X73173446Y-64912940D01*
X73082084Y-64874980D01*
X73072324Y-64875509D01*
X73043920Y-64942789D01*
X72986862Y-65104901D01*
X72910220Y-65335408D01*
X72846090Y-65534911D01*
X72590828Y-66250051D01*
X72311802Y-66853799D01*
X72001144Y-67360762D01*
X71650984Y-67785551D01*
X71612652Y-67824923D01*
X71258352Y-68144130D01*
X70912056Y-68363758D01*
X70535671Y-68502568D01*
X70091103Y-68579320D01*
X70078041Y-68580682D01*
X69841185Y-68595335D01*
X69670315Y-68573065D01*
X69507281Y-68503786D01*
X69450250Y-68471772D01*
X69281194Y-68346782D01*
X69254278Y-68314179D01*
X70212250Y-68314179D01*
X70402750Y-68269186D01*
X70578484Y-68212422D01*
X70793102Y-68123418D01*
X70869785Y-68087014D01*
X71215025Y-67853984D01*
X71552782Y-67506818D01*
X71874345Y-67058375D01*
X72171004Y-66521512D01*
X72434049Y-65909089D01*
X72532212Y-65633017D01*
X72634951Y-65318086D01*
X72693394Y-65110979D01*
X72707378Y-65000437D01*
X72676737Y-64975197D01*
X72601308Y-65023999D01*
X72524334Y-65093744D01*
X72310123Y-65339450D01*
X72114904Y-65657793D01*
X71926609Y-66070152D01*
X71827677Y-66328148D01*
X71715582Y-66606705D01*
X71590379Y-66874009D01*
X71475559Y-67080711D01*
X71453956Y-67113252D01*
X71283633Y-67326195D01*
X71047181Y-67581245D01*
X70779426Y-67843458D01*
X70515193Y-68077888D01*
X70402750Y-68168055D01*
X70212250Y-68314179D01*
X69254278Y-68314179D01*
X69134425Y-68169008D01*
X68982283Y-67904569D01*
X68974000Y-67888387D01*
X68751750Y-67452362D01*
X68733220Y-64784329D01*
X68728655Y-64070282D01*
X68726887Y-63470998D01*
X68729646Y-62974247D01*
X68738666Y-62567796D01*
X68755678Y-62239413D01*
X68776901Y-62031005D01*
X68968870Y-62031005D01*
X68987310Y-64703377D01*
X69005750Y-67375750D01*
X69196250Y-67756750D01*
X69327119Y-67980952D01*
X69463599Y-68154462D01*
X69553036Y-68228649D01*
X69643049Y-68269661D01*
X69726412Y-68272577D01*
X69833430Y-68226848D01*
X69994405Y-68121925D01*
X70124536Y-68029720D01*
X70687655Y-67570032D01*
X71126305Y-67085549D01*
X71440444Y-66576323D01*
X71577633Y-66232750D01*
X71733042Y-65831737D01*
X71930826Y-65453490D01*
X72154261Y-65122247D01*
X72386622Y-64862244D01*
X72611186Y-64697716D01*
X72648772Y-64680407D01*
X72745559Y-64627133D01*
X72813614Y-64543395D01*
X72829253Y-64502375D01*
X73124113Y-64502375D01*
X73135122Y-64596491D01*
X73182626Y-64613500D01*
X73276358Y-64646444D01*
X73441734Y-64733490D01*
X73645630Y-64856952D01*
X73679030Y-64878522D01*
X74031499Y-65080003D01*
X74351760Y-65195722D01*
X74674334Y-65241197D01*
X74779114Y-65224889D01*
X74792305Y-65136867D01*
X74785985Y-65105625D01*
X74765993Y-64994040D01*
X74732738Y-64782823D01*
X74690182Y-64498164D01*
X74642287Y-64166257D01*
X74620297Y-64010250D01*
X74572692Y-63678053D01*
X74529751Y-63393414D01*
X74495012Y-63178643D01*
X74472009Y-63056048D01*
X74465942Y-63036212D01*
X74391330Y-63032822D01*
X74231233Y-63057344D01*
X74021784Y-63101112D01*
X73799117Y-63155459D01*
X73599363Y-63211720D01*
X73458658Y-63261228D01*
X73413694Y-63288583D01*
X73381435Y-63379995D01*
X73333610Y-63561627D01*
X73279066Y-63799066D01*
X73262996Y-63874693D01*
X73209077Y-64128807D01*
X73161691Y-64344196D01*
X73129201Y-64483063D01*
X73124113Y-64502375D01*
X72829253Y-64502375D01*
X72868812Y-64398621D01*
X72927028Y-64162242D01*
X72933836Y-64131433D01*
X72992902Y-63832667D01*
X73028837Y-63586978D01*
X73039265Y-63416791D01*
X73021809Y-63344531D01*
X73017372Y-63343500D01*
X72893075Y-63371216D01*
X72675847Y-63448240D01*
X72385480Y-63565381D01*
X72041769Y-63713447D01*
X71664507Y-63883248D01*
X71273487Y-64065594D01*
X70888504Y-64251294D01*
X70529350Y-64431157D01*
X70215820Y-64595994D01*
X69967707Y-64736612D01*
X69837286Y-64820075D01*
X69718483Y-64899648D01*
X69688627Y-64905115D01*
X69735126Y-64838650D01*
X69736000Y-64837546D01*
X69874283Y-64706656D01*
X70107211Y-64534132D01*
X70414188Y-64331715D01*
X70774618Y-64111143D01*
X71167907Y-63884158D01*
X71573457Y-63662498D01*
X71970675Y-63457904D01*
X72338963Y-63282114D01*
X72657727Y-63146869D01*
X72780983Y-63101869D01*
X73115484Y-62988169D01*
X73128733Y-62944419D01*
X74762159Y-62944419D01*
X74793077Y-63223334D01*
X74822381Y-63465549D01*
X74862067Y-63763174D01*
X74908370Y-64091295D01*
X74957525Y-64424999D01*
X75005766Y-64739373D01*
X75049327Y-65009505D01*
X75084445Y-65210481D01*
X75107352Y-65317388D01*
X75111021Y-65327000D01*
X75153164Y-65339844D01*
X75241091Y-65299624D01*
X75385309Y-65198668D01*
X75596330Y-65029308D01*
X75884663Y-64783871D01*
X76037900Y-64650527D01*
X76400451Y-64315250D01*
X76670131Y-64025706D01*
X76841825Y-63788114D01*
X76910416Y-63608695D01*
X76911500Y-63588404D01*
X76857402Y-63463678D01*
X76717602Y-63322749D01*
X76525836Y-63192578D01*
X76315842Y-63100125D01*
X76291549Y-63092992D01*
X76125999Y-63060809D01*
X75874700Y-63027753D01*
X75578768Y-62998799D01*
X75409351Y-62986261D01*
X74762159Y-62944419D01*
X73128733Y-62944419D01*
X73174883Y-62792026D01*
X73496471Y-62792026D01*
X73532567Y-62825368D01*
X73635037Y-62825827D01*
X73825402Y-62794828D01*
X74009717Y-62757815D01*
X74385830Y-62680130D01*
X74349169Y-62370586D01*
X74296286Y-62104288D01*
X74210970Y-61863176D01*
X74107889Y-61679046D01*
X74001715Y-61583694D01*
X73983696Y-61578465D01*
X73900934Y-61622590D01*
X73803737Y-61762192D01*
X73706161Y-61968985D01*
X73622263Y-62214684D01*
X73579913Y-62391000D01*
X73541386Y-62574741D01*
X73506944Y-62718192D01*
X73505230Y-62724375D01*
X73496471Y-62792026D01*
X73174883Y-62792026D01*
X73325834Y-62293576D01*
X73432621Y-61960115D01*
X73524154Y-61724742D01*
X73612552Y-61561528D01*
X73709938Y-61444547D01*
X73732594Y-61423491D01*
X73892719Y-61295282D01*
X74010208Y-61260929D01*
X74128375Y-61320791D01*
X74243483Y-61427714D01*
X74344865Y-61573315D01*
X74456484Y-61799960D01*
X74561710Y-62064566D01*
X74643910Y-62324051D01*
X74686454Y-62535332D01*
X74689000Y-62581788D01*
X74719614Y-62623550D01*
X74825245Y-62640363D01*
X75026568Y-62634156D01*
X75149375Y-62624749D01*
X75476872Y-62612104D01*
X75842574Y-62622078D01*
X76212603Y-62651250D01*
X76553083Y-62696202D01*
X76830137Y-62753512D01*
X76993564Y-62810937D01*
X77266386Y-62981787D01*
X77430317Y-63168919D01*
X77484541Y-63379883D01*
X77428242Y-63622227D01*
X77260606Y-63903497D01*
X76980817Y-64231243D01*
X76822859Y-64391250D01*
X76605791Y-64584873D01*
X76314506Y-64818533D01*
X75983488Y-65066595D01*
X75647223Y-65303425D01*
X75340195Y-65503389D01*
X75268265Y-65546857D01*
X75295235Y-65596966D01*
X75388737Y-65715551D01*
X75529112Y-65877814D01*
X75541808Y-65891973D01*
X75728081Y-66119932D01*
X75930371Y-66399399D01*
X76104811Y-66669755D01*
X76515293Y-67250462D01*
X76998665Y-67729986D01*
X77480390Y-68068509D01*
X77732462Y-68212606D01*
X77909718Y-68286372D01*
X78044385Y-68287814D01*
X78168694Y-68214938D01*
X78314872Y-68065750D01*
X78360565Y-68014071D01*
X78453098Y-67902639D01*
X78529865Y-67789806D01*
X78592331Y-67662997D01*
X78641961Y-67509639D01*
X78680220Y-67317159D01*
X78708572Y-67072982D01*
X78728482Y-66764533D01*
X78741415Y-66379241D01*
X78748836Y-65904529D01*
X78752209Y-65327825D01*
X78753000Y-64645250D01*
X78752197Y-63957177D01*
X78748864Y-63383664D01*
X78741611Y-62912275D01*
X78729048Y-62530574D01*
X78709786Y-62226127D01*
X78682435Y-61986497D01*
X78645606Y-61799249D01*
X78597908Y-61651948D01*
X78537953Y-61532159D01*
X78464351Y-61427446D01*
X78382911Y-61333211D01*
X78208305Y-61176371D01*
X77992165Y-61025125D01*
X77920535Y-60983961D01*
X77641750Y-60835250D01*
X70085250Y-60835250D01*
X69736000Y-61032505D01*
X69525855Y-61166237D01*
X69375495Y-61310323D01*
X69243342Y-61509299D01*
X69177810Y-61630382D01*
X68968870Y-62031005D01*
X68776901Y-62031005D01*
X68782415Y-61976868D01*
X68820608Y-61767928D01*
X68871990Y-61600362D01*
X68938292Y-61461937D01*
X69021247Y-61340423D01*
X69122587Y-61223587D01*
X69244044Y-61099199D01*
X69256868Y-61086368D01*
X69364673Y-60978566D01*
X69463203Y-60886055D01*
X69562596Y-60807715D01*
X69672988Y-60742426D01*
X69804518Y-60689070D01*
X69967321Y-60646525D01*
X70171535Y-60613673D01*
X70427298Y-60589392D01*
X70744746Y-60572565D01*
X71134016Y-60562070D01*
X71605245Y-60556788D01*
X72168571Y-60555599D01*
X72834131Y-60557384D01*
G36*
X74458118Y-66511414D02*
X74526649Y-66596129D01*
X74610468Y-66813732D01*
X74610558Y-67071100D01*
X74545188Y-67275485D01*
X74465423Y-67388720D01*
X74378900Y-67458311D01*
X74319222Y-67462370D01*
X74310019Y-67428666D01*
X74346377Y-67341521D01*
X74405269Y-67252488D01*
X74490712Y-67038799D01*
X74461471Y-66784636D01*
X74401619Y-66642346D01*
X74351916Y-66504447D01*
X74377304Y-66458381D01*
X74458118Y-66511414D01*
X74458118Y-66511414D01*
G37*
X74458118Y-66511414D02*
X74526649Y-66596129D01*
X74610468Y-66813732D01*
X74610558Y-67071100D01*
X74545188Y-67275485D01*
X74465423Y-67388720D01*
X74378900Y-67458311D01*
X74319222Y-67462370D01*
X74310019Y-67428666D01*
X74346377Y-67341521D01*
X74405269Y-67252488D01*
X74490712Y-67038799D01*
X74461471Y-66784636D01*
X74401619Y-66642346D01*
X74351916Y-66504447D01*
X74377304Y-66458381D01*
X74458118Y-66511414D01*
G36*
X73300794Y-66636620D02*
X73427731Y-66768739D01*
X73505919Y-66930745D01*
X73508950Y-67052352D01*
X73401972Y-67238939D01*
X73239780Y-67328803D01*
X73054831Y-67313009D01*
X72911000Y-67217000D01*
X72815862Y-67078764D01*
X72785872Y-66969800D01*
X72967716Y-66969800D01*
X73020239Y-67105473D01*
X73121032Y-67197993D01*
X73168175Y-67211986D01*
X73237200Y-67177683D01*
X73279300Y-67140800D01*
X73346044Y-67005972D01*
X73321247Y-66868518D01*
X73228128Y-66768212D01*
X73089903Y-66744830D01*
X73053875Y-66754622D01*
X72975062Y-66837380D01*
X72967716Y-66969800D01*
X72785872Y-66969800D01*
X72784000Y-66963000D01*
X72836895Y-66806595D01*
X72964332Y-66665250D01*
X73119435Y-66586413D01*
X73160391Y-66582000D01*
X73300794Y-66636620D01*
X73300794Y-66636620D01*
G37*
X73300794Y-66636620D02*
X73427731Y-66768739D01*
X73505919Y-66930745D01*
X73508950Y-67052352D01*
X73401972Y-67238939D01*
X73239780Y-67328803D01*
X73054831Y-67313009D01*
X72911000Y-67217000D01*
X72815862Y-67078764D01*
X72785872Y-66969800D01*
X72967716Y-66969800D01*
X73020239Y-67105473D01*
X73121032Y-67197993D01*
X73168175Y-67211986D01*
X73237200Y-67177683D01*
X73279300Y-67140800D01*
X73346044Y-67005972D01*
X73321247Y-66868518D01*
X73228128Y-66768212D01*
X73089903Y-66744830D01*
X73053875Y-66754622D01*
X72975062Y-66837380D01*
X72967716Y-66969800D01*
X72785872Y-66969800D01*
X72784000Y-66963000D01*
X72836895Y-66806595D01*
X72964332Y-66665250D01*
X73119435Y-66586413D01*
X73160391Y-66582000D01*
X73300794Y-66636620D01*
G36*
X74178073Y-66578660D02*
X74211386Y-66618385D01*
X74290959Y-66812601D01*
X74296572Y-67045588D01*
X74242265Y-67221174D01*
X74164036Y-67317969D01*
X74095072Y-67341369D01*
X74071069Y-67288681D01*
X74087122Y-67232875D01*
X74163180Y-66966188D01*
X74138855Y-66755043D01*
X74118397Y-66710677D01*
X74072993Y-66580476D01*
X74099282Y-66530120D01*
X74178073Y-66578660D01*
X74178073Y-66578660D01*
G37*
X74178073Y-66578660D02*
X74211386Y-66618385D01*
X74290959Y-66812601D01*
X74296572Y-67045588D01*
X74242265Y-67221174D01*
X74164036Y-67317969D01*
X74095072Y-67341369D01*
X74071069Y-67288681D01*
X74087122Y-67232875D01*
X74163180Y-66966188D01*
X74138855Y-66755043D01*
X74118397Y-66710677D01*
X74072993Y-66580476D01*
X74099282Y-66530120D01*
X74178073Y-66578660D01*
G36*
X73903466Y-66751762D02*
X73940931Y-66875374D01*
X73934739Y-67025939D01*
X73920786Y-67074125D01*
X73861369Y-67189074D01*
X73811041Y-67217863D01*
X73794708Y-67185250D01*
X73782332Y-67027422D01*
X73788737Y-66862996D01*
X73809998Y-66740173D01*
X73833897Y-66704290D01*
X73903466Y-66751762D01*
X73903466Y-66751762D01*
G37*
X73903466Y-66751762D02*
X73940931Y-66875374D01*
X73934739Y-67025939D01*
X73920786Y-67074125D01*
X73861369Y-67189074D01*
X73811041Y-67217863D01*
X73794708Y-67185250D01*
X73782332Y-67027422D01*
X73788737Y-66862996D01*
X73809998Y-66740173D01*
X73833897Y-66704290D01*
X73903466Y-66751762D01*
G36*
X79811739Y-66359216D02*
X79740988Y-66418066D01*
X79655853Y-66497453D01*
X79669932Y-66552881D01*
X79740888Y-66608558D01*
X79823356Y-66688228D01*
X79832300Y-66730366D01*
X79763781Y-66722364D01*
X79677388Y-66672058D01*
X79532186Y-66599841D01*
X79439363Y-66582000D01*
X79338667Y-66555783D01*
X79341509Y-66499186D01*
X79441418Y-66445287D01*
X79467375Y-66438818D01*
X79644812Y-66392346D01*
X79737250Y-66362732D01*
X79824805Y-66334669D01*
X79811739Y-66359216D01*
X79811739Y-66359216D01*
G37*
X79811739Y-66359216D02*
X79740988Y-66418066D01*
X79655853Y-66497453D01*
X79669932Y-66552881D01*
X79740888Y-66608558D01*
X79823356Y-66688228D01*
X79832300Y-66730366D01*
X79763781Y-66722364D01*
X79677388Y-66672058D01*
X79532186Y-66599841D01*
X79439363Y-66582000D01*
X79338667Y-66555783D01*
X79341509Y-66499186D01*
X79441418Y-66445287D01*
X79467375Y-66438818D01*
X79644812Y-66392346D01*
X79737250Y-66362732D01*
X79824805Y-66334669D01*
X79811739Y-66359216D01*
G36*
X68247700Y-66172921D02*
X68395583Y-66265018D01*
X68438336Y-66403987D01*
X68400038Y-66523100D01*
X68288032Y-66619862D01*
X68114515Y-66645500D01*
X67968505Y-66629400D01*
X67896190Y-66589863D01*
X67894500Y-66582000D01*
X67950403Y-66540375D01*
X68088219Y-66519182D01*
X68121406Y-66518500D01*
X68273553Y-66506094D01*
X68328740Y-66458617D01*
X68327261Y-66407375D01*
X68247292Y-66312824D01*
X68100354Y-66276351D01*
X67962870Y-66243680D01*
X67895947Y-66194008D01*
X67916064Y-66151336D01*
X68005625Y-66138367D01*
X68247700Y-66172921D01*
X68247700Y-66172921D01*
G37*
X68247700Y-66172921D02*
X68395583Y-66265018D01*
X68438336Y-66403987D01*
X68400038Y-66523100D01*
X68288032Y-66619862D01*
X68114515Y-66645500D01*
X67968505Y-66629400D01*
X67896190Y-66589863D01*
X67894500Y-66582000D01*
X67950403Y-66540375D01*
X68088219Y-66519182D01*
X68121406Y-66518500D01*
X68273553Y-66506094D01*
X68328740Y-66458617D01*
X68327261Y-66407375D01*
X68247292Y-66312824D01*
X68100354Y-66276351D01*
X67962870Y-66243680D01*
X67895947Y-66194008D01*
X67916064Y-66151336D01*
X68005625Y-66138367D01*
X68247700Y-66172921D01*
G36*
X67831000Y-66359750D02*
X67799250Y-66391500D01*
X67767500Y-66359750D01*
X67799250Y-66328000D01*
X67831000Y-66359750D01*
X67831000Y-66359750D01*
G37*
X67831000Y-66359750D02*
X67799250Y-66391500D01*
X67767500Y-66359750D01*
X67799250Y-66328000D01*
X67831000Y-66359750D01*
G36*
X79703567Y-65713175D02*
X79770897Y-65725247D01*
X79753125Y-65736772D01*
X79652927Y-65795219D01*
X79675513Y-65885939D01*
X79737250Y-65947000D01*
X79817349Y-66043672D01*
X79832500Y-66091616D01*
X79793909Y-66103652D01*
X79705500Y-66042250D01*
X79604263Y-65965890D01*
X79527589Y-65978725D01*
X79462374Y-66032408D01*
X79341581Y-66122685D01*
X79289246Y-66127879D01*
X79321446Y-66055869D01*
X79376931Y-65990532D01*
X79486591Y-65859965D01*
X79499751Y-65787268D01*
X79415929Y-65747189D01*
X79372125Y-65737814D01*
X79346087Y-65722528D01*
X79428915Y-65711988D01*
X79546750Y-65709013D01*
X79703567Y-65713175D01*
X79703567Y-65713175D01*
G37*
X79703567Y-65713175D02*
X79770897Y-65725247D01*
X79753125Y-65736772D01*
X79652927Y-65795219D01*
X79675513Y-65885939D01*
X79737250Y-65947000D01*
X79817349Y-66043672D01*
X79832500Y-66091616D01*
X79793909Y-66103652D01*
X79705500Y-66042250D01*
X79604263Y-65965890D01*
X79527589Y-65978725D01*
X79462374Y-66032408D01*
X79341581Y-66122685D01*
X79289246Y-66127879D01*
X79321446Y-66055869D01*
X79376931Y-65990532D01*
X79486591Y-65859965D01*
X79499751Y-65787268D01*
X79415929Y-65747189D01*
X79372125Y-65737814D01*
X79346087Y-65722528D01*
X79428915Y-65711988D01*
X79546750Y-65709013D01*
X79703567Y-65713175D01*
G36*
X68404026Y-65624151D02*
X68428896Y-65670195D01*
X68444944Y-65803943D01*
X68414078Y-65935258D01*
X68351586Y-66007942D01*
X68336308Y-66010500D01*
X68307812Y-65956434D01*
X68314400Y-65824254D01*
X68317958Y-65804125D01*
X68330284Y-65671746D01*
X68298284Y-65655176D01*
X68227354Y-65753364D01*
X68186666Y-65829735D01*
X68086196Y-65964134D01*
X67983011Y-65995939D01*
X67938156Y-65969489D01*
X67898837Y-65864061D01*
X67902557Y-65720213D01*
X67945011Y-65609769D01*
X67960545Y-65596176D01*
X67999555Y-65610828D01*
X67985411Y-65719429D01*
X67975504Y-65847225D01*
X68013406Y-65883500D01*
X68078798Y-65829546D01*
X68122424Y-65724750D01*
X68195893Y-65603369D01*
X68304960Y-65567130D01*
X68404026Y-65624151D01*
X68404026Y-65624151D01*
G37*
X68404026Y-65624151D02*
X68428896Y-65670195D01*
X68444944Y-65803943D01*
X68414078Y-65935258D01*
X68351586Y-66007942D01*
X68336308Y-66010500D01*
X68307812Y-65956434D01*
X68314400Y-65824254D01*
X68317958Y-65804125D01*
X68330284Y-65671746D01*
X68298284Y-65655176D01*
X68227354Y-65753364D01*
X68186666Y-65829735D01*
X68086196Y-65964134D01*
X67983011Y-65995939D01*
X67938156Y-65969489D01*
X67898837Y-65864061D01*
X67902557Y-65720213D01*
X67945011Y-65609769D01*
X67960545Y-65596176D01*
X67999555Y-65610828D01*
X67985411Y-65719429D01*
X67975504Y-65847225D01*
X68013406Y-65883500D01*
X68078798Y-65829546D01*
X68122424Y-65724750D01*
X68195893Y-65603369D01*
X68304960Y-65567130D01*
X68404026Y-65624151D01*
G36*
X79714712Y-65387958D02*
X79818487Y-65419523D01*
X79832500Y-65439000D01*
X79776221Y-65479006D01*
X79635866Y-65501022D01*
X79582247Y-65502500D01*
X79413164Y-65487739D01*
X79304785Y-65451076D01*
X79292750Y-65439000D01*
X79322871Y-65398649D01*
X79461005Y-65377531D01*
X79543002Y-65375500D01*
X79714712Y-65387958D01*
X79714712Y-65387958D01*
G37*
X79714712Y-65387958D02*
X79818487Y-65419523D01*
X79832500Y-65439000D01*
X79776221Y-65479006D01*
X79635866Y-65501022D01*
X79582247Y-65502500D01*
X79413164Y-65487739D01*
X79304785Y-65451076D01*
X79292750Y-65439000D01*
X79322871Y-65398649D01*
X79461005Y-65377531D01*
X79543002Y-65375500D01*
X79714712Y-65387958D01*
G36*
X67936554Y-65042125D02*
X68015716Y-65096151D01*
X68165569Y-65121273D01*
X68181794Y-65121500D01*
X68338084Y-65138728D01*
X68431056Y-65180642D01*
X68434250Y-65185000D01*
X68405911Y-65226899D01*
X68272415Y-65247427D01*
X68220403Y-65248500D01*
X68039022Y-65265821D01*
X67952081Y-65325334D01*
X67938272Y-65359625D01*
X67920284Y-65374921D01*
X67908734Y-65284032D01*
X67906879Y-65216750D01*
X67912121Y-65078535D01*
X67928086Y-65030182D01*
X67936554Y-65042125D01*
X67936554Y-65042125D01*
G37*
X67936554Y-65042125D02*
X68015716Y-65096151D01*
X68165569Y-65121273D01*
X68181794Y-65121500D01*
X68338084Y-65138728D01*
X68431056Y-65180642D01*
X68434250Y-65185000D01*
X68405911Y-65226899D01*
X68272415Y-65247427D01*
X68220403Y-65248500D01*
X68039022Y-65265821D01*
X67952081Y-65325334D01*
X67938272Y-65359625D01*
X67920284Y-65374921D01*
X67908734Y-65284032D01*
X67906879Y-65216750D01*
X67912121Y-65078535D01*
X67928086Y-65030182D01*
X67936554Y-65042125D01*
G36*
X79457586Y-64874945D02*
X79532327Y-64931000D01*
X79668718Y-65029946D01*
X79739790Y-65043600D01*
X79776003Y-64970068D01*
X79787685Y-64915125D01*
X79807246Y-64849848D01*
X79819642Y-64905303D01*
X79823852Y-64978625D01*
X79815290Y-65129407D01*
X79761637Y-65175437D01*
X79646671Y-65121231D01*
X79555313Y-65053391D01*
X79388000Y-64921782D01*
X79388000Y-65053391D01*
X79362244Y-65159053D01*
X79324500Y-65185000D01*
X79279914Y-65129820D01*
X79261004Y-64996870D01*
X79261000Y-64994500D01*
X79277146Y-64852092D01*
X79336977Y-64813574D01*
X79457586Y-64874945D01*
X79457586Y-64874945D01*
G37*
X79457586Y-64874945D02*
X79532327Y-64931000D01*
X79668718Y-65029946D01*
X79739790Y-65043600D01*
X79776003Y-64970068D01*
X79787685Y-64915125D01*
X79807246Y-64849848D01*
X79819642Y-64905303D01*
X79823852Y-64978625D01*
X79815290Y-65129407D01*
X79761637Y-65175437D01*
X79646671Y-65121231D01*
X79555313Y-65053391D01*
X79388000Y-64921782D01*
X79388000Y-65053391D01*
X79362244Y-65159053D01*
X79324500Y-65185000D01*
X79279914Y-65129820D01*
X79261004Y-64996870D01*
X79261000Y-64994500D01*
X79277146Y-64852092D01*
X79336977Y-64813574D01*
X79457586Y-64874945D01*
G36*
X68438771Y-64456623D02*
X68372334Y-64521844D01*
X68287556Y-64611143D01*
X68304984Y-64707463D01*
X68325247Y-64742075D01*
X68364553Y-64834360D01*
X68319086Y-64863290D01*
X68177449Y-64831162D01*
X68069125Y-64793695D01*
X67928732Y-64719758D01*
X67913032Y-64644284D01*
X68047276Y-64644284D01*
X68053250Y-64677000D01*
X68134432Y-64738077D01*
X68152247Y-64740500D01*
X68210289Y-64692065D01*
X68212000Y-64677000D01*
X68160313Y-64621271D01*
X68113002Y-64613500D01*
X68047276Y-64644284D01*
X67913032Y-64644284D01*
X67912704Y-64642712D01*
X68021783Y-64558014D01*
X68114710Y-64515009D01*
X68302737Y-64447201D01*
X68415700Y-64427870D01*
X68438771Y-64456623D01*
X68438771Y-64456623D01*
G37*
X68438771Y-64456623D02*
X68372334Y-64521844D01*
X68287556Y-64611143D01*
X68304984Y-64707463D01*
X68325247Y-64742075D01*
X68364553Y-64834360D01*
X68319086Y-64863290D01*
X68177449Y-64831162D01*
X68069125Y-64793695D01*
X67928732Y-64719758D01*
X67913032Y-64644284D01*
X68047276Y-64644284D01*
X68053250Y-64677000D01*
X68134432Y-64738077D01*
X68152247Y-64740500D01*
X68210289Y-64692065D01*
X68212000Y-64677000D01*
X68160313Y-64621271D01*
X68113002Y-64613500D01*
X68047276Y-64644284D01*
X67913032Y-64644284D01*
X67912704Y-64642712D01*
X68021783Y-64558014D01*
X68114710Y-64515009D01*
X68302737Y-64447201D01*
X68415700Y-64427870D01*
X68438771Y-64456623D01*
G36*
X79811739Y-64263716D02*
X79740988Y-64322566D01*
X79655853Y-64401953D01*
X79669932Y-64457381D01*
X79740888Y-64513058D01*
X79821712Y-64594252D01*
X79827764Y-64639402D01*
X79756362Y-64634095D01*
X79669114Y-64583113D01*
X79508887Y-64507226D01*
X79400127Y-64488519D01*
X79299024Y-64465017D01*
X79303699Y-64414528D01*
X79403401Y-64360564D01*
X79466436Y-64343497D01*
X79643921Y-64297094D01*
X79737250Y-64267232D01*
X79824805Y-64239169D01*
X79811739Y-64263716D01*
X79811739Y-64263716D01*
G37*
X79811739Y-64263716D02*
X79740988Y-64322566D01*
X79655853Y-64401953D01*
X79669932Y-64457381D01*
X79740888Y-64513058D01*
X79821712Y-64594252D01*
X79827764Y-64639402D01*
X79756362Y-64634095D01*
X79669114Y-64583113D01*
X79508887Y-64507226D01*
X79400127Y-64488519D01*
X79299024Y-64465017D01*
X79303699Y-64414528D01*
X79403401Y-64360564D01*
X79466436Y-64343497D01*
X79643921Y-64297094D01*
X79737250Y-64267232D01*
X79824805Y-64239169D01*
X79811739Y-64263716D01*
G36*
X67977230Y-63867161D02*
X68117953Y-63918712D01*
X68243243Y-63972750D01*
X68395843Y-64044158D01*
X68445555Y-64089453D01*
X68406633Y-64131578D01*
X68358643Y-64158487D01*
X68154065Y-64256387D01*
X67993443Y-64311767D01*
X67904150Y-64316242D01*
X67894500Y-64300640D01*
X67947725Y-64243359D01*
X68078133Y-64176145D01*
X68100875Y-64167246D01*
X68307250Y-64089570D01*
X68100875Y-64024849D01*
X67962020Y-63967082D01*
X67895491Y-63911449D01*
X67894500Y-63905814D01*
X67911037Y-63864452D01*
X67977230Y-63867161D01*
X67977230Y-63867161D01*
G37*
X67977230Y-63867161D02*
X68117953Y-63918712D01*
X68243243Y-63972750D01*
X68395843Y-64044158D01*
X68445555Y-64089453D01*
X68406633Y-64131578D01*
X68358643Y-64158487D01*
X68154065Y-64256387D01*
X67993443Y-64311767D01*
X67904150Y-64316242D01*
X67894500Y-64300640D01*
X67947725Y-64243359D01*
X68078133Y-64176145D01*
X68100875Y-64167246D01*
X68307250Y-64089570D01*
X68100875Y-64024849D01*
X67962020Y-63967082D01*
X67895491Y-63911449D01*
X67894500Y-63905814D01*
X67911037Y-63864452D01*
X67977230Y-63867161D01*
G36*
X79719861Y-63665628D02*
X79803012Y-63695819D01*
X79825743Y-63776034D01*
X79823852Y-63867375D01*
X79814124Y-63984075D01*
X79798403Y-63977986D01*
X79787685Y-63930875D01*
X79733539Y-63819234D01*
X79673750Y-63788000D01*
X79595829Y-63841970D01*
X79559814Y-63930875D01*
X79532295Y-64073750D01*
X79523647Y-63930875D01*
X79482381Y-63819299D01*
X79423497Y-63788000D01*
X79315385Y-63749299D01*
X79292750Y-63724500D01*
X79322871Y-63684149D01*
X79461005Y-63663031D01*
X79543002Y-63661000D01*
X79719861Y-63665628D01*
X79719861Y-63665628D01*
G37*
X79719861Y-63665628D02*
X79803012Y-63695819D01*
X79825743Y-63776034D01*
X79823852Y-63867375D01*
X79814124Y-63984075D01*
X79798403Y-63977986D01*
X79787685Y-63930875D01*
X79733539Y-63819234D01*
X79673750Y-63788000D01*
X79595829Y-63841970D01*
X79559814Y-63930875D01*
X79532295Y-64073750D01*
X79523647Y-63930875D01*
X79482381Y-63819299D01*
X79423497Y-63788000D01*
X79315385Y-63749299D01*
X79292750Y-63724500D01*
X79322871Y-63684149D01*
X79461005Y-63663031D01*
X79543002Y-63661000D01*
X79719861Y-63665628D01*
G36*
X67938272Y-62851375D02*
X68009444Y-62935410D01*
X68176604Y-62962467D01*
X68184906Y-62962500D01*
X68329946Y-62978765D01*
X68401042Y-63018655D01*
X68402500Y-63026000D01*
X68346763Y-63068326D01*
X68210074Y-63089074D01*
X68184906Y-63089500D01*
X68013788Y-63114632D01*
X67939442Y-63196389D01*
X67938272Y-63200625D01*
X67921541Y-63212105D01*
X67911046Y-63118234D01*
X67909232Y-63026000D01*
X67914571Y-62881808D01*
X67928193Y-62830658D01*
X67938272Y-62851375D01*
X67938272Y-62851375D01*
G37*
X67938272Y-62851375D02*
X68009444Y-62935410D01*
X68176604Y-62962467D01*
X68184906Y-62962500D01*
X68329946Y-62978765D01*
X68401042Y-63018655D01*
X68402500Y-63026000D01*
X68346763Y-63068326D01*
X68210074Y-63089074D01*
X68184906Y-63089500D01*
X68013788Y-63114632D01*
X67939442Y-63196389D01*
X67938272Y-63200625D01*
X67921541Y-63212105D01*
X67911046Y-63118234D01*
X67909232Y-63026000D01*
X67914571Y-62881808D01*
X67928193Y-62830658D01*
X67938272Y-62851375D01*
G36*
X79938333Y-62920166D02*
X79945933Y-62995526D01*
X79938333Y-63004833D01*
X79900582Y-62996116D01*
X79896000Y-62962500D01*
X79919233Y-62910232D01*
X79938333Y-62920166D01*
X79938333Y-62920166D01*
G37*
X79938333Y-62920166D02*
X79945933Y-62995526D01*
X79938333Y-63004833D01*
X79900582Y-62996116D01*
X79896000Y-62962500D01*
X79919233Y-62910232D01*
X79938333Y-62920166D01*
G36*
X79722248Y-62917800D02*
X79747800Y-62932672D01*
X79664602Y-62942259D01*
X79546750Y-62944338D01*
X79402673Y-62939586D01*
X79360531Y-62928207D01*
X79404748Y-62916933D01*
X79592542Y-62906487D01*
X79722248Y-62917800D01*
X79722248Y-62917800D01*
G37*
X79722248Y-62917800D02*
X79747800Y-62932672D01*
X79664602Y-62942259D01*
X79546750Y-62944338D01*
X79402673Y-62939586D01*
X79360531Y-62928207D01*
X79404748Y-62916933D01*
X79592542Y-62906487D01*
X79722248Y-62917800D01*
G36*
X79706590Y-62279457D02*
X79815316Y-62306898D01*
X79832500Y-62327500D01*
X79795782Y-62390397D01*
X79784875Y-62392411D01*
X79705370Y-62428602D01*
X79582306Y-62512913D01*
X79427363Y-62632002D01*
X79590738Y-62600771D01*
X79727746Y-62600964D01*
X79797054Y-62639020D01*
X79772496Y-62686043D01*
X79624277Y-62707179D01*
X79550497Y-62708500D01*
X79378783Y-62696360D01*
X79275008Y-62665604D01*
X79261000Y-62646630D01*
X79311713Y-62578937D01*
X79436775Y-62491227D01*
X79467375Y-62474142D01*
X79673750Y-62363524D01*
X79451500Y-62322121D01*
X79327651Y-62297231D01*
X79308636Y-62283720D01*
X79402780Y-62276369D01*
X79530875Y-62272359D01*
X79706590Y-62279457D01*
X79706590Y-62279457D01*
G37*
X79706590Y-62279457D02*
X79815316Y-62306898D01*
X79832500Y-62327500D01*
X79795782Y-62390397D01*
X79784875Y-62392411D01*
X79705370Y-62428602D01*
X79582306Y-62512913D01*
X79427363Y-62632002D01*
X79590738Y-62600771D01*
X79727746Y-62600964D01*
X79797054Y-62639020D01*
X79772496Y-62686043D01*
X79624277Y-62707179D01*
X79550497Y-62708500D01*
X79378783Y-62696360D01*
X79275008Y-62665604D01*
X79261000Y-62646630D01*
X79311713Y-62578937D01*
X79436775Y-62491227D01*
X79467375Y-62474142D01*
X79673750Y-62363524D01*
X79451500Y-62322121D01*
X79327651Y-62297231D01*
X79308636Y-62283720D01*
X79402780Y-62276369D01*
X79530875Y-62272359D01*
X79706590Y-62279457D01*
G36*
X68402500Y-62232250D02*
X68448249Y-62318092D01*
X68466000Y-62458247D01*
X68457387Y-62573108D01*
X68408591Y-62627513D01*
X68285172Y-62643968D01*
X68180250Y-62645000D01*
X68004824Y-62640115D01*
X67922625Y-62608835D01*
X67899886Y-62526220D01*
X67900829Y-62438625D01*
X67908408Y-62312799D01*
X67924409Y-62304964D01*
X67948454Y-62378872D01*
X68003357Y-62491780D01*
X68053250Y-62525495D01*
X68117172Y-62472150D01*
X68158045Y-62378872D01*
X68187858Y-62285239D01*
X68200582Y-62307114D01*
X68205670Y-62406875D01*
X68233882Y-62546555D01*
X68284588Y-62574699D01*
X68328302Y-62495647D01*
X68339000Y-62387252D01*
X68356197Y-62260309D01*
X68400321Y-62230997D01*
X68402500Y-62232250D01*
X68402500Y-62232250D01*
G37*
X68402500Y-62232250D02*
X68448249Y-62318092D01*
X68466000Y-62458247D01*
X68457387Y-62573108D01*
X68408591Y-62627513D01*
X68285172Y-62643968D01*
X68180250Y-62645000D01*
X68004824Y-62640115D01*
X67922625Y-62608835D01*
X67899886Y-62526220D01*
X67900829Y-62438625D01*
X67908408Y-62312799D01*
X67924409Y-62304964D01*
X67948454Y-62378872D01*
X68003357Y-62491780D01*
X68053250Y-62525495D01*
X68117172Y-62472150D01*
X68158045Y-62378872D01*
X68187858Y-62285239D01*
X68200582Y-62307114D01*
X68205670Y-62406875D01*
X68233882Y-62546555D01*
X68284588Y-62574699D01*
X68328302Y-62495647D01*
X68339000Y-62387252D01*
X68356197Y-62260309D01*
X68400321Y-62230997D01*
X68402500Y-62232250D01*
G36*
X79705500Y-61621843D02*
X79649970Y-61675107D01*
X79513374Y-61722208D01*
X79483788Y-61728338D01*
X79337709Y-61767021D01*
X79288212Y-61827472D01*
X79300172Y-61921715D01*
X79315836Y-62044417D01*
X79289451Y-62067290D01*
X79237595Y-61977065D01*
X79236043Y-61973056D01*
X79200494Y-61795721D01*
X79263089Y-61691351D01*
X79324500Y-61665029D01*
X79499855Y-61615281D01*
X79578500Y-61592970D01*
X79679350Y-61589931D01*
X79705500Y-61621843D01*
X79705500Y-61621843D01*
G37*
X79705500Y-61621843D02*
X79649970Y-61675107D01*
X79513374Y-61722208D01*
X79483788Y-61728338D01*
X79337709Y-61767021D01*
X79288212Y-61827472D01*
X79300172Y-61921715D01*
X79315836Y-62044417D01*
X79289451Y-62067290D01*
X79237595Y-61977065D01*
X79236043Y-61973056D01*
X79200494Y-61795721D01*
X79263089Y-61691351D01*
X79324500Y-61665029D01*
X79499855Y-61615281D01*
X79578500Y-61592970D01*
X79679350Y-61589931D01*
X79705500Y-61621843D01*
G36*
X68178705Y-61559659D02*
X68157270Y-61586114D01*
X68099452Y-61722531D01*
X68140269Y-61831449D01*
X68261442Y-61873899D01*
X68291091Y-61871373D01*
X68401663Y-61819964D01*
X68419123Y-61708169D01*
X68430710Y-61597366D01*
X68466748Y-61565500D01*
X68516966Y-61616388D01*
X68526541Y-61733323D01*
X68497429Y-61862708D01*
X68453300Y-61933800D01*
X68303223Y-62005194D01*
X68135759Y-61969709D01*
X68060504Y-61912932D01*
X68003580Y-61779711D01*
X68031533Y-61628804D01*
X68130136Y-61521033D01*
X68154564Y-61510818D01*
X68210939Y-61502749D01*
X68178705Y-61559659D01*
X68178705Y-61559659D01*
G37*
X68178705Y-61559659D02*
X68157270Y-61586114D01*
X68099452Y-61722531D01*
X68140269Y-61831449D01*
X68261442Y-61873899D01*
X68291091Y-61871373D01*
X68401663Y-61819964D01*
X68419123Y-61708169D01*
X68430710Y-61597366D01*
X68466748Y-61565500D01*
X68516966Y-61616388D01*
X68526541Y-61733323D01*
X68497429Y-61862708D01*
X68453300Y-61933800D01*
X68303223Y-62005194D01*
X68135759Y-61969709D01*
X68060504Y-61912932D01*
X68003580Y-61779711D01*
X68031533Y-61628804D01*
X68130136Y-61521033D01*
X68154564Y-61510818D01*
X68210939Y-61502749D01*
X68178705Y-61559659D01*
G36*
X79392979Y-61250373D02*
X79233689Y-61416620D01*
X79141890Y-61487505D01*
X79106213Y-61467218D01*
X79115289Y-61359946D01*
X79116757Y-61352147D01*
X79109371Y-61227199D01*
X79036876Y-61184500D01*
X79197500Y-61184500D01*
X79245821Y-61246154D01*
X79261000Y-61248000D01*
X79322654Y-61199678D01*
X79324500Y-61184500D01*
X79276178Y-61122845D01*
X79261000Y-61121000D01*
X79199345Y-61169321D01*
X79197500Y-61184500D01*
X79036876Y-61184500D01*
X79004623Y-61165504D01*
X78999599Y-61164165D01*
X78894748Y-61124804D01*
X78906868Y-61090420D01*
X79039401Y-61059325D01*
X79268399Y-61032385D01*
X79622989Y-60998747D01*
X79392979Y-61250373D01*
X79392979Y-61250373D01*
G37*
X79392979Y-61250373D02*
X79233689Y-61416620D01*
X79141890Y-61487505D01*
X79106213Y-61467218D01*
X79115289Y-61359946D01*
X79116757Y-61352147D01*
X79109371Y-61227199D01*
X79036876Y-61184500D01*
X79197500Y-61184500D01*
X79245821Y-61246154D01*
X79261000Y-61248000D01*
X79322654Y-61199678D01*
X79324500Y-61184500D01*
X79276178Y-61122845D01*
X79261000Y-61121000D01*
X79199345Y-61169321D01*
X79197500Y-61184500D01*
X79036876Y-61184500D01*
X79004623Y-61165504D01*
X78999599Y-61164165D01*
X78894748Y-61124804D01*
X78906868Y-61090420D01*
X79039401Y-61059325D01*
X79268399Y-61032385D01*
X79622989Y-60998747D01*
X79392979Y-61250373D01*
G36*
X68633311Y-60886891D02*
X68659653Y-60900380D01*
X68792405Y-60987295D01*
X68844037Y-61057279D01*
X68806365Y-61088827D01*
X68727166Y-61077773D01*
X68602226Y-61085889D01*
X68550015Y-61161680D01*
X68593408Y-61261744D01*
X68618848Y-61283287D01*
X68694730Y-61358099D01*
X68675019Y-61388864D01*
X68583810Y-61374005D01*
X68445198Y-61311943D01*
X68418375Y-61296418D01*
X68291000Y-61204470D01*
X68220051Y-61125642D01*
X68216255Y-61082311D01*
X68290340Y-61096854D01*
X68332652Y-61117602D01*
X68437696Y-61146605D01*
X68492498Y-61080038D01*
X68489930Y-60947226D01*
X68459320Y-60890701D01*
X68417485Y-60817599D01*
X68474598Y-60816287D01*
X68633311Y-60886891D01*
X68633311Y-60886891D01*
G37*
X68633311Y-60886891D02*
X68659653Y-60900380D01*
X68792405Y-60987295D01*
X68844037Y-61057279D01*
X68806365Y-61088827D01*
X68727166Y-61077773D01*
X68602226Y-61085889D01*
X68550015Y-61161680D01*
X68593408Y-61261744D01*
X68618848Y-61283287D01*
X68694730Y-61358099D01*
X68675019Y-61388864D01*
X68583810Y-61374005D01*
X68445198Y-61311943D01*
X68418375Y-61296418D01*
X68291000Y-61204470D01*
X68220051Y-61125642D01*
X68216255Y-61082311D01*
X68290340Y-61096854D01*
X68332652Y-61117602D01*
X68437696Y-61146605D01*
X68492498Y-61080038D01*
X68489930Y-60947226D01*
X68459320Y-60890701D01*
X68417485Y-60817599D01*
X68474598Y-60816287D01*
X68633311Y-60886891D01*
G36*
X69100494Y-60277235D02*
X69198184Y-60385003D01*
X69286246Y-60513400D01*
X69334520Y-60620520D01*
X69330445Y-60658721D01*
X69251646Y-60662987D01*
X69124812Y-60620937D01*
X68975503Y-60572659D01*
X68921959Y-60600945D01*
X68970984Y-60699032D01*
X69005397Y-60739610D01*
X69066924Y-60830645D01*
X69051665Y-60867000D01*
X68972895Y-60819640D01*
X68866504Y-60702736D01*
X68844396Y-60672843D01*
X68752265Y-60517934D01*
X68757753Y-60443022D01*
X68863921Y-60443325D01*
X68970758Y-60475354D01*
X69117517Y-60513629D01*
X69156808Y-60484976D01*
X69091736Y-60384939D01*
X69059408Y-60348125D01*
X69004406Y-60262381D01*
X69023334Y-60232000D01*
X69100494Y-60277235D01*
X69100494Y-60277235D01*
G37*
X69100494Y-60277235D02*
X69198184Y-60385003D01*
X69286246Y-60513400D01*
X69334520Y-60620520D01*
X69330445Y-60658721D01*
X69251646Y-60662987D01*
X69124812Y-60620937D01*
X68975503Y-60572659D01*
X68921959Y-60600945D01*
X68970984Y-60699032D01*
X69005397Y-60739610D01*
X69066924Y-60830645D01*
X69051665Y-60867000D01*
X68972895Y-60819640D01*
X68866504Y-60702736D01*
X68844396Y-60672843D01*
X68752265Y-60517934D01*
X68757753Y-60443022D01*
X68863921Y-60443325D01*
X68970758Y-60475354D01*
X69117517Y-60513629D01*
X69156808Y-60484976D01*
X69091736Y-60384939D01*
X69059408Y-60348125D01*
X69004406Y-60262381D01*
X69023334Y-60232000D01*
X69100494Y-60277235D01*
G36*
X78872514Y-60339841D02*
X78977669Y-60428925D01*
X79011806Y-60464489D01*
X79089896Y-60560124D01*
X79095570Y-60591063D01*
X79081214Y-60584552D01*
X78974739Y-60593015D01*
X78822902Y-60702272D01*
X78811339Y-60713193D01*
X78697113Y-60812043D01*
X78631874Y-60847987D01*
X78626000Y-60841271D01*
X78661771Y-60761487D01*
X78748356Y-60636268D01*
X78753325Y-60629913D01*
X78834722Y-60496773D01*
X78824251Y-60402764D01*
X78809049Y-60381773D01*
X78762574Y-60305809D01*
X78792273Y-60295317D01*
X78872514Y-60339841D01*
X78872514Y-60339841D01*
G37*
X78872514Y-60339841D02*
X78977669Y-60428925D01*
X79011806Y-60464489D01*
X79089896Y-60560124D01*
X79095570Y-60591063D01*
X79081214Y-60584552D01*
X78974739Y-60593015D01*
X78822902Y-60702272D01*
X78811339Y-60713193D01*
X78697113Y-60812043D01*
X78631874Y-60847987D01*
X78626000Y-60841271D01*
X78661771Y-60761487D01*
X78748356Y-60636268D01*
X78753325Y-60629913D01*
X78834722Y-60496773D01*
X78824251Y-60402764D01*
X78809049Y-60381773D01*
X78762574Y-60305809D01*
X78792273Y-60295317D01*
X78872514Y-60339841D01*
G36*
X78203692Y-59987397D02*
X78225361Y-60015574D01*
X78293136Y-60169084D01*
X78313513Y-60291761D01*
X78318526Y-60454250D01*
X78382304Y-60279625D01*
X78445580Y-60154683D01*
X78504291Y-60105000D01*
X78552582Y-60126865D01*
X78541903Y-60206793D01*
X78467769Y-60366282D01*
X78438047Y-60422500D01*
X78318918Y-60644750D01*
X78250209Y-60465991D01*
X78199047Y-60312831D01*
X78177202Y-60211991D01*
X78152252Y-60202424D01*
X78103998Y-60279625D01*
X78029347Y-60403264D01*
X77987686Y-60417079D01*
X77987026Y-60335765D01*
X78035379Y-60174017D01*
X78039969Y-60162188D01*
X78106596Y-60006722D01*
X78153910Y-59954200D01*
X78203692Y-59987397D01*
X78203692Y-59987397D01*
G37*
X78203692Y-59987397D02*
X78225361Y-60015574D01*
X78293136Y-60169084D01*
X78313513Y-60291761D01*
X78318526Y-60454250D01*
X78382304Y-60279625D01*
X78445580Y-60154683D01*
X78504291Y-60105000D01*
X78552582Y-60126865D01*
X78541903Y-60206793D01*
X78467769Y-60366282D01*
X78438047Y-60422500D01*
X78318918Y-60644750D01*
X78250209Y-60465991D01*
X78199047Y-60312831D01*
X78177202Y-60211991D01*
X78152252Y-60202424D01*
X78103998Y-60279625D01*
X78029347Y-60403264D01*
X77987686Y-60417079D01*
X77987026Y-60335765D01*
X78035379Y-60174017D01*
X78039969Y-60162188D01*
X78106596Y-60006722D01*
X78153910Y-59954200D01*
X78203692Y-59987397D01*
G36*
X69410852Y-60026128D02*
X69473721Y-60125194D01*
X69505506Y-60194124D01*
X69569971Y-60371698D01*
X69581501Y-60460205D01*
X69545581Y-60449270D01*
X69467695Y-60328518D01*
X69451075Y-60297096D01*
X69388313Y-60142820D01*
X69371642Y-60030063D01*
X69373815Y-60021320D01*
X69410852Y-60026128D01*
X69410852Y-60026128D01*
G37*
X69410852Y-60026128D02*
X69473721Y-60125194D01*
X69505506Y-60194124D01*
X69569971Y-60371698D01*
X69581501Y-60460205D01*
X69545581Y-60449270D01*
X69467695Y-60328518D01*
X69451075Y-60297096D01*
X69388313Y-60142820D01*
X69371642Y-60030063D01*
X69373815Y-60021320D01*
X69410852Y-60026128D01*
G36*
X70101966Y-59846384D02*
X70163842Y-59892603D01*
X70117525Y-59910133D01*
X70044418Y-59912569D01*
X69889265Y-59955359D01*
X69835478Y-60063110D01*
X69892239Y-60207555D01*
X69971975Y-60284542D01*
X70055671Y-60255685D01*
X70079913Y-60236429D01*
X70180488Y-60185408D01*
X70227820Y-60194653D01*
X70223541Y-60255665D01*
X70138604Y-60319120D01*
X70015451Y-60356244D01*
X69986825Y-60358027D01*
X69856721Y-60316766D01*
X69812200Y-60282800D01*
X69738459Y-60142329D01*
X69753774Y-59995024D01*
X69835661Y-59874750D01*
X69961634Y-59815370D01*
X70101966Y-59846384D01*
X70101966Y-59846384D01*
G37*
X70101966Y-59846384D02*
X70163842Y-59892603D01*
X70117525Y-59910133D01*
X70044418Y-59912569D01*
X69889265Y-59955359D01*
X69835478Y-60063110D01*
X69892239Y-60207555D01*
X69971975Y-60284542D01*
X70055671Y-60255685D01*
X70079913Y-60236429D01*
X70180488Y-60185408D01*
X70227820Y-60194653D01*
X70223541Y-60255665D01*
X70138604Y-60319120D01*
X70015451Y-60356244D01*
X69986825Y-60358027D01*
X69856721Y-60316766D01*
X69812200Y-60282800D01*
X69738459Y-60142329D01*
X69753774Y-59995024D01*
X69835661Y-59874750D01*
X69961634Y-59815370D01*
X70101966Y-59846384D01*
G36*
X77747920Y-59806938D02*
X77800500Y-59852209D01*
X77747818Y-59887895D01*
X77633471Y-59874998D01*
X77517047Y-59869977D01*
X77489849Y-59917056D01*
X77544184Y-59986262D01*
X77672359Y-60047623D01*
X77678207Y-60049293D01*
X77780904Y-60080582D01*
X77766086Y-60093314D01*
X77657625Y-60098670D01*
X77530774Y-60121574D01*
X77483000Y-60163208D01*
X77535929Y-60224187D01*
X77657625Y-60285195D01*
X77758728Y-60329041D01*
X77741266Y-60346042D01*
X77705250Y-60346620D01*
X77537754Y-60329724D01*
X77467125Y-60315227D01*
X77377725Y-60246539D01*
X77362447Y-60097126D01*
X77396023Y-59930375D01*
X77464623Y-59820196D01*
X77610772Y-59787529D01*
X77617406Y-59787500D01*
X77747920Y-59806938D01*
X77747920Y-59806938D01*
G37*
X77747920Y-59806938D02*
X77800500Y-59852209D01*
X77747818Y-59887895D01*
X77633471Y-59874998D01*
X77517047Y-59869977D01*
X77489849Y-59917056D01*
X77544184Y-59986262D01*
X77672359Y-60047623D01*
X77678207Y-60049293D01*
X77780904Y-60080582D01*
X77766086Y-60093314D01*
X77657625Y-60098670D01*
X77530774Y-60121574D01*
X77483000Y-60163208D01*
X77535929Y-60224187D01*
X77657625Y-60285195D01*
X77758728Y-60329041D01*
X77741266Y-60346042D01*
X77705250Y-60346620D01*
X77537754Y-60329724D01*
X77467125Y-60315227D01*
X77377725Y-60246539D01*
X77362447Y-60097126D01*
X77396023Y-59930375D01*
X77464623Y-59820196D01*
X77610772Y-59787529D01*
X77617406Y-59787500D01*
X77747920Y-59806938D01*
G36*
X70548154Y-59777636D02*
X70561500Y-59862068D01*
X70566340Y-59948843D01*
X70599991Y-59957501D01*
X70691147Y-59885428D01*
X70735670Y-59846193D01*
X70833100Y-59764019D01*
X70843265Y-59768432D01*
X70798197Y-59825324D01*
X70728228Y-59923297D01*
X70732302Y-60002962D01*
X70814343Y-60120851D01*
X70819136Y-60126949D01*
X70889681Y-60238088D01*
X70892088Y-60293944D01*
X70884146Y-60295500D01*
X70801140Y-60247289D01*
X70737263Y-60168500D01*
X70657399Y-60069562D01*
X70609725Y-60041500D01*
X70570508Y-60094809D01*
X70561500Y-60168500D01*
X70534907Y-60271685D01*
X70498000Y-60295500D01*
X70460130Y-60238744D01*
X70437413Y-60095146D01*
X70434500Y-60009750D01*
X70447112Y-59839335D01*
X70479022Y-59737111D01*
X70498000Y-59724000D01*
X70548154Y-59777636D01*
X70548154Y-59777636D01*
G37*
X70548154Y-59777636D02*
X70561500Y-59862068D01*
X70566340Y-59948843D01*
X70599991Y-59957501D01*
X70691147Y-59885428D01*
X70735670Y-59846193D01*
X70833100Y-59764019D01*
X70843265Y-59768432D01*
X70798197Y-59825324D01*
X70728228Y-59923297D01*
X70732302Y-60002962D01*
X70814343Y-60120851D01*
X70819136Y-60126949D01*
X70889681Y-60238088D01*
X70892088Y-60293944D01*
X70884146Y-60295500D01*
X70801140Y-60247289D01*
X70737263Y-60168500D01*
X70657399Y-60069562D01*
X70609725Y-60041500D01*
X70570508Y-60094809D01*
X70561500Y-60168500D01*
X70534907Y-60271685D01*
X70498000Y-60295500D01*
X70460130Y-60238744D01*
X70437413Y-60095146D01*
X70434500Y-60009750D01*
X70447112Y-59839335D01*
X70479022Y-59737111D01*
X70498000Y-59724000D01*
X70548154Y-59777636D01*
G36*
X71307625Y-59733514D02*
X71442724Y-59741791D01*
X71457217Y-59753253D01*
X71371125Y-59769482D01*
X71232448Y-59823594D01*
X71205171Y-59903741D01*
X71289294Y-59974969D01*
X71371125Y-59996017D01*
X71545750Y-60022471D01*
X71371125Y-60031985D01*
X71236551Y-60068802D01*
X71196500Y-60132532D01*
X71251691Y-60207511D01*
X71371125Y-60250017D01*
X71460717Y-60267516D01*
X71435517Y-60278538D01*
X71307625Y-60285985D01*
X71069500Y-60295500D01*
X71069500Y-59724000D01*
X71307625Y-59733514D01*
X71307625Y-59733514D01*
G37*
X71307625Y-59733514D02*
X71442724Y-59741791D01*
X71457217Y-59753253D01*
X71371125Y-59769482D01*
X71232448Y-59823594D01*
X71205171Y-59903741D01*
X71289294Y-59974969D01*
X71371125Y-59996017D01*
X71545750Y-60022471D01*
X71371125Y-60031985D01*
X71236551Y-60068802D01*
X71196500Y-60132532D01*
X71251691Y-60207511D01*
X71371125Y-60250017D01*
X71460717Y-60267516D01*
X71435517Y-60278538D01*
X71307625Y-60285985D01*
X71069500Y-60295500D01*
X71069500Y-59724000D01*
X71307625Y-59733514D01*
G36*
X72449713Y-59778607D02*
X72517384Y-59917351D01*
X72551926Y-60009750D01*
X72597231Y-60175304D01*
X72604083Y-60278448D01*
X72589645Y-60295500D01*
X72531706Y-60247062D01*
X72530000Y-60232000D01*
X72481330Y-60178218D01*
X72371597Y-60175030D01*
X72255213Y-60220167D01*
X72225200Y-60244700D01*
X72160032Y-60282715D01*
X72149000Y-60252454D01*
X72173839Y-60135697D01*
X72234041Y-59980555D01*
X72251222Y-59946250D01*
X72339500Y-59946250D01*
X72372731Y-60030769D01*
X72401007Y-60041500D01*
X72435945Y-59994954D01*
X72425963Y-59946250D01*
X72380891Y-59862698D01*
X72364456Y-59851000D01*
X72342258Y-59902852D01*
X72339500Y-59946250D01*
X72251222Y-59946250D01*
X72308131Y-59832627D01*
X72374633Y-59737511D01*
X72397883Y-59724000D01*
X72449713Y-59778607D01*
X72449713Y-59778607D01*
G37*
X72449713Y-59778607D02*
X72517384Y-59917351D01*
X72551926Y-60009750D01*
X72597231Y-60175304D01*
X72604083Y-60278448D01*
X72589645Y-60295500D01*
X72531706Y-60247062D01*
X72530000Y-60232000D01*
X72481330Y-60178218D01*
X72371597Y-60175030D01*
X72255213Y-60220167D01*
X72225200Y-60244700D01*
X72160032Y-60282715D01*
X72149000Y-60252454D01*
X72173839Y-60135697D01*
X72234041Y-59980555D01*
X72251222Y-59946250D01*
X72339500Y-59946250D01*
X72372731Y-60030769D01*
X72401007Y-60041500D01*
X72435945Y-59994954D01*
X72425963Y-59946250D01*
X72380891Y-59862698D01*
X72364456Y-59851000D01*
X72342258Y-59902852D01*
X72339500Y-59946250D01*
X72251222Y-59946250D01*
X72308131Y-59832627D01*
X72374633Y-59737511D01*
X72397883Y-59724000D01*
X72449713Y-59778607D01*
G36*
X73498375Y-59730329D02*
X73626889Y-59737350D01*
X73637166Y-59752235D01*
X73550707Y-59779706D01*
X73409884Y-59846526D01*
X73380227Y-59921849D01*
X73464422Y-59981875D01*
X73526360Y-59995654D01*
X73704750Y-60022471D01*
X73524833Y-60031985D01*
X73396708Y-60066831D01*
X73377707Y-60134276D01*
X73464529Y-60207834D01*
X73550707Y-60239793D01*
X73640742Y-60269079D01*
X73620539Y-60282952D01*
X73498375Y-60289170D01*
X73371570Y-60286295D01*
X73311511Y-60244826D01*
X73293259Y-60130997D01*
X73292000Y-60009750D01*
X73296884Y-59834324D01*
X73328164Y-59752125D01*
X73410779Y-59729386D01*
X73498375Y-59730329D01*
X73498375Y-59730329D01*
G37*
X73498375Y-59730329D02*
X73626889Y-59737350D01*
X73637166Y-59752235D01*
X73550707Y-59779706D01*
X73409884Y-59846526D01*
X73380227Y-59921849D01*
X73464422Y-59981875D01*
X73526360Y-59995654D01*
X73704750Y-60022471D01*
X73524833Y-60031985D01*
X73396708Y-60066831D01*
X73377707Y-60134276D01*
X73464529Y-60207834D01*
X73550707Y-60239793D01*
X73640742Y-60269079D01*
X73620539Y-60282952D01*
X73498375Y-60289170D01*
X73371570Y-60286295D01*
X73311511Y-60244826D01*
X73293259Y-60130997D01*
X73292000Y-60009750D01*
X73296884Y-59834324D01*
X73328164Y-59752125D01*
X73410779Y-59729386D01*
X73498375Y-59730329D01*
G36*
X74270347Y-59766084D02*
X74232701Y-59846295D01*
X74188225Y-59978485D01*
X74230802Y-60132045D01*
X74273231Y-60261908D01*
X74245404Y-60288429D01*
X74159444Y-60204271D01*
X74144301Y-60184375D01*
X74076316Y-60111128D01*
X74017630Y-60135406D01*
X73964695Y-60200250D01*
X73892561Y-60276877D01*
X73865519Y-60275450D01*
X73891150Y-60183491D01*
X73932882Y-60094008D01*
X73969598Y-59963659D01*
X73932882Y-59894982D01*
X73865278Y-59797530D01*
X73883362Y-59756659D01*
X73969913Y-59801033D01*
X73982654Y-59812149D01*
X74074689Y-59882168D01*
X74121523Y-59861636D01*
X74139411Y-59821991D01*
X74206629Y-59736152D01*
X74243045Y-59723999D01*
X74270347Y-59766084D01*
X74270347Y-59766084D01*
G37*
X74270347Y-59766084D02*
X74232701Y-59846295D01*
X74188225Y-59978485D01*
X74230802Y-60132045D01*
X74273231Y-60261908D01*
X74245404Y-60288429D01*
X74159444Y-60204271D01*
X74144301Y-60184375D01*
X74076316Y-60111128D01*
X74017630Y-60135406D01*
X73964695Y-60200250D01*
X73892561Y-60276877D01*
X73865519Y-60275450D01*
X73891150Y-60183491D01*
X73932882Y-60094008D01*
X73969598Y-59963659D01*
X73932882Y-59894982D01*
X73865278Y-59797530D01*
X73883362Y-59756659D01*
X73969913Y-59801033D01*
X73982654Y-59812149D01*
X74074689Y-59882168D01*
X74121523Y-59861636D01*
X74139411Y-59821991D01*
X74206629Y-59736152D01*
X74243045Y-59723999D01*
X74270347Y-59766084D01*
G36*
X74793395Y-59772835D02*
X74843200Y-59845465D01*
X74847750Y-59914500D01*
X74812225Y-60046088D01*
X74708779Y-60093029D01*
X74587063Y-60152084D01*
X74543981Y-60220029D01*
X74517975Y-60294065D01*
X74484040Y-60248819D01*
X74471841Y-60221489D01*
X74444087Y-60080444D01*
X74446139Y-59935739D01*
X74451897Y-59914500D01*
X74562000Y-59914500D01*
X74615184Y-59966092D01*
X74689000Y-59978000D01*
X74792185Y-59951407D01*
X74816000Y-59914500D01*
X74762815Y-59862907D01*
X74689000Y-59851000D01*
X74585814Y-59877592D01*
X74562000Y-59914500D01*
X74451897Y-59914500D01*
X74481170Y-59806531D01*
X74573835Y-59759894D01*
X74657250Y-59755750D01*
X74793395Y-59772835D01*
X74793395Y-59772835D01*
G37*
X74793395Y-59772835D02*
X74843200Y-59845465D01*
X74847750Y-59914500D01*
X74812225Y-60046088D01*
X74708779Y-60093029D01*
X74587063Y-60152084D01*
X74543981Y-60220029D01*
X74517975Y-60294065D01*
X74484040Y-60248819D01*
X74471841Y-60221489D01*
X74444087Y-60080444D01*
X74446139Y-59935739D01*
X74451897Y-59914500D01*
X74562000Y-59914500D01*
X74615184Y-59966092D01*
X74689000Y-59978000D01*
X74792185Y-59951407D01*
X74816000Y-59914500D01*
X74762815Y-59862907D01*
X74689000Y-59851000D01*
X74585814Y-59877592D01*
X74562000Y-59914500D01*
X74451897Y-59914500D01*
X74481170Y-59806531D01*
X74573835Y-59759894D01*
X74657250Y-59755750D01*
X74793395Y-59772835D01*
G36*
X75394256Y-59742393D02*
X75450985Y-59786709D01*
X75451000Y-59787500D01*
X75397815Y-59839092D01*
X75324000Y-59851000D01*
X75215224Y-59877961D01*
X75211476Y-59935707D01*
X75308973Y-59989527D01*
X75339875Y-59996685D01*
X75482750Y-60024204D01*
X75339875Y-60032852D01*
X75223086Y-60073250D01*
X75204639Y-60148936D01*
X75279007Y-60222119D01*
X75371625Y-60250017D01*
X75461217Y-60267516D01*
X75436017Y-60278538D01*
X75308125Y-60285985D01*
X75070000Y-60295500D01*
X75070000Y-60009750D01*
X75075522Y-59834037D01*
X75107407Y-59750814D01*
X75188631Y-59725615D01*
X75260500Y-59724000D01*
X75394256Y-59742393D01*
X75394256Y-59742393D01*
G37*
X75394256Y-59742393D02*
X75450985Y-59786709D01*
X75451000Y-59787500D01*
X75397815Y-59839092D01*
X75324000Y-59851000D01*
X75215224Y-59877961D01*
X75211476Y-59935707D01*
X75308973Y-59989527D01*
X75339875Y-59996685D01*
X75482750Y-60024204D01*
X75339875Y-60032852D01*
X75223086Y-60073250D01*
X75204639Y-60148936D01*
X75279007Y-60222119D01*
X75371625Y-60250017D01*
X75461217Y-60267516D01*
X75436017Y-60278538D01*
X75308125Y-60285985D01*
X75070000Y-60295500D01*
X75070000Y-60009750D01*
X75075522Y-59834037D01*
X75107407Y-59750814D01*
X75188631Y-59725615D01*
X75260500Y-59724000D01*
X75394256Y-59742393D01*
G36*
X75987252Y-59755150D02*
X76095733Y-59827901D01*
X76132031Y-59924994D01*
X76098980Y-59990419D01*
X76063081Y-60102152D01*
X76091206Y-60178227D01*
X76120664Y-60275979D01*
X76086241Y-60295500D01*
X76006901Y-60244704D01*
X75981963Y-60200250D01*
X75902011Y-60115856D01*
X75856956Y-60105000D01*
X75778702Y-60155976D01*
X75768500Y-60200250D01*
X75732281Y-60284723D01*
X75701348Y-60295500D01*
X75661919Y-60238034D01*
X75650758Y-60085581D01*
X75653723Y-60025625D01*
X75668035Y-59914500D01*
X75768500Y-59914500D01*
X75821684Y-59966092D01*
X75895500Y-59978000D01*
X75998685Y-59951407D01*
X76022500Y-59914500D01*
X75969315Y-59862907D01*
X75895500Y-59851000D01*
X75792314Y-59877592D01*
X75768500Y-59914500D01*
X75668035Y-59914500D01*
X75676004Y-59852633D01*
X75725357Y-59769251D01*
X75825527Y-59738130D01*
X75837435Y-59736664D01*
X75987252Y-59755150D01*
X75987252Y-59755150D01*
G37*
X75987252Y-59755150D02*
X76095733Y-59827901D01*
X76132031Y-59924994D01*
X76098980Y-59990419D01*
X76063081Y-60102152D01*
X76091206Y-60178227D01*
X76120664Y-60275979D01*
X76086241Y-60295500D01*
X76006901Y-60244704D01*
X75981963Y-60200250D01*
X75902011Y-60115856D01*
X75856956Y-60105000D01*
X75778702Y-60155976D01*
X75768500Y-60200250D01*
X75732281Y-60284723D01*
X75701348Y-60295500D01*
X75661919Y-60238034D01*
X75650758Y-60085581D01*
X75653723Y-60025625D01*
X75668035Y-59914500D01*
X75768500Y-59914500D01*
X75821684Y-59966092D01*
X75895500Y-59978000D01*
X75998685Y-59951407D01*
X76022500Y-59914500D01*
X75969315Y-59862907D01*
X75895500Y-59851000D01*
X75792314Y-59877592D01*
X75768500Y-59914500D01*
X75668035Y-59914500D01*
X75676004Y-59852633D01*
X75725357Y-59769251D01*
X75825527Y-59738130D01*
X75837435Y-59736664D01*
X75987252Y-59755150D01*
G36*
X76385566Y-59867748D02*
X76396012Y-60055542D01*
X76384699Y-60185248D01*
X76369827Y-60210800D01*
X76360240Y-60127602D01*
X76358161Y-60009750D01*
X76362913Y-59865673D01*
X76374292Y-59823531D01*
X76385566Y-59867748D01*
X76385566Y-59867748D01*
G37*
X76385566Y-59867748D02*
X76396012Y-60055542D01*
X76384699Y-60185248D01*
X76369827Y-60210800D01*
X76360240Y-60127602D01*
X76358161Y-60009750D01*
X76362913Y-59865673D01*
X76374292Y-59823531D01*
X76385566Y-59867748D01*
G36*
X76718178Y-59760629D02*
X76791936Y-59908778D01*
X76796677Y-59922137D01*
X76865748Y-60120274D01*
X76949058Y-59922137D01*
X77034964Y-59767358D01*
X77104660Y-59736239D01*
X77150629Y-59825734D01*
X77165500Y-60009750D01*
X77152887Y-60180164D01*
X77120977Y-60282388D01*
X77102000Y-60295500D01*
X77054996Y-60240649D01*
X77035635Y-60120875D01*
X77032771Y-59946250D01*
X76863575Y-60327250D01*
X76782145Y-60136750D01*
X76700716Y-59946250D01*
X76654871Y-60136750D01*
X76627525Y-60234871D01*
X76612260Y-60231181D01*
X76604124Y-60115368D01*
X76601512Y-60025625D01*
X76613415Y-59824117D01*
X76655488Y-59734096D01*
X76718178Y-59760629D01*
X76718178Y-59760629D01*
G37*
X76718178Y-59760629D02*
X76791936Y-59908778D01*
X76796677Y-59922137D01*
X76865748Y-60120274D01*
X76949058Y-59922137D01*
X77034964Y-59767358D01*
X77104660Y-59736239D01*
X77150629Y-59825734D01*
X77165500Y-60009750D01*
X77152887Y-60180164D01*
X77120977Y-60282388D01*
X77102000Y-60295500D01*
X77054996Y-60240649D01*
X77035635Y-60120875D01*
X77032771Y-59946250D01*
X76863575Y-60327250D01*
X76782145Y-60136750D01*
X76700716Y-59946250D01*
X76654871Y-60136750D01*
X76627525Y-60234871D01*
X76612260Y-60231181D01*
X76604124Y-60115368D01*
X76601512Y-60025625D01*
X76613415Y-59824117D01*
X76655488Y-59734096D01*
X76718178Y-59760629D01*
G36*
X71387000Y-59628750D02*
X71355250Y-59660500D01*
X71323500Y-59628750D01*
X71355250Y-59597000D01*
X71387000Y-59628750D01*
X71387000Y-59628750D01*
G37*
X71387000Y-59628750D02*
X71355250Y-59660500D01*
X71323500Y-59628750D01*
X71355250Y-59597000D01*
X71387000Y-59628750D01*
M02*
