M48
INCH,TZ
T1C0.014
T2C0.020
T3C0.022
T4C0.039
T5C0.051
T6C0.067
T7C0.079
T8C0.252
%
G90
G05
T1
X10039Y-6240
X10039Y-6831
X10039Y-7421
X10039Y-13858
X10039Y-14449
X10039Y-15039
X10039Y-15630
X10039Y-16220
X10039Y-16811
X10039Y-17402
X10039Y-17992
X10039Y-18583
X10236Y-10945
X10630Y-6240
X10630Y-6831
X10630Y-7421
X10630Y-14449
X10630Y-15039
X10630Y-15630
X10630Y-16220
X10630Y-16811
X10630Y-17402
X10630Y-17992
X10630Y-18583
X10807Y-12323
X11220Y-6240
X11220Y-6831
X11220Y-7421
X11220Y-14449
X11220Y-15039
X11220Y-15630
X11220Y-16220
X11220Y-16811
X11220Y-17402
X11220Y-17992
X11220Y-18583
X11772Y-12598
X11811Y-5945
X11811Y-6535
X11811Y-15039
X11811Y-15630
X11811Y-16220
X11811Y-16811
X11811Y-17402
X11811Y-17992
X11811Y-18583
X11890Y-11496
X12402Y-5945
X12402Y-6535
X12402Y-14449
X12402Y-15630
X12402Y-16220
X12402Y-16811
X12402Y-17402
X12402Y-17992
X12402Y-18583
X12618Y-7913
X12638Y-8366
X12638Y-8957
X12638Y-9547
X12756Y-11004
X12992Y-5945
X12992Y-6535
X12992Y-17992
X12992Y-18583
X13228Y-7776
X13228Y-8366
X13228Y-8957
X13228Y-9547
X13583Y-5945
X13583Y-17992
X13583Y-18583
X13740Y-14764
X13799Y-10531
X14173Y-17992
X14173Y-18583
X14213Y-8780
X14488Y-11043
X14488Y-11634
X14488Y-12224
X14528Y-12835
X14567Y-5669
X14567Y-6575
X14764Y-16811
X14764Y-17402
X14764Y-17992
X14764Y-18583
X14902Y-7972
X14980Y-8386
X15079Y-11043
X15079Y-11634
X15157Y-5669
X15157Y-6575
X15354Y-16220
X15354Y-16811
X15354Y-17402
X15354Y-17992
X15354Y-18583
X15571Y-8307
X15748Y-5669
X15748Y-6575
X15886Y-10886
X15886Y-11476
X15886Y-12067
X15886Y-12657
X15906Y-7913
X15945Y-16220
X15945Y-16811
X15945Y-17402
X15945Y-17992
X15945Y-18583
X16142Y-15236
X16339Y-5669
X16339Y-6575
X16457Y-13780
X16476Y-12067
X16535Y-13228
X16535Y-16220
X16535Y-16811
X16535Y-17402
X16535Y-17992
X16535Y-18583
X16850Y-15157
X16929Y-5669
X16929Y-6575
X17126Y-12638
X17126Y-16811
X17126Y-18583
X17165Y-8522
X17205Y-9665
X17323Y-11063
X17323Y-11339
X17992Y-10591
X23543Y-11063
X24134Y-11063
X24724Y-11063
X25079Y-7008
X25315Y-11063
X25669Y-7008
X25984Y-10945
X26063Y-6614
X26299Y-12421
X26299Y-13012
X26575Y-8858
X26654Y-6614
X26890Y-12421
X26890Y-13012
X26969Y-9843
X27101Y-7829
X27243Y-8291
X27244Y-6594
X27244Y-9528
X27502Y-10481
X27638Y-11417
X27638Y-12008
X27646Y-15709
X27854Y-16496
X28228Y-11417
X28228Y-12008
X28681Y-13071
X28681Y-13661
X28780Y-7559
X28819Y-9370
X28819Y-9744
X29075Y-12736
X29134Y-9961
X29134Y-12087
X29134Y-14803
X29173Y-11220
X29429Y-10374
X29685Y-16181
X29705Y-15354
X29862Y-10689
X29882Y-14626
X29882Y-14350
X29966Y-13465
X30000Y-12165
X30079Y-11142
X30276Y-16181
X30315Y-12165
X30433Y-12618
X30433Y-13150
X30748Y-12618
X30748Y-17854
X30748Y-18524
X30787Y-11161
X30787Y-11752
X30866Y-16181
X31240Y-8740
X31339Y-17854
X31339Y-18524
X31378Y-11161
X31378Y-11752
X31929Y-17854
X31929Y-18524
X32362Y-14724
X32362Y-15261
X32756Y-16063
X33031Y-18386
X33209Y-18524
X33346Y-16063
X33465Y-14055
X33654Y-13441
X33661Y-12638
X33937Y-15551
X33937Y-16063
X33949Y-14354
X34244Y-12850
X34539Y-13764
X34665Y-14634
X35130Y-13173
X35256Y-14043
X35276Y-15197
X35276Y-15433
X35453Y-11850
X35630Y-13701
X36024Y-13465
X36063Y-13004
X36654Y-16181
X36654Y-16457
X36654Y-16732
T4
X34488Y-17106
T5
X28268Y-10354
T6
X31102Y-14528
T7
X10787Y-26732
X10787Y-35591
X13150Y-26732
X13150Y-35591
X18031Y-17520
X20157Y-6732
X24094Y-6732
X27480Y-35591
X28504Y-17520
X29843Y-35591
X37244Y-6732
X38425Y-26673
X40787Y-26673
T8
X14528Y-24016
X14528Y-32854
X31220Y-32854
T2
X37977Y-10748G85X37721Y-10748
G05
X37977Y-13504G85X37721Y-13504
G05
T3
X36786Y-11201G85X36786Y-11083
G05
X36786Y-13170G85X36786Y-13052
G05
T0
M30
